<svg width="35" height="36" viewBox="0 0 35 36" fill="none" xmlns="http://www.w3.org/2000/svg">
<path d="M5.98313 0.586426C15.0727 14.5108 13.978 16.6303 0.418945 4.7288C6.60463 12.4275 14.0047 18.5082 21.7847 24.0813C18.2456 28.1457 16.9227 32.7056 18.8692 34.5739C20.9436 36.565 25.9435 34.744 30.0206 30.4965C34.0976 26.249 35.7108 21.1786 33.6365 19.1874C31.6771 17.3069 27.1311 18.8482 23.1971 22.6039C17.8552 14.8691 12.4431 7.20332 5.98305 0.586426H5.98313ZM30.0972 20.3866C30.8294 20.3762 31.4505 20.5727 31.897 21.0013C33.4843 22.5248 32.2613 26.402 29.1416 29.6522C26.0218 32.9025 22.1682 34.3139 20.5809 32.7904C19.1001 31.3691 20.1115 27.8925 22.7867 24.7933C23.0618 24.9881 23.3363 25.184 23.6123 25.3778C21.6455 27.6841 20.9226 30.2422 22.0236 31.299C23.2133 32.4412 26.0796 31.395 28.418 28.9588C30.7564 26.5226 31.6836 23.6158 30.4939 22.474C29.3654 21.391 26.74 22.286 24.4774 24.4593C24.2849 24.18 24.0924 23.9012 23.9 23.622C26.0171 21.596 28.3665 20.411 30.0972 20.3866ZM28.462 23.1605C28.8821 23.1546 29.2381 23.2674 29.4941 23.513C30.4046 24.3869 29.704 26.6123 27.9148 28.4764C26.1254 30.3406 23.9151 31.1501 23.0046 30.2762C22.17 29.4752 22.7169 27.5353 24.1921 25.7814C24.6356 26.0911 25.0805 26.3994 25.5258 26.7069C24.8025 27.5233 24.4847 28.3887 24.8161 28.72C25.18 29.0839 26.1878 28.6655 27.0681 27.7852C27.9483 26.905 28.3668 25.8949 28.0028 25.5308C27.6482 25.1762 26.6817 25.5662 25.8179 26.4007C25.5054 25.9485 25.1931 25.4962 24.8809 25.0437C26.1026 23.8655 27.4618 23.1746 28.462 23.1604V23.1605Z" fill="white"/>
</svg>
