<svg width="14" height="14" viewBox="0 0 14 14" fill="none" xmlns="http://www.w3.org/2000/svg">
<path d="M8.75 9.1875C8.75 9.42922 8.55422 9.625 8.3125 9.625H5.6875C5.44578 9.625 5.25 9.42922 5.25 9.1875V7.875H0V11.8125C0 12.5125 0.6125 13.125 1.3125 13.125H12.6875C13.3875 13.125 14 12.5125 14 11.8125V7.875H8.75V9.1875ZM12.6875 3.5H10.5V2.1875C10.5 1.4875 9.8875 0.875 9.1875 0.875H4.8125C4.1125 0.875 3.5 1.4875 3.5 2.1875V3.5H1.3125C0.6125 3.5 0 4.1125 0 4.8125V7H14V4.8125C14 4.1125 13.3875 3.5 12.6875 3.5ZM8.75 3.5H5.25V2.625H8.75V3.5Z" fill="#2785BA"/>
</svg>
