<svg width="63" height="77" viewBox="0 0 63 77" fill="none" xmlns="http://www.w3.org/2000/svg">
<g clip-path="url(#clip0_492_1691)">
<g clip-path="url(#clip1_492_1691)">
<path d="M55.2501 49.4068H56.3448C56.8786 49.4071 57.4072 49.3021 57.9004 49.098C58.3936 48.8938 58.8417 48.5945 59.2192 48.217C59.5966 47.8396 59.896 47.3915 60.1001 46.8982C60.3043 46.405 60.4092 45.8764 60.409 45.3427C60.4092 44.8089 60.3043 44.2803 60.1001 43.7871C59.896 43.2939 59.5966 42.8457 59.2192 42.4683C58.8417 42.0908 58.3936 41.7915 57.9004 41.5873C57.4072 41.3832 56.8786 41.2782 56.3448 41.2785L41.0097 41.2875C45.3157 34.3275 45.5575 21.2235 38.6492 16.3871C36.7505 15.0287 34.2458 16.399 34.1383 18.4908C32.8605 35.6381 24.0695 42.211 16.7383 42.211V69.632H18.8798C20.0511 69.632 21.1736 69.8231 22.2494 70.2132C23.2834 70.5729 24.2467 71.1108 25.0955 71.8024C26.8469 73.1926 28.9506 74.1061 31.2255 74.1061H49.0057C50.1174 74.104 51.1829 73.6608 51.9682 72.8739C52.7535 72.0869 53.1945 71.0204 53.1942 69.9086C53.1945 68.7969 52.7535 67.7304 51.9682 66.9434C51.1829 66.1565 50.1174 65.7133 49.0057 65.7112H52.0229C53.1059 65.7112 54.1446 65.2809 54.9104 64.5151C55.6762 63.7493 56.1065 62.7106 56.1065 61.6276C56.1065 60.5446 55.6762 59.5059 54.9104 58.7401C54.1446 57.9743 53.1059 57.5441 52.0229 57.5441H55.2512C56.3287 57.543 57.3618 57.1145 58.1238 56.3525C58.8857 55.5906 59.3142 54.5575 59.3153 53.4799C59.3164 52.4008 58.8888 51.3654 58.1267 50.6014C57.3646 49.8375 56.3303 49.4074 55.2512 49.4058L55.2501 49.4068Z" fill="white"/>
<path d="M13.5159 39.2188H2.51562V74.779H13.5159C13.9394 74.779 14.3587 74.6956 14.75 74.5335C15.1412 74.3714 15.4967 74.1338 15.7961 73.8343C16.0955 73.5348 16.333 73.1793 16.495 72.788C16.657 72.3967 16.7403 71.9773 16.7401 71.5538V42.443C16.7401 41.5879 16.4004 40.7678 15.7958 40.1631C15.1911 39.5584 14.371 39.2188 13.5159 39.2188Z" fill="#3188C6"/>
<path d="M13.5145 38.1135H2.51326C1.86045 38.1135 1.33203 38.642 1.33203 39.2948V74.8541C1.33203 75.5069 1.85945 76.0363 2.51326 76.0363H13.5155C14.6836 76.0347 15.8034 75.5699 16.6293 74.7439C17.4551 73.9178 17.9197 72.7979 17.921 71.6298V70.8108C18.4982 70.8437 19.9869 70.6466 21.8687 71.3283C24.6014 72.2567 26.3548 75.284 31.225 75.284H49.0051C53.4146 75.284 55.9154 70.2426 53.332 66.7238C56.8837 65.8112 58.4411 61.6118 56.3373 58.6094C60.3119 57.7685 61.9011 52.8336 59.0342 49.8403C63.6038 47.0967 61.6315 40.0919 56.3423 40.0919L42.9955 40.1008C46.7691 32.1795 46.159 20.1971 39.3364 15.4214C36.6664 13.5127 33.1128 15.4244 32.9595 18.3989C31.843 33.3916 24.6004 40.4213 17.6244 40.9716C16.9955 39.3057 15.3973 38.1135 13.5145 38.1135ZM15.5575 71.6298C15.5575 72.7563 14.642 73.6728 13.5145 73.6728H3.69549V40.476H13.5145C14.637 40.476 15.5506 41.3866 15.5565 42.5081L15.5575 71.6298ZM17.921 43.337C25.896 42.6424 34.101 34.9042 35.318 18.5481C35.3777 17.3818 36.8246 16.528 37.9711 17.351C44.0474 21.6032 44.1698 33.93 40.0051 40.6611C39.8949 40.8402 39.8345 41.0454 39.83 41.2556C39.8254 41.4659 39.877 41.6735 39.9794 41.8572C40.0818 42.0408 40.2312 42.1939 40.4124 42.3006C40.5936 42.4073 40.7999 42.4638 41.0102 42.4643L56.3463 42.4543C60.1636 42.4603 60.1457 48.2202 56.3433 48.2202H55.2486C53.6853 48.2202 53.6863 50.5836 55.2486 50.5836C59.056 50.5836 59.07 56.3584 55.2486 56.3584H52.0224C50.458 56.3584 50.46 58.7219 52.0224 58.7219C55.8626 58.7219 55.8577 64.5245 52.0224 64.5245H49.0051C47.4408 64.5245 47.4428 66.888 49.0051 66.888C52.9837 66.888 52.9777 72.9205 49.0051 72.9205H31.225C27.123 72.9205 25.9647 70.2207 22.6519 69.0992C20.3471 68.2623 18.5041 68.4822 17.921 68.4474V43.337ZM40.8191 3.58323V1.58798C40.8191 1.27456 40.6946 0.973987 40.473 0.75237C40.2514 0.530753 39.9508 0.40625 39.6374 0.40625C39.324 0.40625 39.0234 0.530753 38.8018 0.75237C38.5802 0.973987 38.4557 1.27456 38.4557 1.58798V3.58323C38.4557 3.89664 38.5802 4.19722 38.8018 4.41884C39.0234 4.64045 39.324 4.76496 39.6374 4.76496C39.9508 4.76496 40.2514 4.64045 40.473 4.41884C40.6946 4.19722 40.8191 3.89664 40.8191 3.58323ZM56.7254 11.1503L58.1365 9.74015C58.2463 9.63044 58.3334 9.50019 58.3928 9.35682C58.4523 9.21346 58.4829 9.05979 58.4829 8.90459C58.483 8.74939 58.4525 8.5957 58.3931 8.4523C58.3338 8.3089 58.2467 8.17859 58.137 8.06882C58.0273 7.95904 57.8971 7.87195 57.7537 7.81252C57.6103 7.75308 57.4567 7.72247 57.3015 7.72242C57.1463 7.72238 56.9926 7.7529 56.8492 7.81225C56.7058 7.8716 56.5755 7.95861 56.4657 8.06832L55.0546 9.48042C54.9448 9.59013 54.8577 9.72039 54.7983 9.86375C54.7389 10.0071 54.7082 10.1608 54.7082 10.316C54.7082 10.4712 54.7387 10.6249 54.798 10.7683C54.8574 10.9117 54.9444 11.042 55.0541 11.1518C55.1638 11.2615 55.2941 11.3486 55.4374 11.4081C55.5808 11.4675 55.7345 11.4981 55.8897 11.4982C56.0449 11.4982 56.1985 11.4677 56.3419 11.4083C56.4854 11.349 56.6157 11.262 56.7254 11.1523V11.1503ZM24.2222 11.1503C24.3319 11.0406 24.419 10.9103 24.4784 10.767C24.5378 10.6236 24.5683 10.47 24.5683 10.3148C24.5683 10.1597 24.5378 10.006 24.4784 9.8627C24.419 9.71936 24.3319 9.58912 24.2222 9.47943L22.8091 8.06832C22.6994 7.95861 22.5692 7.87159 22.4258 7.81221C22.2825 7.75284 22.1288 7.72228 21.9737 7.72228C21.8185 7.72228 21.6649 7.75284 21.5216 7.81221C21.3782 7.87159 21.248 7.95861 21.1383 8.06832C21.0286 8.17803 20.9415 8.30827 20.8822 8.45161C20.8228 8.59496 20.7922 8.74859 20.7922 8.90374C20.7922 9.05889 20.8228 9.21252 20.8822 9.35586C20.9415 9.49921 21.0286 9.62945 21.1383 9.73916L22.5504 11.1503C22.6601 11.26 22.7903 11.3471 22.9337 11.4064C23.077 11.4658 23.2306 11.4964 23.3858 11.4964C23.541 11.4964 23.6946 11.4658 23.8379 11.4064C23.9813 11.3471 24.1125 11.26 24.2222 11.1503Z" fill="#0E2F41"/>
</g>
</g>
<defs>
<clipPath id="clip0_492_1691">
<rect width="61.7093" height="75.6305" fill="white" transform="translate(0.611328 0.40625)"/>
</clipPath>
<clipPath id="clip1_492_1691">
<rect width="61.6986" height="75.6305" fill="white" transform="translate(0.617188 0.40625)"/>
</clipPath>
</defs>
</svg>
