<svg width="34" height="36" viewBox="0 0 34 36" fill="none" xmlns="http://www.w3.org/2000/svg">
<path d="M17.9997 6.9161C18.0015 6.28281 17.8767 5.65555 17.6326 5.07119C17.3885 4.48684 17.03 3.9572 16.5782 3.51343C16.1265 3.06965 15.5905 2.72069 15.0019 2.48709C14.4132 2.25348 13.7838 2.13993 13.1507 2.15313C12.5175 2.16633 11.8934 2.306 11.315 2.56393C10.7367 2.82187 10.2157 3.19285 9.78279 3.65507C9.34988 4.11729 9.01377 4.6614 8.79423 5.25542C8.57469 5.84944 8.47615 6.48136 8.5044 7.11401C7.57372 7.35331 6.70969 7.80126 5.97777 8.42392C5.24584 9.04659 4.6652 9.82764 4.27982 10.7079C3.89444 11.5882 3.71444 12.5447 3.75343 13.5048C3.79243 14.465 4.04941 15.4037 4.5049 16.2498C3.70402 16.9005 3.07424 17.737 2.67035 18.6865C2.26647 19.636 2.1007 20.6699 2.18748 21.6981C2.27425 22.7263 2.61094 23.7177 3.16826 24.5861C3.72557 25.4545 4.48663 26.1736 5.38523 26.6808C5.27427 27.5394 5.34049 28.4116 5.5798 29.2435C5.81912 30.0755 6.22645 30.8495 6.77664 31.5179C7.32683 32.1862 8.0082 32.7347 8.77866 33.1294C9.54913 33.5241 10.3923 33.7567 11.2562 33.8127C12.1201 33.8688 12.9862 33.7471 13.8013 33.4553C14.6163 33.1635 15.3628 32.7077 15.9948 32.116C16.6267 31.5244 17.1307 30.8095 17.4755 30.0155C17.8203 29.2214 17.9987 28.3651 17.9997 27.4994V6.9161Z" stroke="white" stroke-width="3.16667" stroke-linecap="round" stroke-linejoin="round"/>
<path d="M13.2496 19.5843C14.5789 19.1167 15.7397 18.2654 16.5852 17.1381C17.4307 16.0107 17.9229 14.658 17.9996 13.251M8.50438 7.11556C8.53569 7.88147 8.7519 8.62843 9.13455 9.29264M4.50488 16.253C4.79454 16.0171 5.1045 15.8073 5.43113 15.626M8.49963 27.501C7.40845 27.5015 6.33564 27.2201 5.38522 26.684M17.9996 19.5843H24.333M17.9996 27.501H27.4996C28.3395 27.501 29.1449 27.8346 29.7388 28.4285C30.3327 29.0223 30.6663 29.8278 30.6663 30.6676V32.251M17.9996 11.6676H30.6663M24.333 11.6676V6.91764C24.333 6.07779 24.6666 5.27234 25.2605 4.67847C25.8543 4.08461 26.6598 3.75098 27.4996 3.75098" stroke="white" stroke-width="3.16667" stroke-linecap="round" stroke-linejoin="round"/>
<path d="M24.3327 20.3758C24.7699 20.3758 25.1243 20.0214 25.1243 19.5841C25.1243 19.1469 24.7699 18.7925 24.3327 18.7925C23.8955 18.7925 23.541 19.1469 23.541 19.5841C23.541 20.0214 23.8955 20.3758 24.3327 20.3758Z" stroke="white" stroke-width="3.16667" stroke-linecap="round" stroke-linejoin="round"/>
<path d="M27.4997 4.54256C27.9369 4.54256 28.2913 4.18812 28.2913 3.7509C28.2913 3.31367 27.9369 2.95923 27.4997 2.95923C27.0624 2.95923 26.708 3.31367 26.708 3.7509C26.708 4.18812 27.0624 4.54256 27.4997 4.54256Z" stroke="white" stroke-width="3.16667" stroke-linecap="round" stroke-linejoin="round"/>
<path d="M30.6667 33.0426C31.1039 33.0426 31.4583 32.6881 31.4583 32.2509C31.4583 31.8137 31.1039 31.4592 30.6667 31.4592C30.2294 31.4592 29.875 31.8137 29.875 32.2509C29.875 32.6881 30.2294 33.0426 30.6667 33.0426Z" stroke="white" stroke-width="3.16667" stroke-linecap="round" stroke-linejoin="round"/>
<path d="M30.6667 12.4593C31.1039 12.4593 31.4583 12.1049 31.4583 11.6676C31.4583 11.2304 31.1039 10.876 30.6667 10.876C30.2294 10.876 29.875 11.2304 29.875 11.6676C29.875 12.1049 30.2294 12.4593 30.6667 12.4593Z" stroke="white" stroke-width="3.16667" stroke-linecap="round" stroke-linejoin="round"/>
</svg>
