<svg width="24" height="24" viewBox="0 0 24 24" fill="none" xmlns="http://www.w3.org/2000/svg">
<path d="M0.117188 1.24219L0 1.35469V12V22.6453L0.117188 22.7578L0.229688 22.875H12H23.7703L23.8828 22.7578L24 22.6453V20.4234V18.2016L23.8922 18.1031C23.7844 18 23.5734 17.9672 23.4141 18.0281C23.2172 18.1078 23.2031 18.2297 23.2031 20.2031V22.0781H12H0.796875V13.5469V5.01562H12H23.2031V10.9406C23.2031 14.9297 23.2172 16.9125 23.25 16.9969C23.3531 17.2594 23.6484 17.3344 23.8781 17.1516L24 17.0578V9.20625V1.35469L23.8828 1.24219L23.7703 1.125H12H0.229688L0.117188 1.24219ZM14.9063 3.04687V4.17187H7.85156H0.796875V3.04687V1.92187H7.85156H14.9063V3.04687ZM23.2031 3.04687V4.17187H19.4531H15.7031V3.04687V1.92187H19.4531H23.2031V3.04687Z" fill="black"/>
<path d="M17.25 2.65793C17.0859 2.71887 16.9688 2.87824 16.9688 3.03293C16.9688 3.25324 17.0438 3.37043 17.2313 3.45011C17.6438 3.62355 18.0047 3.12668 17.7094 2.79387C17.6016 2.67199 17.3813 2.60637 17.25 2.65793Z" fill="black"/>
<path d="M19.2844 2.6906C19.1203 2.76091 19.0266 2.95779 19.0641 3.15466C19.1391 3.54841 19.7438 3.59529 19.875 3.22029C19.9406 3.01872 19.8563 2.78435 19.6875 2.69529C19.5234 2.61091 19.4719 2.61091 19.2844 2.6906Z" fill="black"/>
<path d="M21.4219 2.65793C21.1828 2.74699 21.0844 3.03293 21.2063 3.27199C21.3281 3.50637 21.675 3.55793 21.8719 3.37043C21.9984 3.24855 22.0266 2.93918 21.9188 2.80324C21.8156 2.6673 21.5813 2.60168 21.4219 2.65793Z" fill="black"/>
<path d="M6.31875 7.81416C5.025 9.10322 4.97812 9.16884 5.12343 9.45009C5.23125 9.65166 8.53125 12.9235 8.68593 12.9845C8.85937 13.0454 9.02812 13.0032 9.14062 12.8579C9.26718 12.6985 9.25781 12.5017 9.12187 12.3423L9.00468 12.211L9.49687 11.7142C9.90468 11.297 9.98437 11.1938 9.98437 11.072C9.98437 10.9032 9.82031 10.697 9.67968 10.6829C9.42187 10.6642 9.35625 10.7017 8.8875 11.1563L8.40937 11.6204L7.96875 11.1798L7.52812 10.7345L8.00625 10.2517C8.4375 9.81103 8.48437 9.74541 8.48437 9.59072C8.48437 9.35634 8.31562 9.18759 8.08593 9.18759C7.93593 9.18759 7.86562 9.23916 7.425 9.66572L6.93281 10.1438L6.49218 9.70322L6.04687 9.25791L6.87656 8.42822L7.71093 7.59384L9.25781 9.13603C10.1062 9.98916 10.8656 10.7063 10.9359 10.7298C11.2031 10.8329 11.4844 10.6313 11.4844 10.3407C11.4844 10.2142 11.2734 9.98916 9.69375 8.40478C7.94062 6.65166 7.89375 6.60947 7.71562 6.60947C7.5375 6.60947 7.49062 6.64697 6.31875 7.81416Z" fill="black"/>
<path d="M16.8094 6.65622C16.2844 6.74997 16.3828 6.65622 11.3297 11.7093L6.56719 16.4765L5.83594 18.1875C5.38594 19.2422 5.10938 19.9547 5.10938 20.0531C5.10938 20.2875 5.29688 20.4562 5.52188 20.4234C5.61563 20.4093 6.46875 20.0672 7.41094 19.664L9.12188 18.9328L13.8609 14.189C19.1672 8.87341 18.8438 9.23903 18.8813 8.50778C18.9047 8.03903 18.8203 7.71091 18.5906 7.38278C18.1875 6.82028 17.4984 6.53903 16.8094 6.65622ZM17.5641 7.55153C17.6906 7.61247 17.8266 7.73435 17.9203 7.8656C18.0516 8.05778 18.0703 8.12341 18.0703 8.3906C18.0703 8.65778 18.0516 8.72341 17.9203 8.90622C17.8406 9.02341 17.6297 9.25778 17.4516 9.43122L17.1328 9.74997L16.4625 9.07966L15.7969 8.41403L16.2047 8.00622C16.4344 7.78591 16.6828 7.57028 16.7578 7.5281C16.9594 7.42497 17.3203 7.43435 17.5641 7.55153ZM12.7031 14.1797L8.85938 18.0234L8.19375 17.3531L7.52344 16.6875L11.3672 12.8437L15.2109 8.99997L15.8766 9.6656L16.5469 10.3359L12.7031 14.1797ZM7.61719 17.9531L8.12813 18.464L7.96875 18.5343C7.87969 18.5718 7.4625 18.75 7.04063 18.9328C6.61875 19.1109 6.28125 19.2422 6.29063 19.2234C6.43594 18.8484 7.05938 17.4375 7.07813 17.4375C7.09219 17.4375 7.33594 17.6672 7.61719 17.9531Z" fill="black"/>
<path d="M14.9203 14.1327C14.7938 14.2218 14.7375 14.4843 14.8125 14.6296C14.8453 14.6905 15.5578 15.4312 16.4016 16.2796L17.9297 17.8124L17.1 18.6421L16.2656 19.4765L15.8203 19.0312L15.375 18.5905L15.8391 18.1171C16.0969 17.8593 16.3219 17.5921 16.3359 17.5218C16.4016 17.2546 16.1203 16.9734 15.8531 17.039C15.7828 17.053 15.5156 17.278 15.2578 17.5359L14.7844 17.9999L14.3438 17.5546L13.9031 17.1093L14.3813 16.6265C14.8125 16.1859 14.8594 16.1202 14.8594 15.9655C14.8594 15.7312 14.6906 15.5624 14.4563 15.5624C14.3016 15.5624 14.2359 15.6093 13.8 16.0405L13.3125 16.5187L13.2047 16.4155C13.05 16.2702 12.7828 16.2749 12.6328 16.4296C12.5016 16.5562 12.4828 16.7249 12.5813 16.9124C12.6188 16.9827 13.4156 17.803 14.3531 18.7312C16.0406 20.4093 16.1297 20.489 16.3875 20.4468C16.4391 20.4374 17.0344 19.8796 17.7094 19.2046C18.8391 18.0749 18.9375 17.9577 18.9375 17.8124C18.9375 17.6624 18.8063 17.5171 17.1469 15.8577C15.4594 14.1702 15.3422 14.0624 15.1875 14.0624C15.0938 14.0624 14.9766 14.0952 14.9203 14.1327Z" fill="black"/>
</svg>
