<svg width="24" height="24" viewBox="0 0 24 24" fill="none" xmlns="http://www.w3.org/2000/svg">
<path d="M12.0127 22.4952C6.23099 22.4952 1.52249 17.7965 1.51274 12.0132C1.50665 10.6338 1.77439 9.26689 2.30043 7.9917C2.82647 6.71651 3.60035 5.5584 4.57724 4.58447L5.63999 5.64347C4.80275 6.47836 4.13945 7.47104 3.68848 8.56403C3.23751 9.65702 3.00783 10.8286 3.01274 12.011C3.01157 13.1934 3.24497 14.3642 3.69942 15.4558C4.15386 16.5474 4.82033 17.538 5.66024 18.3702C6.49353 19.2053 7.48386 19.8671 8.57413 20.3176C9.6644 20.7682 10.8331 20.9984 12.0127 20.9952H12.0277C13.0183 20.9962 14.0019 20.8309 14.9377 20.5062L15.4342 21.9222C14.3398 22.3024 13.1893 22.4961 12.0307 22.4952H12.0127Z" fill="black"/>
<path d="M11.25 12H12.75V15H14.25C14.6478 15 15.0294 15.158 15.3107 15.4393C15.592 15.7206 15.75 16.1022 15.75 16.5V18.75H14.25V16.5H12.75V18.75H11.25V16.5H9.75V18.75H8.25V16.5C8.25 16.1022 8.40804 15.7206 8.68934 15.4393C8.97064 15.158 9.35218 15 9.75 15H11.25V12ZM17.25 19.5C17.4489 19.5 17.6397 19.579 17.7803 19.7197C17.921 19.8603 18 20.0511 18 20.25C18 20.4489 17.921 20.6397 17.7803 20.7803C17.6397 20.921 17.4489 21 17.25 21C17.0511 21 16.8603 20.921 16.7197 20.7803C16.579 20.6397 16.5 20.4489 16.5 20.25C16.5 20.0511 16.579 19.8603 16.7197 19.7197C16.8603 19.579 17.0511 19.5 17.25 19.5ZM6.75 3C6.94891 3 7.13968 3.07902 7.28033 3.21967C7.42098 3.36032 7.5 3.55109 7.5 3.75C7.5 3.94891 7.42098 4.13968 7.28033 4.28033C7.13968 4.42098 6.94891 4.5 6.75 4.5C6.55109 4.5 6.36032 4.42098 6.21967 4.28033C6.07902 4.13968 6 3.94891 6 3.75C6 3.55109 6.07902 3.36032 6.21967 3.21967C6.36032 3.07902 6.55109 3 6.75 3Z" fill="black"/>
<path d="M15.69 7.5795C15.3735 5.8305 13.839 4.5 12 4.5C10.161 4.5 8.6265 5.8305 8.31 7.5795C7.65292 7.73616 7.06772 8.10946 6.64867 8.63926C6.22962 9.16906 6.00112 9.82451 6 10.5C6 12.1545 7.3455 13.5 9 13.5H9.75V12H9C8.17275 12 7.5 11.3273 7.5 10.5C7.5 9.67275 8.17275 9 9 9H9.75V8.25C9.75 7.0095 10.7595 6 12 6C13.2405 6 14.25 7.0095 14.25 8.25V9H15C15.8273 9 16.5 9.6735 16.5 10.5C16.5 11.3265 15.8273 12 15 12H14.25V13.5H15C16.6545 13.5 18 12.1545 18 10.5C17.9989 9.82451 17.7704 9.16906 17.3513 8.63926C16.9323 8.10946 16.3471 7.73616 15.69 7.5795Z" fill="black"/>
<path d="M19.425 19.4167L18.3645 18.3554C19.203 17.522 19.8679 16.5306 20.3206 15.4385C20.7734 14.3465 21.0051 13.1754 21.0022 11.9932C21.0022 7.0312 16.965 2.9932 12.0022 2.9932C10.9897 2.9932 10.011 3.15595 9.09149 3.4762L8.59799 2.0602C9.69301 1.68201 10.8438 1.49034 12.0022 1.4932C17.7922 1.4932 22.5022 6.2032 22.5022 11.9932C22.5022 14.7959 21.4095 17.4322 19.425 19.4167Z" fill="black"/>
</svg>
