<svg width="24" height="24" viewBox="0 0 24 24" fill="none" xmlns="http://www.w3.org/2000/svg">
<path d="M18.6 9.102C18.4546 8.43233 18.2069 7.78904 17.8657 7.19475L22.5 2.5605L21.4402 1.5L1.49999 21.4402L2.56049 22.5L6.31049 18.75H17.625C18.8334 18.7513 19.9991 18.3035 20.896 17.4936C21.7928 16.6837 22.3567 15.5695 22.4782 14.3672C22.5997 13.1649 22.2701 11.9604 21.5535 10.9874C20.8368 10.0145 19.7842 9.34252 18.6 9.102ZM17.625 17.25H7.81049L16.7565 8.304C16.987 8.79497 17.1388 9.31912 17.2065 9.85725L17.2807 10.4662L17.892 10.5143C18.7593 10.5852 19.5656 10.9886 20.1424 11.64C20.7193 12.2915 21.0222 13.1406 20.9877 14.0101C20.9532 14.8796 20.5841 15.7021 19.9575 16.3059C19.3308 16.9096 18.4952 17.2479 17.625 17.25ZM3.22199 17.5867L4.29599 16.5135C3.76037 16.097 3.36348 15.5281 3.15761 14.8816C2.95175 14.2351 2.94656 13.5414 3.14273 12.8919C3.3389 12.2424 3.72723 11.6676 4.25656 11.2431C4.78589 10.8187 5.43138 10.5646 6.10799 10.5143L6.71999 10.4662L6.79424 9.85725C6.90072 8.98277 7.22594 8.14924 7.73984 7.43373C8.25373 6.71821 8.93972 6.14379 9.73438 5.76358C10.529 5.38337 11.4067 5.20963 12.2863 5.25842C13.1659 5.30722 14.019 5.57697 14.7667 6.04275L15.849 4.9605C14.9357 4.3239 13.8789 3.92345 12.7731 3.79495C11.6673 3.66644 10.5468 3.81388 9.51186 4.22408C8.47692 4.63429 7.55971 5.29448 6.84218 6.14568C6.12466 6.99688 5.62917 8.01257 5.39999 9.102C4.50401 9.28362 3.67728 9.71391 3.01449 10.3436C2.35169 10.9732 1.87962 11.7768 1.65234 12.6623C1.42505 13.5479 1.45174 14.4795 1.72934 15.3505C2.00695 16.2215 2.52424 16.9968 3.22199 17.5875" fill="black"/>
</svg>
