<svg width="72" height="77" viewBox="0 0 72 77" fill="none" xmlns="http://www.w3.org/2000/svg">
<g clip-path="url(#clip0_492_1603)">
<path d="M36.5007 53.228C45.0206 53.228 51.9273 46.3214 51.9273 37.8015C51.9273 29.2817 45.0206 22.375 36.5007 22.375C27.9809 22.375 21.0742 29.2817 21.0742 37.8015C21.0742 46.3214 27.9809 53.228 36.5007 53.228Z" fill="#3188C6"/>
<path d="M36.3347 53.7373C32.0585 53.7373 28.0385 52.0733 25.0149 49.0507C23.5238 47.5682 22.3416 45.8046 21.5367 43.8621C20.7319 41.9195 20.3205 39.8366 20.3262 37.7339C20.3262 33.4588 21.9923 29.4398 25.0159 26.4172C26.4991 24.9265 28.2631 23.7448 30.206 22.9403C32.1488 22.1359 34.2319 21.7247 36.3347 21.7305C40.6109 21.7305 44.6309 23.3946 47.6545 26.4172C49.1453 27.8996 50.3272 29.6631 51.1319 31.6054C51.9365 33.5478 52.3479 35.6305 52.3421 37.7329C52.3421 42.0091 50.678 46.0271 47.6545 49.0507C46.1711 50.5413 44.4069 51.723 42.4639 52.5275C40.5209 53.3319 38.4376 53.7432 36.3347 53.7373ZM36.3347 24.3134C28.932 24.3134 22.9111 30.3343 22.9111 37.7329C22.9111 45.1325 28.932 51.1535 36.3347 51.1535C43.7373 51.1535 49.7583 45.1335 49.7583 37.7339C49.7583 30.3343 43.7373 24.3134 36.3347 24.3134Z" fill="#0E2F41"/>
<path d="M32.2758 43.9825C31.9269 43.9825 31.5799 43.8413 31.3248 43.5649L27.9099 39.8505C27.6795 39.598 27.5585 39.2645 27.5735 38.923C27.5885 38.5816 27.7382 38.2599 27.9898 38.0286C28.2414 37.7973 28.5745 37.6751 28.916 37.6888C29.2575 37.7025 29.5797 37.8509 29.812 38.1017L32.3807 40.8953L42.9703 31.7923C43.2302 31.5691 43.568 31.4583 43.9096 31.4842C44.2512 31.5101 44.5685 31.6706 44.7917 31.9305C45.0149 32.1903 45.1258 32.5282 45.0999 32.8698C45.0739 33.2114 44.9134 33.5287 44.6535 33.7519L33.1179 43.6698C32.8837 43.8715 32.5849 43.9824 32.2758 43.9825Z" fill="white"/>
<path d="M36.0389 76.4657C45.2286 76.4657 52.7755 73.1638 58.4696 66.6527C73.9637 48.9328 70.6184 13.8106 70.4702 12.325C70.4046 11.6826 69.8792 11.1935 69.2529 11.1935C42.7769 11.1935 37.1654 1.52364 37.117 1.4369C36.6904 0.619991 35.3894 0.619991 34.9627 1.4369C34.9123 1.53473 29.557 11.1935 2.82684 11.1935C2.20054 11.1935 1.67509 11.6826 1.60954 12.325C1.45927 13.8116 -1.88604 48.9328 13.6091 66.6517C19.3022 73.1638 26.8501 76.4657 36.0389 76.4657ZM3.95337 13.7118C25.2909 13.4929 33.4146 7.07864 36.0389 4.10548C38.6631 7.07763 46.7868 13.4929 68.1253 13.7118C68.5641 19.8789 69.9256 49.783 56.6523 64.9624C51.4412 70.9208 44.5065 73.9424 36.0378 73.9424C27.5732 73.9424 20.6396 70.9228 15.4295 64.9664C2.1602 49.7981 3.51567 19.8789 3.95236 13.7128L3.95337 13.7118Z" fill="#0E2F41"/>
</g>
<defs>
<clipPath id="clip0_492_1603">
<rect width="70.5973" height="75.64" fill="white" transform="translate(0.742188 0.824219)"/>
</clipPath>
</defs>
</svg>
