<svg width="38" height="38" viewBox="0 0 38 38" fill="none" xmlns="http://www.w3.org/2000/svg">
<path d="M32.7619 5.94456C32.5437 5.60987 32.2457 5.33475 31.8946 5.14402C31.5436 4.95329 31.1506 4.85295 30.7511 4.85206H23.7686C23.3152 4.85051 22.871 4.9796 22.4892 5.22389C22.1073 5.46819 21.8039 5.81734 21.6152 6.22956L18.9996 11.8504L16.3712 6.22956C16.1826 5.81734 15.8792 5.46819 15.4973 5.22389C15.1154 4.9796 14.6712 4.85051 14.2179 4.85206H7.23856C6.83921 4.85382 6.44675 4.95626 6.09748 5.14989C5.7482 5.34352 5.45339 5.6221 5.24032 5.95987C5.02724 6.29763 4.90278 6.68367 4.87844 7.08229C4.8541 7.4809 4.93067 7.87922 5.10106 8.2404L11.0069 20.9387C10.5291 22.0436 10.2813 23.2342 10.2786 24.4379C10.2786 26.7475 11.196 28.9625 12.8292 30.5956C14.4623 32.2288 16.6773 33.1462 18.9869 33.1462C21.2965 33.1462 23.5115 32.2288 25.1446 30.5956C26.7777 28.9625 27.6952 26.7475 27.6952 24.4379C27.6995 23.2386 27.4513 22.0517 26.9669 20.9546L32.9044 8.2404C33.0728 7.87589 33.1479 7.47524 33.123 7.07449C33.0981 6.67374 32.9741 6.28546 32.7619 5.94456ZM6.52606 7.5754C6.47083 7.45183 6.4463 7.31674 6.45457 7.18165C6.46284 7.04656 6.50367 6.91547 6.57356 6.79956C6.64509 6.68808 6.74345 6.59632 6.85963 6.5327C6.97581 6.46907 7.1061 6.43562 7.23856 6.4354H14.2211C14.3734 6.43543 14.5227 6.47856 14.6515 6.55981C14.7804 6.64106 14.8837 6.75712 14.9494 6.89456L19.0819 15.7296H18.9869C17.6202 15.7313 16.2731 16.0547 15.0546 16.6736C13.8361 17.2925 12.7803 18.1895 11.9727 19.2921L6.52606 7.5754ZM18.9869 31.5629C17.5777 31.5629 16.2002 31.145 15.0285 30.3621C13.8568 29.5792 12.9435 28.4664 12.4043 27.1645C11.865 25.8626 11.7239 24.43 11.9988 23.0479C12.2737 21.6658 12.9523 20.3962 13.9488 19.3998C14.9452 18.4033 16.2148 17.7247 17.5969 17.4498C18.979 17.1749 20.4116 17.316 21.7135 17.8553C23.0154 18.3945 24.1282 19.3078 24.9111 20.4795C25.694 21.6512 26.1119 23.0287 26.1119 24.4379C26.1119 25.3736 25.9276 26.3001 25.5695 27.1645C25.2115 28.029 24.6867 28.8144 24.025 29.476C23.3634 30.1377 22.578 30.6625 21.7135 31.0205C20.8491 31.3786 19.9226 31.5629 18.9869 31.5629ZM31.4794 7.5754L26.0011 19.2921C24.7685 17.5985 22.962 16.4111 20.9186 15.9512L19.8736 13.7029L23.0402 6.89456C23.106 6.75712 23.2092 6.64106 23.3381 6.55981C23.467 6.47856 23.6162 6.43543 23.7686 6.4354H30.7511C30.8841 6.43258 31.0155 6.46473 31.1322 6.52863C31.2489 6.59254 31.3468 6.68597 31.4161 6.79956C31.4926 6.91248 31.5386 7.04323 31.5497 7.17916C31.5608 7.31509 31.5366 7.45158 31.4794 7.5754Z" fill="white"/>
<path d="M19.1219 26.7259L20.7432 27.5777C20.7888 27.6019 20.8403 27.6129 20.8918 27.6092C20.9433 27.6056 20.9928 27.5876 21.0345 27.5572C21.0763 27.5269 21.1087 27.4854 21.128 27.4375C21.1473 27.3896 21.1528 27.3372 21.1438 27.2864L20.8271 25.4814C20.8192 25.4372 20.8224 25.3918 20.8365 25.3492C20.8506 25.3066 20.8751 25.2682 20.9079 25.2375L22.2189 23.9598C22.2567 23.9235 22.2835 23.8772 22.296 23.8263C22.3086 23.7754 22.3065 23.722 22.2899 23.6722C22.2733 23.6225 22.243 23.5784 22.2024 23.5453C22.1618 23.5121 22.1126 23.4911 22.0605 23.4848L20.2666 23.2251C20.2216 23.2174 20.1792 23.199 20.1428 23.1714C20.1064 23.1439 20.0772 23.108 20.0576 23.0668L19.2469 21.4249C19.2243 21.3784 19.1891 21.3392 19.1453 21.3117C19.1015 21.2843 19.0508 21.2698 18.9991 21.2698C18.9475 21.2698 18.8968 21.2843 18.853 21.3117C18.8092 21.3392 18.7739 21.3784 18.7514 21.4249L17.9407 23.0668C17.9224 23.1086 17.8937 23.1451 17.8574 23.1728C17.8212 23.2005 17.7784 23.2185 17.7333 23.2251L15.9204 23.4879C15.8683 23.4943 15.8191 23.5153 15.7785 23.5484C15.7379 23.5816 15.7076 23.6256 15.691 23.6754C15.6744 23.7251 15.6723 23.7785 15.6848 23.8295C15.6974 23.8804 15.7242 23.9266 15.762 23.9629L17.073 25.2407C17.1054 25.2716 17.1297 25.31 17.1435 25.3526C17.1573 25.3952 17.1603 25.4405 17.1522 25.4845L16.8355 27.2895C16.8265 27.3404 16.832 27.3927 16.8513 27.4406C16.8706 27.4885 16.903 27.53 16.9448 27.5604C16.9865 27.5908 17.036 27.6088 17.0875 27.6124C17.139 27.616 17.1905 27.6051 17.2361 27.5809L18.8574 26.729C18.8975 26.7058 18.9429 26.6933 18.9892 26.6927C19.0355 26.6922 19.0812 26.7036 19.1219 26.7259Z" fill="white"/>
</svg>
