<svg width="32" height="32" viewBox="0 0 32 32" fill="none" xmlns="http://www.w3.org/2000/svg">
<path d="M20.9055 17.0037L17.5837 15.0863V8.08317C17.5837 7.66324 17.4169 7.26052 17.1199 6.96359C16.823 6.66665 16.4203 6.49984 16.0003 6.49984C15.5804 6.49984 15.1777 6.66665 14.8807 6.96359C14.5838 7.26052 14.417 7.66324 14.417 8.08317V15.9998C14.417 16.2778 14.4902 16.5508 14.6291 16.7915C14.7681 17.0322 14.968 17.232 15.2087 17.371L19.3222 19.746C19.5023 19.8516 19.7015 19.9205 19.9084 19.9488C20.1153 19.9771 20.3258 19.9642 20.5276 19.9108C20.7295 19.8575 20.9188 19.7647 21.0847 19.6378C21.2506 19.511 21.3897 19.3526 21.4941 19.1718C21.5985 18.9909 21.6661 18.7912 21.6931 18.5842C21.72 18.3771 21.7057 18.1668 21.6509 17.9652C21.5962 17.7637 21.5022 17.575 21.3743 17.41C21.2463 17.245 21.087 17.1069 20.9055 17.0037ZM16.0003 0.166504C12.8688 0.166504 9.80758 1.09511 7.2038 2.8349C4.60003 4.57469 2.57063 7.04752 1.37224 9.94068C0.173853 12.8338 -0.1397 16.0174 0.471232 19.0888C1.08217 22.1601 2.59014 24.9814 4.80448 27.1957C7.01881 29.41 9.84004 30.918 12.9114 31.5289C15.9828 32.1399 19.1663 31.8263 22.0595 30.6279C24.9527 29.4295 27.4255 27.4001 29.1653 24.7964C30.9051 22.1926 31.8337 19.1314 31.8337 15.9998C31.8295 11.8019 30.16 7.77703 27.1916 4.80861C24.2231 1.84019 20.1983 0.170696 16.0003 0.166504ZM16.0003 28.6665C13.4951 28.6665 11.0461 27.9236 8.96311 26.5318C6.88009 25.14 5.25657 23.1617 4.29786 20.8472C3.33915 18.5326 3.08831 15.9858 3.57705 13.5287C4.0658 11.0716 5.27218 8.81462 7.04365 7.04315C8.81511 5.27169 11.0721 4.0653 13.5292 3.57656C15.9863 3.08781 18.5331 3.33865 20.8477 4.29736C23.1622 5.25607 25.1404 6.87959 26.5323 8.96261C27.9241 11.0456 28.667 13.4946 28.667 15.9998C28.6628 19.358 27.3269 22.5773 24.9524 24.9519C22.5778 27.3264 19.3585 28.6623 16.0003 28.6665Z" fill="white"/>
</svg>
