<svg width="32" height="32" viewBox="0 0 32 32" fill="none" xmlns="http://www.w3.org/2000/svg">
<path d="M19.9583 20.75L24.7083 16L19.9583 11.25M12.0417 11.25L7.29167 16L12.0417 20.75M9.35 30.25H22.65C25.3102 30.25 26.6404 30.25 27.6565 29.7323C28.5502 29.2769 29.2769 28.5502 29.7323 27.6565C30.25 26.6404 30.25 25.3103 30.25 22.65V9.35C30.25 6.68975 30.25 5.35963 29.7323 4.34355C29.2769 3.44978 28.5502 2.72312 27.6565 2.26772C26.6404 1.75 25.3103 1.75 22.65 1.75H9.35C6.68975 1.75 5.35963 1.75 4.34355 2.26772C3.44978 2.72312 2.72312 3.44978 2.26772 4.34355C1.75 5.35963 1.75 6.68975 1.75 9.35V22.65C1.75 25.3102 1.75 26.6404 2.26772 27.6565C2.72312 28.5502 3.44978 29.2769 4.34355 29.7323C5.35963 30.25 6.68975 30.25 9.35 30.25Z" stroke="white" stroke-width="3.16667" stroke-linecap="round" stroke-linejoin="round"/>
</svg>
