<svg width="3905" height="1226" viewBox="0 0 3905 1226" fill="none" xmlns="http://www.w3.org/2000/svg">
<path d="M1484.12 996.56V974.722H1587.01V996.56H1548.65V1100H1522.47V996.56H1484.12ZM1603.95 1100V974.722H1630.44V1026.41H1684.21V974.722H1710.63V1100H1684.21V1048.25H1630.44V1100H1603.95ZM1847.6 1037.36C1847.6 1051.02 1845.01 1062.64 1839.83 1072.23C1834.69 1081.81 1827.67 1089.13 1818.78 1094.19C1809.93 1099.2 1799.98 1101.71 1788.93 1101.71C1777.8 1101.71 1767.81 1099.18 1758.96 1094.13C1750.11 1089.07 1743.12 1081.75 1737.98 1072.17C1732.84 1062.58 1730.27 1050.98 1730.27 1037.36C1730.27 1023.7 1732.84 1012.08 1737.98 1002.49C1743.12 992.91 1750.11 985.61 1758.96 980.594C1767.81 975.537 1777.8 973.009 1788.93 973.009C1799.98 973.009 1809.93 975.537 1818.78 980.594C1827.67 985.61 1834.69 992.91 1839.83 1002.49C1845.01 1012.08 1847.6 1023.7 1847.6 1037.36ZM1820.74 1037.36C1820.74 1028.51 1819.42 1021.05 1816.77 1014.97C1814.16 1008.9 1810.46 1004.29 1805.69 1001.15C1800.92 998.008 1795.33 996.437 1788.93 996.437C1782.53 996.437 1776.94 998.008 1772.17 1001.15C1767.4 1004.29 1763.69 1008.9 1761.04 1014.97C1758.43 1021.05 1757.12 1028.51 1757.12 1037.36C1757.12 1046.21 1758.43 1053.67 1761.04 1059.75C1763.69 1065.83 1767.4 1070.43 1772.17 1073.57C1776.94 1076.71 1782.53 1078.28 1788.93 1078.28C1795.33 1078.28 1800.92 1076.71 1805.69 1073.57C1810.46 1070.43 1814.16 1065.83 1816.77 1059.75C1819.42 1053.67 1820.74 1046.21 1820.74 1037.36ZM1944.6 974.722H1971.08V1056.08C1971.08 1065.21 1968.9 1073.21 1964.54 1080.06C1960.22 1086.91 1954.16 1092.25 1946.37 1096.09C1938.58 1099.88 1929.51 1101.77 1919.15 1101.77C1908.75 1101.77 1899.66 1099.88 1891.87 1096.09C1884.08 1092.25 1878.02 1086.91 1873.7 1080.06C1869.38 1073.21 1867.22 1065.21 1867.22 1056.08V974.722H1893.7V1053.82C1893.7 1058.59 1894.74 1062.83 1896.82 1066.54C1898.94 1070.25 1901.92 1073.17 1905.75 1075.29C1909.59 1077.41 1914.05 1078.47 1919.15 1078.47C1924.29 1078.47 1928.75 1077.41 1932.55 1075.29C1936.38 1073.17 1939.34 1070.25 1941.42 1066.54C1943.54 1062.83 1944.6 1058.59 1944.6 1053.82V974.722ZM2075.95 1015.22C2075.09 1012.24 2073.89 1009.61 2072.34 1007.33C2070.79 1005 2068.89 1003.04 2066.65 1001.45C2064.45 999.822 2061.92 998.578 2059.06 997.722C2056.25 996.866 2053.13 996.437 2049.7 996.437C2043.3 996.437 2037.67 998.028 2032.82 1001.21C2028.01 1004.39 2024.26 1009.02 2021.57 1015.09C2018.87 1021.13 2017.53 1028.51 2017.53 1037.24C2017.53 1045.97 2018.85 1053.39 2021.5 1059.5C2024.16 1065.62 2027.91 1070.29 2032.76 1073.51C2037.61 1076.69 2043.34 1078.28 2049.95 1078.28C2055.94 1078.28 2061.06 1077.22 2065.3 1075.1C2069.58 1072.94 2072.85 1069.9 2075.09 1065.99C2077.37 1062.07 2078.52 1057.45 2078.52 1052.1L2083.9 1052.9H2051.6V1032.96H2104.02V1048.74C2104.02 1059.75 2101.7 1069.21 2097.05 1077.12C2092.4 1084.99 2086 1091.07 2077.84 1095.35C2069.69 1099.59 2060.35 1101.71 2049.83 1101.71C2038.08 1101.71 2027.76 1099.12 2018.87 1093.94C2009.98 1088.72 2003.05 1081.32 1998.08 1071.74C1993.14 1062.11 1990.67 1050.7 1990.67 1037.48C1990.67 1027.33 1992.14 1018.28 1995.08 1010.32C1998.06 1002.33 2002.22 995.561 2007.56 990.015C2012.9 984.468 2019.12 980.248 2026.21 977.352C2033.31 974.457 2041 973.009 2049.28 973.009C2056.37 973.009 2062.98 974.049 2069.1 976.129C2075.21 978.168 2080.64 981.063 2085.37 984.815C2090.14 988.567 2094.03 993.032 2097.05 998.211C2100.07 1003.35 2102.01 1009.02 2102.86 1015.22H2075.95ZM2123.92 1100V974.722H2150.41V1026.41H2204.18V974.722H2230.6V1100H2204.18V1048.25H2150.41V1100H2123.92ZM2247.67 996.56V974.722H2350.56V996.56H2312.2V1100H2286.02V996.56H2247.67ZM2435.46 1010.75C2434.97 1005.82 2432.87 1001.98 2429.16 999.251C2425.45 996.519 2420.42 995.153 2414.05 995.153C2409.73 995.153 2406.08 995.765 2403.1 996.988C2400.13 998.171 2397.84 999.822 2396.25 1001.94C2394.7 1004.06 2393.93 1006.47 2393.93 1009.16C2393.85 1011.4 2394.32 1013.36 2395.34 1015.03C2396.4 1016.71 2397.84 1018.15 2399.68 1019.38C2401.51 1020.56 2403.63 1021.6 2406.04 1022.5C2408.45 1023.35 2411.02 1024.09 2413.75 1024.7L2425 1027.39C2430.47 1028.61 2435.48 1030.24 2440.05 1032.28C2444.62 1034.32 2448.57 1036.83 2451.92 1039.81C2455.26 1042.78 2457.85 1046.29 2459.69 1050.33C2461.56 1054.37 2462.52 1059 2462.56 1064.21C2462.52 1071.88 2460.56 1078.53 2456.69 1084.16C2452.86 1089.74 2447.31 1094.09 2440.05 1097.19C2432.83 1100.24 2424.13 1101.77 2413.93 1101.77C2403.82 1101.77 2395.01 1100.22 2387.51 1097.12C2380.04 1094.03 2374.21 1089.44 2370.01 1083.36C2365.85 1077.24 2363.67 1069.68 2363.47 1060.67H2389.1C2389.38 1064.87 2390.58 1068.37 2392.71 1071.19C2394.87 1073.96 2397.74 1076.06 2401.33 1077.49C2404.96 1078.88 2409.06 1079.57 2413.63 1079.57C2418.11 1079.57 2422.01 1078.92 2425.31 1077.61C2428.65 1076.31 2431.24 1074.49 2433.08 1072.17C2434.91 1069.84 2435.83 1067.17 2435.83 1064.15C2435.83 1061.34 2434.99 1058.97 2433.32 1057.06C2431.69 1055.14 2429.29 1053.51 2426.1 1052.16C2422.96 1050.82 2419.11 1049.6 2414.54 1048.49L2400.9 1045.07C2390.34 1042.5 2382 1038.48 2375.88 1033.02C2369.77 1027.55 2366.73 1020.19 2366.77 1010.94C2366.73 1003.35 2368.75 996.723 2372.82 991.054C2376.94 985.386 2382.59 980.961 2389.77 977.78C2396.95 974.599 2405.1 973.009 2414.24 973.009C2423.54 973.009 2431.65 974.599 2438.58 977.78C2445.56 980.961 2450.98 985.386 2454.86 991.054C2458.73 996.723 2460.73 1003.29 2460.85 1010.75H2435.46Z" fill="black"/>
<line x1="115.398" y1="1039.4" x2="1304.24" y2="1039.4" stroke="black" stroke-width="15.0516"/>
<line x1="2656.16" y1="1039.4" x2="3845" y2="1039.4" stroke="black" stroke-width="15.0516"/>
<path fill-rule="evenodd" clip-rule="evenodd" d="M197.34 858.792C214.389 848.93 230.635 837.834 245.956 825.628C291.188 847.48 341.928 859.729 395.528 859.729C494.593 859.729 583.885 817.887 646.695 750.91C657.101 764.98 668.416 778.336 680.554 790.893C608.483 865.458 507.42 911.822 395.528 911.822C323.33 911.822 255.641 892.519 197.34 858.792Z" fill="#00B355"/>
<path fill-rule="evenodd" clip-rule="evenodd" d="M52.093 515.872C52.093 399.521 109.812 296.652 198.179 234.334C182.849 223.523 166.597 213.932 149.564 205.703C58.4176 278.323 0 390.275 0 515.872C0 641.466 58.415 753.417 149.558 826.036C166.591 817.807 182.843 808.217 198.173 797.406C109.81 735.088 52.093 632.22 52.093 515.872Z" fill="#1E91D6"/>
<path fill-rule="evenodd" clip-rule="evenodd" d="M395.523 170.835C494.586 170.835 583.876 212.676 646.686 279.65C657.092 265.581 668.407 252.224 680.544 239.668C608.474 165.105 507.413 118.742 395.523 118.742C323.326 118.742 255.637 138.045 197.336 171.772C214.385 181.634 230.63 192.73 245.952 204.937C291.183 183.085 341.923 170.835 395.523 170.835Z" fill="#FF5F4C"/>
<path d="M746.484 831V363.031H815.948V433.714H820.823C829.353 410.559 844.79 391.771 867.132 377.35C889.474 362.93 914.66 355.719 942.69 355.719C947.971 355.719 954.572 355.821 962.493 356.024C970.414 356.227 976.406 356.532 980.468 356.938V430.058C978.031 429.449 972.445 428.535 963.712 427.316C955.181 425.894 946.143 425.183 936.596 425.183C913.848 425.183 893.537 429.956 875.663 439.503C857.992 448.846 843.977 461.845 833.619 478.5C823.463 494.952 818.385 513.74 818.385 534.863V831H746.484ZM1196.18 840.749C1151.09 840.749 1112.2 830.797 1079.5 810.892C1047 790.784 1021.92 762.755 1004.24 726.804C986.777 690.65 978.043 648.606 978.043 600.672C978.043 552.737 986.777 510.49 1004.24 473.93C1021.92 437.167 1046.49 408.528 1077.97 388.014C1109.66 367.296 1146.63 356.938 1188.87 356.938C1213.25 356.938 1237.32 361 1261.08 369.124C1284.84 377.249 1306.47 390.451 1325.97 408.731C1345.47 426.808 1361.01 450.775 1372.59 480.633C1384.16 510.49 1389.95 547.253 1389.95 590.922V621.389H1029.23V559.237H1316.83C1316.83 532.832 1311.55 509.271 1300.99 488.554C1290.63 467.837 1275.8 451.486 1256.51 439.503C1237.42 427.519 1214.87 421.527 1188.87 421.527C1160.23 421.527 1135.45 428.636 1114.53 442.854C1093.82 456.869 1077.87 475.149 1066.7 497.694C1055.53 520.239 1049.94 544.41 1049.94 570.205V611.64C1049.94 646.981 1056.04 676.94 1068.22 701.516C1080.61 725.89 1097.78 744.475 1119.71 757.271C1141.65 769.863 1167.14 776.16 1196.18 776.16C1215.07 776.16 1232.14 773.519 1247.37 768.239C1262.81 762.755 1276.11 754.63 1287.28 743.865C1298.45 732.897 1307.08 719.289 1313.18 703.04L1382.64 722.538C1375.33 746.099 1363.04 766.817 1345.78 784.691C1328.51 802.361 1307.19 816.173 1281.8 826.125C1256.41 835.875 1227.87 840.749 1196.18 840.749ZM1585.56 841.968C1555.91 841.968 1529 836.382 1504.83 825.211C1480.65 813.837 1461.46 797.487 1447.24 776.16C1433.03 754.63 1425.92 728.632 1425.92 698.165C1425.92 671.354 1431.2 649.621 1441.76 632.966C1452.32 616.108 1466.44 602.906 1484.11 593.36C1501.78 583.813 1521.28 576.704 1542.6 572.033C1564.13 567.158 1585.76 563.299 1607.5 560.455C1635.93 556.799 1658.99 554.057 1676.66 552.229C1694.53 550.198 1707.53 546.847 1715.65 542.175C1723.98 537.504 1728.15 529.379 1728.15 517.802V515.365C1728.15 485.304 1719.92 461.946 1703.47 445.291C1687.22 428.636 1662.54 420.309 1629.43 420.309C1595.11 420.309 1568.2 427.824 1548.7 442.854C1529.2 457.884 1515.49 473.93 1507.57 490.991L1439.32 466.618C1451.51 438.182 1467.76 416.043 1488.07 400.201C1508.58 384.155 1530.92 372.984 1555.1 366.687C1579.47 360.188 1603.44 356.938 1627 356.938C1642.03 356.938 1659.29 358.766 1678.79 362.422C1698.49 365.875 1717.48 373.085 1735.76 384.053C1754.25 395.021 1769.58 411.575 1781.77 433.714C1793.95 455.853 1800.05 485.507 1800.05 522.677V831H1728.15V767.629H1724.49C1719.62 777.785 1711.49 788.651 1700.12 800.229C1688.74 811.806 1673.61 821.657 1654.72 829.781C1635.83 837.906 1612.78 841.968 1585.56 841.968ZM1596.53 777.379C1624.97 777.379 1648.93 771.793 1668.43 760.622C1688.13 749.451 1702.96 735.03 1712.91 717.359C1723.07 699.688 1728.15 681.104 1728.15 661.605V595.797C1725.1 599.453 1718.4 602.804 1708.04 605.851C1697.88 608.694 1686.1 611.233 1672.7 613.468C1659.49 615.499 1646.6 617.327 1634 618.952C1621.61 620.373 1611.56 621.592 1603.84 622.608C1585.16 625.045 1567.69 629.006 1551.44 634.49C1535.39 639.771 1522.39 647.793 1512.44 658.558C1502.69 669.12 1497.82 683.541 1497.82 701.821C1497.82 726.804 1507.06 745.693 1525.54 758.489C1544.23 771.082 1567.89 777.379 1596.53 777.379ZM2083.32 363.031V423.965H1840.81V363.031H2083.32ZM1911.49 250.914H1983.39V696.946C1983.39 717.258 1986.34 732.491 1992.23 742.646C1998.32 752.599 2006.04 759.302 2015.38 762.755C2024.93 766.004 2034.98 767.629 2045.55 767.629C2053.47 767.629 2059.97 767.223 2065.04 766.411C2070.12 765.395 2074.18 764.583 2077.23 763.973L2091.85 828.563C2086.98 830.391 2080.18 832.219 2071.44 834.047C2062.71 836.078 2051.64 837.093 2038.23 837.093C2017.92 837.093 1998.02 832.726 1978.52 823.993C1959.22 815.259 1943.18 801.955 1930.38 784.081C1917.79 766.207 1911.49 743.662 1911.49 716.445V250.914ZM2140 831V363.031H2211.91V831H2140ZM2176.56 285.036C2162.55 285.036 2150.46 280.263 2140.31 270.717C2130.36 261.171 2125.38 249.695 2125.38 236.29C2125.38 222.884 2130.36 211.408 2140.31 201.862C2150.46 192.316 2162.55 187.543 2176.56 187.543C2190.58 187.543 2202.56 192.316 2212.52 201.862C2222.67 211.408 2227.75 222.884 2227.75 236.29C2227.75 249.695 2222.67 261.171 2212.52 270.717C2202.56 280.263 2190.58 285.036 2176.56 285.036ZM2674.78 363.031L2501.73 831H2428.61L2255.56 363.031H2333.56L2462.74 735.944H2467.61L2596.79 363.031H2674.78ZM2897.66 840.749C2852.57 840.749 2813.67 830.797 2780.97 810.892C2748.47 790.784 2723.39 762.755 2705.72 726.804C2688.25 690.65 2679.52 648.606 2679.52 600.672C2679.52 552.737 2688.25 510.49 2705.72 473.93C2723.39 437.167 2747.97 408.528 2779.45 388.014C2811.13 367.296 2848.1 356.938 2890.35 356.938C2914.72 356.938 2938.79 361 2962.55 369.124C2986.32 377.249 3007.95 390.451 3027.45 408.731C3046.95 426.808 3062.49 450.775 3074.06 480.633C3085.64 510.49 3091.43 547.253 3091.43 590.922V621.389H2730.7V559.237H3018.31C3018.31 532.832 3013.03 509.271 3002.47 488.554C2992.11 467.837 2977.28 451.486 2957.98 439.503C2938.89 427.519 2916.35 421.527 2890.35 421.527C2861.71 421.527 2836.93 428.636 2816.01 442.854C2795.29 456.869 2779.35 475.149 2768.18 497.694C2757.01 520.239 2751.42 544.41 2751.42 570.205V611.64C2751.42 646.981 2757.51 676.94 2769.7 701.516C2782.09 725.89 2799.25 744.475 2821.19 757.271C2843.12 769.863 2868.62 776.16 2897.66 776.16C2916.55 776.16 2933.61 773.519 2948.84 768.239C2964.28 762.755 2977.58 754.63 2988.76 743.865C2999.93 732.897 3008.56 719.289 3014.65 703.04L3084.12 722.538C3076.8 746.099 3064.52 766.817 3047.25 784.691C3029.99 802.361 3008.66 816.173 2983.27 826.125C2957.88 835.875 2929.35 840.749 2897.66 840.749ZM3201.73 835.875C3186.7 835.875 3173.8 830.492 3163.04 819.727C3152.27 808.962 3146.89 796.065 3146.89 781.035C3146.89 766.004 3152.27 753.107 3163.04 742.342C3173.8 731.577 3186.7 726.194 3201.73 726.194C3216.76 726.194 3229.66 731.577 3240.42 742.342C3251.19 753.107 3256.57 766.004 3256.57 781.035C3256.57 790.987 3254.03 800.127 3248.95 808.455C3244.08 816.782 3237.48 823.485 3229.15 828.563C3221.03 833.437 3211.89 835.875 3201.73 835.875ZM3471.83 841.968C3442.18 841.968 3415.26 836.382 3391.09 825.211C3366.92 813.837 3347.73 797.487 3333.51 776.16C3319.29 754.63 3312.18 728.632 3312.18 698.165C3312.18 671.354 3317.46 649.621 3328.03 632.966C3338.59 616.108 3352.7 602.906 3370.38 593.36C3388.05 583.813 3407.54 576.704 3428.87 572.033C3450.4 567.158 3472.03 563.299 3493.77 560.455C3522.2 556.799 3545.25 554.057 3562.93 552.229C3580.8 550.198 3593.8 546.847 3601.92 542.175C3610.25 537.504 3614.41 529.379 3614.41 517.802V515.365C3614.41 485.304 3606.19 461.946 3589.74 445.291C3573.49 428.636 3548.81 420.309 3515.7 420.309C3481.38 420.309 3454.46 427.824 3434.96 442.854C3415.47 457.884 3401.76 473.93 3393.83 490.991L3325.59 466.618C3337.78 438.182 3354.03 416.043 3374.34 400.201C3394.85 384.155 3417.19 372.984 3441.36 366.687C3465.74 360.188 3489.7 356.938 3513.26 356.938C3528.29 356.938 3545.56 358.766 3565.06 362.422C3584.76 365.875 3603.75 373.085 3622.03 384.053C3640.51 395.021 3655.85 411.575 3668.04 433.714C3680.22 455.853 3686.32 485.507 3686.32 522.677V831H3614.41V767.629H3610.76C3605.88 777.785 3597.76 788.651 3586.38 800.229C3575.01 811.806 3559.88 821.657 3540.99 829.781C3522.1 837.906 3499.05 841.968 3471.83 841.968ZM3482.8 777.379C3511.23 777.379 3535.2 771.793 3554.7 760.622C3574.4 749.451 3589.23 735.03 3599.18 717.359C3609.34 699.688 3614.41 681.104 3614.41 661.605V595.797C3611.37 599.453 3604.66 602.804 3594.31 605.851C3584.15 608.694 3572.37 611.233 3558.96 613.468C3545.76 615.499 3532.86 617.327 3520.27 618.952C3507.88 620.373 3497.83 621.592 3490.11 622.608C3471.42 625.045 3453.96 629.006 3437.71 634.49C3421.66 639.771 3408.66 647.793 3398.71 658.558C3388.96 669.12 3384.09 683.541 3384.09 701.821C3384.09 726.804 3393.33 745.693 3411.81 758.489C3430.5 771.082 3454.16 777.379 3482.8 777.379ZM3766.07 831V363.031H3837.98V831H3766.07ZM3802.63 285.036C3788.62 285.036 3776.53 280.263 3766.38 270.717C3756.43 261.171 3751.45 249.695 3751.45 236.29C3751.45 222.884 3756.43 211.408 3766.38 201.862C3776.53 192.316 3788.62 187.543 3802.63 187.543C3816.65 187.543 3828.63 192.316 3838.59 201.862C3848.74 211.408 3853.82 222.884 3853.82 236.29C3853.82 249.695 3848.74 261.171 3838.59 270.717C3828.63 280.263 3816.65 285.036 3802.63 285.036Z" fill="black"/>
</svg>
