<svg width="92" height="25" viewBox="0 0 92 25" fill="none" xmlns="http://www.w3.org/2000/svg">
<g clip-path="url(#clip0_303_15252)">
<path fill-rule="evenodd" clip-rule="evenodd" d="M4.55859 20.7534C4.95175 20.526 5.32638 20.2701 5.67968 19.9887C6.72274 20.4925 7.89276 20.775 9.12878 20.775C11.4132 20.775 13.4723 19.8101 14.9207 18.2656C15.1607 18.5901 15.4216 18.8981 15.7015 19.1876C14.0395 20.9071 11.709 21.9763 9.12878 21.9763C7.46391 21.9763 5.90302 21.5312 4.55859 20.7534Z" fill="#00B355"/>
<path fill-rule="evenodd" clip-rule="evenodd" d="M1.20908 12.8401C1.20908 10.157 2.54011 7.78479 4.57788 6.34773C4.22437 6.09843 3.8496 5.87726 3.45682 5.6875C1.35495 7.36212 0.0078125 9.94377 0.0078125 12.8401C0.0078125 15.7363 1.35486 18.3179 3.45661 19.9925C3.84939 19.8027 4.22419 19.5815 4.5777 19.3322C2.54002 17.8952 1.20908 15.5231 1.20908 12.8401Z" fill="#1E91D6"/>
<path fill-rule="evenodd" clip-rule="evenodd" d="M9.1288 4.88486C11.4132 4.88486 13.4723 5.84974 14.9207 7.39419C15.1606 7.06974 15.4216 6.76175 15.7015 6.47218C14.0395 4.75275 11.709 3.68359 9.1288 3.68359C7.46391 3.68359 5.90302 4.12872 4.55859 4.90647C4.95175 5.13389 5.32638 5.38976 5.67968 5.67126C6.72271 5.16735 7.89278 4.88486 9.1288 4.88486Z" fill="#FF5F4C"/>
<path d="M17.2227 20.096V9.30458H18.8245V10.9345H18.9369C19.1336 10.4006 19.4896 9.96733 20.0048 9.63478C20.52 9.30225 21.1008 9.13596 21.7472 9.13596C21.869 9.13596 22.0212 9.13832 22.2038 9.143C22.3865 9.14768 22.5247 9.15471 22.6183 9.16408V10.8502C22.5622 10.8362 22.4333 10.8151 22.232 10.787C22.0352 10.7542 21.8268 10.7378 21.6067 10.7378C21.0821 10.7378 20.6137 10.8479 20.2015 11.068C19.794 11.2835 19.4709 11.5832 19.232 11.9673C18.9978 12.3467 18.8807 12.7799 18.8807 13.267V20.096H17.2227ZM27.5927 20.3208C26.553 20.3208 25.6561 20.0913 24.9021 19.6323C24.1526 19.1686 23.574 18.5222 23.1666 17.6932C22.7638 16.8595 22.5624 15.89 22.5624 14.7846C22.5624 13.6792 22.7638 12.705 23.1666 11.8619C23.574 11.0142 24.1409 10.3537 24.8668 9.88069C25.5976 9.40293 26.4499 9.16408 27.4242 9.16408C27.9861 9.16408 28.5412 9.25775 29.0893 9.44509C29.6372 9.63245 30.136 9.93689 30.5857 10.3584C31.0354 10.7753 31.3937 11.328 31.6608 12.0165C31.9276 12.705 32.0611 13.5528 32.0611 14.5598V15.2623H23.7428V13.8291H30.3749C30.3749 13.2202 30.2532 12.6769 30.0097 12.1992C29.7708 11.7214 29.4288 11.3444 28.9839 11.068C28.5435 10.7917 28.0237 10.6535 27.4242 10.6535C26.7637 10.6535 26.1923 10.8174 25.7099 11.1453C25.2321 11.4685 24.8645 11.89 24.6069 12.4099C24.3493 12.9298 24.2204 13.4872 24.2204 14.082V15.0375C24.2204 15.8525 24.3611 16.5433 24.642 17.1101C24.9277 17.6721 25.3236 18.1007 25.8293 18.3958C26.3353 18.6862 26.9231 18.8314 27.5927 18.8314C28.0283 18.8314 28.4217 18.7705 28.7732 18.6487C29.129 18.5223 29.4359 18.3349 29.6935 18.0866C29.9511 17.8337 30.1501 17.5199 30.2908 17.1452L31.8925 17.5948C31.7239 18.1382 31.4405 18.6159 31.0423 19.0281C30.6443 19.4356 30.1524 19.7541 29.5669 19.9836C28.9816 20.2084 28.3235 20.3208 27.5927 20.3208ZM36.5719 20.3489C35.8881 20.3489 35.2674 20.2201 34.71 19.9625C34.1526 19.7002 33.7101 19.3232 33.3822 18.8314C33.0543 18.3349 32.8903 17.7354 32.8903 17.0328C32.8903 16.4145 33.0123 15.9134 33.2558 15.5293C33.4993 15.1406 33.8249 14.8361 34.2324 14.616C34.6399 14.3958 35.0896 14.2319 35.5812 14.1242C36.0777 14.0118 36.5765 13.9228 37.0778 13.8572C37.7334 13.7729 38.2649 13.7097 38.6726 13.6675C39.0847 13.6207 39.3845 13.5434 39.5718 13.4357C39.7638 13.3279 39.8598 13.1406 39.8598 12.8736V12.8174C39.8598 12.1242 39.6702 11.5856 39.2909 11.2015C38.9162 10.8174 38.347 10.6254 37.5835 10.6254C36.7921 10.6254 36.1713 10.7987 35.7219 11.1453C35.2722 11.4919 34.956 11.8619 34.7734 12.2553L33.1996 11.6933C33.4807 11.0376 33.8554 10.527 34.3237 10.1617C34.7967 9.7917 35.3119 9.5341 35.8692 9.38889C36.4314 9.23902 36.9839 9.16408 37.5272 9.16408C37.8738 9.16408 38.2721 9.20623 38.7218 9.29054C39.176 9.37016 39.614 9.53643 40.0355 9.78935C40.4616 10.0423 40.8154 10.424 41.0965 10.9345C41.3774 11.4451 41.518 12.1289 41.518 12.986V20.096H39.8598V18.6346H39.7756C39.6631 18.8688 39.4758 19.1194 39.2134 19.3864C38.9512 19.6534 38.6023 19.8805 38.1667 20.0679C37.7311 20.2552 37.1996 20.3489 36.5719 20.3489ZM36.8248 18.8595C37.4804 18.8595 38.0332 18.7307 38.4829 18.4731C38.9371 18.2155 39.2791 17.8829 39.5086 17.4754C39.7429 17.0679 39.8598 16.6394 39.8598 16.1897V14.6722C39.7897 14.7565 39.6349 14.8338 39.3963 14.904C39.162 14.9696 38.8903 15.0281 38.5811 15.0797C38.2767 15.1265 37.9792 15.1687 37.6889 15.2061C37.4032 15.2389 37.1714 15.267 36.9934 15.2904C36.5624 15.3466 36.1598 15.438 35.7851 15.5644C35.4149 15.6862 35.1152 15.8712 34.8857 16.1195C34.6609 16.363 34.5486 16.6956 34.5486 17.1171C34.5486 17.6932 34.7617 18.1288 35.1878 18.4239C35.6188 18.7143 36.1644 18.8595 36.8248 18.8595ZM48.0503 9.30458V10.7097H42.458V9.30458H48.0503ZM44.0878 6.71915H45.7459V17.0047C45.7459 17.4731 45.8139 17.8244 45.9497 18.0585C46.0901 18.2881 46.2682 18.4426 46.4836 18.5223C46.7038 18.5972 46.9355 18.6346 47.179 18.6346C47.3617 18.6346 47.5116 18.6253 47.6287 18.6066C47.7459 18.5831 47.8395 18.5644 47.9098 18.5503L48.247 20.0398C48.1347 20.0819 47.9776 20.1241 47.7763 20.1662C47.575 20.2131 47.3197 20.2365 47.0105 20.2365C46.5421 20.2365 46.0832 20.1358 45.6336 19.9344C45.1885 19.733 44.8186 19.4262 44.5234 19.014C44.2331 18.6019 44.0878 18.082 44.0878 17.4543V6.71915ZM49.3573 20.096V9.30458H51.0153V20.096H49.3573ZM50.2004 7.50601C49.8773 7.50601 49.5985 7.39594 49.3645 7.17581C49.1348 6.95568 49.0202 6.69104 49.0202 6.38192C49.0202 6.07278 49.1348 5.80814 49.3645 5.58801C49.5985 5.36788 49.8773 5.25781 50.2004 5.25781C50.5237 5.25781 50.7999 5.36788 51.0294 5.58801C51.2637 5.80814 51.3808 6.07278 51.3808 6.38192C51.3808 6.69104 51.2637 6.95568 51.0294 7.17581C50.7999 7.39594 50.5237 7.50601 50.2004 7.50601ZM61.6894 9.30458L57.6988 20.096H56.0127L52.0221 9.30458H53.8206L56.7995 17.904H56.912L59.8909 9.30458H61.6894ZM66.829 20.3208C65.7892 20.3208 64.8922 20.0913 64.1381 19.6323C63.3887 19.1686 62.8103 18.5222 62.4029 17.6932C62 16.8595 61.7987 15.89 61.7987 14.7846C61.7987 13.6792 62 12.705 62.4029 11.8619C62.8103 11.0142 63.3769 10.3537 64.1031 9.88069C64.8336 9.40293 65.6861 9.16408 66.6604 9.16408C67.2224 9.16408 67.7775 9.25775 68.3254 9.44509C68.8735 9.63245 69.3723 9.93689 69.822 10.3584C70.2716 10.7753 70.6298 11.328 70.8968 12.0165C71.1638 12.705 71.2974 13.5528 71.2974 14.5598V15.2623H62.9789V13.8291H69.6112C69.6112 13.2202 69.4894 12.6769 69.2457 12.1992C69.0068 11.7214 68.6651 11.3444 68.22 11.068C67.7798 10.7917 67.2598 10.6535 66.6604 10.6535C66 10.6535 65.4286 10.8174 64.9462 11.1453C64.4683 11.4685 64.1008 11.89 63.843 12.4099C63.5854 12.9298 63.4567 13.4872 63.4567 14.082V15.0375C63.4567 15.8525 63.5971 16.5433 63.8782 17.1101C64.164 17.6721 64.5597 18.1007 65.0656 18.3958C65.5713 18.6862 66.1591 18.8314 66.829 18.8314C67.2646 18.8314 67.658 18.7705 68.0092 18.6487C68.3653 18.5223 68.672 18.3349 68.9296 18.0866C69.1871 17.8337 69.3864 17.5199 69.5268 17.1452L71.1286 17.5948C70.96 18.1382 70.6766 18.6159 70.2786 19.0281C69.8805 19.4356 69.3887 19.7541 68.8032 19.9836C68.2177 20.2084 67.5595 20.3208 66.829 20.3208Z" fill="#1E91D6"/>
</g>
<path d="M73.3672 20.6343V18.3704H75.6311V20.6343H73.3672Z" fill="#1E91D6"/>
<path d="M81.7646 20.8055C80.9148 20.8055 80.1729 20.6089 79.5387 20.2157C78.9046 19.8226 78.4099 19.2518 78.0548 18.5035C77.7124 17.7552 77.5411 16.8674 77.5411 15.8401C77.5411 14.8001 77.7124 13.9123 78.0548 13.1767C78.4099 12.4411 78.9046 11.8767 79.5387 11.4835C80.1729 11.0776 80.9148 10.8747 81.7646 10.8747C82.6017 10.8747 83.3309 11.084 83.9524 11.5025C84.5739 11.9211 84.9861 12.4918 85.189 13.2147H84.9797L85.17 11.0459H87.0344C86.9963 11.4391 86.9583 11.8323 86.9202 12.2254C86.8948 12.6059 86.8822 12.9801 86.8822 13.3479V20.6343H84.9607V18.5035H85.17C84.967 19.2138 84.5485 19.7782 83.9143 20.1967C83.2929 20.6026 82.5763 20.8055 81.7646 20.8055ZM82.2402 19.3026C83.0646 19.3026 83.7241 19.0109 84.2187 18.4274C84.7261 17.844 84.9797 16.9816 84.9797 15.8401C84.9797 14.6986 84.7261 13.8425 84.2187 13.2718C83.7241 12.6884 83.0646 12.3967 82.2402 12.3967C81.4031 12.3967 80.7309 12.6884 80.2236 13.2718C79.729 13.8425 79.4816 14.6986 79.4816 15.8401C79.4816 16.9816 79.729 17.844 80.2236 18.4274C80.7182 19.0109 81.3904 19.3026 82.2402 19.3026Z" fill="#1E91D6"/>
<path d="M89.6859 20.6343V11.0459H91.6074V20.6343H89.6859ZM89.5337 9.04835V7.05078H91.7596V9.04835H89.5337Z" fill="#1E91D6"/>
<defs>
<clipPath id="clip0_303_15252">
<rect width="72.3396" height="23.9434" fill="white" transform="translate(0.0078125 0.941406)"/>
</clipPath>
</defs>
</svg>
