<svg width="38" height="38" viewBox="0 0 38 38" fill="none" xmlns="http://www.w3.org/2000/svg">
<path d="M33.196 1.1875L24.3069 5.78906L16.0687 2.22656L4.80403 2.96875L1.1875 34.5859L12.8339 33.5962L25.7604 36.8125L36.8125 32.8047L33.196 1.1875ZM32.2121 3.03347L35.5264 32.0079L25.9884 35.4665L25.9356 34.3538L34.3496 31.1772L31.4747 4.70012L24.6792 7.923L24.6329 6.95756L24.8532 6.84416L32.2121 3.03347ZM25.3027 21.0478C25.4345 20.7676 25.5639 20.3739 25.6257 19.8217C25.6257 19.8217 26.28 19.8538 27.0851 21.6083C27.0851 21.6083 27.4366 21.5733 27.2614 20.428C27.2614 20.428 28.5184 19.9215 27.8403 17.6943C27.8403 17.6943 28.8948 19.1467 28.5445 17.2585C28.5445 17.2585 29.7012 15.8407 28.3195 14.8978C28.3195 14.8978 28.367 13.8522 29.1977 13.9864C29.1977 13.9864 30.0277 11.8275 29.6275 14.3907C29.6275 14.3907 29.6513 14.8978 30.1791 15.4696C30.1791 15.4696 30.4065 14.627 30.0034 13.7186C30.0034 13.7186 30.834 12.1642 30.758 10.8169C30.758 10.8169 28.0672 11.815 25.0729 11.517C25.0729 11.517 25.2189 10.96 24.8098 10.6471L24.7261 8.88666L24.7974 8.85281L30.7254 6.042L33.3901 30.5882L25.8917 33.4198L25.3027 21.0478ZM24.2113 10.6014C23.902 11.0426 23.0434 12.3993 23.5653 13.2115C23.5653 13.2115 23.3124 14.9708 22.9597 12.4046C22.9597 12.4046 22.3832 13.9193 21.603 13.5814C21.603 13.5814 21.3887 15.1145 20.8976 14.0873C20.8976 14.0873 21.2996 14.2565 21.3881 13.7845C21.3881 13.7845 20.2546 12.5703 19.5771 14.4062C19.5771 14.4062 19.0238 14.6264 19.2381 15.4874C19.2381 15.4874 19.6264 14.7772 19.8283 15.8585C19.8283 15.8585 20.0426 15.6898 20.1323 14.3058C20.1323 14.3058 20.6702 14.0374 20.2546 15.1311C20.2546 15.1311 21.4872 15.1507 19.5771 16.2438C19.5771 16.2438 19.4714 16.226 19.3883 15.8068C19.3883 15.8068 19.0992 16.8162 18.5066 17.1742C18.5066 17.1742 18.6455 17.5774 18.2062 17.7626C18.2062 17.7626 17.9681 18.3873 18.5345 18.3873C18.5345 18.3873 19.0243 16.8863 19.9553 18.0672C19.9553 18.0672 20.1329 18.0001 19.8556 17.4093C19.8556 17.4093 20.3448 17.597 20.5343 18.3706C20.5343 18.3706 20.8365 18.3184 20.8846 17.6457C20.8846 17.6457 21.264 16.7859 21.8809 17.7983C21.8809 17.7983 21.0621 17.5613 20.8495 18.3873C20.8495 18.3873 21.2367 18.218 21.4777 18.4549C21.4777 18.4549 21.5021 18.8403 21.2551 18.9893C21.3619 19.19 21.4777 19.3824 21.6392 19.5451C21.6841 19.587 21.7132 19.6432 21.7215 19.7041C21.7298 19.765 21.7169 19.8269 21.6849 19.8793C22.1208 20.6251 22.9259 21.6178 23.4893 20.0331C23.4893 20.0331 22.7353 20.4612 22.4829 19.2803C22.4829 19.2803 24.0047 19.4738 24.7065 21.0003L25.2973 33.4382L13.4627 30.1192L13.6402 28.3634C13.886 28.9934 14.174 29.2493 14.174 29.2493C13.8397 26.5092 15.8169 24.7534 15.8169 24.7534C16.2011 22.8724 15.2243 22.0281 14.3189 21.6481L14.7838 17.0477C14.9702 16.8156 15.0801 16.6606 15.0801 16.6606C15.013 16.4297 14.9477 16.2272 14.8853 16.0419L15.336 11.5781C15.7148 12.0395 15.7581 12.4587 15.6518 12.8398C15.1644 14.5932 15.7914 15.1305 15.7914 15.1305C16.172 13.6497 17.4782 13.4134 17.4782 13.4134C17.4034 12.0288 18.2073 10.4548 18.2073 10.4548C17.3328 8.95197 16.0817 9.9655 15.4262 10.6828L15.4773 10.1787C15.6115 10.0059 15.7516 9.81766 15.903 9.60272C15.903 9.60272 15.7777 9.51663 15.5503 9.45369L15.9493 5.50228L24.0742 8.87003L24.1312 8.89378L24.2113 10.6014ZM14.9595 9.39312C14.5546 9.41212 14.0363 9.55166 13.4265 9.97322C13.4265 9.97322 13.1367 12.6344 14.8004 10.9666L14.6146 12.8078C14.3973 12.081 13.8819 11.8281 13.8819 11.8281C13.3772 12.1333 13.4277 12.537 13.4277 12.537C13.8854 12.6059 14.1651 13.1569 14.3296 13.6735C14.2369 13.8154 14.0784 13.9775 13.8047 14.0042C13.8047 14.0042 14.1235 14.4833 14.4323 14.6175L14.3984 14.9477C13.68 13.8712 13.3689 16.0342 13.3689 16.0342C11.593 14.0552 13.8403 13.0649 13.8403 13.0649C12.4646 12.4836 11.8275 10.8175 11.8275 10.8175C11.7604 11.8524 11.3573 11.8067 11.3573 11.8067C8.20444 9.96372 7.63681 12.9319 7.63681 12.9319C8.13734 14.5041 7.06444 14.684 7.06444 14.684C8.1035 14.8633 8.63966 13.4247 8.63966 13.4247C10.7878 14.5041 9.64725 18.3712 9.64725 18.3712C10.485 18.864 10.7202 20.4844 10.7202 20.4844C11.3038 20.6613 11.9017 21.0187 12.3209 21.302C12.4021 21.2287 12.4864 21.1597 12.5738 21.0947C11.5942 20.4024 11.5924 19.2814 11.5924 19.2814C12.4812 19.2814 13.4265 18.5155 14.1087 17.8113L13.7406 21.4587C13.5748 21.4174 13.4069 21.3851 13.2377 21.3619C13.0793 21.4377 12.9306 21.5322 12.7947 21.6434L12.8672 21.6998C11.8792 23.598 13.2151 24.3592 13.4366 24.469L12.8695 30.08L5.01066 30.6945L7.63206 5.86744L15.3615 5.41263L14.9595 9.39312ZM13.3718 31.0193L25.3412 34.3763L25.3947 35.4979L13.2252 32.4698L13.3718 31.0193ZM24.0386 6.96706L24.0837 7.91113L16.0431 4.57841L16.1464 3.55359L23.8355 6.87919L24.0386 6.96706ZM5.87159 4.08856L15.5598 3.45028L15.4523 4.51547L6.82575 5.02253L4.01316 31.6665L12.7799 30.9795L12.6338 32.4211L2.53234 33.2803L5.87159 4.08856Z" fill="white"/>
<path d="M19.0365 21.7431C19.0365 21.7431 20.2964 21.9788 19.7923 24.4067C19.7923 24.4067 19.9936 26.2989 21.0986 26.1262C21.0986 26.1262 21.4002 23.3955 22.8092 21.3037C22.8092 21.3037 22.238 21.8725 21.5902 19.9862C21.4922 20.0574 21.3592 20.0741 21.2482 19.9636C20.9691 19.6851 20.8005 19.3342 20.6188 18.9816C20.5932 18.9308 20.5827 18.8737 20.5885 18.8171C19.6718 18.4751 17.8151 18.1319 17.5521 20.8317C17.5527 20.8317 17.9036 22.6901 19.0365 21.7431ZM18.4594 15.4363C18.546 16.6523 18.7087 17.0216 18.9219 16.5163C19.1362 16.0152 18.4594 15.4363 18.4594 15.4363ZM18.0788 16.584C18.0788 16.584 18.4332 16.5317 18.3317 16.0858C18.3317 16.0858 18.0788 16.112 18.0788 16.584ZM17.9422 14.1395C17.9422 14.1395 17.0486 14.1395 17.3645 14.5961C17.6786 15.0515 17.9422 14.1395 17.9422 14.1395ZM22.4078 25.2171C22.4078 25.2171 22.6809 24.6602 22.672 23.8016C22.6726 23.8016 21.8034 24.7944 22.4078 25.2171ZM28.0401 21.7271C28.0401 21.7271 27.4107 22.3012 27.5259 22.8243C27.6393 23.3492 28.1915 22.721 28.0401 21.7271ZM30.557 23.5837C30.8331 23.1004 29.0447 22.5019 29.0447 22.5019C29.398 23.0256 30.3064 24.0148 30.557 23.5837ZM28.5567 23.687C28.9764 22.9686 27.286 23.3124 27.286 23.3124C27.286 23.3124 28.3934 23.9708 28.5567 23.687ZM29.2211 23.8367C29.2211 23.8367 28.8826 24.5937 27.6251 24.9125C27.6251 24.9125 27.8905 25.5211 27.6251 26.6688C27.6251 26.6688 28.8945 25.0491 29.626 27.392C29.626 27.392 30.2536 27.7328 30.6936 25.6114C30.6936 25.6114 30.1657 24.8472 29.99 23.7606C29.9906 23.7601 29.816 25.1524 29.2211 23.8367ZM29.4693 16.9296C29.5494 16.8625 29.6118 16.8381 29.6118 16.8381C28.996 15.8424 29.2211 17.2775 29.2211 17.2775C29.2609 17.1831 29.3078 17.1107 29.3559 17.0495C29.3885 17.4746 29.2864 18.1082 28.6226 18.7102C28.622 18.7102 30.0458 18.1735 29.4693 16.9296ZM18.603 9.47503C18.9136 8.74709 17.9374 7.91821 17.9374 7.91821C18.0627 9.66799 18.2949 10.2024 18.603 9.47503ZM17.3894 9.57062C17.3894 9.57062 17.8947 9.49581 17.7516 8.85574C17.7516 8.85574 17.3894 8.89196 17.3894 9.57062Z" fill="white"/>
</svg>
