<svg width="38" height="38" viewBox="0 0 38 38" fill="none" xmlns="http://www.w3.org/2000/svg">
<path d="M33.25 17.4167V14.25H30.0833V11.0833C30.0808 10.2443 29.7464 9.44025 29.1531 8.84693C28.5597 8.25361 27.7557 7.91917 26.9167 7.91667H23.75V4.75H20.5833V7.91667H17.4167V4.75H14.25V7.91667H11.0833C10.2443 7.91917 9.44025 8.25361 8.84693 8.84693C8.25361 9.44025 7.91917 10.2443 7.91667 11.0833V14.25H4.75V17.4167H7.91667V20.5833H4.75V23.75H7.91667V26.9167C7.91917 27.7557 8.25361 28.5597 8.84693 29.1531C9.44025 29.7464 10.2443 30.0808 11.0833 30.0833H14.25V33.25H17.4167V30.0833H20.5833V33.25H23.75V30.0833H26.9167C27.7557 30.0808 28.5597 29.7464 29.1531 29.1531C29.7464 28.5597 30.0808 27.7557 30.0833 26.9167V23.75H33.25V20.5833H30.0833V17.4167H33.25ZM26.9167 26.9167H11.0833V11.0833H26.9167V26.9167Z" fill="white"/>
<path d="M17.9879 12.6665H15.8583L12.6758 25.3332H14.3019L15.0365 22.3644H18.7035L19.4192 25.3332H21.1007L17.9879 12.6665ZM15.2503 21.0962L16.8621 14.1707H16.9349L18.4914 21.0962H15.2503ZM22.5526 12.6665H24.1359V25.3332H22.5526V12.6665Z" fill="white"/>
</svg>
