<svg width="14" height="15" viewBox="0 0 14 15" fill="none" xmlns="http://www.w3.org/2000/svg">
<g clip-path="url(#clip0_132_3442)">
<path d="M3.5 0.0585938C3.63542 0.0585938 3.7526 0.108073 3.85156 0.207031C3.95052 0.30599 4 0.423177 4 0.558594V7.51953L8.1875 4.16797C8.27604 4.09505 8.38021 4.05859 8.5 4.05859C8.63542 4.05859 8.7526 4.10807 8.85156 4.20703C8.95052 4.30599 9 4.42318 9 4.55859V7.51953L13.1875 4.16797C13.276 4.09505 13.3802 4.05859 13.5 4.05859C13.6354 4.05859 13.7526 4.10807 13.8516 4.20703C13.9505 4.30599 14 4.42318 14 4.55859V13.5586C14 13.694 13.9505 13.8112 13.8516 13.9102C13.7526 14.0091 13.6354 14.0586 13.5 14.0586H0.5C0.364583 14.0586 0.247396 14.0091 0.148438 13.9102C0.0494792 13.8112 0 13.694 0 13.5586V0.558594C0 0.423177 0.0494792 0.30599 0.148438 0.207031C0.247396 0.108073 0.364583 0.0585938 0.5 0.0585938H3.5Z" fill="#2785BA"/>
</g>
<defs>
<clipPath id="clip0_132_3442">
<rect width="14" height="14" fill="white" transform="translate(0 0.0585938)"/>
</clipPath>
</defs>
</svg>
