<svg width="77" height="77" viewBox="0 0 77 77" fill="none" xmlns="http://www.w3.org/2000/svg">
<g clip-path="url(#clip0_492_1546)">
<path d="M62.9727 38.6256C62.6075 38.6778 62.2778 38.8723 62.0555 39.1666C61.8332 39.461 61.7363 39.8313 61.786 40.1968C61.9757 41.5628 62.0721 42.9392 62.0721 44.3177C62.0721 50.1196 60.3516 55.7912 57.1282 60.6153C53.9049 65.4394 49.3234 69.1993 43.9631 71.4196C38.6029 73.6399 32.7046 74.2208 27.0142 73.0889C21.3237 71.957 16.0968 69.1632 11.9942 65.0606C7.89163 60.958 5.09775 55.731 3.96586 50.0406C2.83396 44.3502 3.41489 38.4519 5.63518 33.0917C7.85547 27.7314 11.6154 23.1499 16.4395 19.9266C21.2636 16.7032 26.9352 14.9827 32.7371 14.9827C34.0637 14.9827 35.3893 15.0719 36.7046 15.2481C37.0715 15.2897 37.4402 15.1858 37.7312 14.9585C38.0223 14.7311 38.2125 14.3987 38.261 14.0326C38.3095 13.6664 38.2124 13.2959 37.9905 13.0007C37.7686 12.7055 37.4397 12.5091 37.0746 12.4539C30.4035 11.5457 23.6156 12.7561 17.6696 15.9141C11.7236 19.0722 6.91997 24.0184 3.937 30.0542C0.954033 36.0899 -0.0574888 42.9102 1.04528 49.5519C2.14805 56.1936 5.30939 62.3211 10.0828 67.069C14.8563 71.8169 21.0007 74.9452 27.6482 76.0123C34.2957 77.0794 41.1105 76.0313 47.1301 73.0159C53.1498 70.0006 58.0701 65.1704 61.1962 59.2076C64.3223 53.2447 65.4962 46.4505 64.5522 39.7843C64.4935 39.4229 64.2952 39.0989 63.9999 38.8822C63.7047 38.6655 63.3362 38.5733 62.9737 38.6256H62.9727Z" fill="#0E2F41"/>
<path d="M32.2212 29.3842C33.0276 29.3842 33.8318 29.4454 34.6278 29.5677C34.9978 29.6247 35.3761 29.5366 35.6787 29.322C35.9814 29.1075 36.1845 28.7852 36.2425 28.4255C36.2713 28.2471 36.2637 28.0647 36.2203 27.8893C36.1768 27.7139 36.0984 27.549 35.9897 27.4046C35.7656 27.1086 35.4345 26.9121 35.0672 26.8574C34.1245 26.7245 33.1732 26.6629 32.2212 26.6729C28.6342 26.6729 25.1269 27.7062 22.1441 29.6423C19.1809 31.5556 16.8552 34.3088 15.4643 37.5502C14.0927 40.7591 13.7326 44.31 14.432 47.7289C15.1429 51.1664 16.8729 54.3101 19.3965 56.7499C21.9571 59.2261 25.1843 60.9017 28.6829 61.5714C32.1997 62.2514 35.838 61.9035 39.1621 60.5692C42.4544 59.2533 45.2857 56.9963 47.3022 54.0801C49.891 50.3296 50.8917 45.7076 50.086 41.2222C50.053 41.0462 49.9854 40.8785 49.887 40.7289C49.7886 40.5793 49.6614 40.4507 49.5129 40.3506C49.2079 40.1447 48.8351 40.0645 48.4723 40.1267C48.1096 40.1889 47.7862 40.3879 47.5727 40.6802C47.4678 40.8241 47.393 40.9876 47.3528 41.1611C47.3125 41.3345 47.3077 41.5143 47.3385 41.6897C48.0215 45.4866 47.1746 49.3995 44.9827 52.5742C43.2763 55.0418 40.8805 56.9517 38.0946 58.0652C35.2817 59.1942 32.2029 59.4886 29.227 58.913C26.2665 58.3465 23.5356 56.9289 21.3688 54.8336C19.2339 52.7689 17.7704 50.1089 17.1692 47.2003C16.5772 44.3071 16.882 41.3021 18.0429 38.5866C19.2199 35.8443 21.1875 33.5151 23.6946 31.8965C26.2346 30.2533 29.196 29.3814 32.2212 29.3842Z" fill="#0E2F41"/>
<path d="M57.6153 2.83594L41.5508 19.4187L42.069 36.0015H58.6518L74.1981 19.4187H57.6153V2.83594Z" fill="#3188C6"/>
<path d="M76.1657 18.7082C76.0607 18.4501 75.8819 18.2288 75.6516 18.0718C75.4238 17.9162 75.1543 17.8332 74.8784 17.8335H59.585V2.1845C59.585 1.90363 59.5052 1.62794 59.3528 1.39371C59.2424 1.2183 59.0934 1.07042 58.9171 0.96137C58.7408 0.85232 58.542 0.784978 58.3357 0.764482C58.1295 0.743986 57.9212 0.770878 57.727 0.843106C57.5327 0.915334 57.3575 1.03099 57.2147 1.18125L40.5314 18.2532C40.2691 18.5214 40.1218 18.8814 40.1209 19.2565V35.7377L32.1892 43.8612C32.0441 43.9886 31.9249 44.1451 31.842 44.3213C31.7162 44.5876 31.6745 44.8858 31.7225 45.1763C31.7704 45.4668 31.9058 45.7358 32.1104 45.9475C32.245 46.0847 32.4066 46.1925 32.585 46.264C32.7634 46.3356 32.9547 46.3693 33.1468 46.3631C33.3395 46.3558 33.5284 46.3078 33.7011 46.2222C33.8739 46.1367 34.0265 46.0155 34.1491 45.8666L42.0881 37.7514H58.1941C58.5631 37.7494 58.9154 37.5981 59.1756 37.3307L75.8589 20.2597C76.0539 20.0583 76.1866 19.8047 76.2408 19.5296C76.295 19.2546 76.2686 18.9696 76.1646 18.7092L76.1657 18.7082ZM42.9017 19.8462L56.8043 5.62025V18.6657L42.9017 32.8927V19.8462ZM57.6189 34.9054H44.8678L58.7703 20.6784H71.5225L57.6189 34.9054Z" fill="#0E2F41"/>
<path d="M57.0011 18.3828L59.1776 20.5158L44.2448 35.7574L42.0684 33.6245L57.0011 18.3828Z" fill="white"/>
</g>
<defs>
<clipPath id="clip0_492_1546">
<rect width="75.6589" height="75.6589" fill="white" transform="translate(0.611328 0.761719)"/>
</clipPath>
</defs>
</svg>
