<svg width="61" height="77" viewBox="0 0 61 77" fill="none" xmlns="http://www.w3.org/2000/svg">
<g clip-path="url(#clip0_492_1296)">
<path d="M29.234 10.4584C17.446 12.4231 14.1719 23.0648 14.0078 28.1405H21.3753C21.2113 26.503 21.67 22.6394 24.8135 20.2818C28.7429 17.3348 32.1811 16.3525 37.5839 19.2995C41.9062 21.6571 42.9868 26.503 42.9868 28.6317H50.3543L48.8808 21.2642C47.2432 16.8436 41.0221 8.49376 29.234 10.4584Z" fill="#3188C6"/>
<path fill-rule="evenodd" clip-rule="evenodd" d="M22.3725 65.1765C23.1761 69.4566 22.7566 71.1413 21.8087 74.2592H51.9232C51.6511 73.4488 51.3377 72.5598 51.0077 71.6276C48.9585 65.8288 46.3308 58.3925 48.2051 52.4739C49.1795 49.3972 51.7562 46.3884 53.4095 43.5199C53.4193 43.5032 53.4291 43.4855 53.4409 43.4688C57.4852 37.2163 59.0068 31.0737 58.6178 25.5314C57.9007 15.2866 50.6982 7.22746 41.1421 4.08889C35.0987 2.10457 28.0328 2.0476 20.8322 4.64391C14.8665 6.79523 11.058 10.537 9.25243 16.931C7.01957 24.8388 7.56575 25.8801 8.00093 26.7092C8.41253 27.4951 8.75929 28.1562 8.17971 30.4676C7.16692 34.504 2.62361 37.3538 2.74444 40.6161C3.65801 41.1643 5.11875 41.7065 6.10011 42.3225L6.09912 42.3244C6.21771 42.3988 6.31925 42.4973 6.39712 42.6136C6.47499 42.7299 6.52743 42.8613 6.551 42.9993C6.88794 44.8559 6.41445 45.8265 6.0225 46.631C5.74745 47.1949 5.55 47.6006 6.81034 49.0122L6.80837 49.0141C6.94201 49.1632 7.02809 49.3488 7.05557 49.5471C7.08305 49.7454 7.05067 49.9473 6.9626 50.1271C6.90366 50.246 6.82311 50.3531 6.72487 50.4405C6.08144 51.0063 6.217 51.1871 6.41445 51.4523C6.79364 51.9592 7.24256 52.5594 7.39286 53.5594C7.65809 55.3247 6.79364 56.7147 7.15415 58.4937C7.60701 60.7275 12.3841 59.981 14.9146 59.7609C19.6554 59.3454 21.4982 60.5203 22.3725 65.1765ZM19.5375 74.886C20.6112 71.327 21.234 69.9006 20.4167 65.5459C20.0886 63.8013 19.6858 62.7472 18.9677 62.2276C17.9461 61.4869 15.9854 61.6725 14.2172 61.8445C10.7495 62.1824 5.96847 62.649 5.20618 58.8955C4.74939 56.6469 5.61385 55.139 5.42131 53.858C5.34665 53.361 5.06374 52.9838 4.82503 52.6635C4.08631 51.6733 3.54603 50.9503 4.71599 49.6202C2.41339 46.6182 4.85843 46.2587 4.65705 43.8028C3.59318 43.2311 2.06466 42.6633 1.19136 41.9757C0.993444 41.8197 0.861563 41.5949 0.822005 41.346C0.377006 38.5974 2.01653 36.4697 3.6924 34.2958C4.77493 32.893 5.87319 31.4666 6.24647 29.9804C6.64039 28.4106 6.45669 28.0609 6.2396 27.6453C5.63939 26.5009 4.88397 25.0618 7.33589 16.3809C9.31923 9.35521 13.6111 5.11052 20.1623 2.74898C27.799 -0.00450814 35.3148 0.0622909 41.758 2.17923C52.0843 5.56928 59.83 14.3209 60.6061 25.3909C61.0236 31.337 59.4135 37.896 55.1276 44.5327C54.5618 45.5347 53.881 46.5406 53.1885 47.5672C51.9468 49.4061 50.6609 51.3099 50.099 53.081C48.429 58.3513 50.934 65.4359 52.8869 70.9596C53.381 72.3594 53.8407 73.661 54.213 74.886C54.2754 75.0389 54.2994 75.2048 54.283 75.3692C54.2666 75.5336 54.2102 75.6914 54.1187 75.829C54.0275 75.9655 53.9041 76.0775 53.7593 76.1549C53.6145 76.2324 53.4529 76.2729 53.2887 76.273H20.4629C20.2989 76.2728 20.1375 76.232 19.9932 76.1542C19.8488 76.0763 19.726 75.9639 19.6357 75.827C19.5441 75.69 19.4873 75.5326 19.4702 75.3687C19.4531 75.2047 19.4762 75.039 19.5375 74.886ZM32.6439 27.8487C32.7531 27.917 32.8428 28.0124 32.9043 28.1257C32.9658 28.239 32.9968 28.3662 32.9945 28.4951C32.9946 28.6425 32.952 28.7869 32.8721 28.9108C32.7921 29.0346 32.678 29.1328 32.5437 29.1935C32.4095 29.2537 32.2606 29.273 32.1155 29.2489C31.9705 29.2247 31.8358 29.1583 31.7283 29.058C31.0839 28.4587 31.8167 27.3713 32.6439 27.8487ZM34.972 21.715C35.0371 21.6021 35.124 21.5032 35.2275 21.424C35.3311 21.3449 35.4493 21.287 35.5753 21.2538C35.7013 21.2205 35.8327 21.2126 35.9618 21.2304C36.0909 21.2481 36.2153 21.2913 36.3276 21.3574C36.5548 21.492 36.7203 21.71 36.789 21.9649C36.8576 22.2198 36.8239 22.4915 36.695 22.7219L34.3826 26.7622C35.8394 28.5923 34.5123 31.2692 32.2411 31.2692C29.8707 31.2692 28.5966 28.4047 30.2194 26.6198C30.5224 26.2838 30.9044 26.0286 31.3308 25.8775C31.7572 25.7264 32.2146 25.6841 32.6615 25.7543L34.972 21.715ZM17.0443 20.8004L21.6417 23.4793C21.0532 24.7425 20.6927 26.1021 20.5768 27.4921L15.2673 27.4882C15.3999 25.16 16.0031 22.883 17.0443 20.8004ZM22.8961 14.1726L25.5514 18.8122C24.4158 19.6106 23.4302 20.6033 22.6397 21.7444L18.0414 19.0656C19.3122 17.1231 20.9641 15.4588 22.8971 14.1736L22.8961 14.1726ZM31.2421 11.3886V16.7453C29.8668 16.8597 28.5233 17.2201 27.2754 17.8092L24.6211 13.1686C26.6821 12.125 28.9366 11.5186 31.243 11.3877L31.2421 11.3886ZM39.8503 13.1863L37.196 17.8269C35.9515 17.2354 34.611 16.8718 33.2382 16.7532V11.3896C35.5408 11.5262 37.7923 12.1362 39.8513 13.1853L39.8503 13.1863ZM46.4084 19.0843L41.8091 21.7631C41.0238 20.6253 40.0446 19.6344 38.9161 18.8357L41.5704 14.1942C43.4955 15.4816 45.1404 17.145 46.4064 19.0843H46.4084ZM49.1805 27.664H43.8759C43.7764 26.2218 43.4132 24.81 42.8042 23.4989L47.4025 20.8191C48.4646 22.9523 49.0701 25.2836 49.1805 27.664ZM51.1865 28.3074L51.1904 28.6699C51.1904 28.9361 51.0853 29.1925 50.8976 29.3811C50.711 29.5697 50.4576 29.6758 50.1923 29.6758H42.9063V29.6719C42.7745 29.6721 42.644 29.6458 42.5226 29.5947C42.4011 29.5436 42.2911 29.4686 42.199 29.3743C42.1062 29.2796 42.0331 29.1675 41.9838 29.0444C41.9346 28.9213 41.9103 28.7897 41.9122 28.6572C41.9342 27.3666 41.7026 26.0843 41.2305 24.883C40.7593 23.6843 40.0563 22.5904 39.1617 21.6639C38.2701 20.7406 37.2039 20.0037 36.0251 19.4959C34.252 18.7317 32.29 18.5189 30.3943 18.8851C28.4987 19.2513 26.7571 20.1795 25.3962 21.549C24.4864 22.46 23.7653 23.5415 23.2743 24.7317C22.7825 25.9251 22.5299 27.2034 22.5307 28.4941H22.5258C22.5258 28.7613 22.4216 29.0157 22.235 29.2043C22.0484 29.3919 21.7959 29.498 21.5326 29.498L14.2447 29.4912C13.9814 29.4912 13.7289 29.3861 13.5423 29.1974C13.3557 29.0086 13.2511 28.7537 13.2515 28.4882C13.2498 23.4379 15.235 18.5897 18.7782 14.9909C20.5227 13.2189 22.6002 11.8089 24.8911 10.842C27.1821 9.87502 29.6415 9.37009 32.1281 9.35619C34.6151 9.34595 37.0796 9.82718 39.3801 10.7722C41.6805 11.7173 43.7716 13.1076 45.5331 14.8632C49.1099 18.4279 51.1406 23.2568 51.1865 28.3065V28.3074Z" fill="#0E2F41"/>
<path d="M16.4629 19.2986L22.3569 22.7368M23.5308 13.1914L26.2863 18.3163" stroke="white" stroke-width="1.96468"/>
<path d="M31.2012 10.457H33.1658V17.3334H31.2012V10.457ZM40.5098 12.4217L42.2151 13.3972L38.8005 19.3659L37.0952 18.3904L40.5098 12.4217ZM47.0856 18.5859L48.2094 20.4621L42.3085 23.9927L41.1857 22.1164L47.0856 18.5859Z" fill="white"/>
</g>
<defs>
<clipPath id="clip0_492_1296">
<rect width="59.9226" height="75.64" fill="white" transform="translate(0.746094 0.632812)"/>
</clipPath>
</defs>
</svg>
