<svg width="27" height="26" viewBox="0 0 27 26" fill="none" xmlns="http://www.w3.org/2000/svg">
<path d="M25.5 21V13C25.5 6.37258 20.1274 1 13.5 1C6.87258 1 1.5 6.37258 1.5 13V21M4.83333 25C2.99238 25 1.5 23.5076 1.5 21.6667V19C1.5 17.1591 2.99238 15.6667 4.83333 15.6667C6.67428 15.6667 8.16667 17.1591 8.16667 19V21.6667C8.16667 23.5076 6.67428 25 4.83333 25ZM22.1667 25C20.3257 25 18.8333 23.5076 18.8333 21.6667V19C18.8333 17.1591 20.3257 15.6667 22.1667 15.6667C24.0076 15.6667 25.5 17.1591 25.5 19V21.6667C25.5 23.5076 24.0076 25 22.1667 25Z" stroke="black" stroke-width="2" stroke-linecap="round" stroke-linejoin="round"/>
</svg>
