<svg width="24" height="24" viewBox="0 0 24 24" fill="none" xmlns="http://www.w3.org/2000/svg">
<path d="M7.10154 2.92494C6.66091 3.06557 6.35154 3.28588 6.08904 3.64682C5.93904 3.86244 5.82185 4.17182 5.3906 5.47963C5.10935 6.34682 4.87498 7.12963 4.87498 7.21869C4.87966 7.58432 5.2781 7.79994 5.62498 7.61713C5.75154 7.55151 5.88748 7.28432 5.98123 6.91401L6.00935 6.79682H13.125H20.2359L19.5562 8.86869C19.1859 10.0124 18.8765 10.9499 18.8719 10.9546C18.8672 10.9593 18.675 10.8703 18.4406 10.7531C17.5172 10.289 16.5375 10.064 15.4219 10.064C14.3015 10.064 13.439 10.2656 12.4453 10.7578C10.3687 11.7843 8.99998 13.7578 8.75623 16.064L8.69998 16.5937H5.85466C4.28904 16.5937 2.97654 16.5796 2.93435 16.5656C2.89216 16.5515 2.85935 16.4999 2.85935 16.4578C2.85935 16.4156 3.1031 15.6562 3.39841 14.7656L3.93748 13.1484L5.62029 13.1249C7.26091 13.1015 7.31248 13.0968 7.40623 13.0031C7.63123 12.7828 7.55154 12.3046 7.27966 12.1921C7.18123 12.1546 6.47341 12.1406 4.65466 12.1499C2.2781 12.164 2.16091 12.1687 2.06716 12.2531C1.85154 12.4453 1.8656 12.8249 2.08591 13.0171C2.18904 13.1062 2.26404 13.1249 2.53591 13.1249C2.71404 13.1249 2.85935 13.1296 2.85935 13.139C2.85935 13.1437 2.63435 13.814 2.36248 14.6249C1.94998 15.8624 1.8656 16.1531 1.86091 16.4062C1.85623 16.7812 1.97341 17.0671 2.22654 17.2921C2.56873 17.5874 2.4281 17.5781 5.73279 17.5781H8.74685L8.83123 18.0046C8.87341 18.239 8.96248 18.5999 9.0281 18.8062C9.22498 19.4249 8.4656 19.3593 15.4547 19.3593H21.4687L21.6047 19.2281C21.764 19.0828 21.9422 18.5624 22.064 17.8874C22.1672 17.3062 22.1625 16.2421 22.0547 15.6328C21.8109 14.2265 21.0937 12.8671 20.0906 11.9156L19.7344 11.5781L20.9344 7.93119C21.975 4.78588 22.139 4.25151 22.139 4.00776C22.139 3.51557 21.9234 3.17807 21.4922 2.97182L21.2578 2.85932L14.2734 2.86401C8.77966 2.86401 7.24685 2.87807 7.10154 2.92494ZM21.1078 3.94213C21.1406 3.99369 21.0703 4.26088 20.864 4.91244L20.5734 5.81244H13.4765C9.57185 5.81244 6.37498 5.79369 6.37498 5.77494C6.37498 5.64369 6.86248 4.32182 6.95623 4.19526C7.02185 4.11088 7.16248 3.99838 7.27498 3.94213L7.47654 3.84369L14.2687 3.85307C20.3531 3.86713 21.0656 3.87651 21.1078 3.94213ZM14.925 11.3015C14.9672 11.6296 15.1453 11.8124 15.4219 11.8124C15.5812 11.8124 15.6469 11.7843 15.7781 11.6531C15.914 11.5171 15.9375 11.4609 15.9375 11.2781C15.9375 11.0765 15.9469 11.0624 16.0453 11.0812C16.1015 11.0953 16.289 11.1281 16.4625 11.1562C17.1984 11.2734 18.1172 11.6671 18.764 12.1453L19.0828 12.3796L18.9422 12.5437C18.6422 12.8812 18.825 13.4062 19.2422 13.4062C19.4297 13.4062 19.5609 13.3499 19.7203 13.2093L19.8234 13.1156L20.039 13.4109C20.5875 14.1562 20.9625 15.0796 21.0844 15.9796L21.1265 16.2656H20.9437C20.7328 16.2656 20.5078 16.3687 20.4375 16.4953C20.414 16.5468 20.3906 16.6734 20.3906 16.7812C20.3906 16.9359 20.4187 17.0062 20.5265 17.114C20.6437 17.2265 20.7047 17.2499 20.8969 17.2499C21.1219 17.2499 21.1265 17.2546 21.1078 17.3765C21.0562 17.7515 20.9906 18.089 20.9484 18.2203L20.8969 18.3749H15.4219H9.94685L9.86716 18.0328C9.82498 17.8499 9.7781 17.5968 9.76404 17.4703L9.73591 17.2499H9.97029C10.139 17.2499 10.2281 17.2218 10.3078 17.1515C10.6687 16.814 10.4531 16.2656 9.95623 16.2656C9.71248 16.2656 9.71716 16.2703 9.82498 15.7031C9.90466 15.2624 10.1203 14.6343 10.3219 14.2265C10.4765 13.9171 10.9453 13.1906 11.0203 13.1484C11.0437 13.1296 11.1375 13.1812 11.2312 13.2609C11.4515 13.4578 11.7047 13.4624 11.9156 13.2703C12.0469 13.1531 12.0703 13.1015 12.0703 12.9187C12.0703 12.7453 12.0422 12.6796 11.9109 12.5484L11.7562 12.3843L12.1219 12.1218C12.8906 11.5781 13.8281 11.2171 14.864 11.0671C14.8828 11.0624 14.9062 11.1703 14.925 11.3015Z" fill="black"/>
<path d="M16.6125 4.40625C16.5609 4.425 16.4531 4.51875 16.3687 4.6125C16.1719 4.84219 16.1578 5.10469 16.3406 5.24531C16.4109 5.30156 16.5187 5.34375 16.5797 5.34375C16.7484 5.34375 17.0015 5.2125 17.1328 5.05313C17.2781 4.87969 17.2969 4.55625 17.1656 4.43906C17.0719 4.35469 16.7812 4.33594 16.6125 4.40625Z" fill="black"/>
<path d="M18.0141 4.46245C17.8219 4.60308 17.7188 4.7812 17.7188 4.98276C17.7188 5.29214 17.9719 5.40933 18.3188 5.2687C18.5859 5.1562 18.75 4.9312 18.75 4.68276C18.75 4.55151 18.7219 4.48589 18.6469 4.43433C18.4922 4.32651 18.1922 4.34058 18.0141 4.46245Z" fill="black"/>
<path d="M19.5 4.47178C19.2984 4.60303 19.2 4.78115 19.2 4.99209C19.2 5.30146 19.4765 5.41865 19.8375 5.25928C20.1984 5.0999 20.3672 4.66396 20.1562 4.45303C20.0203 4.31709 19.7109 4.32646 19.5 4.47178Z" fill="black"/>
<path d="M18.5391 14.2171C18.4359 14.278 17.8594 14.639 17.2641 15.014L16.1719 15.6983L15.975 15.6093C15.7406 15.5015 15.2766 15.4874 14.9813 15.5718C14.8594 15.6093 14.7 15.7171 14.5453 15.8718C14.0438 16.3733 14.0297 17.1093 14.5172 17.6296C14.7797 17.9108 15.0563 18.0233 15.4734 18.0187C16.1578 18.014 16.6828 17.4749 16.6875 16.7812V16.5702L17.8922 15.8202C18.5578 15.4077 19.1484 15.028 19.2094 14.9765C19.2891 14.9108 19.3313 14.8124 19.3453 14.6671C19.3688 14.4796 19.3547 14.4327 19.2375 14.3015C19.05 14.0952 18.7969 14.0624 18.5391 14.2171ZM15.6094 16.603C15.7219 16.7249 15.7266 16.7765 15.6281 16.9124C15.5531 17.0249 15.4219 17.0437 15.2766 16.9687C15.15 16.8983 15.1594 16.6687 15.2906 16.5749C15.4313 16.4765 15.4922 16.4812 15.6094 16.603Z" fill="black"/>
<path d="M2.21718 8.61094C2.08124 8.63906 1.88905 8.83594 1.86093 8.98125C1.82343 9.19219 1.91249 9.41719 2.07655 9.51562C2.21249 9.6 2.31561 9.60937 3.12186 9.60937H4.02186L3.86249 10.1109C3.66093 10.7344 3.66093 10.8844 3.83905 11.0672C3.95155 11.175 4.01718 11.2031 4.19061 11.2031C4.52811 11.2031 4.6078 11.1 4.8703 10.3125L5.0953 9.63281L8.31093 9.60937L11.5312 9.58594L11.6531 9.46406C11.9203 9.19219 11.8125 8.72812 11.4516 8.62969C11.2781 8.57812 2.46093 8.56406 2.21718 8.61094Z" fill="black"/>
<path d="M3.07969 18.4266C2.96719 18.4922 2.85938 18.7172 2.85938 18.8953C2.85938 18.9984 2.90625 19.0875 3.01875 19.2L3.17812 19.3594H5.175C7.37344 19.3594 7.38281 19.3594 7.5 19.0781C7.58437 18.8766 7.52812 18.6094 7.38281 18.4781L7.26094 18.375H5.2125C3.90937 18.375 3.13594 18.3937 3.07969 18.4266Z" fill="black"/>
<path d="M8.14687 20.2265C7.97812 20.3203 7.92188 20.4328 7.92188 20.6718C7.92188 20.8265 7.95 20.8968 8.05781 21.0047L8.19375 21.1406H10.3125C12.6562 21.1406 12.6 21.15 12.7031 20.8312C12.7734 20.625 12.7266 20.4328 12.5812 20.2922L12.4594 20.1797L10.3687 20.1703C8.58281 20.1609 8.25469 20.1703 8.14687 20.2265Z" fill="black"/>
<path d="M13.7015 20.2031C13.4203 20.3156 13.35 20.7703 13.575 21.0047L13.7062 21.1406H14.3015C14.8734 21.1406 14.8969 21.1359 15.0094 21.0234C15.075 20.9578 15.1406 20.8406 15.1594 20.7562C15.1969 20.5734 15.0656 20.2969 14.9062 20.2172C14.7703 20.1469 13.8609 20.1375 13.7015 20.2031Z" fill="black"/>
</svg>
