<svg width="38" height="38" viewBox="0 0 38 38" fill="none" xmlns="http://www.w3.org/2000/svg">
<path d="M8.14278 22.1675C6.95474 20.2219 6.32837 17.9855 6.33303 15.7059C6.33303 8.7804 12.0045 3.16748 18.9997 3.16748C25.9949 3.16748 31.6664 8.7804 31.6664 15.7059C31.671 17.9855 31.0447 20.2219 29.8566 22.1675M23.7497 30.0841L23.5439 31.1086C23.3222 32.228 23.2098 32.7869 22.958 33.2302C22.5701 33.9135 21.942 34.4282 21.1958 34.6742C20.7129 34.8341 20.1397 34.8341 18.9997 34.8341C17.8597 34.8341 17.2865 34.8341 16.8036 34.6758C16.0571 34.4294 15.429 33.9141 15.0414 33.2302C14.7896 32.7869 14.6772 32.228 14.4555 31.1086L14.2497 30.0841M11.6895 27.0726C11.5438 26.6356 11.471 26.4156 11.4789 26.2382C11.4878 26.0549 11.5497 25.878 11.6571 25.7291C11.7644 25.5802 11.9126 25.4655 12.0837 25.3991C12.2484 25.3341 12.4795 25.3341 12.9387 25.3341H25.0607C25.5215 25.3341 25.751 25.3341 25.9157 25.3975C26.0871 25.4641 26.2354 25.5789 26.3428 25.7282C26.4501 25.8774 26.5119 26.0546 26.5205 26.2382C26.5285 26.4156 26.4556 26.6341 26.31 27.0726C26.0408 27.8817 25.9062 28.2871 25.6988 28.6148C25.265 29.2998 24.5849 29.7922 23.7988 29.9907C23.422 30.0841 22.9976 30.0841 22.1474 30.0841H15.852C15.0018 30.0841 14.5759 30.0841 14.2006 29.9891C13.4148 29.791 12.7347 29.2992 12.3006 28.6148C12.0932 28.2871 11.9586 27.8817 11.6895 27.0726Z" stroke="white" stroke-width="2.375" stroke-linecap="round" stroke-linejoin="round"/>
<path d="M19.487 19.0009L17.1738 11.8426C17.0937 11.617 16.9446 11.4223 16.7476 11.2862C16.5507 11.1501 16.3159 11.0794 16.0765 11.0842C15.8371 11.0794 15.6023 11.1501 15.4054 11.2862C15.2084 11.4223 15.0594 11.617 14.9793 11.8426L12.666 19.0009M23.7493 11.0842V19.0009M13.5178 16.6259H18.6336" stroke="white" stroke-width="2.375" stroke-linecap="round" stroke-linejoin="round"/>
</svg>
