<svg width="24" height="24" viewBox="0 0 24 24" fill="none" xmlns="http://www.w3.org/2000/svg">
<path d="M5.15754 11.4887C5.08454 12.8847 5.16854 14.3707 3.92154 15.3057C3.63485 15.5203 3.4022 15.7988 3.24214 16.1191C3.08207 16.4394 2.999 16.7926 2.99954 17.1507C2.99954 18.1477 3.78155 18.9977 4.79955 18.9977H19.1995C20.2175 18.9977 20.9995 18.1477 20.9995 17.1507C20.9995 16.4247 20.6575 15.7407 20.0775 15.3057C18.8305 14.3707 18.9145 12.8847 18.8415 11.4887C18.7516 9.7348 17.9914 8.08242 16.7182 6.87282C15.4449 5.66321 13.7558 4.98877 11.9995 4.98877C10.2433 4.98877 8.55416 5.66321 7.2809 6.87282C6.00765 8.08242 5.24754 9.7348 5.15754 11.4887Z" stroke="black" stroke-width="1.5" stroke-linecap="round" stroke-linejoin="round"/>
<path d="M14.9998 18.9959C14.9998 19.7915 14.6837 20.5546 14.1211 21.1172C13.5585 21.6798 12.7954 21.9959 11.9998 21.9959C11.2041 21.9959 10.441 21.6798 9.87844 21.1172C9.31583 20.5546 8.99976 19.7915 8.99976 18.9959M10.4998 3.12085C10.4998 3.94885 11.1718 4.99585 11.9998 4.99585C12.8278 4.99585 13.4998 3.94885 13.4998 3.12085C13.4998 2.29285 12.8278 1.99585 11.9998 1.99585C11.1718 1.99585 10.4998 2.29285 10.4998 3.12085Z" stroke="black" stroke-width="1.5" stroke-linecap="round" stroke-linejoin="round"/>
</svg>
