<svg width="38" height="38" viewBox="0 0 38 38" fill="none" xmlns="http://www.w3.org/2000/svg">
<path d="M6.3335 26.1256C6.3335 27.3853 6.83395 28.5935 7.72475 29.4843C8.61554 30.3751 9.82373 30.8756 11.0835 30.8756C11.0835 31.9254 11.5005 32.9322 12.2429 33.6745C12.9852 34.4169 13.992 34.8339 15.0418 34.8339C16.0917 34.8339 17.0985 34.4169 17.8408 33.6745C18.5831 32.9322 19.0002 31.9254 19.0002 30.8756C19.0002 31.9254 19.4172 32.9322 20.1595 33.6745C20.9019 34.4169 21.9087 34.8339 22.9585 34.8339C24.0083 34.8339 25.0151 34.4169 25.7575 33.6745C26.4998 32.9322 26.9168 31.9254 26.9168 30.8756C27.7589 30.8756 28.5859 30.6518 29.3131 30.2271C30.0402 29.8024 30.6413 29.192 31.0549 28.4584C31.4685 27.7249 31.6796 26.8946 31.6667 26.0526C31.6537 25.2106 31.4172 24.3871 30.9813 23.6667C32.065 23.4572 33.042 22.8771 33.7446 22.0258C34.4471 21.1745 34.8314 20.1051 34.8314 19.0014C34.8314 17.8976 34.4471 16.8282 33.7446 15.9769C33.042 15.1256 32.065 14.5455 30.9813 14.3361C31.4176 13.6156 31.6545 12.792 31.6676 11.9497C31.6808 11.1075 31.4697 10.2769 31.0561 9.54312C30.6425 8.80933 30.0412 8.19873 29.3138 7.77391C28.5864 7.34909 27.7592 7.12533 26.9168 7.12557C26.9168 6.07575 26.4998 5.06894 25.7575 4.32661C25.0151 3.58427 24.0083 3.16724 22.9585 3.16724C21.9087 3.16724 20.9019 3.58427 20.1595 4.32661C19.4172 5.06894 19.0002 6.07575 19.0002 7.12557C19.0002 6.07575 18.5831 5.06894 17.8408 4.32661C17.0985 3.58427 16.0917 3.16724 15.0418 3.16724C13.992 3.16724 12.9852 3.58427 12.2429 4.32661C11.5005 5.06894 11.0835 6.07575 11.0835 7.12557C10.2414 7.1255 9.41442 7.3493 8.68729 7.77404C7.96015 8.19878 7.359 8.80919 6.94543 9.54273C6.53185 10.2763 6.32072 11.1066 6.33366 11.9486C6.34661 12.7906 6.58316 13.614 7.01909 14.3345C5.93536 14.5439 4.95834 15.124 4.25578 15.9754C3.55321 16.8267 3.16895 17.896 3.16895 18.9998C3.16895 20.1036 3.55321 21.1729 4.25578 22.0242C4.95834 22.8755 5.93536 23.4557 7.01909 23.6651C6.57019 24.4073 6.33309 25.2582 6.3335 26.1256Z" stroke="white" stroke-width="2.375" stroke-linecap="round" stroke-linejoin="round"/>
<path d="M11.875 22.959L14.7915 14.2095C14.8647 13.9911 15.0047 13.8013 15.1916 13.6668C15.3786 13.5323 15.603 13.46 15.8333 13.46C16.0636 13.46 16.2881 13.5323 16.475 13.6668C16.662 13.8013 16.802 13.9911 16.8752 14.2095L19.7917 22.959M24.5417 13.459V22.959M13.4583 19.7923H18.2083" stroke="white" stroke-width="2.375" stroke-linecap="round" stroke-linejoin="round"/>
</svg>
