<svg width="32" height="44" viewBox="0 0 32 44" fill="none" xmlns="http://www.w3.org/2000/svg">
<path d="M22.0245 40.8349L12.7003 43.3333C12.036 43.5112 11.347 43.1134 11.1689 42.4491C10.991 41.7849 11.3888 41.0958 12.053 40.9178L21.3772 38.4194C22.0415 38.2415 22.7305 38.6392 22.9086 39.3035C23.0867 39.9678 22.6887 40.6569 22.0245 40.8349ZM17.7073 12.1807C17.6238 13.3174 16.9808 13.958 15.9827 13.9418C14.9888 13.9258 14.2655 13.2446 14.2894 12.2075C14.3125 11.1983 14.9453 10.5354 16.0216 10.5471C17.0973 10.5587 17.6305 11.1943 17.7073 12.1807ZM29.661 8.35006C25.9517 2.22375 18.6051 -0.752816 11.7798 1.24129C5.80677 2.98652 1.91226 6.93041 0.496171 12.9959C-0.905475 18.9993 0.83916 24.1629 5.25458 28.4873C6.29008 29.5015 7.24216 30.73 7.82592 32.0409C8.41116 33.3549 8.59878 33.7657 10.0243 33.4208C12.004 32.9417 13.9573 32.3533 15.9366 31.8725C16.9514 31.626 17.3369 31.0594 17.3302 30.0365C17.3031 25.9079 17.3122 21.7791 17.3272 17.6505C17.3305 16.7159 17.0368 15.9464 16.0312 15.923C15.0134 15.8994 14.7017 16.6432 14.7102 17.5959C14.7338 20.2727 14.7174 22.9496 14.7172 25.6264C14.7171 29.9326 14.7172 29.9326 10.483 30.5513C8.87339 28.7069 7.40762 27.0489 5.9653 25.3707C0.78879 19.3475 1.73543 10.4436 8.19612 5.83207C12.8377 2.51885 17.8238 2.33449 22.7949 5.13194C27.4108 7.7296 29.9219 13.0813 29.2563 18.2583C28.8117 21.7167 27.1603 24.4773 24.7109 26.8504C23.2326 28.2826 21.8856 29.8246 21.4007 31.8955C21.1739 32.8641 20.6308 33.3446 19.6925 33.5758C19.8679 33.4128 9.57876 36.2958 9.57876 36.2958C8.92782 36.4702 8.53802 37.1455 8.71248 37.7963L8.7393 37.8969C8.91376 38.5478 9.58896 38.9377 10.2399 38.7633C10.2399 38.7633 22.0456 35.5909 22.2004 35.5471C23.2937 35.2453 23.8887 34.4669 23.9137 33.356C23.9509 31.6976 24.6715 30.4068 25.8442 29.3049C26.4719 28.7149 27.097 28.1197 27.6877 27.4934C32.564 22.3215 33.3687 14.4743 29.661 8.35006Z" fill="white"/>
</svg>
