<svg width="34" height="33" viewBox="0 0 34 33" fill="none" xmlns="http://www.w3.org/2000/svg">
<path d="M6.09044 0.857422L4.41844 2.52705L6.90625 5.01367L8.57588 3.34405L6.09044 0.857422ZM27.9107 0.857422L25.4229 3.34405L27.0938 5.01367L29.5804 2.52823L27.9107 0.857422ZM17 1.59842C16.6081 1.60159 16.2123 1.62692 15.8125 1.67442H15.7769C10.9604 2.22661 7.12712 6.11805 6.46094 10.9132C5.92894 14.7725 7.52019 18.2721 10.1719 20.526C11.2564 21.4518 11.99 22.7221 12.25 24.1241V31.2491H14.9575C15.3707 31.958 16.1248 32.4366 17 32.4366C17.8752 32.4366 18.6292 31.958 19.0425 31.2491H21.75V26.4991H21.8616V25.0884C21.8616 23.3475 22.7665 21.5924 24.2366 20.2279C26.2031 18.259 27.6875 15.4625 27.6875 12.2503C27.6875 6.38405 22.8591 1.5438 17 1.59842ZM17 3.97342C21.5897 3.9093 25.3125 7.66655 25.3125 12.2503C25.3125 14.7369 24.1606 16.9267 22.5658 18.5203L22.6038 18.5583C21.0196 20.0203 19.9949 21.989 19.7063 24.1253H14.5122C14.2509 22.0899 13.3781 20.1199 11.7287 18.7067C9.63037 16.9255 8.37994 14.2417 8.79794 11.2112C9.31688 7.47061 12.3521 4.46267 16.0714 4.05061C16.3785 4.00802 16.6877 3.98265 16.9976 3.97461L17 3.97342ZM0.375 12.2503V14.6253H3.9375V12.2503H0.375ZM30.0625 12.2503V14.6253H33.625V12.2503H30.0625ZM6.90625 21.8619L4.41963 24.3474L6.09044 26.0182L8.57469 23.5315L6.90625 21.8619ZM27.0938 21.8619L25.4241 23.5315L27.9096 26.0182L29.5804 24.3474L27.0938 21.8619ZM14.625 26.5003H19.375V28.8753H14.625V26.5003Z" fill="white"/>
</svg>
