<svg width="24" height="24" viewBox="0 0 24 24" fill="none" xmlns="http://www.w3.org/2000/svg">
<path d="M3.40314 3.12187C3.21564 3.31406 3.26251 3.6375 3.50158 3.74531C3.58126 3.78281 5.42814 3.79688 10.0313 3.79688H16.4438L16.5891 3.675C16.7766 3.52031 16.7906 3.28594 16.6172 3.11719L16.5047 3H10.0172H3.5297L3.40314 3.12187Z" fill="black"/>
<path d="M17.5828 3.07969C17.5266 3.12656 17.4703 3.24375 17.4516 3.3375C17.4281 3.4875 17.4469 3.52969 17.5687 3.65625L17.7094 3.79688H18.9047C20.0391 3.79688 20.1047 3.79219 20.2219 3.69844C20.3859 3.56719 20.3953 3.25312 20.2359 3.10312C20.1281 3.00469 20.0953 3 18.9047 3C17.8078 3 17.6719 3.00937 17.5828 3.07969Z" fill="black"/>
<path d="M2.57812 4.36401C2.46094 4.38745 2.23594 4.47183 2.07187 4.55151C1.58437 4.79058 1.26562 5.16558 1.07812 5.71401C0.984375 5.99058 0.984375 6.08901 0.984375 11.5968C0.984375 17.0718 0.984375 17.1984 1.07812 17.4984C1.25625 18.0796 1.71562 18.5531 2.32031 18.7781C2.54062 18.8625 2.775 18.8671 6.34219 18.8812L10.1297 18.8953L10.2656 18.7546C10.4391 18.5859 10.4437 18.4265 10.2937 18.2484L10.1812 18.1171L6.4125 18.0937C2.91094 18.0703 2.63437 18.0656 2.47969 17.9859C2.23594 17.864 2.01562 17.6343 1.89375 17.3671L1.78125 17.1328V12.8531V8.57808H12H22.2187V12.8671C22.2187 17.0718 22.2187 17.1609 22.125 17.3578C21.9844 17.6484 21.7922 17.8453 21.5109 17.9765C21.2625 18.0937 21.2437 18.0937 20.0062 18.0937C18.7781 18.0937 18.7547 18.0937 18.6375 18.2015C18.5672 18.2578 18.5016 18.3703 18.4875 18.4546C18.4641 18.5812 18.4828 18.6281 18.6047 18.75L18.75 18.8953L20.1187 18.8812C21.4219 18.8671 21.5062 18.8578 21.7641 18.7593C22.1297 18.6093 22.4719 18.3281 22.6828 18C23.0391 17.4468 23.0203 17.9015 23.0062 11.5078L22.9922 5.78901L22.8375 5.47026C22.5609 4.90776 22.0359 4.49526 21.4312 4.36401C21.1266 4.29839 2.90625 4.29839 2.57812 4.36401ZM21.4359 5.20308C21.7266 5.31089 21.9844 5.55933 22.1203 5.85933C22.2047 6.04683 22.2187 6.1687 22.2187 6.92339V7.7812H12H1.78125V6.92339C1.78125 6.12651 1.79062 6.0562 1.89375 5.8312C2.025 5.54526 2.33437 5.2687 2.625 5.17964C2.80312 5.12808 4.29844 5.11401 12.0094 5.11401C21.0656 5.10933 21.1875 5.10933 21.4359 5.20308Z" fill="black"/>
<path d="M13.8328 12.075C13.2 12.2438 12.6187 12.7313 12.3281 13.3359C12.225 13.5469 12.1312 13.8094 12.1172 13.9266C12.1031 14.0391 12.0844 14.1938 12.075 14.2734C12.0609 14.3484 12.0516 14.5406 12.0516 14.7L12.0469 14.9859L11.8172 15.1313C11.5219 15.3141 11.2734 15.6516 11.1797 16.0078C11.1141 16.2469 11.1047 16.5422 11.1187 18.0703L11.1328 19.8516L11.2641 20.1141C11.4234 20.4422 11.6531 20.6813 11.9672 20.85L12.2109 20.9766H14.4141C16.5891 20.9766 16.6219 20.9766 16.8422 20.8734C17.1141 20.7422 17.4656 20.3906 17.5969 20.1094C17.6906 19.9078 17.6953 19.8141 17.7094 18.0563C17.7234 16.0219 17.7141 15.9047 17.4422 15.525C17.3625 15.4219 17.2031 15.2625 17.0906 15.1781L16.8797 15.0234L16.875 14.5313C16.875 13.9547 16.7953 13.5891 16.5844 13.2234C16.1437 12.45 15.3562 11.9953 14.475 12.0047C14.2594 12.0047 13.9734 12.0375 13.8328 12.075ZM15.15 12.9469C15.4687 13.0969 15.7875 13.4109 15.9375 13.7203C16.0219 13.8938 16.0547 14.0531 16.0687 14.4L16.0875 14.8594H14.4609H12.8297L12.8578 14.4703C12.8953 13.9969 12.9844 13.7344 13.2 13.4391C13.3734 13.2047 13.7531 12.9281 14.0203 12.8484C14.3109 12.7594 14.8547 12.8109 15.15 12.9469ZM16.5797 15.8063C16.9266 16.0359 16.9266 16.0359 16.9125 18.0188L16.8984 19.7766L16.7578 19.9219C16.4859 20.2078 16.5422 20.2031 14.4375 20.2031C12.2953 20.2031 12.3 20.2031 12.0656 19.8938L11.9297 19.7203L11.9156 18.0516C11.8969 16.275 11.9109 16.1578 12.1219 15.9188C12.3469 15.6656 12.4125 15.6563 14.4891 15.6703L16.3875 15.6797L16.5797 15.8063Z" fill="black"/>
<path d="M14.1328 16.5422C13.4672 16.8469 13.3406 17.7375 13.8937 18.225C13.9875 18.3047 14.0859 18.375 14.1094 18.375C14.1375 18.375 14.1562 18.5719 14.1562 18.8391C14.1562 19.2609 14.1656 19.3078 14.2734 19.425C14.3344 19.4906 14.4328 19.5469 14.4937 19.5469C14.8594 19.5422 14.9531 19.3922 14.9531 18.7969C14.9531 18.5484 14.9719 18.375 15 18.375C15.0234 18.375 15.1312 18.3 15.2297 18.2063C15.5531 17.9156 15.6469 17.3859 15.45 16.9922C15.2203 16.5375 14.6016 16.3266 14.1328 16.5422ZM14.6953 17.325C14.8031 17.4375 14.7656 17.5922 14.6156 17.6438C14.4609 17.7 14.3437 17.6156 14.3437 17.4563C14.3437 17.2734 14.5594 17.1938 14.6953 17.325Z" fill="black"/>
<path d="M4.37344 14.9062C3.91875 15.1312 3.70312 15.4874 3.70312 15.9937C3.70312 16.5562 4.05 17.0296 4.575 17.1843C5.38594 17.4187 6.14531 16.8562 6.15469 16.0124C6.16406 15.0749 5.2125 14.489 4.37344 14.9062ZM5.2125 15.6984C5.42812 15.8906 5.42344 16.1296 5.20781 16.3218C5.07656 16.439 5.025 16.4578 4.87969 16.4343C4.50937 16.3781 4.37344 15.9609 4.63594 15.6984C4.81875 15.5203 5.01094 15.5156 5.2125 15.6984Z" fill="black"/>
<path d="M7.95468 14.836C7.85625 14.8735 7.69218 14.9719 7.58906 15.0516C7.14843 15.3985 7.01718 16.0829 7.29375 16.5891C7.54218 17.0485 8.02968 17.2969 8.54062 17.2313C8.85937 17.1891 9.09375 17.0625 9.31406 16.8094C9.83906 16.2141 9.64687 15.2625 8.92968 14.8922C8.69062 14.7704 8.19843 14.7422 7.95468 14.836ZM8.67656 15.6985C8.93906 15.961 8.80312 16.3782 8.43281 16.4344C8.29218 16.4579 8.24062 16.4438 8.11406 16.3313C7.89375 16.1297 7.87968 15.9422 8.0625 15.7313C8.25937 15.511 8.475 15.4969 8.67656 15.6985Z" fill="black"/>
</svg>
