<svg width="17" height="19" viewBox="0 0 17 19" fill="none" xmlns="http://www.w3.org/2000/svg">
<path d="M13.3368 7.34329V5.5538C13.3368 3.08303 11.3338 1.08008 8.86304 1.08008C6.39227 1.08008 4.38931 3.08303 4.38931 5.5538V7.34329M8.86304 11.3696V13.1591M5.99985 17.1855H11.7262C13.2295 17.1855 13.9812 17.1855 14.5554 16.8929C15.0604 16.6356 15.4711 16.2249 15.7284 15.7199C16.021 15.1457 16.021 14.394 16.021 12.8907V11.6381C16.021 10.1348 16.021 9.3831 15.7284 8.80891C15.4711 8.30384 15.0604 7.8932 14.5554 7.63585C13.9812 7.34329 13.2295 7.34329 11.7262 7.34329H5.99985C4.49654 7.34329 3.74488 7.34329 3.1707 7.63585C2.66562 7.8932 2.25499 8.30384 1.99764 8.80891C1.70508 9.3831 1.70508 10.1348 1.70508 11.6381V12.8907C1.70508 14.394 1.70508 15.1457 1.99764 15.7199C2.25499 16.2249 2.66562 16.6356 3.1707 16.8929C3.74488 17.1855 4.49654 17.1855 5.99985 17.1855Z" stroke="black" stroke-width="1.78949" stroke-linecap="round" stroke-linejoin="round"/>
</svg>
