<svg width="32" height="28" viewBox="0 0 32 28" fill="none" xmlns="http://www.w3.org/2000/svg">
<path fill-rule="evenodd" clip-rule="evenodd" d="M16.0039 22.9201L22.4241 26.2442C22.6774 26.3752 22.9582 26.4445 23.2434 26.4464C23.5286 26.4483 23.8103 26.3827 24.0653 26.255L29.4794 23.548C29.78 23.3978 30.0327 23.1669 30.2095 22.8812C30.3862 22.5955 30.4799 22.2662 30.4801 21.9303V16.9287C30.4799 16.5928 30.3862 16.2635 30.2095 15.9778C30.0327 15.6921 29.78 15.4612 29.4794 15.311L23.242 12.1914L16.981 15.4341C16.6866 15.5866 16.4397 15.8172 16.2673 16.1006C16.095 16.384 16.0039 16.7093 16.0039 17.0409V22.9201Z" stroke="white" stroke-width="1.80952" stroke-linecap="round" stroke-linejoin="round"/>
<path fill-rule="evenodd" clip-rule="evenodd" d="M2.50449 23.4242L7.94753 26.2434C8.20089 26.3744 8.48163 26.4437 8.76685 26.4456C9.05208 26.4475 9.33371 26.3819 9.58877 26.2543L16.0035 23.0478V16.928C16.0034 16.592 15.9096 16.2627 15.7329 15.977C15.5562 15.6913 15.3034 15.4604 15.0029 15.3103L8.76544 12.1906L2.50449 15.4333C2.20999 15.5859 1.9631 15.8165 1.79077 16.0998C1.61844 16.3832 1.52732 16.7085 1.52734 17.0402V21.8173C1.52732 22.149 1.61844 22.4743 1.79077 22.7577C1.9631 23.041 2.20999 23.2716 2.50449 23.4242ZM8.76544 12.0622L15.1856 15.3863C15.439 15.5173 15.7197 15.5866 16.0049 15.5885C16.2902 15.5904 16.5718 15.5248 16.8269 15.3971L23.2416 12.1906V6.07084C23.2414 5.73488 23.1477 5.4056 22.971 5.11989C22.7943 4.83417 22.5415 4.6033 22.241 4.45313L16.8269 1.74608C16.5718 1.61841 16.2902 1.55284 16.0049 1.55473C15.7197 1.55661 15.439 1.6259 15.1856 1.75693L9.74258 4.57617C9.44809 4.72874 9.20119 4.95931 9.02887 5.24269C8.85654 5.52607 8.76541 5.85136 8.76544 6.18303V12.0622Z" stroke="white" stroke-width="1.80952" stroke-linecap="round" stroke-linejoin="round"/>
<path d="M9.39044 5.26562L15.1936 8.16629C15.4447 8.2918 15.7217 8.35714 16.0024 8.35714C16.2832 8.35714 16.5601 8.2918 16.8113 8.16629L22.5529 5.29639M16.6285 16.1228L22.4317 19.0234C22.6828 19.1489 22.9598 19.2143 23.2405 19.2143C23.5213 19.2143 23.7982 19.1489 24.0494 19.0234L29.7892 16.1535M2.15234 16.1228L7.95549 19.0234C8.20665 19.1489 8.48357 19.2143 8.76434 19.2143C9.04512 19.2143 9.32204 19.1489 9.5732 19.0234L15.313 16.1535M16.0024 8.57163V15.8097M23.2405 19.4288V25.7621M8.76434 19.4288V25.7621" stroke="white" stroke-width="1.80952" stroke-linecap="round" stroke-linejoin="round"/>
</svg>
