<svg width="31" height="30" viewBox="0 0 31 30" fill="none" xmlns="http://www.w3.org/2000/svg">
<path d="M10.5 18.75C9.91667 18.75 9.42333 18.5483 9.02 18.145C8.61667 17.7417 8.41556 17.2489 8.41667 16.6667C8.41778 16.0844 8.61944 15.5911 9.02167 15.1867C9.42389 14.7822 9.91667 14.5811 10.5 14.5833C11.0833 14.5856 11.5767 14.7872 11.98 15.1883C12.3833 15.5894 12.5844 16.0822 12.5833 16.6667C12.5822 17.2511 12.3806 17.7444 11.9783 18.1467C11.5761 18.5489 11.0833 18.75 10.5 18.75ZM20.5 18.75C19.9167 18.75 19.4233 18.5483 19.02 18.145C18.6167 17.7417 18.4156 17.2489 18.4167 16.6667C18.4178 16.0844 18.6194 15.5911 19.0217 15.1867C19.4239 14.7822 19.9167 14.5811 20.5 14.5833C21.0833 14.5856 21.5767 14.7872 21.98 15.1883C22.3833 15.5894 22.5844 16.0822 22.5833 16.6667C22.5822 17.2511 22.3806 17.7444 21.9783 18.1467C21.5761 18.5489 21.0833 18.75 20.5 18.75ZM15.5 28.3333C19.2222 28.3333 22.375 27.0417 24.9583 24.4583C27.5417 21.875 28.8333 18.7222 28.8333 15C28.8333 14.3333 28.7917 13.6878 28.7083 13.0633C28.625 12.4389 28.4722 11.8344 28.25 11.25C27.6667 11.3889 27.0833 11.4933 26.5 11.5633C25.9167 11.6333 25.3056 11.6678 24.6667 11.6667C22.1389 11.6667 19.75 11.125 17.5 10.0417C15.25 8.95833 13.3333 7.44445 11.75 5.5C10.8611 7.66667 9.59056 9.54889 7.93833 11.1467C6.28611 12.7444 4.36222 13.9456 2.16667 14.75V15C2.16667 18.7222 3.45833 21.875 6.04167 24.4583C8.625 27.0417 11.7778 28.3333 15.5 28.3333ZM15.505 30C13.4306 30 11.4806 29.6067 9.655 28.82C7.82944 28.0322 6.24111 26.9639 4.89 25.615C3.53889 24.2661 2.46944 22.6789 1.68167 20.8533C0.893889 19.0278 0.5 17.0783 0.5 15.005C0.5 12.9317 0.893889 10.9817 1.68167 9.155C2.46944 7.32834 3.53667 5.74 4.88333 4.39C6.23 3.04 7.81722 1.97056 9.645 1.18167C11.4728 0.39278 13.4228 -0.00110877 15.495 2.34412e-06C17.5672 0.00111346 19.5172 0.395003 21.345 1.18167C23.1728 1.96834 24.7611 3.03611 26.11 4.385C27.4589 5.73389 28.5283 7.32111 29.3183 9.14667C30.1083 10.9722 30.5022 12.9217 30.5 14.995C30.4978 17.0683 30.1044 19.0183 29.32 20.845C28.5356 22.6717 27.4667 24.26 26.1133 25.61C24.76 26.96 23.1733 28.0294 21.3533 28.8183C19.5333 29.6072 17.5839 30.0011 15.505 30ZM11.68 2.195C13.0378 4.90945 14.9578 6.88889 17.44 8.13334C19.9222 9.37778 22.3311 10 24.6667 10C25.1844 10 25.6933 9.97389 26.1933 9.92167C26.6933 9.86945 27.1911 9.78334 27.6867 9.66334C26.6267 7.18556 24.9844 5.23334 22.76 3.80667C20.5356 2.38 18.1156 1.66667 15.5 1.66667C14.7689 1.66667 14.1 1.70889 13.4933 1.79334C12.8867 1.87778 12.2822 2.01167 11.68 2.195ZM2.395 12.8433C4.11056 12.08 5.84889 10.83 7.61 9.09334C9.37 7.35556 10.3967 5.17167 10.69 2.54167C8.46111 3.39056 6.61556 4.72611 5.15333 6.54834C3.69222 8.37056 2.77278 10.4689 2.395 12.8433Z" fill="black"/>
</svg>
