<svg width="50" height="51" viewBox="0 0 50 51" fill="none" xmlns="http://www.w3.org/2000/svg">
<path d="M24.2941 29.247C25.5704 30.6769 25.7536 32.5374 27.1602 32.5488C27.1646 32.5488 27.1681 32.5488 27.1726 32.5488C27.9509 32.5488 27.6394 32.3503 32.2795 29.4129C33.0375 28.9009 34.5332 28.1727 34.6317 27.0919C34.6565 26.8295 34.6035 26.4398 34.2163 26.0784V26.0779C33.9113 25.7932 33.4534 25.6882 32.9924 25.7952C32.5612 25.8967 32.6355 25.8858 28.1697 28.5915C27.7989 28.8168 27.7791 28.8643 27.4132 28.2266C27.0958 27.6691 26.7002 27.0938 26.1101 26.88C25.5189 26.6666 24.8199 26.8621 24.4114 27.3567C23.8861 27.9964 24.0252 28.949 24.2941 29.247Z" fill="#9CA3AF"/>
<path d="M21.6141 37.4577C22.4909 37.6924 22.5166 37.7211 22.6478 37.7211C22.8929 37.7211 23.1172 37.5592 23.1845 37.3122C23.2662 37.0151 23.0924 36.7082 22.7959 36.6265L21.9101 36.3829C21.6121 36.3012 21.3066 36.4765 21.2254 36.7725C21.1437 37.0691 21.3175 37.3761 21.6141 37.4577Z" fill="#9CA3AF"/>
<path d="M15.662 35.8214L19.0282 36.7468C19.3173 36.8275 19.6292 36.6591 19.7129 36.3571C19.7941 36.0601 19.6193 35.7536 19.3223 35.6719L15.9581 34.7466C15.6551 34.6629 15.3541 34.8396 15.2729 35.1362C15.1917 35.4333 15.3655 35.7397 15.662 35.8214Z" fill="#9CA3AF"/>
<path d="M3.70936 30.4397C5.97245 32.1374 8.82521 32.935 11.8522 32.3627C11.2962 32.9706 10.2674 34.0361 9.59558 34.5203C8.13504 35.5719 8.56776 36.7369 10.0253 37.2874C9.98176 37.8028 9.82927 38.3028 9.60796 38.6133C9.02523 39.4262 9.25 40.2981 10.4882 40.613C16.4923 42.1433 36.3408 45.6763 40.6977 46.5438C40.8199 46.6225 40.9581 46.6626 41.1125 46.6626C41.7794 46.6626 42.7058 46.011 43.5509 45.4174C44.5787 44.6941 45.6843 44.5119 45.9571 43.1296C47.0027 37.8815 47.1216 37.8181 48.4811 28.0855L49.9 17.9117C50.0095 17.127 50.3006 15.0426 48.8668 14.1138C48.3093 13.7529 46.5651 13.7559 45.8308 13.8193C45.6397 13.7668 43.8985 13.6024 41.8389 13.3761C41.7448 11.4299 40.818 10.0204 39.6233 10.0204C38.5177 10.0204 37.6503 11.2175 37.4449 12.9083L26.9329 11.7894C26.7285 10.0793 25.8615 8.87817 24.7609 8.87817C23.7534 8.87817 22.9518 9.87926 22.6602 11.3344L19.3436 10.9814C18.7816 10.9313 18.2548 11.0937 17.9489 11.4106C17.3092 12.0503 17.5538 13.2157 17.7692 14.2436C17.9157 14.9486 17.9137 14.9109 17.9444 15.92C15.7878 13.594 12.8726 12.6384 9.71688 12.7682C8.06028 12.8375 6.69084 13.4762 5.31249 14.1846C-0.825245 17.432 -2.01843 26.0299 3.70936 30.4397ZM10.2461 35.4248C11.3081 34.6624 12.9365 32.9281 13.8272 31.7804C18.8014 29.7857 21.972 24.4921 19.9639 19.1648C35.3149 20.6932 42.3587 22.4142 43.7881 22.5662C42.4894 29.1168 41.5923 33.1627 38.8821 38.2954L38.69 38.6623C36.8443 42.1978 35.7249 42.6097 32.2528 41.6294C31.7864 41.5145 31.0932 41.2229 25.5858 40.0599C20.457 38.9762 15.5278 37.7147 10.6992 36.3413C9.42675 35.9749 9.7758 35.7635 10.2461 35.4248ZM10.763 39.5327C10.5501 39.4787 10.4526 39.4228 10.4224 39.4208C10.5011 39.2128 10.9457 38.8103 11.1076 37.6077C17.4969 39.4044 21.6438 40.3664 25.356 41.1507C30.8833 42.3176 31.4596 42.5815 31.9503 42.7023C35.8061 43.789 37.4988 43.3504 39.6777 39.1782L39.8674 38.8173C42.4647 33.898 43.4123 30.0971 44.6248 24.0663C44.9114 25.6467 44.951 27.2305 44.7248 28.7326C43.7529 35.1728 41.7789 42.1552 40.9333 44.0653C40.7061 44.5767 40.5288 45 40.4308 45.3555C35.2006 44.3406 16.5294 41.0026 10.763 39.5327ZM39.6233 11.1348C40.0758 11.1348 40.607 11.9988 40.7115 13.2558L38.5573 13.0266C38.7093 11.8567 39.2386 11.1348 39.6233 11.1348ZM24.7609 9.99264C25.1575 9.99264 25.6145 10.6581 25.7927 11.6681L23.7693 11.4527C23.9797 10.5392 24.4258 9.99264 24.7609 9.99264ZM18.743 12.1919C18.9871 11.9389 19.9733 12.226 22.5414 12.4429C22.534 12.8929 22.5582 13.3053 22.679 13.8534C22.1196 14.1911 21.7493 14.7679 21.7493 15.4219C21.7493 16.4576 22.6805 17.2998 23.8247 17.2998C24.9699 17.2998 25.9011 16.4576 25.9011 15.4219C25.9011 14.3832 24.9699 13.538 23.8247 13.538C23.7995 13.538 23.7757 13.544 23.7509 13.5445C23.6895 13.2504 23.6514 12.9216 23.6499 12.5607L37.4171 14.0262C37.435 14.3668 37.4746 14.6926 37.5414 14.9956C35.8289 16.0299 36.6433 18.4425 38.6871 18.4425C39.8322 18.4425 40.7635 17.5998 40.7635 16.5641C40.7635 15.5412 39.8426 14.6471 38.6133 14.6872C38.5781 14.5183 38.5529 14.3366 38.5356 14.145L45.0278 14.8362C44.8198 15.9868 44.6525 17.1493 44.4896 18.2791C44.3401 19.3178 44.1762 20.3867 43.9871 21.4611C42.5196 21.3492 35.1961 19.5258 19.4342 17.9905C19.3158 17.7711 19.1931 17.5543 19.0579 17.3434C19.0856 16.5661 19.0747 15.763 19.0173 14.9476C18.9727 14.2871 18.4361 12.4993 18.743 12.1919ZM5.82739 15.1729C7.51122 14.3079 8.56231 13.8702 10.2976 13.8702C15.863 13.8702 19.3203 17.9568 19.4624 22.2082C19.4624 22.2087 19.4624 22.2092 19.4624 22.2097C19.7119 29.094 10.8541 34.4094 4.38319 29.5515C-0.70246 25.6377 0.423888 18.032 5.82739 15.1729Z" fill="#9CA3AF"/>
<path d="M4.72928 26.9265C9.11486 32.0949 17.538 28.447 17.3171 22.2587C17.2637 20.6868 16.6364 19.1703 15.5521 17.99C14.1886 16.4889 12.3246 15.7774 10.2887 15.7774C8.93117 15.7774 8.07416 16.1448 6.89038 16.7562C4.15051 18.2172 2.71819 21.3785 3.44846 24.3718C3.68264 25.3011 4.12278 26.1814 4.72928 26.9265ZM7.40776 17.7434C8.18803 17.3404 8.91137 17.0107 9.73175 16.928V17.991C9.73175 18.2989 9.98128 18.5485 10.2887 18.5485C10.5962 18.5485 10.8457 18.2989 10.8457 17.991V16.9186C11.5998 16.9755 12.3043 17.1449 12.9454 17.4365C13.6183 17.7405 14.2183 18.1791 14.7298 18.7416C15.5635 19.6496 16.0675 20.7918 16.1784 21.9849H14.8367C14.5292 21.9849 14.2797 22.2345 14.2797 22.5424C14.2797 22.8499 14.5292 23.0994 14.8367 23.0994H16.1636C15.8373 25.6388 13.5866 27.8538 10.8457 28.2242V27.0934C10.8457 26.7859 10.5962 26.5359 10.2887 26.5359C9.98128 26.5359 9.73175 26.7859 9.73175 27.0934V28.2638C6.92108 28.1029 4.5451 26.0116 4.38617 23.0994H5.74027C6.04772 23.0994 6.29725 22.8499 6.29725 22.5424C6.29725 22.2345 6.04772 21.9849 5.74027 21.9849H4.43667C4.70601 20.1268 5.85364 18.5722 7.40776 17.7434Z" fill="#9CA3AF"/>
<path d="M10.0951 23.4435C10.6362 23.3385 11.1888 23.3123 11.7388 23.3638C12.0374 23.3955 12.3166 23.1677 12.3458 22.8618C12.3745 22.5548 12.1498 22.283 11.8433 22.2543C11.4507 22.2166 11.0556 22.2127 10.6645 22.2434C10.7377 21.6037 10.7254 20.9502 10.6268 20.3189C10.5798 20.0154 10.304 19.809 9.99014 19.854C9.68615 19.9021 9.47871 20.1872 9.52574 20.4912C9.64358 21.2423 9.61585 22.031 9.44603 22.7721C9.35592 23.1662 9.70348 23.5212 10.0951 23.4435Z" fill="#9CA3AF"/>
<path d="M4.45007 7.09187C4.25648 6.85076 3.90694 6.81412 3.66682 7.00572C3.42769 7.19832 3.38907 7.54934 3.58117 7.78946C3.7797 7.988 3.89407 8.33407 4.28619 8.33407C4.7496 8.33407 5.01547 7.79243 4.71891 7.42656L4.45007 7.09187Z" fill="#9CA3AF"/>
<path d="M6.19122 11.0324C6.30064 11.169 6.46254 11.2403 6.62493 11.2403C7.08735 11.2403 7.35371 10.7001 7.05863 10.3333L5.68622 8.62816C5.49214 8.38804 5.14161 8.3514 4.90298 8.54399C4.66384 8.73708 4.62622 9.08761 4.81931 9.32773L6.19122 11.0324Z" fill="#9CA3AF"/>
<path d="M8.56926 3.5514C8.26477 3.59843 8.05683 3.88361 8.10387 4.1876L9.05743 10.3496C9.10495 10.6546 9.38964 10.862 9.69264 10.8155C9.99762 10.7679 10.2056 10.4833 10.1585 10.1793L9.20447 4.01679C9.15744 3.7128 8.86731 3.50783 8.56926 3.5514Z" fill="#9CA3AF"/>
<path d="M14.8545 6.63441L14.9778 6.38983C15.1169 6.11505 15.0065 5.77987 14.7322 5.64075C14.4575 5.50113 14.1228 5.61253 13.9841 5.88632L13.8609 6.1309C13.7217 6.40518 13.8317 6.74036 14.1059 6.87949C14.3768 7.01762 14.7144 6.91117 14.8545 6.63441Z" fill="#9CA3AF"/>
<path d="M13.8475 7.39635C13.5752 7.25822 13.2385 7.36862 13.0999 7.6434L11.9042 10.0228C11.7166 10.3952 11.9899 10.8303 12.4008 10.8303C12.6053 10.8303 12.8013 10.718 12.8989 10.5229L14.095 8.14494C14.2337 7.86966 14.1228 7.53448 13.8475 7.39635Z" fill="#9CA3AF"/>
</svg>
