<svg width="40" height="39" viewBox="0 0 40 39" fill="none" xmlns="http://www.w3.org/2000/svg">
<path d="M39.9754 0.564917C39.9577 0.334332 39.7907 0.152462 39.5624 0.114936C39.3198 0.0753301 38.9678 0.0307761 38.5324 0.0107065C38.097 -0.0093631 37.578 -0.0046694 37.0016 0.0547528C35.3236 0.227514 33.1589 0.863778 31.1547 2.70386C30.1565 3.62024 29.257 4.88762 28.59 6.10651C27.5045 5.61822 25.9412 5.96138 24.0258 7.71989L24.0252 7.71936C23.9048 7.82983 23.9028 8.02342 24.0208 8.15214C24.0523 8.18626 24.099 8.21415 24.155 8.22978C24.2113 8.24515 24.2769 8.24802 24.3465 8.23211C26.4247 7.75869 27.3901 8.07082 27.6606 8.19172C27.6194 8.31756 27.5826 8.43872 27.5514 8.55467C27.535 8.61589 27.5495 8.67869 27.5899 8.72299L27.623 8.75894L27.3262 9.32122C27.2905 9.39237 27.301 9.47521 27.3523 9.53123L28.0959 10.3413C27.3963 11.1107 26.9865 11.715 27.1657 11.9101C27.3388 12.0985 27.9763 11.7426 28.8049 11.1136L29.5519 11.9273C29.6033 11.9833 29.6851 12.0006 29.7588 11.9711L30.3542 11.734L30.3776 11.7593C30.4183 11.8036 30.4795 11.8236 30.542 11.8122C30.6601 11.7911 30.7841 11.7647 30.9128 11.7345C31.0103 12.0141 31.2388 13.0029 30.59 15.0329C30.5681 15.1007 30.5655 15.1666 30.5762 15.2239C30.5869 15.2812 30.6106 15.33 30.6418 15.3641C30.7599 15.4928 30.9532 15.5074 31.0733 15.3969L31.0728 15.3964C32.9884 13.6379 33.4637 12.1094 33.0697 10.9862C34.3415 10.426 35.6808 9.63751 36.6787 8.72139C37.6811 7.80111 38.3867 6.81567 38.8815 5.85289C39.3763 4.89013 39.6595 3.95028 39.8172 3.12144C40.0341 1.98367 40.0129 1.05476 39.9754 0.564917ZM36.5668 5.93086C35.7723 6.66042 34.5368 6.60754 33.8075 5.81308C33.0779 5.01836 33.1308 3.78305 33.9252 3.0535C34.7199 2.32419 35.9553 2.37709 36.6848 3.17153C37.4141 3.96599 37.3615 5.20155 36.5668 5.93086Z" fill="url(#paint0_linear_688_3207)"/>
<path d="M27.4898 13.1063C24.9239 15.8671 22.6498 18.8556 20.4324 21.9662C19.6385 23.0884 18.8498 24.2634 18.1136 25.4202C16.6664 27.6945 15.0778 30.4317 13.8144 32.8859C13.6239 33.2558 13.2431 33.4886 12.8268 33.4886H10.5461C10.262 33.4886 9.98857 33.3795 9.78216 33.184C8.82757 32.2786 7.69612 31.2059 6.94154 30.5737C6.71651 30.3939 6.20292 29.9675 5.98269 29.7973C5.74942 29.6162 5.40526 29.3497 5.1728 29.1691C4.72703 28.8356 4.14187 28.4044 3.68839 28.0882C3.03753 27.6302 2.34707 27.1711 1.67123 26.7503C1.35872 26.5554 0.771168 26.2237 0.321923 25.9734C-0.000712627 25.7936 -0.098853 25.3755 0.110216 25.071L3.84958 19.6241C4.06768 19.3062 4.51797 19.2589 4.79777 19.5241C5.30101 20.0015 6.02925 20.7007 6.38804 21.079C7.81207 22.5735 9.15843 24.1845 10.4048 25.8298C10.5466 26.0221 11.0054 26.6424 11.1501 26.8389C11.3612 27.135 11.5714 27.435 11.7794 27.7366C12.5754 26.5376 13.3986 25.3583 14.2463 24.1981C14.4548 23.9204 14.7596 23.51 14.9689 23.2315C18.2269 18.932 21.9819 15.1304 26.02 11.5669C25.9144 12.0052 26.0157 12.4324 26.299 12.7409C26.5314 12.9938 26.8567 13.1332 27.215 13.1332C27.3052 13.1332 27.3967 13.1241 27.4898 13.1063Z" fill="url(#paint1_linear_688_3207)"/>
<path d="M38.9435 7.78611C38.4964 8.40104 37.9823 8.97582 37.4059 9.50512C36.9745 9.90116 36.4699 10.2892 35.913 10.6565V31.5516C35.913 33.7195 34.1493 35.4832 31.9813 35.4832H8.2177C6.04973 35.4832 4.28604 33.7195 4.28604 31.5516V29.8296C3.94186 29.5743 3.47374 29.2307 3.08676 28.9607L3.08303 28.958C2.48378 28.5364 1.8545 28.1173 1.25391 27.7399V31.4018C1.25391 33.3019 1.99384 35.0882 3.33729 36.4319C4.68104 37.7754 6.46733 38.5154 8.36745 38.5154H31.8315C33.7317 38.5154 35.518 37.7754 36.8617 36.432C38.2051 35.0883 38.9451 33.302 38.9451 31.4018V7.93774C38.9451 7.88719 38.9446 7.83665 38.9435 7.78611ZM4.28606 18.2903V7.78799C4.28606 5.62002 6.04975 3.85633 8.21773 3.85633H28.7569C29.2928 3.11 29.8665 2.44904 30.4429 1.92003C30.8834 1.51549 31.3475 1.14977 31.8321 0.824219C31.8318 0.824219 31.8318 0.824219 31.8316 0.824219H8.36745C6.46731 0.824219 4.68104 1.56415 3.33731 2.9076C1.99387 4.2513 1.25393 6.03759 1.25393 7.93774V21.535L2.97931 19.0218C3.27827 18.5866 3.76182 18.3174 4.28606 18.2903Z" fill="white"/>
<defs>
<linearGradient id="paint0_linear_688_3207" x1="27.6513" y1="11.4633" x2="39.3712" y2="-0.256673" gradientUnits="userSpaceOnUse">
<stop stop-color="#1B83C1"/>
<stop offset="1" stop-color="#00CDE5"/>
</linearGradient>
<linearGradient id="paint1_linear_688_3207" x1="4.60398" y1="30.5129" x2="23.9427" y2="11.1742" gradientUnits="userSpaceOnUse">
<stop stop-color="#1B83C1"/>
<stop offset="1" stop-color="#00CDE5"/>
</linearGradient>
</defs>
</svg>
