<svg width="34" height="34" viewBox="0 0 34 34" fill="none" xmlns="http://www.w3.org/2000/svg">
<path d="M13.9129 15.7927L2.71878 26.9868C2.42435 27.2809 2.19078 27.6302 2.03142 28.0146C1.87206 28.399 1.79004 28.8111 1.79004 29.2273C1.79004 29.6434 1.87206 30.0555 2.03142 30.4399C2.19078 30.8243 2.42435 31.1736 2.71878 31.4677C3.31262 32.0613 4.11793 32.3948 4.95761 32.3948C5.7973 32.3948 6.60261 32.0613 7.19645 31.4677L18.3906 20.2703M25.2227 20.8483L31.3629 26.9884C31.9565 27.5823 32.29 28.3876 32.29 29.2273C32.29 30.0669 31.9565 30.8723 31.3629 31.4661C30.769 32.0598 29.9637 32.3933 29.124 32.3933C28.2843 32.3933 27.479 32.0598 26.8852 31.4661L17.0543 21.6368M8.66103 8.34626L5.29961 9.46409L1.94295 3.86701L4.18178 1.62817L9.78045 4.98642L8.66103 8.34626ZM8.66103 8.34626L13.1419 12.8271" stroke="white" stroke-width="2.375" stroke-linecap="round" stroke-linejoin="round"/>
<path d="M13.9131 15.7923C12.5767 12.3834 12.838 7.91048 15.593 5.15548C18.348 2.40048 23.4305 1.79723 26.2282 3.47715L21.4149 8.29048L20.9668 13.2162L25.8926 12.7697L30.7059 7.95481C32.3874 10.7541 31.7826 15.8366 29.0276 18.5901C26.2726 21.3451 21.8012 21.6063 18.3923 20.27" stroke="white" stroke-width="2.375" stroke-linecap="round" stroke-linejoin="round"/>
</svg>
