<svg width="33" height="32" viewBox="0 0 33 32" fill="none" xmlns="http://www.w3.org/2000/svg">
<path fill-rule="evenodd" clip-rule="evenodd" d="M6.47281 2.13379H6.36615C5.87761 2.13379 5.45735 2.13379 5.08615 2.22126C4.5115 2.35857 3.98609 2.65229 3.56813 3.06987C3.15017 3.48746 2.85598 4.0126 2.71815 4.58712C2.63281 4.95832 2.63281 5.37646 2.63281 5.86712V11.2005C2.63281 11.689 2.63281 12.1093 2.72028 12.4805C2.85759 13.0551 3.15131 13.5805 3.5689 13.9985C3.98648 14.4164 4.51163 14.7106 5.08615 14.8485C5.45735 14.9338 5.87548 14.9338 6.36615 14.9338H11.6995C12.188 14.9338 12.6083 14.9338 12.9795 14.8463C13.5541 14.709 14.0795 14.4153 14.4975 13.9977C14.9155 13.5801 15.2096 13.055 15.3475 12.4805C15.4328 12.1093 15.4328 11.6911 15.4328 11.2005V5.86712C15.4328 5.37859 15.4328 4.95832 15.3453 4.58712C15.208 4.01248 14.9143 3.48707 14.4967 3.06911C14.0791 2.65115 13.554 2.35695 12.9795 2.21912C12.6083 2.13379 12.1901 2.13379 11.6995 2.13379H6.47281ZM5.58321 4.29699C5.67495 4.27566 5.81788 4.26712 6.47281 4.26712H11.5928C12.2499 4.26712 12.3907 4.27352 12.4824 4.29699C12.674 4.34282 12.8492 4.44083 12.9886 4.58016C13.1279 4.71949 13.2259 4.89469 13.2717 5.08632C13.2931 5.17592 13.2995 5.31672 13.2995 5.97379V11.0938C13.2995 11.7509 13.2931 11.8917 13.2696 11.9834C13.2238 12.175 13.1258 12.3502 12.9864 12.4896C12.8471 12.6289 12.6719 12.7269 12.4803 12.7727C12.3928 12.7919 12.252 12.8005 11.5928 12.8005H6.47281C5.81575 12.8005 5.67495 12.7941 5.58321 12.7706C5.39157 12.7248 5.21638 12.6267 5.07705 12.4874C4.93772 12.3481 4.83971 12.1729 4.79388 11.9813C4.77468 11.8938 4.76615 11.753 4.76615 11.0938V5.97379C4.76615 5.31672 4.77255 5.17592 4.79601 5.08419C4.84184 4.89255 4.93985 4.71735 5.07918 4.57802C5.21851 4.4387 5.39371 4.34068 5.58535 4.29486M21.4061 2.13379H21.2995C20.8109 2.13379 20.3907 2.13379 20.0195 2.22126C19.4448 2.35857 18.9194 2.65229 18.5015 3.06987C18.0835 3.48746 17.7893 4.0126 17.6515 4.58712C17.5661 4.95832 17.5661 5.37646 17.5661 5.86712V11.2005C17.5661 11.689 17.5661 12.1093 17.6536 12.4805C17.7909 13.0551 18.0846 13.5805 18.5022 13.9985C18.9198 14.4164 19.445 14.7106 20.0195 14.8485C20.3907 14.9338 20.8088 14.9338 21.2995 14.9338H26.6328C27.1213 14.9338 27.5416 14.9338 27.9128 14.8463C28.4875 14.709 29.0129 14.4153 29.4308 13.9977C29.8488 13.5801 30.143 13.055 30.2808 12.4805C30.3661 12.1093 30.3661 11.6911 30.3661 11.2005V5.86712C30.3661 5.37859 30.3661 4.95832 30.2787 4.58712C30.1414 4.01248 29.8476 3.48707 29.4301 3.06911C29.0125 2.65115 28.4873 2.35695 27.9128 2.21912C27.5416 2.13379 27.1235 2.13379 26.6328 2.13379H21.4061ZM20.5165 4.29699C20.6083 4.27566 20.7512 4.26712 21.4061 4.26712H26.5261C27.1832 4.26712 27.324 4.27352 27.4157 4.29699C27.6074 4.34282 27.7826 4.44083 27.9219 4.58016C28.0612 4.71949 28.1593 4.89469 28.2051 5.08632C28.2264 5.17592 28.2328 5.31672 28.2328 5.97379V11.0938C28.2328 11.7509 28.2243 11.8917 28.2029 11.9834C28.1571 12.175 28.0591 12.3502 27.9198 12.4896C27.7804 12.6289 27.6052 12.7269 27.4136 12.7727C27.324 12.7941 27.1832 12.8005 26.5261 12.8005H21.4061C20.7491 12.8005 20.6083 12.7941 20.5165 12.7706C20.3249 12.7248 20.1497 12.6267 20.0104 12.4874C19.8711 12.3481 19.773 12.1729 19.7272 11.9813C19.708 11.8938 19.6995 11.753 19.6995 11.0938V5.97379C19.6995 5.31672 19.7059 5.17592 19.7293 5.08419C19.7752 4.89255 19.8732 4.71735 20.0125 4.57802C20.1518 4.4387 20.327 4.34068 20.5187 4.29486M6.36615 17.0671H11.6995C12.188 17.0671 12.6083 17.0671 12.9795 17.1546C13.5541 17.2919 14.0795 17.5856 14.4975 18.0032C14.9155 18.4208 15.2096 18.9459 15.3475 19.5205C15.4328 19.8917 15.4328 20.3098 15.4328 20.8005V26.1338C15.4328 26.6223 15.4328 27.0426 15.3453 27.4138C15.208 27.9884 14.9143 28.5138 14.4967 28.9318C14.0791 29.3498 13.554 29.644 12.9795 29.7818C12.6083 29.8671 12.1901 29.8671 11.6995 29.8671H6.36615C5.87761 29.8671 5.45735 29.8671 5.08615 29.7797C4.5115 29.6423 3.98609 29.3486 3.56813 28.931C3.15017 28.5135 2.85598 27.9883 2.71815 27.4138C2.63281 27.0426 2.63281 26.6245 2.63281 26.1338V20.8005C2.63281 20.3119 2.63281 19.8917 2.72028 19.5205C2.85759 18.9458 3.15131 18.4204 3.5689 18.0024C3.98648 17.5845 4.51163 17.2903 5.08615 17.1525C5.45735 17.0671 5.87548 17.0671 6.36615 17.0671ZM6.47281 19.2005C5.81575 19.2005 5.67495 19.2069 5.58321 19.2303C5.39157 19.2761 5.21638 19.3742 5.07705 19.5135C4.93772 19.6528 4.83971 19.828 4.79388 20.0197C4.77468 20.1071 4.76615 20.2479 4.76615 20.9071V26.0271C4.76615 26.6842 4.77255 26.825 4.79601 26.9167C4.84184 27.1084 4.93985 27.2836 5.07918 27.4229C5.21851 27.5622 5.39371 27.6602 5.58535 27.7061C5.67495 27.7274 5.81575 27.7338 6.47281 27.7338H11.5928C12.2499 27.7338 12.3907 27.7253 12.4824 27.7039C12.674 27.6581 12.8492 27.5601 12.9886 27.4208C13.1279 27.2814 13.2259 27.1062 13.2717 26.9146C13.2931 26.825 13.2995 26.6842 13.2995 26.0271V20.9071C13.2995 20.2501 13.2931 20.1093 13.2696 20.0175C13.2238 19.8259 13.1258 19.6507 12.9864 19.5114C12.8471 19.372 12.6719 19.274 12.4803 19.2282C12.3928 19.209 12.252 19.2005 11.5928 19.2005H6.47281ZM21.4061 17.0671H21.2995C20.8109 17.0671 20.3907 17.0671 20.0195 17.1546C19.4448 17.2919 18.9194 17.5856 18.5015 18.0032C18.0835 18.4208 17.7893 18.9459 17.6515 19.5205C17.5661 19.8917 17.5661 20.3098 17.5661 20.8005V26.1338C17.5661 26.6223 17.5661 27.0426 17.6536 27.4138C17.7909 27.9884 18.0846 28.5138 18.5022 28.9318C18.9198 29.3498 19.445 29.644 20.0195 29.7818C20.3907 29.8693 20.8109 29.8693 21.2995 29.8693H26.6328C27.1213 29.8693 27.5416 29.8693 27.9128 29.7818C28.4871 29.6441 29.012 29.3503 29.4296 28.9327C29.8471 28.5151 30.141 27.9902 30.2787 27.4159C30.3661 27.0447 30.3661 26.6245 30.3661 26.1359V20.8026C30.3661 20.3141 30.3661 19.8938 30.2787 19.5226C30.1417 18.9476 29.8481 18.4217 29.4305 18.0033C29.0129 17.585 28.4876 17.2905 27.9128 17.1525C27.5416 17.0671 27.1235 17.0671 26.6328 17.0671H21.4061ZM20.5165 19.2303C20.6083 19.209 20.7512 19.2005 21.4061 19.2005H26.5261C27.1832 19.2005 27.324 19.2069 27.4157 19.2303C27.6074 19.2761 27.7826 19.3742 27.9219 19.5135C28.0612 19.6528 28.1593 19.828 28.2051 20.0197C28.2264 20.1093 28.2328 20.2501 28.2328 20.9071V26.0271C28.2328 26.6842 28.2243 26.825 28.2029 26.9167C28.1571 27.1084 28.0591 27.2836 27.9198 27.4229C27.7804 27.5622 27.6052 27.6602 27.4136 27.7061C27.324 27.7274 27.1832 27.7338 26.5261 27.7338H21.4061C20.7491 27.7338 20.6083 27.7253 20.5165 27.7039C20.3249 27.6581 20.1497 27.5601 20.0104 27.4208C19.8711 27.2814 19.773 27.1062 19.7272 26.9146C19.708 26.8271 19.6995 26.6863 19.6995 26.0271V20.9071C19.6995 20.2501 19.7059 20.1093 19.7293 20.0175C19.7752 19.8259 19.8732 19.6507 20.0125 19.5114C20.1518 19.372 20.327 19.274 20.5187 19.2282" fill="black"/>
</svg>
