<svg width="38" height="38" viewBox="0 0 38 38" fill="none" xmlns="http://www.w3.org/2000/svg">
<path d="M30.8505 19.8651C31.5283 17.0998 31.4021 14.1985 30.4868 11.5025C29.5715 8.80653 27.9051 6.42811 25.6838 4.64716C23.4624 2.86621 20.7786 1.75683 17.9481 1.44959C15.1176 1.14234 12.2582 1.65002 9.7065 2.91287C7.15477 4.17572 5.01687 6.14119 3.54439 8.57798C2.07192 11.0148 1.32614 13.8215 1.39483 16.6677C1.46353 19.514 2.34383 22.2815 3.93214 24.6444C5.52046 27.0073 7.75068 28.8674 10.3604 30.0057M1.38965 16.3039H31.2766" stroke="white" stroke-width="2.71429" stroke-linecap="round" stroke-linejoin="round"/>
<path d="M11.8938 23.1988C11.1435 20.9704 10.7015 18.6499 10.5801 16.3018C10.8619 10.8363 12.8753 5.60226 16.3289 1.35693C19.7816 5.60261 21.7941 10.8366 22.0751 16.3018C22.0235 17.2602 21.9211 18.2151 21.7684 19.1626M25.6715 22.1972L36.6101 26.9364L25.6715 31.6755L14.7384 26.9364L25.6769 22.1972H25.6715Z" stroke="white" stroke-width="2.71429" stroke-linecap="round" stroke-linejoin="round"/>
<path d="M19.6971 29.0966L19.7079 34.2538C19.7079 34.2538 21.5129 36.6423 25.6712 36.6423C29.8295 36.6423 31.6426 34.2538 31.6426 34.2538V29.0966M14.7354 35.2716V26.936" stroke="white" stroke-width="2.71429" stroke-linecap="round" stroke-linejoin="round"/>
</svg>
