<svg width="34" height="35" viewBox="0 0 34 35" fill="none" xmlns="http://www.w3.org/2000/svg">
<path d="M21.25 25.9102C21.25 28.2574 23.1528 30.1602 25.5 30.1602C27.8472 30.1602 29.75 28.2574 29.75 25.9102C29.75 23.5629 27.8472 21.6602 25.5 21.6602C23.1528 21.6602 21.25 23.5629 21.25 25.9102ZM21.25 25.9102C17.8685 25.9102 14.6255 24.5669 12.2344 22.1758C9.8433 19.7847 8.5 16.5417 8.5 13.1602M8.5 13.1602C10.8472 13.1602 12.75 11.2574 12.75 8.91016C12.75 6.56295 10.8472 4.66016 8.5 4.66016C6.15279 4.66016 4.25 6.56295 4.25 8.91016C4.25 11.2574 6.15279 13.1602 8.5 13.1602ZM8.5 13.1602V30.1602" stroke="#FEFEFE" stroke-width="2.83333" stroke-linecap="round" stroke-linejoin="round"/>
</svg>
