<svg width="34" height="35" viewBox="0 0 34 35" fill="none" xmlns="http://www.w3.org/2000/svg">
<path fill-rule="evenodd" clip-rule="evenodd" d="M8.44958 8.87816C8.42953 8.87816 8.40948 8.87816 8.38943 8.87816C8.36881 8.87816 8.34876 8.85811 8.3287 8.85811C8.30865 8.85811 8.2886 8.85811 8.26798 8.85811C8.24793 8.85811 8.22788 8.85811 8.20782 8.85811C8.18777 8.85811 8.16715 8.85811 8.1471 8.85811C8.12705 8.83806 8.107 8.83806 8.08694 8.83806C8.06632 8.83806 8.04627 8.83806 8.02622 8.83806C8.00617 8.83806 7.98612 8.818 7.96549 8.818C7.94544 8.818 7.92539 8.818 7.90534 8.79738C7.88529 8.79738 7.86466 8.79738 7.84461 8.79738C7.82456 8.77733 7.80451 8.77733 7.78446 8.77733C7.76383 8.77733 7.74378 8.75728 7.72373 8.75728C7.70368 8.75728 7.68363 8.75728 7.663 8.73723C7.64295 8.73723 7.6229 8.73723 7.60285 8.71718L7.54212 8.69655C7.54212 8.69655 7.52207 8.6765 7.50202 8.6765C7.48197 8.6765 7.46135 8.65645 7.4413 8.65645C7.42124 8.6364 7.40119 8.6364 7.38114 8.6364L7.34047 8.59572L7.28031 8.57567C7.25969 8.55562 7.23964 8.55562 7.23964 8.53557C7.21959 8.53557 7.19953 8.51552 7.17948 8.51552C7.15886 8.49489 7.13881 8.49489 7.13881 8.47484C7.11876 8.47484 7.09871 8.45479 7.07865 8.45479C7.05803 8.43474 7.03798 8.43474 7.03798 8.41469L6.97783 8.37401C6.97783 8.37401 6.9572 8.35396 6.93715 8.35396C6.9171 8.33391 6.89705 8.31386 6.89705 8.31386L6.83632 8.27318C6.83632 8.25313 6.81627 8.25313 6.79622 8.23308C6.79622 8.21303 6.77617 8.21303 6.75554 8.19241L6.71544 8.1523C6.69539 8.13225 6.69539 8.13225 6.67534 8.1122C6.65471 8.09158 6.65471 8.07153 6.63466 8.07153L6.59456 8.03142L6.55389 7.9707C6.55389 7.9707 6.53383 7.95065 6.51378 7.93059C6.51378 7.91054 6.49373 7.88992 6.49373 7.88992L6.45306 7.82977C6.43301 7.82977 6.43301 7.80971 6.41295 7.78909C6.41295 7.76904 6.3929 7.74899 6.3929 7.72894L6.35223 7.68826C6.35223 7.66821 6.33218 7.64816 6.33218 7.62811C6.31212 7.62811 6.31213 7.60806 6.29207 7.58743C6.29207 7.56738 6.27202 7.54733 6.27202 7.52728C6.2514 7.50723 6.2514 7.50723 6.23135 7.4866C6.23135 7.46655 6.23135 7.4465 6.2113 7.42645C6.2113 7.4064 6.19124 7.38577 6.19124 7.36572C6.19124 7.34567 6.17119 7.32562 6.17119 7.32562L6.15057 7.26489C6.13052 7.24484 6.13052 7.22479 6.13052 7.20474C6.11047 7.18412 6.11047 7.16407 6.11047 7.14401L6.09042 7.08329C6.09042 7.06324 6.09042 7.04318 6.07036 7.02313C6.07036 7.00308 6.07036 6.98246 6.07036 6.96241C6.04974 6.94236 6.04974 6.9223 6.04974 6.90225C6.04974 6.88163 6.02969 6.86158 6.02969 6.84153C6.02969 6.82148 6.02969 6.80142 6.02969 6.7808C6.02969 6.76075 6.02969 6.7407 6.00964 6.72065C6.00964 6.7006 6.00964 6.67997 6.00964 6.65992C6.00964 6.63987 6.00964 6.61982 6.00964 6.59977C6.00964 6.57914 6.00964 6.55909 6.00964 6.53904C6.00964 6.51899 5.98959 6.49894 5.98959 6.47831C5.98959 6.45826 5.98959 6.43821 5.98959 6.41816V2.86909C5.98959 1.51764 7.09871 0.428574 8.44958 0.428574C9.80104 0.428574 10.9102 1.51764 10.9102 2.86909V3.37324H9.70021V2.86909C9.70021 2.18334 9.13534 1.63852 8.44958 1.63852C7.76383 1.63852 7.19953 2.18334 7.19953 2.86909V6.47831L7.21959 6.51899V6.63987L7.23964 6.65992V6.72065L7.25969 6.76075V6.7808L7.28031 6.82148V6.84153L7.30036 6.88163V6.90225L7.32042 6.9223V6.96241L7.34047 6.98246L7.36052 7.00308L7.38114 7.04318V7.06324L7.40119 7.08329L7.42124 7.10391L7.4413 7.14401L7.46135 7.16406L7.48197 7.18412V7.20474L7.54212 7.26489L7.56218 7.30557L7.60285 7.32562L7.64295 7.36572H7.663L7.68363 7.38577L7.70368 7.4064L7.72373 7.42645L7.76383 7.4465L7.78446 7.46655L7.80451 7.4866H7.82456L7.86466 7.50723L7.88529 7.52728H7.90534L7.94544 7.54733L7.96549 7.56738H7.98612L8.02622 7.58743H8.04627L8.08694 7.60806H8.107L8.1471 7.62811H8.20782L8.22788 7.64816H8.38943L8.40948 7.66821H8.59109V7.68826H8.63119C8.65124 7.68826 8.65124 7.68826 8.67129 7.70889H8.69192L8.71197 7.72894H8.73202L8.75207 7.74899H8.77212L8.79275 7.76904L8.8128 7.78909H8.83285L8.8529 7.80971L8.87295 7.82977L8.89358 7.84982L8.93368 7.88992V7.91054L8.97378 7.95065V7.9707L8.99441 7.99075V8.01137L9.01446 8.03142V8.05148C9.01446 8.05148 9.01446 8.07153 9.03451 8.09158V8.1523H9.05456V8.37401L9.03451 8.39406V8.43474L9.01446 8.45479V8.49489L8.99441 8.51552V8.53557L8.97378 8.55562V8.57567L8.95373 8.59572L8.93368 8.61635V8.6364L8.89358 8.6765L8.87295 8.69655L8.8529 8.71718L8.8128 8.75728H8.79275L8.77212 8.77733L8.75207 8.79738H8.73202L8.71197 8.818H8.69192L8.67129 8.83806H8.61114L8.59109 8.85811H8.49026V8.87816H8.44958ZM11.9585 12.9113H11.8778L11.8577 12.9314H11.8377C11.8377 12.9314 11.8377 12.9314 11.8176 12.9314V12.952H11.797L11.7769 12.972C11.7569 12.972 11.7569 12.9921 11.7368 12.9921L6.77617 17.3077H6.75554V17.3277H6.73549V17.3478L6.71544 17.3678C6.67534 17.4085 6.65471 17.4486 6.65471 17.5093V30.3954C6.65471 30.5764 6.79622 30.738 6.97783 30.738H17.7665L18.855 31.8271C18.9559 31.9279 19.1174 31.968 19.2583 31.8872L20.529 31.1614L20.8922 32.5529C20.9323 32.7145 21.0733 32.8153 21.2148 32.8153H22.8481C23.0096 32.8153 23.1305 32.7145 23.1706 32.5529L23.5539 31.1614L24.8246 31.8672C24.9454 31.9479 25.1064 31.9279 25.2279 31.8271L26.3771 30.6773C26.4779 30.5564 26.498 30.3954 26.4378 30.2539L25.7114 29.0039L27.103 28.6206C27.2445 28.5805 27.3453 28.439 27.3453 28.2981V26.6647C27.3453 26.5232 27.2445 26.3823 27.103 26.3416L25.6913 25.9589L26.4172 24.7083C26.498 24.5674 26.4779 24.4058 26.357 24.305L25.2073 23.1558C25.1064 23.0349 24.9454 23.0143 24.8039 23.095L23.5539 23.8209L23.1706 22.4093C23.1305 22.2684 22.989 22.1675 22.8481 22.1675H22.364V13.2545C22.364 13.0528 22.2231 12.9113 22.0415 12.9113H11.9585ZM17.7665 30.0723H7.32042V17.8926H11.9585C12.1402 17.8926 12.3011 17.7511 12.3011 17.5495V13.577H21.6989V22.1675H21.2148C21.0532 22.1675 20.9323 22.2684 20.8922 22.4093L20.509 23.8209L19.2383 23.095C19.1174 23.0349 18.9559 23.0549 18.835 23.1558L17.6858 24.305C17.5849 24.4259 17.5649 24.5874 17.6451 24.7083L18.3509 25.979L16.9599 26.3622C16.8184 26.4024 16.7176 26.5232 16.7176 26.6848V28.3181C16.7176 28.459 16.8184 28.6005 16.9599 28.6406L18.3715 29.0239L17.7665 30.0723ZM22.0415 22.8332H22.5857L22.989 24.3457C23.0297 24.4465 23.0898 24.5267 23.1907 24.5674L23.2514 24.5874C23.3522 24.6275 23.4731 24.6275 23.5739 24.5874L24.9254 23.8008L25.7114 24.5874L24.9454 25.9383C24.8847 26.0391 24.8847 26.14 24.9254 26.2408L24.9454 26.3216C24.9855 26.4024 25.0663 26.4831 25.1671 26.5232L26.6796 26.9265V28.0357L25.1872 28.439C25.0864 28.4797 24.9855 28.5599 24.9655 28.6406L24.9254 28.7214C24.8847 28.8222 24.8847 28.9231 24.9454 29.0239L25.7114 30.3748L24.9254 31.1614L23.5739 30.3954C23.4932 30.3347 23.3723 30.3347 23.2715 30.3748L23.2113 30.3954C23.1105 30.4355 23.0297 30.5363 23.0096 30.6372L22.6063 32.1296H21.4766L21.0733 30.6372C21.0532 30.5363 20.9724 30.4556 20.8716 30.4155L20.8115 30.3748C20.7106 30.3347 20.5897 30.3547 20.509 30.3954L19.1375 31.1814L18.3509 30.3748L19.1375 29.044C19.1781 28.9431 19.1781 28.8222 19.1375 28.7415L19.1174 28.6607C19.0773 28.5599 18.9965 28.4997 18.8957 28.459L17.3833 28.0557V26.9466L18.8756 26.5232C18.9965 26.5032 19.0773 26.4224 19.1174 26.3216L19.1375 26.2614C19.1781 26.1606 19.1781 26.0598 19.1174 25.9589L18.3509 24.6075L19.1375 23.8209L20.4889 24.5874C20.5691 24.6275 20.6906 24.6482 20.7914 24.6075L20.8516 24.5674C20.9524 24.5267 21.0332 24.4465 21.0532 24.3457L21.4766 22.8332H22.0415ZM7.88529 17.2269L11.636 13.9803V17.2269H7.88529ZM18.6333 21.1592C18.8149 21.1592 18.9765 21.0183 18.9765 20.8367C18.9765 20.635 18.8149 20.4935 18.6333 20.4935H10.3854C10.2044 20.4935 10.0428 20.635 10.0428 20.8367C10.0428 21.0183 10.2044 21.1592 10.3854 21.1592H18.6333ZM19.8839 17.7918C20.065 17.7918 20.2065 17.6302 20.2065 17.4486V15.3919C20.2065 15.2103 20.065 15.0694 19.8839 15.0694H14.1161C13.935 15.0694 13.7735 15.2103 13.7735 15.3919V17.4486C13.7735 17.6302 13.935 17.7918 14.1161 17.7918H19.8839ZM14.4592 17.106V15.7345H19.5408V17.106H14.4592ZM15.7499 27.4714C15.9516 27.4714 16.0925 27.3098 16.0925 27.1282C16.0925 26.9466 15.9516 26.7856 15.7499 26.7856H10.3854C10.2044 26.7856 10.0428 26.9466 10.0428 27.1282C10.0428 27.3098 10.2044 27.4714 10.3854 27.4714H15.7499ZM15.7499 24.305C15.9516 24.305 16.0925 24.1641 16.0925 23.9825C16.0925 23.8008 15.9516 23.6399 15.7499 23.6399H10.3854C10.2044 23.6399 10.0428 23.8008 10.0428 23.9825C10.0428 24.1641 10.2044 24.305 10.3854 24.305H15.7499ZM22.0415 29.0846C22.9088 29.0846 23.6146 28.3582 23.6146 27.4914C23.6146 26.604 22.9088 25.8982 22.0415 25.8982C21.154 25.8982 20.4482 26.604 20.4482 27.4914C20.4482 28.3582 21.154 29.0846 22.0415 29.0846ZM22.0415 26.5639C22.5456 26.5639 22.9489 26.9873 22.9489 27.4914C22.9489 27.9956 22.5456 28.3989 22.0415 28.3989C21.5173 28.3989 21.1139 27.9956 21.1139 27.4914C21.1139 26.9873 21.5173 26.5639 22.0415 26.5639ZM33.395 34.8319H0.604974C0.262385 34.8319 0 34.5695 0 34.2269V11.1371H34V34.2269C34 34.5695 33.7376 34.8319 33.395 34.8319ZM0 10.4714V6.67997C0 5.22826 1.16985 4.03837 2.62155 4.03837H5.32389V6.41816C5.32389 8.13225 6.73549 9.54386 8.44958 9.54386C9.15539 9.54386 9.72026 8.97899 9.72026 8.27318C9.72026 7.56738 9.15539 6.98246 8.44958 6.98246C8.12705 6.98246 7.88529 6.7407 7.88529 6.41816V4.03837C10.3252 4.03837 10.7486 4.03837 13.8743 4.03837V6.41816C13.8743 8.13225 15.2859 9.54386 17 9.54386C17.7058 9.54386 18.2707 8.97899 18.2707 8.27318C18.2707 7.56738 17.7058 6.98246 17 6.98246C16.6775 6.98246 16.4351 6.7407 16.4351 6.41816V4.03837C18.8756 4.03837 19.279 4.03837 22.4247 4.03837V6.41816C22.4247 8.13225 23.8363 9.54386 25.5504 9.54386C26.2562 9.54386 26.8205 8.97899 26.8205 8.27318C26.8205 7.56738 26.2562 6.98246 25.5504 6.98246C25.2279 6.98246 24.9855 6.7407 24.9855 6.41816V4.03837C27.5063 4.03837 27.9296 4.03837 31.3784 4.03837C32.8302 4.03837 34 5.22826 34 6.67997V10.4714H0ZM25.5504 8.87816C25.5304 8.87816 25.5097 8.87816 25.4897 8.87816C25.4696 8.87816 25.4496 8.85811 25.4295 8.85811C25.4089 8.85811 25.3889 8.85811 25.3688 8.85811C25.3488 8.85811 25.3287 8.85811 25.3081 8.85811C25.288 8.85811 25.268 8.85811 25.2479 8.85811C25.2279 8.83806 25.1872 8.83806 25.1671 8.83806C25.1471 8.83806 25.127 8.83806 25.1064 8.83806C25.0864 8.83806 25.0864 8.818 25.0663 8.818C25.0463 8.818 25.0262 8.818 25.0056 8.79738C24.9855 8.79738 24.9655 8.79738 24.9454 8.79738C24.9254 8.77733 24.9048 8.77733 24.8847 8.77733C24.8647 8.77733 24.8446 8.75728 24.8246 8.75728C24.8039 8.75728 24.7839 8.75728 24.7638 8.73723C24.7438 8.73723 24.7237 8.73723 24.7031 8.71718L24.643 8.69655C24.643 8.69655 24.6229 8.6765 24.6023 8.6765C24.5822 8.6765 24.5622 8.65645 24.5421 8.65645C24.5221 8.6364 24.5014 8.6364 24.4814 8.6364C24.4613 8.61635 24.4613 8.61635 24.4413 8.59572L24.3806 8.57567C24.3605 8.55562 24.3405 8.55562 24.3405 8.53557C24.3204 8.53557 24.2998 8.51552 24.2797 8.51552C24.2597 8.49489 24.2396 8.49489 24.2196 8.47484C24.2196 8.47484 24.199 8.45479 24.1789 8.45479C24.1589 8.43474 24.1388 8.43474 24.1388 8.41469L24.0781 8.37401C24.0781 8.37401 24.058 8.35396 24.038 8.35396C24.0179 8.33391 23.9973 8.31386 23.9973 8.31386L23.9371 8.27318C23.9371 8.25313 23.9171 8.25313 23.8965 8.23308L23.8564 8.19241C23.8363 8.17236 23.8363 8.17236 23.8163 8.1523C23.7956 8.13225 23.7956 8.13225 23.7756 8.1122C23.7555 8.09158 23.7555 8.07153 23.7355 8.07153L23.6948 8.03142L23.6547 7.9707C23.6547 7.9707 23.6347 7.95065 23.6146 7.93059C23.6146 7.91054 23.594 7.88992 23.594 7.88992L23.5539 7.82977C23.5338 7.82977 23.5338 7.80971 23.5138 7.78909C23.5138 7.76904 23.4932 7.74899 23.4932 7.72894C23.4731 7.72894 23.4731 7.70889 23.4531 7.68826C23.4531 7.66821 23.433 7.64816 23.433 7.62811L23.3923 7.58743C23.3923 7.56738 23.3723 7.54733 23.3723 7.52728C23.3522 7.50723 23.3522 7.50723 23.3322 7.4866C23.3322 7.46655 23.3322 7.4465 23.3121 7.42645C23.3121 7.4064 23.2915 7.38577 23.2915 7.36572C23.2915 7.34567 23.2715 7.32562 23.2715 7.32562C23.2514 7.30557 23.2514 7.28495 23.2514 7.26489C23.2313 7.24484 23.2313 7.22479 23.2313 7.20474C23.2113 7.18412 23.2113 7.16407 23.2113 7.14401C23.2113 7.12396 23.1907 7.10391 23.1907 7.08329C23.1907 7.06324 23.1706 7.04318 23.1706 7.02313C23.1706 7.00308 23.1706 6.98246 23.1706 6.96241C23.1506 6.94236 23.1506 6.9223 23.1506 6.90225C23.1506 6.88163 23.1305 6.86158 23.1305 6.84153C23.1305 6.82148 23.1305 6.80142 23.1305 6.7808C23.1305 6.76075 23.1305 6.7407 23.1105 6.72065C23.1105 6.7006 23.1105 6.67997 23.1105 6.65992C23.1105 6.63987 23.1105 6.61982 23.1105 6.59977C23.1105 6.57914 23.1105 6.55909 23.1105 6.53904C23.0898 6.51899 23.0898 6.49894 23.0898 6.47831C23.0898 6.45826 23.0898 6.43821 23.0898 6.41816V2.86909C23.0898 1.51764 24.199 0.428574 25.5504 0.428574C26.9013 0.428574 28.0104 1.51764 28.0104 2.86909V3.37324H26.8005V2.86909C26.8005 2.18334 26.2362 1.63852 25.5504 1.63852C24.8647 1.63852 24.2998 2.18334 24.2998 2.86909V6.47831L24.3204 6.51899V6.63987L24.3405 6.65992V6.72065L24.3605 6.76075V6.7808L24.3806 6.82148V6.84153L24.4006 6.88163V6.90225L24.4212 6.9223V6.96241L24.4413 6.98246L24.4613 7.00308L24.4814 7.04318V7.06324L24.5221 7.10391L24.5421 7.14401L24.5822 7.18412V7.20474L24.6023 7.22479L24.6229 7.24484L24.643 7.26489L24.663 7.30557L24.7031 7.32562L24.7237 7.34567L24.7438 7.36572H24.7638L24.7839 7.38577L24.8039 7.4064L24.8246 7.42645L24.8647 7.4465L24.9048 7.4866H24.9254L24.9655 7.50723L24.9855 7.52728H25.0056L25.0463 7.54733L25.0663 7.56738H25.0864L25.127 7.58743H25.1471L25.1872 7.60806H25.2073L25.2479 7.62811H25.3081L25.3287 7.64816H25.4897L25.5097 7.66821H25.6913V7.68826H25.732C25.7521 7.68826 25.7521 7.68826 25.7721 7.70889H25.7922L25.8122 7.72894H25.8328L25.8529 7.74899H25.873L25.9131 7.78909H25.9337L25.9537 7.80971L26.0139 7.86987L26.0345 7.88992V7.91054L26.0746 7.95065V7.9707L26.0947 7.99075V8.01137L26.1147 8.03142V8.05148C26.1147 8.05148 26.1147 8.07153 26.1353 8.09158V8.1523H26.1554V8.37401L26.1353 8.39406V8.43474L26.1147 8.45479V8.49489L26.0947 8.51552V8.53557L26.0746 8.55562V8.57567L26.0546 8.59572L26.0345 8.61635V8.6364L26.0139 8.65645L25.9738 8.69655L25.9537 8.71718L25.9337 8.73723L25.9131 8.75728H25.893L25.8529 8.79738H25.8328L25.8122 8.818H25.7922L25.7721 8.83806H25.7114L25.6913 8.85811H25.5905V8.87816H25.5504ZM17 8.87816C16.9799 8.87816 16.9599 8.87816 16.9393 8.87816C16.9192 8.87816 16.8992 8.85811 16.8791 8.85811C16.8591 8.85811 16.8384 8.85811 16.8184 8.85811C16.7983 8.85811 16.7783 8.85811 16.7582 8.85811C16.7376 8.85811 16.7176 8.85811 16.6975 8.85811C16.6775 8.83806 16.6574 8.83806 16.6167 8.83806C16.5967 8.83806 16.5766 8.83806 16.5566 8.83806C16.536 8.83806 16.536 8.818 16.5159 8.818C16.4959 8.818 16.4758 8.818 16.4558 8.79738C16.4351 8.79738 16.4151 8.79738 16.395 8.79738C16.375 8.77733 16.3549 8.77733 16.3343 8.77733C16.3142 8.77733 16.2942 8.75728 16.2741 8.75728C16.2541 8.75728 16.2335 8.75728 16.2134 8.73723C16.1934 8.73723 16.1733 8.73723 16.1533 8.71718L16.0925 8.69655C16.0925 8.69655 16.0725 8.6765 16.0524 8.6765C16.0318 8.6765 16.0118 8.65645 15.9917 8.65645C15.9717 8.6364 15.9516 8.6364 15.931 8.6364L15.8909 8.59572L15.8302 8.57567C15.8101 8.55562 15.7901 8.55562 15.7901 8.53557C15.77 8.53557 15.7499 8.51552 15.7293 8.51552C15.7093 8.49489 15.6892 8.49489 15.6892 8.47484C15.6692 8.47484 15.6491 8.45479 15.6285 8.45479C15.6084 8.43474 15.5884 8.43474 15.5884 8.41469L15.5277 8.37401C15.5277 8.37401 15.5076 8.35396 15.4876 8.35396C15.4675 8.33391 15.4475 8.31386 15.4475 8.31386L15.3867 8.27318C15.3867 8.25313 15.3667 8.25313 15.3466 8.23308C15.3466 8.21303 15.326 8.21303 15.306 8.19241L15.2659 8.1523C15.2458 8.13225 15.2458 8.13225 15.2252 8.1122C15.2051 8.09158 15.2051 8.07153 15.1851 8.07153L15.145 8.03142L15.1043 7.9707C15.1043 7.9707 15.0842 7.95065 15.0642 7.93059C15.0642 7.91054 15.0441 7.88992 15.0441 7.88992L15.0035 7.82977C14.9834 7.82977 14.9834 7.80971 14.9634 7.78909C14.9634 7.76904 14.9433 7.74899 14.9433 7.72894L14.9026 7.68826C14.9026 7.66821 14.8826 7.64816 14.8826 7.62811C14.8625 7.62811 14.8625 7.60806 14.8425 7.58743C14.8425 7.56738 14.8219 7.54733 14.8219 7.52728C14.8018 7.50723 14.8018 7.50723 14.7818 7.4866C14.7818 7.46655 14.7818 7.4465 14.7617 7.42645C14.7617 7.4064 14.7417 7.38577 14.7417 7.36572C14.7417 7.34567 14.721 7.32562 14.721 7.32562L14.701 7.26489C14.6809 7.24484 14.6809 7.22479 14.6809 7.20474C14.6609 7.18412 14.6609 7.16407 14.6609 7.14401L14.6408 7.08329C14.6408 7.06324 14.6202 7.04318 14.6202 7.02313C14.6202 7.00308 14.6202 6.98246 14.6202 6.96241C14.6002 6.94236 14.6002 6.9223 14.6002 6.90225C14.6002 6.88163 14.5801 6.86158 14.5801 6.84153C14.5801 6.82148 14.5801 6.80142 14.5801 6.7808C14.5801 6.76075 14.5801 6.7407 14.5601 6.72065C14.5601 6.7006 14.5601 6.67997 14.5601 6.65992C14.5601 6.63987 14.5601 6.61982 14.5601 6.59977C14.5601 6.57914 14.5601 6.55909 14.5601 6.53904C14.5601 6.51899 14.54 6.49894 14.54 6.47831C14.54 6.45826 14.54 6.43821 14.54 6.41816V2.86909C14.54 1.51764 15.6491 0.428574 17 0.428574C18.3509 0.428574 19.46 1.51764 19.46 2.86909V3.37324H18.25V2.86909C18.25 2.18334 17.6858 1.63852 17 1.63852C16.3142 1.63852 15.7499 2.18334 15.7499 2.86909V6.47831L15.77 6.51899V6.63987L15.7901 6.65992V6.72065L15.8101 6.76075V6.7808L15.8302 6.82148V6.84153L15.8508 6.88163V6.90225L15.8708 6.9223V6.96241L15.8909 6.98246L15.9109 7.00308L15.931 7.04318V7.06324L15.9516 7.08329L15.9717 7.10391L15.9917 7.14401L16.0318 7.18412V7.20474L16.0524 7.22479L16.0925 7.26489L16.1126 7.30557L16.1533 7.32562L16.1934 7.36572H16.2134L16.2741 7.42645L16.3142 7.4465L16.3343 7.46655L16.3549 7.4866H16.375L16.4151 7.50723L16.4351 7.52728H16.4558L16.4959 7.54733L16.5159 7.56738H16.536L16.5766 7.58743H16.5967L16.6368 7.60806H16.6574L16.6975 7.62811H16.7582L16.7783 7.64816H16.9393L16.9599 7.66821H17.1409V7.68826H17.1816C17.2017 7.68826 17.2017 7.68826 17.2217 7.70889H17.2418L17.2624 7.72894H17.2824L17.3025 7.74899H17.3225L17.3426 7.76904L17.3632 7.78909H17.3833L17.4033 7.80971L17.4434 7.84982L17.464 7.86987L17.4841 7.88992V7.91054L17.5242 7.95065V7.9707L17.5442 7.99075V8.01137L17.5649 8.03142V8.05148C17.5649 8.05148 17.5649 8.07153 17.5849 8.09158V8.1523H17.605V8.37401L17.5849 8.39406V8.43474L17.5649 8.45479V8.49489L17.5442 8.51552V8.53557L17.5242 8.55562V8.57567L17.5041 8.59572L17.4841 8.61635V8.6364L17.464 8.65645L17.4434 8.6765L17.4234 8.69655L17.4033 8.71718L17.3632 8.75728H17.3426L17.3025 8.79738H17.2824L17.2624 8.818H17.2418L17.2217 8.83806H17.1616L17.1409 8.85811H17.0401V8.87816H17Z" fill="url(#paint0_linear_1246_1855)"/>
<defs>
<linearGradient id="paint0_linear_1246_1855" x1="17" y1="0.428574" x2="17" y2="34.8319" gradientUnits="userSpaceOnUse">
<stop stop-color="#1B83C1"/>
<stop offset="1" stop-color="#1CD5ED"/>
</linearGradient>
</defs>
</svg>
