<svg width="38" height="38" viewBox="0 0 38 38" fill="none" xmlns="http://www.w3.org/2000/svg">
<path d="M17.3636 5.46689L5.50202 14.085C5.02658 14.4308 4.67269 14.9181 4.49096 15.4772C4.30924 16.0363 4.309 16.6386 4.49027 17.1978L9.02098 31.1414C9.20302 31.7004 9.5572 32.1875 10.0328 32.5331C10.5085 32.8786 11.0812 33.0648 11.6691 33.0652H26.3308C26.9187 33.0648 27.4914 32.8786 27.967 32.5331C28.4427 32.1875 28.7968 31.7004 28.9789 31.1414L33.5096 17.1978C33.6909 16.6386 33.6906 16.0363 33.5089 15.4772C33.3272 14.9181 32.9733 14.4308 32.4978 14.085L20.6371 5.46689C20.1612 5.12153 19.5883 4.93555 19.0003 4.93555C18.4123 4.93555 17.8394 5.12153 17.3636 5.46689Z" stroke="white" stroke-width="2" stroke-linecap="round" stroke-linejoin="round"/>
<path d="M11.6973 20.1408L16.4892 24.8671L25.8325 15.5706" stroke="white" stroke-width="1.6" stroke-linecap="round" stroke-linejoin="round"/>
</svg>
