<svg width="41" height="40" viewBox="0 0 41 40" fill="none" xmlns="http://www.w3.org/2000/svg">
<path d="M9.15104 18.6952L13.2344 20.4235C13.751 19.3891 14.3138 18.3879 14.9227 17.4202C15.5316 16.4524 16.2038 15.5113 16.9394 14.5968L14.381 14.1068C14.2099 14.0635 14.0444 14.0685 13.8844 14.1218C13.7244 14.1752 13.5799 14.2657 13.451 14.3935L9.15104 18.6952ZM14.5544 21.4802L19.271 26.1902C20.5877 25.5957 21.9127 24.8402 23.246 23.9235C24.5794 23.0068 25.8616 21.9329 27.0927 20.7018C28.8872 18.9074 30.2583 16.9935 31.206 14.9602C32.1538 12.9268 32.6866 10.5791 32.8044 7.91683C30.1422 8.03461 27.7977 8.56739 25.771 9.51517C23.7466 10.4629 21.8366 11.8341 20.041 13.6285C18.811 14.8596 17.7377 16.1468 16.821 17.4902C15.9044 18.8335 15.1488 20.1635 14.5544 21.4802ZM23.1877 17.5218C22.6988 17.0329 22.4544 16.4463 22.4544 15.7618C22.4544 15.0774 22.6988 14.4902 23.1877 14.0002C23.6766 13.5102 24.271 13.2657 24.971 13.2668C25.671 13.2679 26.2649 13.5124 26.7527 14.0002C27.2405 14.4879 27.4849 15.0752 27.486 15.7618C27.4872 16.4485 27.2427 17.0352 26.7527 17.5218C26.2638 18.0107 25.6694 18.2552 24.9694 18.2552C24.2694 18.2552 23.676 18.0107 23.1894 17.5218M22.0244 31.6035L26.326 27.3018C26.4538 27.1729 26.5449 27.0285 26.5994 26.8685C26.6527 26.7085 26.6583 26.5429 26.616 26.3718L26.1244 23.8135C25.2099 24.5491 24.2688 25.2196 23.301 25.8252C22.3333 26.4307 21.3322 26.9918 20.2977 27.5085L22.0244 31.6035ZM34.361 6.38183C34.5477 9.44405 34.1144 12.2607 33.061 14.8318C32.0088 17.4041 30.3699 19.8029 28.1444 22.0285L27.8544 22.3168L27.566 22.6052L28.2394 26.0252C28.3294 26.4741 28.3127 26.9091 28.1894 27.3302C28.0649 27.7513 27.8405 28.1241 27.516 28.4485L21.446 34.4868L18.6827 27.9785L12.7427 22.0385L6.23438 19.2435L12.2627 13.2052C12.5872 12.8807 12.9616 12.6513 13.386 12.5168C13.8105 12.3824 14.2472 12.3602 14.696 12.4502L18.1794 13.1535C18.286 13.0468 18.3766 12.9507 18.451 12.8652C18.5255 12.7796 18.6166 12.6835 18.7244 12.5768C20.951 10.3502 23.3483 8.71461 25.916 7.67017C28.4838 6.62572 31.2977 6.19628 34.361 6.38183ZM9.03104 26.9452C9.68326 26.2941 10.4755 25.9718 11.4077 25.9785C12.3399 25.9852 13.1322 26.3152 13.7844 26.9685C14.4366 27.6218 14.761 28.4141 14.7577 29.3452C14.7544 30.2785 14.4266 31.0707 13.7744 31.7218C13.2077 32.2885 12.2994 32.7735 11.0494 33.1768C9.79938 33.5802 8.35215 33.8591 6.70771 34.0135C6.86215 32.3691 7.1466 30.9218 7.56104 29.6718C7.97549 28.4218 8.46549 27.5129 9.03104 26.9452ZM10.221 28.1568C9.89993 28.4779 9.60049 29.0013 9.32271 29.7268C9.04493 30.4524 8.8616 31.2007 8.77271 31.9718C9.54382 31.8818 10.2922 31.6941 11.0177 31.4085C11.7422 31.1241 12.2649 30.8213 12.586 30.5002C12.9194 30.1668 13.0894 29.7696 13.096 29.3085C13.1016 28.8463 12.9377 28.4485 12.6044 28.1152C12.271 27.7818 11.8738 27.6224 11.4127 27.6368C10.9516 27.6502 10.5544 27.8235 10.221 28.1568Z" fill="black"/>
</svg>
