<svg width="30" height="30" viewBox="0 0 30 30" fill="none" xmlns="http://www.w3.org/2000/svg">
<path d="M29.9327 2.01267C29.9011 1.50705 29.6859 1.03039 29.3275 0.672299C28.9691 0.314209 28.4923 0.0993589 27.9867 0.06814C26.1594 -0.0402194 21.4895 0.126031 17.6138 4.00173L16.8197 4.79736H8.03665C7.76387 4.79672 7.49367 4.85018 7.24168 4.95464C6.9897 5.05911 6.76093 5.2125 6.56861 5.40595L1.46978 10.5033C1.19677 10.7764 1.00525 11.1201 0.916704 11.496C0.828156 11.8719 0.846081 12.2649 0.968469 12.6312C1.09086 12.9974 1.31287 13.3223 1.60959 13.5694C1.90632 13.8165 2.26603 13.9761 2.64837 14.0302L8.45673 14.8406L15.1602 21.5441L15.9706 27.3599C16.0252 27.742 16.1851 28.1013 16.4324 28.3976C16.6796 28.694 17.0046 28.9156 17.3707 29.0377C17.7369 29.1597 18.1298 29.1774 18.5055 29.0887C18.8811 29 19.2246 28.8084 19.4975 28.5355L24.5963 23.4367C24.7898 23.2443 24.9432 23.0156 25.0476 22.7636C25.1521 22.5116 25.2056 22.2414 25.2049 21.9686V13.1811L25.9991 12.387C29.8733 8.5083 30.041 3.84142 29.9327 2.01267ZM2.65728 12.0708C2.64134 12.0194 2.63969 11.9646 2.6525 11.9123C2.66531 11.86 2.69211 11.8122 2.73001 11.7739L7.82736 6.6647C7.88302 6.6095 7.95826 6.57855 8.03665 6.57861H15.0384L8.55915 13.0564L2.89775 12.2667C2.84308 12.2606 2.79134 12.2389 2.7487 12.2041C2.70606 12.1694 2.67432 12.1231 2.65728 12.0708ZM23.4222 21.9642C23.4219 22.0428 23.3904 22.118 23.3346 22.1735L18.2388 27.2708C18.2 27.31 18.1511 27.3376 18.0976 27.3506C18.044 27.3636 17.9879 27.3614 17.9355 27.3443C17.8832 27.3272 17.8366 27.2958 17.801 27.2537C17.7654 27.2117 17.7422 27.1605 17.7341 27.106L16.9444 21.4417L23.4222 14.9624V21.9642ZM24.7388 11.1282L16.0003 19.8652L10.1356 14.0005L18.8741 5.26048C20.0453 4.08177 21.4551 3.16729 23.0089 2.57843C24.5627 1.98958 26.2245 1.73999 27.8827 1.84642C27.9541 1.85239 28.0208 1.88391 28.0707 1.93519C28.1206 1.98646 28.1503 2.05404 28.1544 2.12548C28.2597 3.7825 28.0096 5.44288 27.4208 6.99532C26.832 8.54776 25.9181 9.95638 24.7403 11.1267L24.7388 11.1282ZM11.8441 23.2496C11.2028 24.6642 9.04306 27.9536 2.93782 27.9536C2.70162 27.9536 2.47508 27.8598 2.30806 27.6928C2.14103 27.5257 2.0472 27.2992 2.0472 27.063C2.0472 20.9578 5.33658 18.798 6.75118 18.1567C6.85762 18.108 6.9726 18.0807 7.08958 18.0764C7.20656 18.0721 7.32324 18.0909 7.43296 18.1317C7.54268 18.1725 7.64329 18.2345 7.72904 18.3142C7.81479 18.3939 7.88401 18.4897 7.93275 18.5961C7.98148 18.7025 8.00877 18.8175 8.01306 18.9345C8.01736 19.0515 7.99857 19.1682 7.95777 19.2779C7.91697 19.3876 7.85496 19.4882 7.77528 19.574C7.6956 19.6597 7.5998 19.7289 7.49337 19.7777C6.45431 20.2482 4.14907 21.7845 3.86111 26.1471C8.22368 25.8592 9.76001 23.5465 10.2306 22.5149C10.2793 22.4084 10.3485 22.3126 10.4343 22.233C10.52 22.1533 10.6206 22.0913 10.7303 22.0505C10.8401 22.0097 10.9567 21.9909 11.0737 21.9952C11.1907 21.9995 11.3057 22.0268 11.4121 22.0755C11.5186 22.1242 11.6143 22.1934 11.694 22.2792C11.7737 22.3649 11.8357 22.4656 11.8765 22.5753C11.9173 22.685 11.9361 22.8017 11.9318 22.9186C11.9275 23.0356 11.9002 23.1506 11.8515 23.257L11.8441 23.2496Z" fill="white"/>
</svg>
