<svg width="24" height="29" viewBox="0 0 24 29" fill="none" xmlns="http://www.w3.org/2000/svg">
<path d="M9.30445 2.91734L11.2914 1.66445C11.3255 1.64268 11.3581 1.6356 11.3869 1.6356C11.4299 1.6356 11.4661 1.65186 11.4787 1.65894C11.511 1.67704 11.549 1.7093 11.549 1.76333V4.27277C11.549 4.3268 11.511 4.35906 11.4787 4.37716C11.4554 4.38975 11.3743 4.42568 11.2914 4.37191L9.30445 3.11719C9.2541 3.0865 9.24308 3.04506 9.24308 3.01805C9.24308 2.99103 9.2541 2.94959 9.30445 2.91734ZM8.81269 3.89667L10.7978 5.15113C10.9778 5.2647 11.1831 5.32213 11.3885 5.32213C11.5723 5.32213 11.7578 5.27545 11.9235 5.18365C12.2658 4.99455 12.4712 4.65438 12.4712 4.27277V3.49146C18.3616 3.73275 23.0776 8.5948 23.0776 14.539C23.0776 18.7928 20.7016 22.5982 16.8792 24.474C16.6505 24.5854 16.5566 24.8611 16.6683 25.0895C16.7494 25.2535 16.9133 25.3489 17.0827 25.3489C17.1512 25.3489 17.2197 25.3327 17.2863 25.302C21.4276 23.2696 24 19.1456 24 14.539C24 8.0873 18.8696 2.81295 12.4712 2.56982V1.76333C12.4712 1.38171 12.2658 1.04154 11.9235 0.852444C11.5687 0.656262 11.1383 0.670687 10.7978 0.884966L8.81269 2.13969C8.50452 2.33404 8.32092 2.66162 8.32092 3.01805C8.32092 3.37448 8.50452 3.70206 8.81269 3.89667Z" fill="#1B83C1"/>
<path d="M6.01499 18.6866C5.50723 18.6866 5.09283 18.2725 5.09283 17.7647V9.46975C5.09283 8.96225 5.50723 8.54811 6.01499 8.54811H18.0049C18.5129 8.54811 18.9273 8.96225 18.9273 9.46975V17.7647C18.9273 18.2725 18.5129 18.6866 18.0049 18.6866H11.5435C11.2138 18.6866 10.8951 18.8054 10.6428 19.0194L8.32091 20.9726V19.6083C8.32091 19.1005 7.90652 18.6866 7.39849 18.6866H6.01499ZM7.94271 21.8242C8.07228 21.8835 8.20735 21.9123 8.34058 21.9123C8.55853 21.9123 8.77307 21.8368 8.94775 21.6873L11.2445 19.7197C11.3274 19.6479 11.4354 19.6083 11.5435 19.6083H18.0049C19.0228 19.6083 19.8497 18.7818 19.8497 17.7647V9.46975C19.8497 8.45448 19.0228 7.62648 18.0049 7.62648H6.01499C4.99736 7.62648 4.17041 8.45448 4.17041 9.46975V17.7647C4.17041 18.7818 4.99736 19.6083 6.01499 19.6083H7.39849V20.9726C7.39849 21.3435 7.60752 21.6692 7.94271 21.8242Z" fill="#1B83C1"/>
<path d="M7.39858 11.313H16.6217C16.8756 11.313 17.0828 11.1061 17.0828 10.8522C17.0828 10.5986 16.8756 10.3914 16.6217 10.3914H7.39858C7.1447 10.3914 6.9375 10.5986 6.9375 10.8522C6.9375 11.1061 7.1447 11.313 7.39858 11.313Z" fill="#1B83C1"/>
<path d="M7.39858 13.6174H16.6217C16.8756 13.6174 17.0828 13.4102 17.0828 13.1566C17.0828 12.9027 16.8756 12.6957 16.6217 12.6957H7.39858C7.1447 12.6957 6.9375 12.9027 6.9375 13.1566C6.9375 13.4102 7.1447 13.6174 7.39858 13.6174Z" fill="#1B83C1"/>
<path d="M12.4712 15.9215C12.7254 15.9215 12.9326 15.7145 12.9326 15.4606C12.9326 15.2068 12.7254 14.9998 12.4712 14.9998H7.39858C7.1447 14.9998 6.9375 15.2068 6.9375 15.4606C6.9375 15.7145 7.1447 15.9215 7.39858 15.9215H12.4712Z" fill="#1B83C1"/>
<mask id="mask0_1257_43" style="mask-type:luminance" maskUnits="userSpaceOnUse" x="0" y="3" width="16" height="26">
<path d="M0 3.71571H15.7617V28.364H0V3.71571Z" fill="white"/>
</mask>
<g mask="url(#mask0_1257_43)">
<path d="M12.4711 24.8071C12.4711 24.7512 12.5089 24.7187 12.5414 24.7008C12.554 24.6935 12.5902 24.6775 12.6332 24.6775C12.6621 24.6775 12.6946 24.6846 12.7287 24.7061L14.7157 25.959C14.766 25.9915 14.777 26.0311 14.777 26.0599C14.777 26.0888 14.766 26.1284 14.7157 26.1607L12.7287 27.4135C12.6442 27.4676 12.5632 27.4316 12.5414 27.419C12.5089 27.4009 12.4711 27.3687 12.4711 27.3128V24.8071ZM11.549 26.51V27.3128C11.549 27.6963 11.7543 28.0383 12.0966 28.2255C12.2624 28.3173 12.4478 28.364 12.6316 28.364C12.837 28.364 13.0421 28.3063 13.2223 28.193L15.2074 26.9383C15.5156 26.744 15.6992 26.4164 15.6992 26.0599C15.6992 25.7035 15.5156 25.3759 15.2074 25.1813L13.2223 23.9266C12.8818 23.7126 12.4496 23.7 12.0966 23.8943C11.7543 24.0816 11.549 24.4236 11.549 24.8071V25.5881C5.65853 25.3452 0.942563 20.4829 0.942563 14.539C0.942563 10.2851 3.31851 6.4798 7.14091 4.60401C7.36961 4.49228 7.46351 4.21505 7.35178 3.98661C7.24005 3.75974 6.9644 3.66428 6.73386 3.776C2.59253 5.80837 0.0201416 9.93239 0.0201416 14.539C0.0201416 20.9925 5.1505 26.265 11.549 26.51Z" fill="#1B83C1"/>
</g>
</svg>
