<svg xmlns="http://www.w3.org/2000/svg" version="1.1" xmlns:xlink="http://www.w3.org/1999/xlink" xmlns:svgjs="http://svgjs.dev/svgjs" width="1440" height="800" preserveAspectRatio="none" viewBox="0 0 1440 800"><g mask="url(&quot;#SvgjsMask1194&quot;)" fill="none"><rect width="1440" height="1000" x="0" y="0" fill="url(&quot;#SvgjsLinearGradient1195&quot;)"></rect><path d="M1440 0L1240.1100000000001 0L1440 86.75z" fill="rgba(255, 255, 255, .1)"></path><path d="M1240.1100000000001 0L1440 86.75L1440 403.62L652.5100000000001 0z" fill="rgba(255, 255, 255, .075)"></path><path d="M652.51 0L1440 403.62L1440 650.69L399.76 0z" fill="rgba(255, 255, 255, .05)"></path><path d="M399.76 0L1440 650.69L1440 720.57L230.51999999999998 0z" fill="rgba(255, 255, 255, .025)"></path><path d="M0 800L262.71 800L0 776.21z" fill="rgba(0, 0, 0, .1)"></path><path d="M0 776.21L262.71 800L820.3599999999999 800L0 652.27z" fill="rgba(0, 0, 0, .075)"></path><path d="M0 652.27L820.3599999999999 800L997.5299999999999 800L0 560.61z" fill="rgba(0, 0, 0, .05)"></path><path d="M0 560.61L997.5299999999999 800L999.5699999999998 800L0 161.38z" fill="rgba(0, 0, 0, .025)"></path></g><defs><mask id="SvgjsMask1194"><rect width="1440" height="1000" fill="#ffffff"></rect></mask><linearGradient x1="11.11%" y1="-20%" x2="88.89%" y2="120%" gradientUnits="userSpaceOnUse" id="SvgjsLinearGradient1195"><stop stop-color="rgba(208, 0, 255, 1)" offset="0"></stop><stop stop-color="rgba(0, 111, 255, 1)" offset="1"></stop></linearGradient></defs></svg>