<svg width="32" height="30" viewBox="0 0 32 30" fill="none" xmlns="http://www.w3.org/2000/svg">
<path fill-rule="evenodd" clip-rule="evenodd" d="M27.0834 3.50755V8.66763C27.7071 8.66763 28.3248 8.7905 28.9011 9.02921C29.4774 9.26792 30.001 9.6178 30.4421 10.0589C30.8832 10.5 31.2331 11.0236 31.4718 11.5999C31.7105 12.1762 31.8334 12.7939 31.8334 13.4176C31.8334 14.0414 31.7105 14.6591 31.4718 15.2354C31.2331 15.8117 30.8832 16.3353 30.4421 16.7764C30.001 17.2175 29.4774 17.5674 28.9011 17.8061C28.3248 18.0448 27.7071 18.1676 27.0834 18.1676V22.9176C27.0834 25.527 24.1051 27.0169 22.0167 25.451L18.755 23.0031C17.0115 21.696 14.9815 20.8232 12.8334 20.4571V24.9601C12.8335 25.9952 12.4595 26.9955 11.7803 27.7766C11.101 28.5576 10.1624 29.0668 9.13726 29.2103C8.11216 29.3537 7.06974 29.1218 6.20218 28.5572C5.33461 27.9927 4.70037 27.1335 4.41637 26.1381L1.93053 17.4361C1.03598 16.3797 0.453816 15.0947 0.249487 13.7256C0.0451577 12.3565 0.226761 10.9575 0.773883 9.68594C1.32101 8.41436 2.21196 7.3206 3.34659 6.5276C4.48122 5.73459 5.81455 5.27378 7.1967 5.19697L11.9752 4.93097C14.3132 4.8011 16.587 4.11789 18.6094 2.93755L22.3207 0.771552C24.4329 -0.458699 27.0834 1.06288 27.0834 3.50755ZM5.92053 19.8745L7.46111 25.2689C7.53526 25.53 7.70137 25.7555 7.92879 25.9037C8.15621 26.0519 8.42956 26.1128 8.69838 26.0751C8.9672 26.0375 9.21332 25.9039 9.39131 25.6989C9.56929 25.494 9.66711 25.2316 9.6667 24.9601V20.1943L7.1967 20.0566C6.76707 20.0306 6.34026 19.9698 5.92053 19.8745ZM23.9167 3.50755L20.2038 5.67514C17.949 6.99202 15.4333 7.79941 12.8334 8.04064V17.2541C15.6628 17.6436 18.356 18.7471 20.655 20.4698L23.9167 22.9176V3.50755ZM9.6667 8.23063L7.37087 8.3573C6.30282 8.41627 5.29569 8.8735 4.54828 9.63873C3.80087 10.404 3.36749 11.4216 3.33369 12.4907C3.29989 13.5598 3.66812 14.6028 4.3657 15.4137C5.06328 16.2246 6.03951 16.7446 7.1017 16.8709L7.37087 16.8946L9.6667 17.0213V8.23063ZM27.0834 11.8343V15.001C27.4869 15.0005 27.8751 14.846 28.1685 14.569C28.462 14.2919 28.6386 13.9133 28.6622 13.5104C28.6859 13.1076 28.5548 12.7109 28.2958 12.4014C28.0368 12.0919 27.6694 11.893 27.2686 11.8454L27.0834 11.8343Z" fill="white"/>
</svg>
