<svg width="38" height="38" viewBox="0 0 38 38" fill="none" xmlns="http://www.w3.org/2000/svg">
<path d="M18.9999 7.52233C17.1198 7.52151 15.2682 7.98252 13.6079 8.86485C11.9477 9.74718 10.5295 11.0238 9.47819 12.5825C8.42683 14.1413 7.77444 15.9344 7.57836 17.8043C7.38227 19.6742 7.64849 21.5637 8.35361 23.3066C8.41763 23.4521 8.45177 23.609 8.45403 23.7679C8.45629 23.9269 8.42661 24.0847 8.36675 24.2319C8.30689 24.3792 8.21808 24.5129 8.10557 24.6252C7.99306 24.7375 7.85915 24.8261 7.71177 24.8857C7.56439 24.9453 7.40655 24.9747 7.24761 24.9721C7.08866 24.9696 6.93185 24.9351 6.78646 24.8709C6.64107 24.8066 6.51007 24.7138 6.40121 24.5979C6.29236 24.4821 6.20788 24.3455 6.15278 24.1964C4.95505 21.2342 4.81803 17.9491 5.76492 14.8974C6.71181 11.8458 8.6844 9.21524 11.3486 7.45134C14.0127 5.68745 17.2047 4.89866 20.3838 5.21856C23.563 5.53847 26.5338 6.94741 28.7931 9.20674C31.0525 11.4661 32.4614 14.4369 32.7813 17.616C33.1012 20.7951 32.3124 23.9871 30.5485 26.6513C28.7846 29.3155 26.1541 31.2881 23.1024 32.2349C20.0508 33.1818 16.7656 33.0448 13.8034 31.8471C13.5178 31.7246 13.2916 31.495 13.1734 31.2076C13.0551 30.9203 13.0542 30.598 13.1709 30.3099C13.2876 30.0219 13.5125 29.7911 13.7974 29.667C14.0823 29.5429 14.4045 29.5355 14.6949 29.6462C16.2644 30.2798 17.9547 30.5584 19.6445 30.4621C21.3344 30.3658 22.9821 29.897 24.4695 29.0892C25.9569 28.2815 27.2473 27.1548 28.2483 25.7899C29.2492 24.4249 29.9359 22.8555 30.2592 21.1941C30.5825 19.5327 30.5344 17.8203 30.1183 16.1796C29.7023 14.5389 28.9285 13.0106 27.8525 11.704C26.7765 10.3975 25.4248 9.34502 23.8944 8.62208C22.3639 7.89914 20.6925 7.52359 18.9999 7.52233Z" fill="white"/>
<path d="M9.89609 19.0004C9.89609 21.0857 10.5975 23.0078 11.7771 24.5437L11.0345 25.2863L10.9886 25.3338H9.13609C8.50642 25.3343 7.90273 25.5849 7.45776 26.0304L4.86584 28.6223C4.69998 28.7884 4.58705 28.9999 4.54132 29.2301C4.49558 29.4603 4.5191 29.6989 4.60889 29.9158C4.69868 30.1327 4.85073 30.318 5.04582 30.4485C5.24091 30.579 5.4703 30.6488 5.70501 30.649H7.35168V32.2957C7.35188 32.5304 7.42164 32.7598 7.55214 32.9549C7.68264 33.15 7.86802 33.302 8.08488 33.3918C8.30174 33.4816 8.54035 33.5051 8.77056 33.4594C9.00077 33.4136 9.21227 33.3007 9.37834 33.1348L11.9703 30.5413C12.4154 30.0968 12.666 29.4937 12.6669 28.8646V27.0121L12.7144 26.9662L13.457 26.2252C15.0873 27.4765 17.0929 28.1394 19.1478 28.1061C21.2027 28.0728 23.1858 27.3452 24.7746 26.0417C26.3635 24.7383 27.4646 22.9356 27.8989 20.9268C28.3331 18.9181 28.075 16.8216 27.1664 14.9782C26.2578 13.1348 24.7523 11.6531 22.8947 10.7739C21.0371 9.89483 18.9367 9.67008 16.9352 10.1362C14.9336 10.6024 13.1487 11.732 11.8706 13.3414C10.5926 14.9508 9.8967 16.9453 9.89609 19.0004ZM19.0003 12.2712C20.0563 12.2715 21.0974 12.5204 22.0394 12.9976C22.9814 13.4748 23.7979 14.167 24.4228 15.0183C25.0477 15.8696 25.4635 16.8559 25.6366 17.8976C25.8096 18.9394 25.7351 20.0072 25.419 21.0148C25.1028 22.0224 24.554 22.9414 23.8169 23.6976C23.0798 24.4537 22.1751 25.0258 21.1759 25.3675C20.1767 25.7092 19.1111 25.811 18.0653 25.6646C17.0195 25.5182 16.0228 25.1277 15.1559 24.5247L17.7621 21.9169C18.4387 22.204 19.194 22.2467 19.8987 22.0379C20.6033 21.8291 21.2134 21.3817 21.6243 20.7723C22.0353 20.163 22.2215 19.4297 22.151 18.6981C22.0805 17.9666 21.7578 17.2823 21.2381 16.7626C20.7184 16.2429 20.0341 15.9202 19.3026 15.8497C18.571 15.7792 17.8377 15.9654 17.2284 16.3763C16.619 16.7873 16.1716 17.3973 15.9628 18.102C15.7539 18.8067 15.7967 19.562 16.0838 20.2386L13.4744 22.8432C12.7723 21.8339 12.3602 20.6516 12.2827 19.4246C12.2052 18.1976 12.4653 16.9729 13.0348 15.8833C13.6043 14.7937 14.4614 13.881 15.5131 13.2442C16.5648 12.6074 17.7708 12.2709 19.0003 12.2712ZM10.9886 26.9171L11.0836 27.0105V28.863C11.0831 29.0728 10.9994 29.2738 10.8508 29.4219L8.93501 31.3377V29.8573C8.93501 29.6474 8.8516 29.446 8.70314 29.2975C8.55467 29.1491 8.35331 29.0657 8.14334 29.0657H6.66134L8.57718 27.1498C8.6507 27.0761 8.73806 27.0176 8.83424 26.9776C8.93042 26.9377 9.03353 26.9171 9.13768 26.9171H10.9886Z" fill="white"/>
</svg>
