<svg width="34" height="34" viewBox="0 0 34 34" fill="none" xmlns="http://www.w3.org/2000/svg">
<path d="M1.95801 12.2492H32.0413M9.08301 7.49919H9.09726M15.4163 7.49919H15.4306M1.95801 16.9992C1.95801 9.90902 1.95801 6.36235 4.16042 4.15994C6.36284 1.95752 9.90792 1.95752 16.9997 1.95752C24.0898 1.95752 27.6365 1.95752 29.8389 4.15994C32.0413 6.36235 32.0413 9.90744 32.0413 16.9992C32.0413 24.0894 32.0413 27.636 29.8389 29.8384C27.6365 32.0409 24.0914 32.0409 16.9997 32.0409C9.90951 32.0409 6.36284 32.0409 4.16042 29.8384C1.95801 27.636 1.95801 24.0909 1.95801 16.9992Z" stroke="white" stroke-width="2.375" stroke-linecap="round" stroke-linejoin="round"/>
<path d="M10.666 18.5825L12.6088 20.2561C13.4242 20.9607 13.8327 21.3122 13.8327 21.7492C13.8327 22.1862 13.4242 22.5377 12.6088 23.2423L10.666 24.9159M16.9993 24.9159H23.3327" stroke="white" stroke-width="2.375" stroke-linecap="round" stroke-linejoin="round"/>
</svg>
