<svg width="38" height="38" viewBox="0 0 38 38" fill="none" xmlns="http://www.w3.org/2000/svg">
<path fill-rule="evenodd" clip-rule="evenodd" d="M15.2744 32.4365C18.3449 32.4363 21.2895 31.2164 23.4606 29.0451C25.6316 26.8737 26.8511 23.9289 26.8509 20.8584C26.8507 17.7879 25.6308 14.8433 23.4594 12.6722C21.2881 10.5012 18.3433 9.28167 15.2728 9.28188C12.2023 9.28188 9.25755 10.5016 7.08638 12.6728C4.91521 14.844 3.69546 17.7887 3.69546 20.8592C3.69546 23.9297 4.91521 26.8745 7.08638 29.0456C9.25755 31.2168 12.2023 32.4365 15.2728 32.4365M15.2728 32.967C18.484 32.967 21.5636 31.6913 23.8343 29.4207C26.1049 27.15 27.3805 24.0704 27.3805 20.8592C27.3805 17.648 26.1049 14.5684 23.8343 12.2977C21.5636 10.0271 18.484 8.75146 15.2728 8.75146C12.0616 8.75146 8.98196 10.0271 6.71132 12.2977C4.44067 14.5684 3.16504 17.648 3.16504 20.8592C3.16504 24.0704 4.44067 27.15 6.71132 29.4207C8.98196 31.6913 12.0616 32.967 15.2728 32.967Z" fill="white"/>
<path d="M5.58752 18.3477C5.86619 18.1149 6.30477 17.9566 6.85419 18.2257C7.19777 18.4126 7.67277 18.7577 8.13827 19.1124C9.07085 19.8091 10.0019 20.5073 10.0019 19.8091C10.0019 18.7577 11.5852 18.7577 12.1156 19.8091C12.3389 20.2572 12.2739 20.6007 12.209 20.9823C12.1251 21.4953 12.0317 22.0542 12.6365 22.9662C13.2524 23.8798 13.3269 25.6674 13.3918 27.018C13.4393 28.006 13.4757 28.7597 13.6894 28.7597C14.2199 28.7597 15.8032 26.1234 16.3257 25.0705C16.8561 24.0192 16.8561 22.9662 16.3257 22.4453C16.1153 22.2231 15.913 21.9934 15.7193 21.7566C15.002 20.9174 13.9507 19.6697 13.1685 19.2787C12.1156 18.7562 12.1156 17.1728 13.1685 16.6519C13.4203 16.5221 13.7544 16.4017 14.0995 16.2798C15.2554 15.8428 16.6044 15.3488 15.8032 14.5477C15.2443 13.9887 14.0995 13.7275 13.2239 13.5232C12.4418 13.3364 11.8639 13.2161 12.1061 12.9643C12.3959 12.6857 12.5336 11.9114 12.6001 11.2227C10.9084 11.6932 9.3701 12.6 8.13911 13.8521C6.90811 15.1042 6.02767 16.6577 5.58594 18.3572L5.58752 18.3477ZM22.2394 13.6911C23.2579 14.6728 24.0557 15.8603 24.5797 17.1743C25.1036 18.4883 25.3418 19.8989 25.2783 21.3121C25.2148 22.7253 24.8511 24.1088 24.2113 25.3706C23.5716 26.6323 22.6706 27.7434 21.5681 28.6298C21.3259 28.3132 21.3069 27.7432 21.5871 27.1763C22.1175 26.1234 21.5871 23.4982 21.0646 21.9149C20.74 20.9364 20.2096 20.9649 19.5937 21.0124C19.2216 21.0282 18.8305 21.0583 18.4299 20.862C17.377 20.3316 18.4299 18.7562 19.4829 17.6953C20.2555 16.9322 20.4598 16.4477 20.721 15.8333C21.0329 14.9989 21.5554 14.2611 22.2394 13.6911Z" fill="white"/>
<path fill-rule="evenodd" clip-rule="evenodd" d="M15.2725 30.5646C16.5616 30.5879 17.8425 30.3541 19.0402 29.8769C20.238 29.3997 21.3287 28.6886 22.2486 27.7851C23.1685 26.8817 23.8992 25.8041 24.3979 24.6151C24.8967 23.4261 25.1536 22.1497 25.1536 20.8604C25.1536 19.571 24.8967 18.2946 24.3979 17.1057C23.8992 15.9167 23.1685 14.839 22.2486 13.9356C21.3287 13.0322 20.238 12.3211 19.0402 11.8439C17.8425 11.3666 16.5616 11.1328 15.2725 11.1561C12.7291 11.2021 10.3054 12.2447 8.52303 14.0596C6.74062 15.8745 5.74196 18.3166 5.74196 20.8604C5.74196 23.4042 6.74062 25.8463 8.52303 27.6612C10.3054 29.4761 12.7291 30.5187 15.2725 30.5646ZM15.2725 31.1045C17.9894 31.1045 20.5951 30.0253 22.5162 28.1041C24.4374 26.1829 25.5167 23.5773 25.5167 20.8604C25.5167 18.1435 24.4374 15.5378 22.5162 13.6167C20.5951 11.6955 17.9894 10.6162 15.2725 10.6162C12.5556 10.6162 9.94992 11.6955 8.02877 13.6167C6.10761 15.5378 5.02832 18.1435 5.02832 20.8604C5.02832 23.5773 6.10761 26.1829 8.02877 28.1041C9.94992 30.0253 12.5556 31.1045 15.2725 31.1045Z" fill="white"/>
<path d="M5.98832 29.8662C8.96815 32.7257 12.1823 33.1073 13.43 32.9394C7.04915 22.2852 18.2069 15.1982 24.5862 12.9815V12.478C8.84782 13.7083 5.63365 24.5858 5.98832 29.8662Z" fill="white"/>
<path fill-rule="evenodd" clip-rule="evenodd" d="M27.1194 8.15834H25.8163C25.7884 8.15851 25.7608 8.16435 25.7352 8.17551C25.7096 8.18667 25.6866 8.20291 25.6675 8.22326L23.7105 10.5238C23.5711 10.6822 23.739 10.9149 23.9353 10.8405L25.4442 10.2436C25.4761 10.2331 25.5099 10.2297 25.5432 10.2337C25.5766 10.2378 25.6086 10.2491 25.637 10.2669C25.6655 10.2848 25.6896 10.3087 25.7077 10.337C25.7259 10.3652 25.7375 10.3971 25.7419 10.4304C25.8717 11.5863 26.7932 12.0043 27.4551 12.0977C27.5944 12.1167 27.6973 12.2655 27.6419 12.3953L26.9516 14.0721C26.8882 14.2399 27.083 14.4078 27.2413 14.3143L30.1831 12.6756C30.2143 12.6576 30.2402 12.6318 30.2582 12.6007C30.2763 12.5695 30.2859 12.5342 30.2861 12.4983V11.268C30.2861 11.1762 30.3415 11.1097 30.4254 11.0828C33.4337 9.90001 34.5975 6.89168 34.8302 5.36376C34.8335 5.33866 34.8318 5.31315 34.8251 5.28873C34.8184 5.26431 34.8069 5.24147 34.7913 5.22156C34.7757 5.20165 34.7562 5.18506 34.7341 5.17277C34.7119 5.16049 34.6876 5.15275 34.6624 5.15001C30.4349 4.48026 28.0504 6.73334 27.3062 8.04751C27.2872 8.08047 27.26 8.10797 27.2273 8.12738C27.1946 8.1468 27.1574 8.15746 27.1194 8.15834ZM32.0372 7.82268C32.2843 7.82268 32.5214 7.72451 32.6961 7.54976C32.8708 7.37502 32.969 7.13801 32.969 6.89089C32.969 6.64376 32.8708 6.40675 32.6961 6.23201C32.5214 6.05727 32.2843 5.95909 32.0372 5.95909C31.7901 5.95909 31.5531 6.05727 31.3783 6.23201C31.2036 6.40675 31.1054 6.64376 31.1054 6.89089C31.1054 7.13801 31.2036 7.37502 31.3783 7.54976C31.5531 7.72451 31.7901 7.82268 32.0372 7.82268Z" fill="white"/>
</svg>
