<svg width="36" height="28" viewBox="0 0 36 28" fill="none" xmlns="http://www.w3.org/2000/svg">
<path d="M8.5 7.66602H14.8333" stroke="white" stroke-width="2.375" stroke-linecap="round" stroke-linejoin="round"/>
<path d="M31.9856 9.24902H27.8658C25.0395 9.24902 22.75 11.3754 22.75 13.999C22.75 16.6226 25.0411 18.749 27.8642 18.749H31.9856C32.1186 18.749 32.1835 18.749 32.2389 18.7459C33.0939 18.6936 33.7747 18.0619 33.8302 17.2686C33.8333 17.2179 33.8333 17.1562 33.8333 17.0343V10.9638C33.8333 10.8419 33.8333 10.7801 33.8302 10.7294C33.7732 9.93619 33.0939 9.30444 32.2389 9.25219C32.1851 9.24902 32.1186 9.24902 31.9856 9.24902Z" stroke="white" stroke-width="2.375"/>
<path d="M32.1949 9.24919C32.0714 6.28519 31.6756 4.46752 30.3947 3.18819C28.5406 1.33252 25.5544 1.33252 19.5837 1.33252H14.8337C8.86291 1.33252 5.87674 1.33252 4.02266 3.18819C2.16858 5.04385 2.16699 8.02844 2.16699 13.9992C2.16699 19.9699 2.16699 22.9561 4.02266 24.8102C5.87833 26.6643 8.86291 26.6659 14.8337 26.6659H19.5837C25.5544 26.6659 28.5406 26.6659 30.3947 24.8102C31.6756 23.5309 32.073 21.7132 32.1949 18.7492" stroke="white" stroke-width="2.375"/>
<path d="M27.4863 13.999H27.5022" stroke="white" stroke-width="3.16667" stroke-linecap="round" stroke-linejoin="round"/>
</svg>
