<svg width="30" height="30" viewBox="0 0 30 30" fill="none" xmlns="http://www.w3.org/2000/svg">
<mask id="mask0_787_5469" style="mask-type:luminance" maskUnits="userSpaceOnUse" x="0" y="0" width="30" height="30">
<path d="M0 0H30V30H0V0Z" fill="white"/>
</mask>
<g mask="url(#mask0_787_5469)">
<path d="M15 4.6875C13.6015 4.6875 12.2639 4.9576 10.9873 5.49779C9.75368 6.01976 8.66085 6.75677 7.70881 7.70881C6.75677 8.66085 6.01976 9.75368 5.49779 10.9873C4.9576 12.2639 4.6875 13.6015 4.6875 15C4.6875 16.3985 4.9576 17.7361 5.49779 19.0128C6.01976 20.2463 6.75677 21.3392 7.70881 22.2913C8.66085 23.2432 9.75368 23.9803 10.9873 24.5023C12.2639 25.0424 13.6015 25.3125 15 25.3125C16.3985 25.3125 17.7361 25.0424 19.0128 24.5023C20.2463 23.9803 21.3392 23.2432 22.2913 22.2913C23.2432 21.3392 23.9803 20.2463 24.5023 19.0128C25.0424 17.7361 25.3125 16.3985 25.3125 15C25.3125 13.6015 25.0424 12.2639 24.5023 10.9873C23.9803 9.75368 23.2432 8.66085 22.2913 7.70881C21.3392 6.75677 20.2463 6.01976 19.0128 5.49779C17.7361 4.9576 16.3985 4.6875 15 4.6875ZM15 2.8125C16.6521 2.8125 18.2332 3.132 19.7434 3.77101C21.2015 4.38795 22.4927 5.25861 23.617 6.38299C24.7414 7.50736 25.6121 8.79857 26.229 10.2566C26.868 11.7668 27.1875 13.3479 27.1875 15C27.1875 16.6521 26.868 18.2332 26.229 19.7434C25.6121 21.2015 24.7414 22.4927 23.617 23.617C22.4927 24.7414 21.2015 25.6121 19.7434 26.229C18.2332 26.868 16.6521 27.1875 15 27.1875C13.3479 27.1875 11.7668 26.868 10.2566 26.229C8.79857 25.6121 7.50736 24.7414 6.38299 23.617C5.25861 22.4927 4.38795 21.2015 3.77101 19.7434C3.132 18.2332 2.8125 16.6521 2.8125 15C2.8125 13.3479 3.132 11.7668 3.77101 10.2566C4.38795 8.79857 5.25861 7.50736 6.38299 6.38299C7.50736 5.25861 8.79857 4.38795 10.2566 3.77101C11.7668 3.132 13.3479 2.8125 15 2.8125Z" fill="#00EEFF"/>
<path fill-rule="evenodd" clip-rule="evenodd" d="M15 6.5625C14.4822 6.5625 14.0625 6.98224 14.0625 7.5V15.9375C14.0625 15.9991 14.0685 16.06 14.0805 16.1204C14.0925 16.1808 14.1103 16.2394 14.1339 16.2963C14.1574 16.3531 14.1863 16.4072 14.2205 16.4584C14.2547 16.5095 14.2936 16.5569 14.3371 16.6004C14.3806 16.6439 14.428 16.6828 14.4792 16.717C14.5303 16.7512 14.5844 16.7801 14.6412 16.8036C14.6981 16.8272 14.7567 16.845 14.8171 16.857C14.8775 16.869 14.9384 16.875 15 16.875H20.625C21.1428 16.875 21.5625 16.4553 21.5625 15.9375C21.5625 15.4197 21.1428 15 20.625 15H15.9375V7.5C15.9375 6.98224 15.5178 6.5625 15 6.5625Z" fill="#00EEFF"/>
</g>
</svg>
