<svg width="31" height="31" viewBox="0 0 31 31" fill="none" xmlns="http://www.w3.org/2000/svg">
<mask id="mask0_838_3436" style="mask-type:luminance" maskUnits="userSpaceOnUse" x="0" y="0" width="31" height="31">
<path d="M0.5 0.5H30.5V30.5H0.5V0.5Z" fill="white"/>
</mask>
<g mask="url(#mask0_838_3436)">
<path fill-rule="evenodd" clip-rule="evenodd" d="M26.2063 6.73243C26.2778 6.72863 26.349 6.73095 26.4201 6.7394C26.4912 6.74785 26.561 6.7623 26.6296 6.78275C26.6982 6.8032 26.7645 6.82936 26.8286 6.86121C26.8928 6.89306 26.9538 6.93015 27.0115 6.97246C27.0692 7.01478 27.1228 7.06171 27.1725 7.11325C27.2222 7.1648 27.2672 7.22021 27.3073 7.27946C27.3474 7.33872 27.3822 7.40097 27.4118 7.46621C27.4412 7.53146 27.4648 7.59874 27.4827 7.66805C27.8276 9.00299 28 10.3639 28 11.7507C28 13.611 27.6937 15.411 27.081 17.1505C26.4889 18.832 25.64 20.3763 24.5341 21.7837C23.4395 23.1767 22.153 24.3597 20.6746 25.3329C19.1709 26.3227 17.5498 27.0413 15.8115 27.4887C15.6038 27.5422 15.3962 27.5422 15.1885 27.4887C13.4502 27.0414 11.8292 26.3227 10.3253 25.3327C8.84698 24.3594 7.5605 23.1762 6.46586 21.7832C5.36007 20.3758 4.51111 18.8315 3.91896 17.15C3.30632 15.4105 3.00001 13.6111 3.00001 11.7517C2.99944 11.0629 3.04244 10.3768 3.12899 9.69344C3.21555 9.01009 3.34496 8.33496 3.51723 7.66804C3.53514 7.59873 3.55882 7.53146 3.58828 7.46621C3.61774 7.40097 3.65255 7.33872 3.69271 7.27945C3.73286 7.22019 3.77778 7.16479 3.82746 7.11325C3.87713 7.0617 3.93084 7.01477 3.98858 6.97245C4.04631 6.93013 4.10724 6.89305 4.17135 6.8612C4.23546 6.82935 4.30181 6.8032 4.37041 6.78275C4.43901 6.7623 4.50886 6.74785 4.57994 6.7394C4.65103 6.73095 4.72231 6.72863 4.7938 6.73243C6.60468 6.82859 8.3652 6.57505 10.0754 5.97179C11.7855 5.36853 13.3154 4.46137 14.6652 3.25028C14.7221 3.19927 14.7831 3.15384 14.8483 3.11401C14.9135 3.07418 14.9817 3.04061 15.0531 3.0133C15.1244 2.98599 15.1976 2.96538 15.2727 2.9515C15.3479 2.93761 15.4236 2.93066 15.5 2.93066C15.5764 2.93066 15.6521 2.93761 15.7273 2.9515C15.8024 2.96538 15.8756 2.98599 15.9469 3.0133C16.0183 3.04061 16.0866 3.07418 16.1517 3.11401C16.2169 3.15384 16.278 3.19926 16.3348 3.25028C17.6845 4.46136 19.2145 5.36853 20.9246 5.97179C22.6348 6.57505 24.3953 6.82859 26.2063 6.73243ZM20.093 8.3294C21.7786 8.92398 23.5055 9.23128 25.2738 9.25131C25.4246 10.0728 25.5 10.9059 25.5 11.7507C25.5 13.3261 25.241 14.8493 24.723 16.3201C24.2223 17.7419 23.5041 19.0482 22.5684 20.2389C21.6414 21.4187 20.5519 22.4207 19.3 23.2447C18.1186 24.0224 16.8519 24.602 15.5 24.9835C14.1481 24.602 12.8815 24.0224 11.7 23.2445C10.4482 22.4205 9.35872 21.4185 8.43164 20.2385C7.49592 19.0476 6.7777 17.7413 6.27699 16.3196C5.759 14.8488 5.5 13.3255 5.5 11.7497C5.49953 11.1667 5.53592 10.586 5.60918 10.0076C5.64128 9.75415 5.68034 9.50206 5.72636 9.25131C7.49461 9.23127 9.22149 8.92397 10.907 8.32941C12.5847 7.73762 14.1157 6.89851 15.5 5.81209C16.8843 6.89851 18.4153 7.73762 20.093 8.3294ZM18.3661 12.1168C18.8542 11.6286 19.6458 11.6286 20.1339 12.1168C20.622 12.6049 20.622 13.3964 20.1339 13.8846L15.1339 18.8845C15.0759 18.9425 15.0127 18.9944 14.9445 19.04C14.8762 19.0856 14.8042 19.1241 14.7284 19.1555C14.6525 19.187 14.5744 19.2107 14.4939 19.2267C14.4134 19.2427 14.3321 19.2507 14.25 19.2507C14.1679 19.2507 14.0866 19.2427 14.0061 19.2267C13.9256 19.2107 13.8475 19.187 13.7717 19.1555C13.6958 19.1241 13.6238 19.0856 13.5555 19.04C13.4873 18.9944 13.4242 18.9425 13.3661 18.8845L10.8661 16.3846C10.378 15.8964 10.378 15.1049 10.8661 14.6168C11.3543 14.1286 12.1457 14.1286 12.6339 14.6168L14.25 16.2329L18.3661 12.1168Z" fill="#00EEFF"/>
</g>
</svg>
