<svg width="31" height="30" viewBox="0 0 31 30" fill="none" xmlns="http://www.w3.org/2000/svg">
<mask id="mask0_838_2515" style="mask-type:luminance" maskUnits="userSpaceOnUse" x="0" y="0" width="31" height="30">
<path d="M0.5 0H30.5V30H0.5V0Z" fill="white"/>
</mask>
<g mask="url(#mask0_838_2515)">
<path fill-rule="evenodd" clip-rule="evenodd" d="M28 14.9996C28.0012 18.4522 26.7813 21.3994 24.3404 23.8412C21.8994 26.283 18.9526 27.5039 15.5 27.5039C12.0474 27.5039 9.10059 26.283 6.65964 23.8412C4.21869 21.3994 2.99881 18.4522 3 14.9996C3.00119 11.5487 4.22209 8.6033 6.66269 6.16354C9.1033 3.72379 12.0491 2.50391 15.5 2.50391C18.9509 2.50391 21.8967 3.72379 24.3372 6.16354C26.7779 8.6033 27.9988 11.5487 28 14.9996ZM9.25937 7.18112C8.97531 7.41279 8.6989 7.66296 8.43015 7.93162C7.0958 9.26551 6.21718 10.7883 5.7943 12.5H6.75C7.78553 12.5 8.66942 12.8661 9.40165 13.5984C10.1339 14.3306 10.5 15.2145 10.5 16.25V17.5C10.5 17.8452 10.622 18.1398 10.8661 18.3839C11.1102 18.628 11.4048 18.75 11.75 18.75C12.7855 18.75 13.6694 19.1162 14.4016 19.8484C15.1339 20.5807 15.5 21.4645 15.5 22.5V25.0039C16.3738 25.0039 17.2072 24.9062 18 24.7107V22.5C18 21.4645 18.3661 20.5807 19.0984 19.8484C19.8306 19.1162 20.7145 18.75 21.75 18.75H24.8056C25.269 17.5962 25.5005 16.3463 25.5 15.0005C25.4995 13.6541 25.267 12.404 24.8024 11.25H24.25C23.9048 11.25 23.6102 11.3721 23.3661 11.6161C23.122 11.8602 23 12.1548 23 12.5C23 13.5356 22.6339 14.4194 21.9016 15.1517C21.1694 15.8839 20.2855 16.25 19.25 16.25C18.2145 16.25 17.3306 15.8839 16.5984 15.1517C15.8661 14.4194 15.5 13.5356 15.5 12.5C15.5 12.1548 15.378 11.8602 15.1339 11.6161C14.8898 11.3721 14.5952 11.25 14.25 11.25H13.625C12.4169 11.25 11.3857 10.8229 10.5314 9.96862C9.7502 9.1874 9.32619 8.25824 9.25937 7.18112ZM23.3869 8.84252C23.1367 8.52968 22.8644 8.22604 22.5699 7.93162C20.6174 5.97981 18.2607 5.00391 15.5 5.00391C14.1539 5.00391 12.9039 5.23591 11.75 5.69991V6.87502C11.75 7.39279 11.9331 7.83473 12.2992 8.20084C12.6653 8.56696 13.1072 8.75002 13.625 8.75002H14.25C15.2855 8.75002 16.1694 9.11614 16.9016 9.84837C17.6339 10.5806 18 11.4645 18 12.5C18 12.8452 18.122 13.1398 18.3661 13.3839C18.6102 13.628 18.9048 13.75 19.25 13.75C19.5952 13.75 19.8898 13.628 20.1339 13.3839C20.378 13.1398 20.5 12.8452 20.5 12.5C20.5 11.4645 20.8661 10.5806 21.5984 9.84837C22.1181 9.32862 22.7143 8.99334 23.3869 8.84252ZM20.5 23.6927C21.2351 23.26 21.9258 22.7204 22.5723 22.0738C22.8392 21.8068 23.0879 21.5322 23.3184 21.25H21.75C21.4048 21.25 21.1102 21.3721 20.8661 21.6162C20.622 21.8602 20.5 22.1549 20.5 22.5V23.6927ZM13 24.7107C11.2868 24.2882 9.76269 23.4092 8.42771 22.0738C6.47495 20.1204 5.49905 17.7626 5.5 15.0005L6.75 15C7.09517 15 7.3898 15.1221 7.63389 15.3661C7.87796 15.6102 8 15.9048 8 16.25V17.5C8 18.5355 8.36612 19.4194 9.09835 20.1517C9.83058 20.8839 10.7145 21.25 11.75 21.25C12.0952 21.25 12.3898 21.3721 12.6339 21.6162C12.878 21.8602 13 22.1549 13 22.5V24.7107Z" fill="#00EEFF"/>
</g>
</svg>
