<svg width="27" height="28" viewBox="0 0 27 28" fill="none" xmlns="http://www.w3.org/2000/svg">
<path d="M2.8623 9.78134C2.97876 7.42978 3.32702 5.96285 4.37066 4.92145C5.41207 3.8778 6.879 3.52954 9.23056 3.41309M24.1383 9.78134C24.0219 7.42978 23.6736 5.96285 22.63 4.92145C21.5886 3.8778 20.1217 3.52954 17.7701 3.41309M17.7701 24.6891C20.1217 24.5727 21.5886 24.2244 22.63 23.1808C23.6736 22.1394 24.0219 20.6724 24.1383 18.3209M9.23056 24.6891C6.879 24.5727 5.41207 24.2244 4.37066 23.1808C3.32702 22.1394 2.97876 20.6724 2.8623 18.3209M19.6592 19.6501L19.433 18.6994C19.341 18.3136 19.1482 17.9591 18.8743 17.6723C18.6005 17.3854 18.2553 17.1765 17.8742 17.0667L15.18 16.2896V14.6468C16.1833 13.9694 16.8597 12.7029 16.8597 11.2516C16.8597 9.08707 15.3547 7.33236 13.5003 7.33236C11.6448 7.33236 10.141 9.08707 10.141 11.2516C10.141 12.7029 10.8162 13.9694 11.8206 14.6468V16.2896L9.14322 17.0734C8.77352 17.1817 8.43799 17.3834 8.16906 17.6592C7.90012 17.935 7.70687 18.2755 7.60798 18.6479L7.34147 19.6501" stroke="#00BFFF" stroke-width="1.67969" stroke-linecap="round" stroke-linejoin="round"/>
</svg>
