<svg width="36" height="36" viewBox="0 0 36 36" fill="none" xmlns="http://www.w3.org/2000/svg">
<path d="M14.9163 10.7083L14.1638 12.7413C13.178 15.4071 12.6851 16.74 11.7124 17.7127C10.7397 18.6854 9.40676 19.1783 6.74092 20.1642L4.70801 20.9167L6.74092 21.6692C9.40676 22.655 10.7397 23.1494 11.7124 24.1206C12.6851 25.0919 13.178 26.4263 14.1638 29.0921L14.9163 31.125L15.6688 29.0921C16.6547 26.4263 17.149 25.0933 18.1203 24.1206C19.0915 23.1479 20.4259 22.655 23.0918 21.6692L25.1247 20.9167L23.0918 20.1642C20.4259 19.1783 19.093 18.6854 18.1203 17.7127C17.1476 16.74 16.6547 15.4071 15.6688 12.7413L14.9163 10.7083ZM26.583 4.875L26.2607 5.74562C25.8378 6.88896 25.6263 7.46063 25.2107 7.87625C24.7936 8.29333 24.222 8.50479 23.0786 8.92625L22.208 9.25L23.0801 9.57229C24.222 9.99521 24.7936 10.2067 25.2093 10.6223C25.6263 11.0394 25.8378 11.611 26.2593 12.7544L26.583 13.625L26.9053 12.7544C27.3282 11.611 27.5397 11.0394 27.9553 10.6238C28.3724 10.2067 28.944 9.99521 30.0874 9.57375L30.958 9.25L30.0859 8.92771C28.9441 8.50479 28.3724 8.29333 27.9568 7.87771C27.5397 7.46063 27.3282 6.88896 26.9068 5.74562L26.583 4.875Z" stroke="#00EEFF" stroke-width="3.125" stroke-linecap="round" stroke-linejoin="round"/>
</svg>
