<svg width="35" height="36" viewBox="0 0 35 36" fill="none" xmlns="http://www.w3.org/2000/svg">
<path fill-rule="evenodd" clip-rule="evenodd" d="M7.884 34.8092H20.3819C20.9798 34.8092 21.4757 34.3133 21.4757 33.7154C21.4757 33.1175 20.9798 32.6217 20.3819 32.6217H7.85483C6.51316 32.6217 5.434 31.5279 5.434 30.2008C5.434 29.8071 5.53608 29.4279 5.71108 29.0779L10.7321 19.4967H21.308L21.6215 20.0946C21.8986 20.6342 22.5548 20.8383 23.0944 20.5613C23.634 20.2842 23.8382 19.6279 23.5611 19.0883L20.7757 13.7508V5.64251H21.8694C22.4673 5.64251 22.9632 5.14668 22.9632 4.54876C22.9632 3.95085 22.4673 3.45501 21.8694 3.45501H19.8627C19.8033 3.44646 19.7434 3.44159 19.6834 3.44043H12.3917C12.3322 3.44165 12.2727 3.44652 12.2138 3.45501H10.2027C9.60483 3.45501 9.10899 3.95085 9.10899 4.54876C9.10899 5.14668 9.60483 5.64251 10.2027 5.64251H11.2965V13.7508L3.80066 28.0571C3.4345 28.7601 3.25542 29.5455 3.28066 30.3377C3.30591 31.13 3.53462 31.9024 3.9448 32.5807C4.35498 33.2589 4.93282 33.8202 5.62272 34.2105C6.31262 34.6008 7.09135 34.807 7.884 34.8092ZM13.3382 14.5238L11.8784 17.3092H20.1632L18.7048 14.5238C18.619 14.3673 18.5739 14.1918 18.5736 14.0133V5.64251H13.4694V14.0133C13.4694 14.1883 13.4257 14.3633 13.3382 14.5238ZM24.4944 34.0946C24.6548 34.5175 25.0632 34.8092 25.5152 34.8092V34.8238C25.9673 34.8238 26.3757 34.5321 26.5361 34.1092L26.9152 33.0883C27.3819 31.8342 27.5861 31.3092 27.8923 31.0029C28.1986 30.6967 28.7236 30.4925 29.9923 30.0258L31.0132 29.6467C31.4361 29.4863 31.7277 29.0779 31.7277 28.6258C31.7277 28.1738 31.4361 27.7654 31.0132 27.605L29.9923 27.2258C28.7382 26.7592 28.2132 26.555 27.9069 26.2488C27.6007 25.9425 27.3965 25.4175 26.9298 24.1488L26.5507 23.1279C26.4717 22.9202 26.3322 22.741 26.1502 22.6136C25.9681 22.4862 25.752 22.4164 25.5298 22.4133C25.0777 22.4133 24.6694 22.705 24.509 23.1279L24.1298 24.1488C23.6632 25.4029 23.459 25.9279 23.1527 26.2342C22.8465 26.5404 22.3215 26.7446 21.0527 27.2113L20.0319 27.5904C19.609 27.7508 19.3173 28.1592 19.3173 28.6113C19.3173 29.0633 19.609 29.4717 20.0319 29.6321L21.0527 30.0113C22.3069 30.4779 22.8319 30.6821 23.1382 30.9883C23.4444 31.28 23.6486 31.805 24.1152 33.0738L24.4944 34.0946ZM24.684 29.4571C24.334 29.1071 23.9548 28.8592 23.4444 28.6258C23.9402 28.3925 24.334 28.1446 24.684 27.7946C25.034 27.4446 25.2819 27.0508 25.5152 26.555C25.7486 27.0508 25.9965 27.4446 26.3465 27.7946C26.6965 28.1446 27.0902 28.3925 27.5861 28.6258C27.0757 28.8592 26.6965 29.1071 26.3465 29.4571C25.9965 29.8071 25.7486 30.2008 25.5152 30.6967C25.2819 30.1863 25.034 29.8071 24.684 29.4571Z" fill="#00EEFF"/>
</svg>
