<svg width="27" height="27" viewBox="0 0 27 27" fill="none" xmlns="http://www.w3.org/2000/svg">
<path d="M11.2604 10.1914H6.78125M6.78125 6.83203H10.1406M20.2187 20.2695L15.1797 16.9102L12.3802 19.1497L6.78125 14.6706M17.4193 12.431C16.6768 12.431 15.9647 12.136 15.4397 11.611C14.9147 11.086 14.6198 10.374 14.6198 9.63151C14.6198 8.88904 14.9147 8.17698 15.4397 7.65198C15.9647 7.12698 16.6768 6.83203 17.4193 6.83203C18.1617 6.83203 18.8738 7.12698 19.3988 7.65198C19.9238 8.17698 20.2187 8.88904 20.2187 9.63151C20.2187 10.374 19.9238 11.086 19.3988 11.611C18.8738 12.136 18.1617 12.431 17.4193 12.431Z" stroke="#00BFFF" stroke-width="1.67969" stroke-linecap="round" stroke-linejoin="round"/>
<path d="M3.42188 22.957V4.14453C3.42187 3.96634 3.49266 3.79544 3.61866 3.66944C3.74466 3.54344 3.91556 3.47266 4.09375 3.47266H22.9062C23.0844 3.47266 23.2553 3.54344 23.3813 3.66944C23.5073 3.79544 23.5781 3.96634 23.5781 4.14453V22.957C23.5781 23.1352 23.5073 23.3061 23.3813 23.4321C23.2553 23.5581 23.0844 23.6289 22.9062 23.6289H4.09375C3.91556 23.6289 3.74466 23.5581 3.61866 23.4321C3.49266 23.3061 3.42188 23.1352 3.42188 22.957Z" stroke="#00BFFF" stroke-width="1.67969"/>
</svg>
