<svg width="30" height="30" viewBox="0 0 30 30" fill="none" xmlns="http://www.w3.org/2000/svg">
<mask id="mask0_838_3422" style="mask-type:luminance" maskUnits="userSpaceOnUse" x="0" y="0" width="30" height="30">
<path d="M0 0H30V30H0V0Z" fill="white"/>
</mask>
<g mask="url(#mask0_838_3422)">
<path fill-rule="evenodd" clip-rule="evenodd" d="M15 2.5C14.3097 2.5 13.75 3.05965 13.75 3.75V5C13.75 5.69035 14.3097 6.25 15 6.25C15.6903 6.25 16.25 5.69035 16.25 5V3.75C16.25 3.05965 15.6903 2.5 15 2.5ZM6.16111 6.16111C5.67296 6.64926 5.67296 7.44074 6.16111 7.92889L7.04486 8.81264C7.53301 9.30079 8.32449 9.30079 8.81264 8.81264C9.30079 8.32449 9.30079 7.53301 8.81264 7.04486L7.92889 6.16111C7.44074 5.67296 6.64926 5.67296 6.16111 6.16111ZM23.8389 6.16111C23.3507 5.67296 22.5592 5.67296 22.0711 6.16111L21.1874 7.04486C20.6992 7.53301 20.6992 8.32449 21.1874 8.81264C21.6755 9.30079 22.467 9.30079 22.9551 8.81264L23.8389 7.92889C24.327 7.44074 24.327 6.64926 23.8389 6.16111ZM9.696 20.3037C8.23182 18.8392 7.49982 17.0714 7.5 15.0005C7.50018 12.9296 8.2325 11.1619 9.69694 9.69764C11.1614 8.23332 12.9291 7.50116 15 7.50116C17.0709 7.50116 18.8386 8.23332 20.3031 9.69764C21.7675 11.1619 22.4998 12.9296 22.5 15.0005C22.5002 17.0714 21.7682 18.8392 20.304 20.3037L19.6181 20.9885C19.3829 21.2237 19.1933 21.4897 19.0492 21.7866C19.0474 21.7905 19.0456 21.7944 19.0437 21.7983C19.0197 21.8481 18.9971 21.8988 18.9757 21.9504C18.8252 22.314 18.7499 22.6925 18.75 23.0861V23.75C18.75 24.7855 18.3839 25.6694 17.6516 26.4016C16.9194 27.1339 16.0355 27.5 15 27.5C13.9645 27.5 13.0806 27.1339 12.3484 26.4016C11.6161 25.6694 11.25 24.7855 11.25 23.75V23.0863C11.25 22.6927 11.1746 22.314 11.0239 21.95C11.007 21.9093 10.9893 21.869 10.9708 21.8294C10.9581 21.8051 10.9461 21.7803 10.935 21.755C10.7929 21.4705 10.6082 21.2147 10.3811 20.9876L9.696 20.3037ZM13.7191 22.5C13.7397 22.6934 13.75 22.8888 13.75 23.0863V23.75C13.75 24.0952 13.872 24.3898 14.1161 24.6339C14.3602 24.878 14.6548 25 15 25C15.3452 25 15.6398 24.878 15.8839 24.6339C16.128 24.3898 16.25 24.0952 16.25 23.75V23.0864C16.25 22.8889 16.2602 22.6934 16.2808 22.5H13.7191ZM17.2028 20H12.7972C12.6074 19.7223 12.3913 19.4623 12.1489 19.2199L11.4631 18.5352C10.4876 17.5591 9.99988 16.3809 10 15.0007C10.0001 13.6201 10.4883 12.4417 11.4646 11.4655C12.4409 10.4893 13.6194 10.0012 15 10.0012C16.3806 10.0012 17.559 10.4893 18.5354 11.4655C19.5117 12.4417 19.9999 13.6201 20 15.0007C20.0001 16.3813 19.5121 17.5598 18.536 18.5363L17.8519 19.219C17.6091 19.4618 17.3928 19.7222 17.2028 20ZM2.5 15C2.5 15.6903 3.05965 16.25 3.75 16.25H5C5.69035 16.25 6.25 15.6903 6.25 15C6.25 14.3097 5.69035 13.75 5 13.75H3.75C3.05965 13.75 2.5 14.3097 2.5 15ZM23.75 15C23.75 15.6903 24.3096 16.25 25 16.25H26.25C26.9404 16.25 27.5 15.6903 27.5 15C27.5 14.3097 26.9404 13.75 26.25 13.75H25C24.3096 13.75 23.75 14.3097 23.75 15Z" fill="#00EEFF"/>
</g>
</svg>
