<svg width="30" height="30" viewBox="0 0 30 30" fill="none" xmlns="http://www.w3.org/2000/svg">
<mask id="mask0_787_5454" style="mask-type:luminance" maskUnits="userSpaceOnUse" x="0" y="0" width="30" height="30">
<path d="M0 0H30V30H0V0Z" fill="white"/>
</mask>
<g mask="url(#mask0_787_5454)">
<path d="M21.5625 2.8125H8.4375C5.3309 2.8125 2.8125 5.3309 2.8125 8.4375V21.5625C2.8125 24.6691 5.3309 27.1875 8.4375 27.1875H21.5625C24.6691 27.1875 27.1875 24.6691 27.1875 21.5625V8.4375C27.1875 5.3309 24.6691 2.8125 21.5625 2.8125Z" stroke="#00EEFF" stroke-width="1.875" stroke-linejoin="round"/>
<path d="M22.1566 9.57394C21.32 8.81192 20.3941 8.20026 19.3789 7.73897C18.0111 7.11742 16.5509 6.80664 14.9984 6.80664C13.4459 6.80664 11.9857 7.11742 10.6179 7.73897C9.60275 8.20026 8.67687 8.81192 7.84029 9.57394C7.62244 9.77238 7.50416 10.0187 7.48544 10.3128C7.46672 10.6069 7.55284 10.8661 7.74378 11.0906L9.69642 13.3884C9.79025 13.4983 9.90926 13.5645 10.0534 13.5868C10.1976 13.6092 10.3317 13.5818 10.4555 13.5048C11.9773 12.5651 13.492 12.0953 14.9996 12.0953C16.5072 12.0953 18.021 12.5646 19.5409 13.5031C19.6667 13.5813 19.8016 13.6092 19.9458 13.5868C20.09 13.5645 20.2094 13.4978 20.3042 13.3868L22.2524 11.0914C22.4438 10.8664 22.5302 10.6069 22.5114 10.3128C22.4927 10.0187 22.3744 9.7724 22.1566 9.57394ZM23.4192 8.1878C24.0107 8.72659 24.3318 9.39521 24.3827 10.1937C24.4334 10.9921 24.1998 11.6958 23.6819 12.3047L21.7302 14.6042C21.3344 15.0678 20.8354 15.3463 20.2331 15.4397C19.6307 15.5331 19.0717 15.4194 18.5559 15.0985C17.3378 14.3464 16.1524 13.9703 14.9996 13.9703C13.8468 13.9703 12.6623 14.3458 11.446 15.0968C10.9284 15.4188 10.3685 15.5331 9.76614 15.4397C9.16378 15.3463 8.66428 15.0673 8.26763 14.6026L6.31559 12.3055C5.7972 11.6961 5.56341 10.9921 5.61423 10.1937C5.66504 9.39521 5.98619 8.72658 6.57767 8.18778C7.55973 7.29325 8.64791 6.57464 9.84223 6.03193C11.4565 5.29841 13.1752 4.93164 14.9984 4.93164C16.8216 4.93164 18.5404 5.29841 20.1547 6.03193C21.3489 6.57464 22.4371 7.29327 23.4192 8.1878Z" fill="#00EEFF"/>
</g>
</svg>
