<svg width="31" height="31" viewBox="0 0 31 31" fill="none" xmlns="http://www.w3.org/2000/svg">
<mask id="mask0_838_3478" style="mask-type:luminance" maskUnits="userSpaceOnUse" x="0" y="0" width="31" height="31">
<path d="M0.5 0.5H30.5V30.5H0.5V0.5Z" fill="white"/>
</mask>
<g mask="url(#mask0_838_3478)">
<path fill-rule="evenodd" clip-rule="evenodd" d="M6.75013 25.5C5.7146 25.5 4.83071 25.1339 4.09848 24.4016C3.36625 23.6694 3.00013 22.7855 3.00013 21.75V10.5169C2.99996 10.5049 2.99996 10.4928 3.00013 10.4808V9.25C3.00013 8.21447 3.36625 7.33058 4.09848 6.59835C4.83071 5.86612 5.7146 5.5 6.75013 5.5H24.2501C25.2856 5.5 26.1695 5.86612 26.9018 6.59835C27.634 7.33058 28.0001 8.21447 28.0001 9.25V10.4808C28.0003 10.4928 28.0003 10.5049 28.0001 10.5169V21.75C28.0001 22.7855 27.634 23.6694 26.9018 24.4016C26.1695 25.1339 25.2856 25.5 24.2501 25.5H6.75013ZM25.5001 9.83103V9.25C25.5001 8.90482 25.3781 8.6102 25.134 8.36611C24.8899 8.12204 24.5953 8 24.2501 8H6.75013C6.40496 8 6.11033 8.12204 5.86624 8.36611C5.62217 8.6102 5.50013 8.90482 5.50013 9.25V9.83103L14.806 16.0349C15.0163 16.1752 15.2477 16.2454 15.5001 16.2454C15.7526 16.2454 15.9839 16.1753 16.1939 16.0352L25.5001 9.83103ZM5.50013 12.8356L13.4193 18.1151C14.0491 18.5353 14.7427 18.7454 15.5001 18.7454C16.2576 18.7454 16.9513 18.5352 17.5814 18.1148L25.5001 12.8356V21.75C25.5001 22.0952 25.3781 22.3898 25.134 22.6339C24.8899 22.878 24.5953 23 24.2501 23H6.75013C6.40496 23 6.11033 22.878 5.86624 22.6339C5.62217 22.3898 5.50013 22.0952 5.50013 21.75V12.8356Z" fill="#00EEFF"/>
</g>
</svg>
