<svg width="30" height="31" viewBox="0 0 30 31" fill="none" xmlns="http://www.w3.org/2000/svg">
<mask id="mask0_793_5609" style="mask-type:luminance" maskUnits="userSpaceOnUse" x="0" y="0" width="30" height="31">
<path d="M0 0.266602H30V30.2666H0V0.266602Z" fill="white"/>
</mask>
<g mask="url(#mask0_793_5609)">
<path d="M24.8438 5.8916H5.15625C3.86183 5.8916 2.8125 6.94093 2.8125 8.23535V22.2979C2.8125 23.5923 3.86183 24.6416 5.15625 24.6416H24.8438C26.1382 24.6416 27.1875 23.5923 27.1875 22.2979V8.23535C27.1875 6.94093 26.1382 5.8916 24.8438 5.8916Z" stroke="#00EEFF" stroke-width="1.875" stroke-linejoin="round"/>
<path fill-rule="evenodd" clip-rule="evenodd" d="M5.98697 10.3817C5.57827 10.0638 5.50465 9.47477 5.82252 9.06607C6.1404 8.65738 6.72941 8.58375 7.13811 8.90163L15 15.0165L22.8619 8.90163C23.2707 8.58375 23.8597 8.65738 24.1775 9.06607C24.4954 9.47477 24.4218 10.0638 24.0132 10.3817L15.5756 16.9442C15.5348 16.9759 15.4916 17.0041 15.446 17.0288C15.4005 17.0534 15.3532 17.0741 15.3043 17.0909C15.2553 17.1077 15.2053 17.1204 15.1543 17.1289C15.1032 17.1374 15.0518 17.1416 15 17.1416C14.9483 17.1416 14.8969 17.1374 14.8458 17.1289C14.7948 17.1204 14.7447 17.1077 14.6958 17.0909C14.6468 17.0741 14.5996 17.0534 14.5541 17.0288C14.5085 17.0041 14.4653 16.9759 14.4245 16.9442L5.98697 10.3817Z" fill="#00EEFF"/>
</g>
</svg>
