<svg width="27" height="27" viewBox="0 0 27 27" fill="none" xmlns="http://www.w3.org/2000/svg">
<path d="M10.2606 6.21358C10.9302 4.25395 13.6379 4.1946 14.4318 6.03553L14.499 6.2147L15.4027 8.85741C15.6098 9.46348 15.9445 10.0181 16.3841 10.4838C16.8238 10.9496 17.3582 11.3156 17.9513 11.5572L18.1943 11.6479L20.837 12.5505C22.7967 13.2201 22.856 15.9278 21.0162 16.7217L20.837 16.7889L18.1943 17.6926C17.5881 17.8995 17.0332 18.2341 16.5673 18.6738C16.1014 19.1135 15.7352 19.648 15.4934 20.2412L15.4027 20.4831L14.5001 23.1269C13.8305 25.0865 11.1228 25.1459 10.33 23.3061L10.2606 23.1269L9.35805 20.4842C9.15109 19.8779 8.81649 19.3231 8.37683 18.8572C7.93716 18.3912 7.40267 18.025 6.80941 17.7833L6.56753 17.6926L3.92482 16.79C1.96407 16.1204 1.90472 13.4127 3.74566 12.6199L3.92482 12.5505L6.56753 11.6479C7.1736 11.4408 7.72821 11.1062 8.19394 10.6665C8.65968 10.2269 9.02571 9.69243 9.26735 9.09928L9.35805 8.85741L10.2606 6.21358ZM12.3804 6.93697L11.4778 9.57967C11.1625 10.5038 10.6495 11.3482 9.97454 12.0538C9.2996 12.7595 8.47896 13.3096 7.56975 13.6658L7.2898 13.7677L4.64709 14.6702L7.2898 15.5728C8.21397 15.8881 9.05829 16.4011 9.76397 17.0761C10.4697 17.751 11.0197 18.5717 11.3759 19.4809L11.4778 19.7608L12.3804 22.4035L13.2829 19.7608C13.5983 18.8367 14.1113 17.9923 14.7862 17.2866C15.4611 16.581 16.2818 16.0309 17.191 15.6747L17.4709 15.5739L20.1137 14.6702L17.4709 13.7677C16.5468 13.4524 15.7025 12.9394 14.9968 12.2644C14.2911 11.5895 13.741 10.7688 13.3848 9.85962L13.284 9.57967L12.3804 6.93697ZM21.3387 2.35254C21.5482 2.35254 21.7535 2.4113 21.9312 2.52216C22.109 2.63301 22.2521 2.7915 22.3443 2.97962L22.398 3.11064L22.79 4.25954L23.94 4.65147C24.1499 4.7228 24.334 4.85484 24.4688 5.03087C24.6036 5.20691 24.6831 5.419 24.6973 5.64027C24.7114 5.86155 24.6596 6.08204 24.5483 6.27381C24.437 6.46558 24.2713 6.62 24.0721 6.71749L23.94 6.77124L22.7911 7.16316L22.3991 8.31319C22.3277 8.52307 22.1955 8.70702 22.0195 8.84172C21.8434 8.97643 21.6312 9.05583 21.41 9.06986C21.1887 9.08389 20.9683 9.03192 20.7765 8.92054C20.5848 8.80916 20.4305 8.64338 20.3331 8.44421L20.2794 8.31319L19.8875 7.16428L18.7374 6.77236C18.5275 6.70103 18.3434 6.56899 18.2086 6.39295C18.0738 6.21692 17.9943 6.00483 17.9801 5.78356C17.966 5.56228 18.0178 5.34179 18.1291 5.15002C18.2404 4.95825 18.4061 4.80383 18.6053 4.70634L18.7374 4.65259L19.8863 4.26066L20.2783 3.11064C20.3538 2.8894 20.4966 2.69733 20.6868 2.56138C20.877 2.42543 21.1049 2.3524 21.3387 2.35254Z" fill="#00BFFF"/>
</svg>
