<svg width="40" height="40" viewBox="0 0 40 40" fill="none" xmlns="http://www.w3.org/2000/svg">
<g clip-path="url(#clip0_940_4000)">
<path d="M10.0313 0.116207C9.77349 0.170895 9.31256 0.334957 9.01568 0.475582C8.51568 0.709957 8.20318 1.00683 4.60162 4.60058C1.00787 8.20214 0.710993 8.51464 0.476618 9.01464C-0.0155693 10.0615 5.56917e-05 9.46777 5.56917e-05 22.1475C5.56917e-05 32.2881 0.0156807 33.7725 0.117243 34.1787C0.460993 35.4834 1.46099 36.5381 2.72662 36.9053C3.10943 37.0146 4.28131 37.0303 13.6719 37.0303H24.1954L24.6094 37.5146C25.586 38.6787 26.7501 39.4131 28.2579 39.8115C29.0001 40.0068 30.6876 40.0068 31.4454 39.8115C32.6563 39.499 33.8672 38.7803 34.7344 37.8818C35.5704 36.999 36.1407 35.9756 36.4532 34.8037L36.6172 34.1787L37.3126 34.1396C38.1172 34.085 38.5626 33.9131 39.0626 33.4678C39.4922 33.0771 39.7266 32.71 39.8907 32.1396C40.1641 31.1943 39.8751 30.1943 39.1172 29.4521L38.7188 29.0615L38.8126 28.4131C38.9454 27.5225 38.9297 27.3975 38.7266 27.2021C38.2891 26.7881 37.7891 27.1084 37.7032 27.8584C37.6016 28.7021 37.6172 28.6709 37.1016 28.6709H36.6407V27.624C36.6407 26.585 36.6407 26.5693 36.4376 26.4131C36.2735 26.2803 36.1172 26.249 35.6641 26.249C35.3594 26.249 34.9454 26.1943 34.7579 26.1318C34.1094 25.9131 33.5157 25.1006 33.5157 24.4521C33.5157 24.1318 33.2422 23.8271 32.9532 23.8271C32.7657 23.8271 32.6016 23.9365 32.2032 24.3037C31.9219 24.5693 31.5001 24.874 31.2735 24.9756C29.9532 25.5771 28.5313 25.3271 27.4922 24.3037C27.1016 23.9209 26.961 23.8271 26.7579 23.8271C26.4141 23.8271 26.2422 24.0459 26.1563 24.5771C26.0782 25.1006 25.9454 25.3662 25.6172 25.6943C25.2266 26.0928 24.9454 26.1943 24.1329 26.2412C23.0469 26.3115 23.0469 26.3115 23.0469 27.6318V28.6709H22.5782C22.3204 28.6709 22.1094 28.6553 22.1094 28.6318C22.1094 28.6084 22.0001 27.8662 21.8594 26.9756C21.461 24.3428 21.5313 23.3975 22.2422 21.9521C22.5547 21.3193 22.7188 21.1006 23.3516 20.46C24.0001 19.8193 24.2032 19.6631 24.8438 19.3584C26.1563 18.7178 26.2344 18.71 29.8438 18.71C33.3985 18.71 33.5313 18.7256 34.7188 19.2881C35.8751 19.8271 36.8282 20.7412 37.4219 21.874C37.8907 22.7803 38.0547 23.4678 38.086 24.6006C38.1094 25.4443 38.1329 25.5928 38.2735 25.7256C38.4844 25.9365 38.8672 25.9287 39.086 25.71C39.2422 25.5537 39.2579 25.4678 39.2579 24.624C39.2501 21.9912 37.9219 19.7256 35.6251 18.4131C34.8751 17.9834 33.5079 17.5771 32.8047 17.5771H32.5001V10.7959C32.5001 6.99902 32.4688 3.73339 32.4219 3.37402C32.2344 1.74902 31.0391 0.413082 29.4688 0.0849571C28.8204 -0.0478554 10.6641 -0.0244179 10.0313 0.116207ZM29.7657 1.41308C30.586 1.80371 31.1172 2.53027 31.2579 3.45214C31.2969 3.72558 31.3282 6.99121 31.3282 10.71V17.4834L28.9297 17.5225C27.1251 17.5537 26.3907 17.5928 25.9922 17.6865C25.4219 17.8193 24.5157 18.1553 24.2579 18.3271C24.0547 18.4756 23.9063 18.4678 23.9063 18.3115C23.9063 18.0928 23.3829 16.6006 23.1172 16.0771C22.2735 14.3896 20.7344 12.7412 19.0938 11.7725L18.7266 11.5537L19.8516 10.4209L20.9766 9.29589H24.2344H27.4922L27.7032 9.11621C27.9688 8.88183 27.9844 8.46777 27.7266 8.26464C27.5704 8.13183 27.2813 8.12402 24.0391 8.12402H20.5157L19.0547 9.57714L17.6016 11.0303L16.9766 10.8271C14.9454 10.1865 12.5626 10.2021 10.5938 10.874C9.18756 11.3506 7.68756 12.2646 6.67974 13.2568C6.01568 13.9053 5.35943 14.71 5.24224 15.0146C5.14068 15.2803 5.32818 15.6865 5.57818 15.749C5.92974 15.835 6.12506 15.7178 6.50006 15.2178C6.96881 14.5771 8.03131 13.5537 8.66412 13.124C9.93756 12.2646 11.9063 11.5615 13.0235 11.5615H13.2813V15.8193V20.0771H8.97662H4.67974L4.72662 19.7021C4.81256 19.0537 4.92193 18.5693 5.13287 17.8662L5.33599 17.1787L5.17974 16.9678C5.00006 16.7256 4.57818 16.6475 4.35943 16.8115C4.00787 17.0693 3.60162 18.7959 3.54693 20.2725C3.40631 23.6943 4.92193 26.8975 7.64849 28.9521C8.28131 29.4287 9.63287 30.1709 10.2344 30.3818L10.5001 30.4678L8.94537 32.0303L7.39068 33.585L5.60162 33.6084C3.82818 33.6318 3.81256 33.6318 3.66412 33.8193C3.46881 34.0615 3.47662 34.3584 3.68756 34.585C3.85162 34.7646 3.86724 34.7646 5.85162 34.7646H7.85162L9.81256 32.8037L11.7735 30.8428L12.4219 30.9287C15.2813 31.3115 18.3126 30.4521 20.4532 28.6475C20.6407 28.4834 20.8204 28.374 20.8594 28.3975C20.8907 28.4209 20.9376 28.5771 20.9532 28.749C20.9766 29.0459 20.9532 29.0928 20.5079 29.5537C19.9219 30.1631 19.7266 30.6475 19.7266 31.4834C19.7344 32.1943 19.9688 32.7646 20.4688 33.3115C20.961 33.8428 21.5235 34.0928 22.3751 34.1396L23.0704 34.1787L23.2501 34.8662C23.3516 35.2412 23.4688 35.624 23.5157 35.71C23.6016 35.8584 23.5391 35.8584 13.3047 35.8428L3.00787 35.8193L2.61724 35.6084C2.13287 35.3584 1.60943 34.8037 1.38287 34.3115L1.21099 33.9443L1.18756 22.6553L1.17193 11.3584L1.38287 10.9365C1.52349 10.6553 1.71881 10.4287 1.93756 10.2725L2.28131 10.0381L4.59381 9.99121C7.10943 9.94433 7.32818 9.91308 8.14849 9.42871C8.56256 9.17871 9.30474 8.40527 9.51568 8.00683C9.92193 7.19433 9.94537 7.04589 9.99224 4.59277L10.0391 2.28027L10.2735 1.94433C10.4219 1.73339 10.6641 1.52246 10.9297 1.38964L11.3516 1.17089L20.3438 1.18652L29.336 1.20996L29.7657 1.41308ZM8.93756 2.00683C8.89849 2.08496 8.85162 3.18652 8.82818 4.45214L8.78912 6.75683L8.57037 7.23339C8.29693 7.82714 7.83599 8.28808 7.22662 8.56933L6.75787 8.78808L4.45318 8.82714C3.18756 8.85058 2.07818 8.90527 1.99224 8.93652C1.90631 8.97558 3.43756 7.39746 5.39068 5.43652C7.34381 3.47558 8.96099 1.87402 8.97662 1.87402C8.99224 1.87402 8.96881 1.93652 8.93756 2.00683ZM15.9766 11.7646C16.2344 11.8271 16.4922 11.8975 16.5547 11.9209C16.6329 11.9443 16.5157 12.1084 16.1719 12.46C15.7422 12.8975 15.6719 13.0068 15.6719 13.249C15.6719 13.4521 15.7266 13.5771 15.8516 13.6787C16.1954 13.96 16.3751 13.8818 17.1407 13.124L17.8516 12.4287L18.2422 12.6396C18.7188 12.9053 19.336 13.3115 19.6563 13.5928L19.9063 13.8037L17.1797 16.5303L14.4532 19.2568V15.3975V11.5381L14.9844 11.5928C15.2735 11.624 15.7188 11.7021 15.9766 11.7646ZM21.2032 15.21C21.9532 16.2256 22.6563 17.8037 22.8516 18.9209C22.9063 19.1943 22.8829 19.2334 22.5079 19.6084C20.9844 21.1318 20.2266 23.2646 20.4688 25.3662C20.5157 25.7881 20.5782 26.3115 20.6016 26.5303L20.6407 26.9209L20.0547 27.4443C18.6172 28.6943 17.1094 29.4287 15.3594 29.7256C14.6719 29.8428 12.8907 29.8896 12.8907 29.7881C12.8907 29.7646 13.1172 29.499 13.3985 29.21C13.8829 28.71 13.9688 28.5303 13.8594 28.2412C13.7891 28.0615 13.3829 27.874 13.1797 27.9287C13.086 27.96 12.6485 28.335 12.211 28.7725L11.4141 29.5537L10.9219 29.374C9.50006 28.8662 8.42974 28.1943 7.42193 27.1865C5.99224 25.7646 5.14849 24.1475 4.80474 22.1553C4.74224 21.7725 4.68756 21.4131 4.68756 21.3584C4.68756 21.2646 5.46099 21.249 9.39849 21.249H14.1016L17.3829 17.9678C19.1876 16.1631 20.6954 14.6865 20.7422 14.6865C20.7813 14.6865 20.9922 14.9287 21.2032 15.21ZM28.1641 26.1553C29.3907 26.6631 31.0001 26.5381 32.1329 25.8506C32.336 25.7256 32.5313 25.624 32.5704 25.624C32.6094 25.624 32.6797 25.7334 32.7344 25.8662C33.0235 26.5537 34.1563 27.3037 35.0391 27.3975L35.4766 27.4443L35.4532 30.8506L35.4297 34.2568L35.2188 34.8818C34.9063 35.7881 34.5001 36.4365 33.7891 37.1475C33.0626 37.874 32.5391 38.2021 31.586 38.5381C30.9454 38.7646 30.8282 38.7803 29.8438 38.7803C28.9297 38.7803 28.711 38.749 28.1876 38.5771C27.2266 38.2568 26.5938 37.8662 25.8438 37.1084C25.2813 36.5381 25.1172 36.3115 24.8204 35.6943C24.2422 34.4912 24.2188 34.2959 24.2188 30.6396V27.4443L24.6485 27.3975C25.5235 27.3115 26.4688 26.7021 26.8829 25.9756L27.1172 25.5537L27.4454 25.7725C27.6251 25.8896 27.9532 26.0615 28.1641 26.1553ZM23.0469 31.4053V32.9678H22.5391C21.9297 32.9678 21.5079 32.7881 21.2266 32.4053C20.7266 31.7256 20.7579 30.9678 21.3126 30.374C21.6485 30.0146 22.0704 29.8506 22.6407 29.8428H23.0469V31.4053ZM37.6797 29.9287C38.5391 30.1631 39.0469 31.2021 38.711 32.0146C38.4376 32.6475 37.9219 32.9678 37.1485 32.9678H36.6407V31.46C36.6407 30.624 36.6641 29.9209 36.6954 29.8975C36.7735 29.8193 37.3438 29.835 37.6797 29.9287Z" fill="#00EEFF"/>
<path d="M23.9844 3.9835C23.7891 4.17881 23.7813 4.53818 23.9766 4.77256C24.1251 4.96006 24.1485 4.96006 25.8047 4.9835C27.4766 5.00693 27.4844 5.00693 27.6954 4.81943C27.9766 4.57725 28.0001 4.17881 27.7422 3.96787C27.5782 3.84287 27.3985 3.82725 25.8516 3.82725C24.2422 3.82725 24.1329 3.83506 23.9844 3.9835Z" fill="#00EEFF"/>
<path d="M22.0313 6.1709C21.836 6.36621 21.8282 6.72559 22.0235 6.95996L22.1719 7.14746H24.8751C27.5469 7.14746 27.5782 7.14746 27.7422 6.97559C27.9532 6.76465 27.9688 6.38965 27.7735 6.1709C27.6407 6.02246 27.5391 6.01465 24.9063 6.01465C22.2891 6.01465 22.1797 6.02246 22.0313 6.1709Z" fill="#00EEFF"/>
<path d="M3.6877 31.5078C3.46113 31.75 3.46895 32.0703 3.71113 32.3047C3.89863 32.5 3.91426 32.5 5.38301 32.5C6.82832 32.5 6.8752 32.4922 7.07832 32.3203C7.35176 32.0781 7.3752 31.6797 7.11738 31.4688C6.95332 31.3438 6.77363 31.3281 5.39863 31.3281C3.88301 31.3281 3.85176 31.3281 3.6877 31.5078Z" fill="#00EEFF"/>
<path d="M27.8594 28.7566C27.6641 28.9129 27.6562 28.9363 27.6562 29.7957C27.6562 30.616 27.6719 30.6863 27.8359 30.8426C28.0781 31.0691 28.3984 31.0613 28.6406 30.8191C28.8359 30.6238 28.8438 30.5926 28.8125 29.7566C28.7891 28.9598 28.7734 28.8816 28.6016 28.741C28.3672 28.5457 28.1172 28.5535 27.8594 28.7566Z" fill="#00EEFF"/>
<path d="M31.1562 28.7013C30.9453 28.8576 30.8594 29.1779 30.8594 29.7951C30.8594 30.4435 30.9688 30.8263 31.1719 30.9357C31.4062 31.0607 31.7031 31.0294 31.875 30.8576C32.0156 30.7169 32.0312 30.5998 32.0312 29.8107C32.0312 28.9357 32.0234 28.9123 31.8281 28.756C31.5938 28.5685 31.3516 28.5529 31.1562 28.7013Z" fill="#00EEFF"/>
<path d="M27.7656 32.9763C27.5937 33.0622 27.4219 33.3513 27.4219 33.5544C27.4219 33.7731 27.9219 34.2263 28.4687 34.4919C29.1719 34.8435 29.875 34.9216 30.6094 34.7341C31.9609 34.3903 32.7187 33.406 31.9375 32.9997C31.6719 32.8669 31.4531 32.9138 31.1719 33.1638C30.4766 33.7966 29.3984 33.8278 28.625 33.2341C28.2344 32.9294 28 32.8669 27.7656 32.9763Z" fill="#00EEFF"/>
</g>
<defs>
<clipPath id="clip0_940_4000">
<rect width="40" height="40" fill="white"/>
</clipPath>
</defs>
</svg>
