<svg width="40" height="40" viewBox="0 0 40 40" fill="none" xmlns="http://www.w3.org/2000/svg">
<path d="M18.1325 1.57812C17.5544 1.79688 17.0231 2.33594 16.8044 2.92188C16.6403 3.375 16.6403 3.39062 16.6559 9.05469L16.6794 14.7266L16.8903 15.125C17.1403 15.5938 17.6169 16.0469 18.1169 16.2812C18.4606 16.4375 18.609 16.4453 22.0309 16.4844L25.5778 16.5234L26.3278 18.9766C27.1169 21.5547 27.195 21.7188 27.6325 21.7188C27.8825 21.7188 28.1715 21.4141 28.2731 21.0469C28.32 20.875 28.6481 19.7891 29.0075 18.6328L29.6559 16.5234L33.1715 16.4766C36.5856 16.4375 36.8903 16.4141 37.3356 16.1719C37.6793 15.9922 38.1403 15.5078 38.3434 15.125L38.5543 14.7266L38.5778 9.05469C38.5934 3.39062 38.5934 3.375 38.4293 2.92188C38.2028 2.32031 37.6793 1.79688 37.0856 1.57031L36.6325 1.40625L27.5934 1.41406C18.6169 1.41406 18.5544 1.41406 18.1325 1.57812ZM36.8434 2.78906C36.9762 2.88281 37.1559 3.0625 37.234 3.17969C37.3747 3.39062 37.3825 3.66406 37.4059 8.82031C37.4215 14.1406 37.4215 14.2422 37.2653 14.5625C36.9372 15.2266 37.1793 15.1875 32.8356 15.2344C29.1169 15.2734 28.984 15.2812 28.8356 15.4297C28.7497 15.5156 28.4762 16.2656 28.2028 17.1875C27.9294 18.0703 27.6872 18.8359 27.6559 18.8984C27.5934 19.0234 27.6247 19.125 26.9919 17.0312C26.6559 15.9375 26.5075 15.5469 26.359 15.4062L26.1637 15.2344H22.445C18.7731 15.2344 18.7262 15.2344 18.4294 15.0625C18.234 14.9531 18.07 14.7734 17.9684 14.5703C17.82 14.2578 17.8122 14.0859 17.8122 9.00781C17.8122 6.125 17.8356 3.65625 17.8669 3.51562C17.9215 3.21875 18.4215 2.6875 18.6872 2.63281C18.7887 2.61719 22.859 2.60156 27.734 2.60938L36.6012 2.61719L36.8434 2.78906Z" fill="#00EEFF"/>
<path d="M27.2335 5.71094C27.0303 5.86719 27.0303 5.88281 27.0303 6.88281V7.89062H26.0616C25.2022 7.89062 25.0772 7.90625 24.8897 8.05469C24.6553 8.23437 24.6163 8.61719 24.796 8.875C24.8975 9.00781 25.0382 9.03125 25.9522 9.0625L26.9913 9.10156L27.0303 10.1328C27.0772 11.3047 27.1319 11.4375 27.6163 11.4375C28.1007 11.4375 28.1553 11.3047 28.2022 10.1328L28.2413 9.10156L29.2803 9.0625C30.1944 9.03125 30.335 9.00781 30.4366 8.875C30.6163 8.61719 30.5772 8.23437 30.3428 8.05469C30.1553 7.90625 30.0303 7.89062 29.171 7.89062H28.2022V6.88281C28.2022 5.88281 28.2022 5.86719 27.9991 5.71094C27.8819 5.61719 27.71 5.54687 27.6163 5.54687C27.5225 5.54687 27.3507 5.61719 27.2335 5.71094Z" fill="#00EEFF"/>
<path d="M6.7184 7.07812C5.70277 7.35156 4.85902 7.92187 3.9684 8.92968C1.35121 11.8984 0.702773 15.8516 2.24184 19.4375C2.79652 20.7422 5.11684 24 7.3434 26.6094C8.57777 28.0547 11.3434 30.8594 12.7184 32.0547C15.2809 34.2891 18.4918 36.6406 19.9918 37.3828C21.4215 38.0937 22.695 38.3906 24.3356 38.3906C26.8278 38.3906 28.9371 37.5859 30.8746 35.8984C32.3356 34.6172 32.945 33.3437 32.8668 31.7187C32.8043 30.2734 32.2965 29.3281 30.859 27.9453C30.1793 27.2812 29.8903 27.0625 29.359 26.8047C27.9059 26.0859 26.5465 26.0859 25.0934 26.8047C24.5387 27.0781 24.2809 27.2734 23.2965 28.2344C22.359 29.1406 22.0934 29.3594 21.8512 29.4062C21.1871 29.5312 21.3121 29.6406 16.359 24.6719C12.0934 20.3828 11.7262 20 11.5309 19.5469C11.2809 18.9687 11.195 18.1797 11.32 17.5859C11.4528 16.9687 11.7496 16.4297 12.3121 15.7812C12.859 15.1562 13.2731 14.375 13.445 13.6719C13.5934 13.0703 13.57 11.9375 13.4059 11.3672C13.1168 10.3906 12.7731 9.875 11.6871 8.78906C10.5621 7.67187 9.98402 7.29687 9.05434 7.07031C8.42934 6.92187 7.2809 6.92968 6.7184 7.07812ZM8.78871 8.25C9.4684 8.42187 9.86683 8.6875 10.734 9.52343C12.0309 10.7891 12.3981 11.5391 12.3278 12.8437C12.2965 13.4062 12.2496 13.5937 12.0075 14.0781C11.8512 14.3984 11.6481 14.7266 11.5621 14.8047C11.3981 14.9531 11.3903 14.9453 8.45277 12.0078L5.50746 9.05468L5.70277 8.89843C5.99184 8.67187 6.75746 8.28906 7.0934 8.21093C7.55434 8.10156 8.28871 8.11718 8.78871 8.25ZM7.68715 12.9609L10.6481 15.9219L10.4918 16.3047C9.8434 17.8047 9.95277 19.4531 10.7809 20.6797C10.9606 20.9453 12.9918 23.0391 15.6793 25.7109C20.0621 30.0859 20.2965 30.3047 20.7418 30.4687C21.109 30.6016 21.32 30.6328 21.7184 30.6016C22.4137 30.5547 22.8825 30.3281 23.484 29.75L23.9918 29.2656L26.9137 32.1875C28.5231 33.7969 29.8356 35.1484 29.82 35.1953C29.7809 35.3203 28.7653 36 28.1871 36.2969C26.984 36.9062 25.7887 37.1797 24.32 37.1875C22.5309 37.1875 21.0465 36.7344 19.4918 35.7109C13.5778 31.8125 8.50746 26.8047 4.51527 20.9375C3.12465 18.9062 2.64809 17.5078 2.64809 15.5078C2.64809 14.0547 2.92152 12.8906 3.56996 11.6016C3.89027 10.9766 4.55434 10 4.67152 10C4.70277 10 6.06215 11.3359 7.68715 12.9609ZM28.1168 27.5859C28.7575 27.7344 29.234 28.0469 30.1325 28.9297C31.1246 29.8984 31.4918 30.4844 31.6559 31.3906C31.82 32.2578 31.4996 33.4687 30.9293 34.1328L30.7731 34.3281L27.8043 31.3594L24.8356 28.3984L25.0543 28.2187C25.8512 27.5625 26.984 27.3281 28.1168 27.5859Z" fill="#00EEFF"/>
</svg>
