<svg width="39" height="40" viewBox="0 0 39 40" fill="none" xmlns="http://www.w3.org/2000/svg">
<path d="M0.533203 0.452761C0.339844 0.584597 0.339844 0.610964 0.339844 2.80823C0.339844 4.41663 0.366211 5.04944 0.445312 5.12854C0.603516 5.28675 0.911133 5.26038 1.06934 5.07581C1.20117 4.93518 1.21875 4.66272 1.21875 3.09827V1.27893H3.00293C4.93652 1.27893 5.17383 1.2262 5.17383 0.795534C5.17383 0.356081 4.96289 0.312136 2.75684 0.312136C1.06934 0.312136 0.700195 0.338503 0.533203 0.452761Z" fill="#00EEFF"/>
<path d="M34.0195 0.452644C33.9141 0.522957 33.8262 0.681159 33.8262 0.795417C33.8262 1.22608 34.0635 1.27882 35.9971 1.27882H37.7812V3.10694C37.7812 4.77686 37.7988 4.95265 37.9395 5.08448C38.1328 5.26026 38.4053 5.27784 38.5547 5.12843C38.6338 5.04932 38.6602 4.41651 38.6602 2.80811C38.6602 0.610847 38.6602 0.58448 38.4668 0.452644C38.2998 0.338387 37.9307 0.312019 36.2432 0.312019C34.5557 0.312019 34.1865 0.338387 34.0195 0.452644Z" fill="#00EEFF"/>
<path d="M18.6211 3.22109C16.6348 3.4496 14.5957 4.4955 12.5303 6.32363C12.0117 6.78945 11.4229 7.24648 11.2295 7.35195C11.0273 7.44863 10.4473 7.60683 9.9375 7.7123C8.74219 7.93203 7.77539 8.30996 7.13379 8.78456C6.43066 9.31191 6.19336 9.58437 5.91211 10.1996C5.5957 10.8852 5.5957 11.7641 5.91211 13.4955C6.49219 16.6596 6.26367 17.9603 4.75195 19.9994C3.62695 21.5023 3.24023 22.5922 3.24023 24.2182C3.24023 26.8373 4.65527 29.14 6.97559 30.2826C7.36231 30.476 7.96875 30.6957 8.32031 30.7836C8.95313 30.933 8.96191 30.933 9.14648 30.7484C9.27832 30.6166 9.31348 30.5023 9.26953 30.3441C9.22559 30.1508 9.11133 30.0805 8.44336 29.8871C7.32715 29.5443 6.65039 29.14 5.81543 28.3051C4.59375 27.0658 4.05762 25.6508 4.14551 23.9105C4.22461 22.5394 4.56738 21.7045 5.58691 20.3685C6.28125 19.4545 6.68555 18.6371 6.94043 17.6264C7.10742 16.976 7.125 16.7211 7.08106 15.6928C7.05469 14.9896 6.94043 14.0228 6.80859 13.3285C6.38672 11.1225 6.54492 10.3314 7.55566 9.58437C8.22363 9.09218 8.9707 8.80214 10.1484 8.58242C11.4053 8.34511 11.9766 8.05507 12.9609 7.15859C14.1387 6.07753 15.0439 5.43593 16.1162 4.91738C17.3906 4.31093 18.2959 4.09121 19.5176 4.09121C21.4863 4.09121 23.0859 4.72402 24.9316 6.21816C25.8545 6.96523 26.2148 7.13222 27.1992 7.308C28.6582 7.56289 29.6953 8.06386 30.6094 8.96914C32.1123 10.4545 32.6309 12.6342 32.0332 14.9721C31.5586 16.8266 31.9453 18.3383 33.3955 20.2631C34.5469 21.7924 34.9336 22.9174 34.8633 24.517C34.749 26.9252 33.1494 29.0082 30.8731 29.7201C30.0996 29.9574 29.8535 30.1596 29.9326 30.4672C30.0117 30.7748 30.2578 30.8275 30.8467 30.6781C32.9473 30.1332 34.6875 28.4984 35.4346 26.3451C35.6631 25.6947 35.707 25.4223 35.7422 24.473C35.7773 23.5502 35.751 23.2426 35.5928 22.6273C35.3555 21.6605 34.916 20.7816 34.2217 19.8764C32.8154 18.0394 32.4902 16.7475 32.9648 14.9633C33.2197 14.0053 33.2373 12.3353 33 11.4301C32.3145 8.82851 30.3721 7.00917 27.7529 6.5082C26.54 6.27968 26.3994 6.21816 25.6348 5.61171C24.1318 4.4164 22.9541 3.78359 21.5742 3.43203C20.6162 3.19472 19.5176 3.11562 18.6211 3.22109Z" fill="#00EEFF"/>
<path d="M2.81836 3.406C2.73926 3.48511 2.71289 4.0564 2.71289 5.42749V7.34351L2.93262 7.48413C3.13477 7.61597 3.16992 7.61597 3.37207 7.48413L3.5918 7.34351V5.76147V4.17944H5.15625C6.25488 4.17944 6.75586 4.14429 6.82617 4.07397C6.95801 3.94214 6.95801 3.53784 6.82617 3.406C6.67676 3.25659 2.96777 3.25659 2.81836 3.406Z" fill="#00EEFF"/>
<path d="M32.1738 3.406C32.1123 3.46753 32.0684 3.61694 32.0684 3.73999C32.0684 4.15308 32.165 4.17944 33.8438 4.17944H35.4082V5.76147V7.34351L35.6279 7.48413C35.8301 7.61597 35.8652 7.61597 36.0674 7.48413L36.2871 7.34351V5.42749C36.2871 4.0564 36.2607 3.48511 36.1816 3.406C36.0322 3.25659 32.3232 3.25659 32.1738 3.406Z" fill="#00EEFF"/>
<path d="M23.2795 11.8696C22.5852 12.0981 22.1809 12.3705 22.1545 12.643C22.1194 12.933 22.2688 13.144 22.5061 13.144C22.594 13.144 22.8752 13.0385 23.1301 12.9067C23.8157 12.5463 24.5451 12.5639 25.2659 12.9594C25.8547 13.267 26.1448 13.2846 26.3117 13.0121C26.5051 12.7045 26.3293 12.476 25.6174 12.1244C25.0725 11.8608 24.8352 11.7905 24.3166 11.7729C23.9123 11.7465 23.5344 11.7905 23.2795 11.8696Z" fill="#00EEFF"/>
<path d="M12.1613 12.7666C10.5617 14.7002 9.46305 17.4775 9.12027 20.4395C8.99722 21.5469 9.05875 23.8584 9.25211 24.8779C10.0607 29.3252 12.4074 32.832 15.6418 34.4492C16.0812 34.6689 16.5295 34.8535 16.6437 34.8535C16.9074 34.8535 17.0568 34.6602 17.0216 34.3613C16.9953 34.1592 16.8722 34.0625 16.1164 33.6758C14.9386 33.0781 14.4992 32.7617 13.6027 31.874C10.2453 28.5078 9.02359 22.4521 10.6759 17.4072C11.0275 16.3438 11.6164 15.1396 12.258 14.1816C12.5744 13.707 12.8644 13.3203 12.8996 13.3203C12.9435 13.3203 13.0666 13.3906 13.1808 13.4873C13.8048 13.9707 15.2111 14.4805 16.2482 14.6035C16.7316 14.6562 16.7668 14.6475 16.9074 14.4277C17.048 14.2168 17.048 14.1816 16.9162 13.9883C16.8195 13.8301 16.6701 13.7598 16.3625 13.7158C15.1847 13.5488 14.2003 13.1533 13.4181 12.5293C13.172 12.3359 12.8996 12.1777 12.8117 12.1777C12.715 12.1777 12.4425 12.4326 12.1613 12.7666Z" fill="#00EEFF"/>
<path d="M19.0606 12.6348C18.3926 12.9775 18.0586 13.6982 18.2607 14.3838C18.3838 14.7881 18.7266 15.21 19.0693 15.3945L19.3242 15.5264V18.2686C19.3242 21.1689 19.333 21.2305 19.7285 21.2305C20.1943 21.2305 20.2031 21.1777 20.2031 18.2158V15.4736L20.5283 15.2979C20.959 15.0693 21.2578 14.542 21.2578 13.9971C21.2578 13.3291 20.9238 12.8545 20.2734 12.5732C19.8252 12.3887 19.5176 12.4062 19.0606 12.6348ZM20.2295 13.6016C20.4316 13.8389 20.4229 14.1904 20.1856 14.4365C19.8076 14.832 19.1221 14.5771 19.1221 14.041C19.1221 13.4082 19.8164 13.1357 20.2295 13.6016Z" fill="#00EEFF"/>
<path d="M27.3223 13.9437C27.0322 14.0579 26.7246 14.3568 26.5576 14.6732C26.3994 14.9808 26.3818 15.6751 26.5313 15.9476C26.6191 16.1146 26.6104 16.1761 26.4609 16.3343C26.3643 16.4398 25.2568 17.6527 23.9912 19.0238C22.3916 20.7728 21.6973 21.5902 21.6973 21.7308C21.6973 21.9593 22.0488 22.223 22.251 22.1439C22.3301 22.1175 23.499 20.8958 24.8525 19.428L27.3135 16.765L27.6211 16.8529C28.0078 16.9759 28.6055 16.8177 28.9307 16.5189C29.7832 15.7279 29.5635 14.3304 28.5264 13.9437C28.2188 13.8294 27.6211 13.8294 27.3223 13.9437ZM28.377 14.9017C28.5879 15.1126 28.6055 15.5784 28.4033 15.7982C28.2275 16.0003 27.7002 16.0091 27.4805 15.807C27.2695 15.6136 27.2695 15.1302 27.498 14.9017C27.5947 14.805 27.7881 14.7259 27.9375 14.7259C28.0869 14.7259 28.2803 14.805 28.377 14.9017Z" fill="#00EEFF"/>
<path d="M28.7193 18.2337C28.5172 18.3919 28.5172 18.4183 28.6226 18.9193C28.6754 19.2005 28.7896 19.8861 28.86 20.431C28.9303 20.9847 29.0357 21.4857 29.0885 21.5472C29.2291 21.7142 29.5631 21.6966 29.7389 21.5208C29.9059 21.3626 29.8795 21.0023 29.607 19.3587C29.4049 18.1283 29.1851 17.8558 28.7193 18.2337Z" fill="#00EEFF"/>
<path d="M13.444 18.805C12.1257 19.139 11.9499 19.2708 12.2048 19.7454C12.3278 19.9651 12.5915 19.9563 13.611 19.6839C15.1843 19.2708 15.8874 19.3147 17.0036 19.9124C17.5222 20.1849 17.8034 20.1761 17.9089 19.8772C18.0319 19.5608 17.9089 19.3851 17.3552 19.0774C16.195 18.4271 15.237 18.3655 13.444 18.805Z" fill="#00EEFF"/>
<path d="M13.5417 21.5119C13.3132 21.7404 13.4187 22.1008 13.7966 22.3644C14.5964 22.9533 15.7302 22.883 16.4509 22.215C16.7322 21.9514 16.7497 21.758 16.53 21.5559C16.3015 21.3537 16.1345 21.3713 15.7478 21.635C15.4665 21.8283 15.3435 21.8547 14.9656 21.8283C14.6755 21.8019 14.4294 21.7228 14.2712 21.5998C13.9988 21.3889 13.6999 21.3537 13.5417 21.5119Z" fill="#00EEFF"/>
<path d="M19.2632 22.9971C18.8676 23.1113 18.3842 23.6123 18.2612 24.0518C18.0591 24.7109 18.4194 25.5107 19.0786 25.8535C19.2104 25.9238 19.5005 25.9766 19.7202 25.9766C21.3989 25.9766 21.8647 23.7617 20.3354 23.0674C19.9487 22.8916 19.6938 22.874 19.2632 22.9971ZM20.2915 24.1309C20.52 24.5527 20.2124 25.0977 19.7553 25.0977C19.0434 25.0977 18.8676 24.1133 19.5444 23.8672C19.7729 23.7881 20.186 23.9287 20.2915 24.1309Z" fill="#00EEFF"/>
<path d="M28.9749 22.9883C28.597 23.1025 28.2366 23.4014 28.0784 23.7354L27.929 24.043H25.5647C23.5345 24.043 23.1829 24.0605 23.0687 24.1836C22.8841 24.3682 22.8929 24.5967 23.0862 24.7725C23.2269 24.9043 23.5345 24.9219 25.5823 24.9219H27.9114L28.1224 25.2471C28.4388 25.7393 28.8519 25.9766 29.3616 25.9766C30.2229 25.9766 30.8294 25.458 30.9085 24.6582C30.9612 24.1045 30.8909 23.8584 30.6009 23.5068C30.1878 23.0146 29.5462 22.8125 28.9749 22.9883ZM29.8714 24.043C30.4163 24.5879 29.5989 25.4316 29.0013 24.9395C28.7552 24.7461 28.7288 24.2803 28.9485 24.043C29.1595 23.8145 29.6429 23.8145 29.8714 24.043Z" fill="#00EEFF"/>
<path d="M22.0582 26.7316C21.6539 27.0217 21.7857 27.2238 23.4996 28.9904C24.7125 30.2297 25.1168 30.6955 25.0728 30.801C24.9146 31.1437 24.9322 31.759 25.1168 32.1105C25.3717 32.6203 25.7584 32.8576 26.3648 32.9015C26.9625 32.9455 27.4283 32.7346 27.7535 32.2599C28.5269 31.1349 27.4547 29.5705 26.1451 29.9221L25.7847 30.0187L24.1588 28.3664C23.2623 27.4523 22.4713 26.6789 22.3922 26.6525C22.3131 26.6262 22.1636 26.6613 22.0582 26.7316ZM26.9713 31.0471C27.2965 31.4601 26.9888 32.0402 26.4439 32.0402C26.1539 32.0402 25.8287 31.6887 25.8287 31.3898C25.8287 30.8361 26.6197 30.6076 26.9713 31.0471Z" fill="#00EEFF"/>
<path d="M27.9375 27.8746C27.6914 28.3932 27.498 28.8853 27.498 28.9732C27.498 29.0611 27.5947 29.2018 27.7178 29.2809C27.9199 29.4127 27.9551 29.4127 28.1484 29.2896C28.3594 29.149 29.0801 27.6373 29.0801 27.3209C29.0801 27.0836 28.9131 26.943 28.623 26.943C28.3945 26.943 28.3418 27.0133 27.9375 27.8746Z" fill="#00EEFF"/>
<path d="M19.4648 27.7871C19.3418 27.9014 19.3242 28.2969 19.3242 30.7227V33.5264L18.9902 33.7109C18.4805 34.001 18.2256 34.4316 18.2256 35.0293C18.2256 35.416 18.2783 35.6006 18.4453 35.8467C18.7441 36.2773 19.2363 36.541 19.7549 36.541C20.2734 36.541 20.6514 36.3564 20.9678 35.9346C21.1787 35.6621 21.2139 35.5303 21.2139 35.0293C21.2139 34.5283 21.1787 34.3965 20.9678 34.124C20.8359 33.9482 20.6074 33.7373 20.458 33.667L20.2031 33.5264V30.7666C20.2031 28.1123 20.1943 27.9893 20.0273 27.8223C19.8164 27.6113 19.6494 27.6025 19.4648 27.7871ZM20.2031 34.5898C20.5898 34.9766 20.291 35.6445 19.7285 35.6445C19.3682 35.6445 19.1221 35.3896 19.1221 35.0293C19.1221 34.4756 19.8076 34.1943 20.2031 34.5898Z" fill="#00EEFF"/>
<path d="M15.9489 29.6953C15.8434 29.7744 15.7995 29.8974 15.8258 30.0644C15.8522 30.293 15.9313 30.3721 16.4059 30.6006C17.1266 30.9521 17.8473 31.1191 18.0934 30.9873C18.2956 30.8818 18.3395 30.4512 18.1637 30.3017C18.1022 30.2578 17.8122 30.1523 17.5221 30.0644C17.2321 29.9853 16.8542 29.8447 16.6696 29.748C16.2829 29.5547 16.1598 29.5459 15.9489 29.6953Z" fill="#00EEFF"/>
<path d="M2.90625 32.5334C2.71289 32.6653 2.71289 32.7004 2.71289 34.5813C2.71289 35.9436 2.73926 36.5149 2.81836 36.594C2.96777 36.7434 6.67676 36.7434 6.82617 36.594C6.95801 36.4622 6.95801 36.0579 6.82617 35.926C6.75586 35.8557 6.25488 35.8206 5.15625 35.8206H3.5918V34.2473C3.5918 32.7092 3.58301 32.6653 3.39844 32.5334C3.29297 32.4543 3.17871 32.3928 3.15234 32.3928C3.12598 32.3928 3.01172 32.4543 2.90625 32.5334Z" fill="#00EEFF"/>
<path d="M35.6008 32.5334C35.4163 32.6653 35.4075 32.7092 35.4075 34.2473V35.8206H33.843C32.7444 35.8206 32.2434 35.8557 32.1731 35.926C32.0413 36.0579 32.0413 36.4622 32.1731 36.594C32.3225 36.7434 36.0315 36.7434 36.1809 36.594C36.26 36.5149 36.2864 35.9436 36.2864 34.5813C36.2864 32.7004 36.2864 32.6653 36.093 32.5334C35.9875 32.4543 35.8733 32.3928 35.8469 32.3928C35.8206 32.3928 35.7063 32.4543 35.6008 32.5334Z" fill="#00EEFF"/>
<path d="M23.728 33.1742C23.517 33.3148 23.1918 33.4994 23.0073 33.5873C22.4623 33.8246 22.4272 34.4223 22.9545 34.4838C23.2094 34.5189 23.9125 34.1849 24.3256 33.8422C24.6508 33.5609 24.686 33.2533 24.4047 33.0599C24.1498 32.8842 24.185 32.8754 23.728 33.1742Z" fill="#00EEFF"/>
<path d="M0.445312 34.8711C0.366211 34.9502 0.339844 35.583 0.339844 37.1914C0.339844 39.3887 0.339844 39.415 0.533203 39.5469C0.700195 39.6611 1.06934 39.6875 2.75684 39.6875C4.96289 39.6875 5.17383 39.6436 5.17383 39.2041C5.17383 38.7734 4.93652 38.7207 3.00293 38.7207H1.21875V36.8926C1.21875 35.2227 1.20117 35.0469 1.06055 34.915C0.867188 34.7393 0.594727 34.7217 0.445312 34.8711Z" fill="#00EEFF"/>
<path d="M37.9307 34.9238C37.7988 35.0645 37.7812 35.3369 37.7812 36.9014V38.7207H35.9971C34.0635 38.7207 33.8262 38.7734 33.8262 39.2041C33.8262 39.6436 34.0371 39.6875 36.2432 39.6875C37.9307 39.6875 38.2998 39.6611 38.4668 39.5469C38.6602 39.415 38.6602 39.3887 38.6602 37.1914C38.6602 35.583 38.6338 34.9502 38.5547 34.8711C38.3965 34.7129 38.0889 34.7393 37.9307 34.9238Z" fill="#00EEFF"/>
</svg>
