<svg width="40" height="40" viewBox="0 0 40 40" fill="none" xmlns="http://www.w3.org/2000/svg">
<path d="M14.8047 1.44531L14.6094 1.63281V6.5625V11.4922L14.8047 11.6797C15.0547 11.9375 15.4141 11.9375 15.6641 11.6797L15.8594 11.4922V6.99219V2.5H26.6797H37.5V16.5625V30.625H36.4531C35.4609 30.625 35.3906 30.6328 35.1875 30.8047C34.8984 31.0625 34.8984 31.4375 35.1875 31.6953C35.3906 31.8672 35.4375 31.875 36.8828 31.875C38.3516 31.875 38.3672 31.875 38.5547 31.6797L38.75 31.4922V16.5625V1.63281L38.5547 1.44531L38.3672 1.25H26.6797H14.9922L14.8047 1.44531Z" fill="#00EEFF"/>
<path d="M29.8054 3.23462C28.5475 3.54712 27.485 4.60962 27.1491 5.89868C26.8132 7.18774 27.1725 8.41431 28.1569 9.36743C28.9772 10.1487 29.7272 10.4299 30.9304 10.3752C31.6022 10.3518 31.7507 10.3206 32.2897 10.0549C33.071 9.68774 33.696 9.07837 34.071 8.32837C34.3054 7.83618 34.3366 7.70337 34.36 7.00024C34.3913 6.10962 34.2429 5.49243 33.821 4.83618C33.5241 4.37524 32.86 3.73462 32.4382 3.52368C31.696 3.14087 30.6413 3.03149 29.8054 3.23462ZM31.4616 4.49243C33.1179 4.98462 33.7038 7.14087 32.5163 8.39087C31.3757 9.57837 29.3522 9.32056 28.5554 7.88306C28.3444 7.50806 28.321 7.39087 28.321 6.79712C28.321 6.22681 28.3522 6.07837 28.5319 5.73462C28.8054 5.21899 29.446 4.64087 29.9147 4.50024C30.3913 4.35181 30.9772 4.35181 31.4616 4.49243Z" fill="#00EEFF"/>
<path d="M18.0078 6.44531C17.8828 6.5625 17.8125 6.72656 17.8125 6.875C17.8125 7.02344 17.8828 7.1875 18.0078 7.30469L18.1953 7.5H20.6094C22.9375 7.5 23.0312 7.49219 23.2344 7.33594C23.3906 7.21094 23.4375 7.10938 23.4375 6.875C23.4375 6.64062 23.3906 6.53906 23.2344 6.41406C23.0312 6.25781 22.9375 6.25 20.6094 6.25H18.1953L18.0078 6.44531Z" fill="#00EEFF"/>
<path d="M9.91406 7.80469C6.625 9.24219 4.55469 12.1719 3.94531 16.25C3.875 16.7031 3.8125 17.5078 3.80469 18.0313L3.78906 19L4.00781 19.1875C4.28906 19.4219 4.53906 19.4219 4.82031 19.1875C5.01562 19.0156 5.03906 18.9531 5.01562 18.5391C5.00781 18.2891 5.03125 17.6641 5.07812 17.1484C5.42188 13.1484 7.375 10.1953 10.5391 8.90625C11.2031 8.63281 11.4062 8.44531 11.4062 8.10938C11.4062 7.8125 11.0938 7.5 10.8047 7.50781C10.6875 7.50781 10.2812 7.64063 9.91406 7.80469Z" fill="#00EEFF"/>
<path d="M12.2578 8.86638C10.6172 9.46794 8.875 10.7961 7.89062 12.2023C6.5 14.1789 5.70312 16.8273 5.70312 19.4601C5.70312 20.1945 5.71875 20.2492 5.90625 20.4445C6.07031 20.6086 6.15625 20.632 6.39062 20.5929C6.88281 20.5148 6.92187 20.3976 6.97656 18.9679C7.13281 14.6945 9.02344 11.6164 12.3828 10.1789C12.7266 10.0304 13.0703 9.85857 13.1406 9.78825C13.3516 9.60075 13.3203 9.17107 13.0859 8.9445C12.875 8.72575 12.6797 8.71013 12.2578 8.86638Z" fill="#00EEFF"/>
<path d="M18.0078 8.94531C17.8828 9.0625 17.8125 9.22656 17.8125 9.375C17.8125 9.52344 17.8828 9.6875 18.0078 9.80469C18.1953 10 18.2109 10 19.6875 10C21.1641 10 21.1797 10 21.3672 9.80469C21.4922 9.6875 21.5625 9.52344 21.5625 9.375C21.5625 9.22656 21.4922 9.0625 21.3672 8.94531C21.1797 8.75 21.1641 8.75 19.6875 8.75C18.2109 8.75 18.1953 8.75 18.0078 8.94531Z" fill="#00EEFF"/>
<path d="M28.6953 11.7109C28.0703 12.0547 27.6094 12.4766 27.2344 13.0391C26.7031 13.8359 26.5469 14.3828 26.5 15.6094C26.4688 16.5703 26.4531 16.6406 26.3203 16.6016C26.2422 16.5703 25.6172 16.2891 24.9453 15.9688C24.2656 15.6484 23.3906 15.2422 23 15.0547L22.2812 14.7266L22.2578 14.1172C22.2266 13.5547 22.2031 13.4844 22.0078 13.3125L21.7891 13.125H17.3984C14.0703 13.1328 12.9766 13.1562 12.8828 13.2266C12.6094 13.4297 12.5781 13.6484 12.5781 15.125V16.5859L11.6797 18.3359L10.7812 20.0938V21.6094V23.125H6.21094H1.63281L1.44531 23.3203C1.33594 23.4219 1.25 23.5703 1.25 23.6406C1.25 23.7109 1.60156 27.0078 2.03125 30.9531C2.46094 34.8984 2.8125 38.1875 2.8125 38.25C2.8125 38.3125 2.89844 38.4531 3.00781 38.5547L3.19531 38.75H8.125H13.0547L13.2422 38.5547C13.3516 38.4531 13.4375 38.3047 13.4453 38.2266C13.4453 38.1484 13.5234 37.3984 13.6172 36.5625L13.7891 35.0391L18.7266 35L23.6641 34.9609L23.8438 34.7812L24.0234 34.6016L24.0469 27.3828L24.0625 20.1562L23.1562 18.3672C22.4922 17.0391 22.2578 16.5078 22.2812 16.3359L22.3047 16.1094L24.3984 17.0938L26.4844 18.0703V18.7578C26.4844 19.5234 26.5703 19.7812 26.8516 19.9141C26.9766 19.9766 28.2031 20 30.7891 20H34.5391L34.7266 19.8047L34.9219 19.6172V17.2109C34.9219 14.5469 34.8828 14.2656 34.4375 13.4062C33.9531 12.4922 32.7188 11.4844 32.0703 11.4844C31.7734 11.4844 31.6328 11.625 31.1172 12.4844L30.7188 13.1328L30.2422 12.3516C29.9766 11.9297 29.7031 11.5547 29.6406 11.5312C29.3906 11.4375 29.0938 11.4922 28.6953 11.7109ZM29.7344 13.9219C30.2656 14.8047 30.3906 14.9219 30.7656 14.9219C31.0547 14.9219 31.2031 14.7578 31.7969 13.7656C32.0625 13.3281 32.3203 12.9688 32.375 12.9688C32.5547 12.9688 33.1953 13.7188 33.4141 14.1797L33.6328 14.6484L33.6562 16.6953L33.6797 18.75L32.25 18.7422H30.8203L29.2969 18.0156L27.7734 17.2969L27.75 16.2188C27.7266 14.9688 27.8359 14.3984 28.2188 13.8125C28.5312 13.3203 29.0703 12.8516 29.1562 12.9844C29.1953 13.0391 29.4531 13.4609 29.7344 13.9219ZM19.4688 14.6172C19.5703 14.7891 19.7891 14.9297 20.3125 15.1719L21.0234 15.5L21 15.7734L20.9766 16.0547L17.4062 16.0781L13.8281 16.0938V15.2344V14.375H16.5859H19.3359L19.4688 14.6172ZM21.8047 18.4453C22.1016 19.0547 22.3359 19.5625 22.3203 19.5781C22.3047 19.5938 20.0703 19.6016 17.3594 19.5938L12.4297 19.5703L13.0156 18.4531L13.6094 17.3438H17.4297H21.25L21.8047 18.4453ZM22.8125 27.3047V33.75H18.375H13.9297L13.9609 33.5312C14.0781 32.625 15 23.9062 15 23.7344C15 23.6016 14.9219 23.4297 14.8047 23.3203C14.6172 23.125 14.5938 23.125 13.3203 23.125H12.0312V21.9922V20.8594H17.4219H22.8125V27.3047ZM13.6719 24.5078C13.6719 24.5859 13.6016 25.2656 13.5156 26.0156C13.4297 26.7656 13.3594 27.4453 13.3594 27.5156C13.3594 27.6484 13.0547 27.6562 8.14062 27.6562H2.92188L2.78125 26.3047C2.71094 25.5703 2.625 24.8281 2.60156 24.6641L2.55469 24.375H8.11719C13.3594 24.375 13.6719 24.3828 13.6719 24.5078ZM13.1641 29.2344C13.1406 29.4219 12.9453 31.2031 12.7344 33.2031C12.5156 35.2031 12.3203 36.9844 12.2969 37.1641L12.25 37.5H8.11719C5.03906 37.5 3.98438 37.4766 3.98438 37.4062C3.98438 37.2969 3.14062 29.5078 3.09375 29.1562L3.05469 28.9062H8.13281H13.2109L13.1641 29.2344Z" fill="#00EEFF"/>
<path d="M33.9688 25.0935C33.8828 25.1716 30.0781 29.4138 29.8672 29.6794C29.8594 29.695 29.6172 29.4997 29.3438 29.2341C28.9453 28.8513 28.7891 28.7497 28.5938 28.7497C28.2656 28.7497 27.9688 29.0544 27.9688 29.3903C27.9688 29.6091 28.0781 29.7575 28.7812 30.445C29.6953 31.3591 29.8828 31.4294 30.3047 31.031C30.4922 30.8591 33.8047 27.1482 34.6719 26.1482C34.9844 25.781 35 25.4607 34.7266 25.195C34.5234 24.9841 34.1719 24.9372 33.9688 25.0935Z" fill="#00EEFF"/>
<path d="M28.8121 25.75C26.6637 26.2656 25.1402 28.4766 25.4605 30.6094C25.5699 31.3281 25.859 31.9922 26.3434 32.6406L26.7184 33.1328V35.7812V38.4297L26.9215 38.5859C27.3121 38.8906 27.4605 38.8281 29.0855 37.6016L29.8512 37.0234L31.023 37.8828C31.773 38.4297 32.273 38.75 32.398 38.75C32.5074 38.75 32.6871 38.6484 32.8199 38.5234L33.0465 38.2969V35.6641V33.0312L33.2809 32.7578C33.4137 32.6094 33.6324 32.2578 33.7809 31.9688C34.4059 30.7266 34.4684 29.7031 33.9293 29.4609C33.4059 29.2188 33.0934 29.5 33.023 30.2656C32.7965 32.6641 30.0387 33.8984 28.0152 32.5078C26.3824 31.3828 26.2027 29.1562 27.6324 27.8047C28.4762 27.0078 29.5699 26.7188 30.6871 26.9844C31.2809 27.1328 31.484 27.0938 31.6402 26.7969C31.7652 26.5625 31.734 26.1875 31.5699 26.0234C31.2262 25.6797 29.7105 25.5312 28.8121 25.75ZM28.484 34.1562C29.1559 34.3984 30.5387 34.3984 31.2418 34.1484C31.5152 34.0547 31.7496 33.9922 31.7652 34.0078C31.7887 34.0234 31.7887 34.6797 31.7809 35.4531L31.7574 36.8672L30.9059 36.25C30.359 35.8438 29.984 35.625 29.8512 35.625C29.7184 35.625 29.359 35.8438 28.8121 36.25L27.9684 36.875V35.4297C27.9684 34.6328 27.984 33.9844 27.9918 33.9844C28.0074 33.9844 28.2262 34.0625 28.484 34.1562Z" fill="#00EEFF"/>
</svg>
