<svg width="30" height="31" viewBox="0 0 30 31" fill="none" xmlns="http://www.w3.org/2000/svg">
<mask id="mask0_838_3394" style="mask-type:luminance" maskUnits="userSpaceOnUse" x="-1" y="0" width="31" height="31">
<path d="M-0.5 0.5H29.5V30.5H-0.5V0.5Z" fill="white"/>
</mask>
<g mask="url(#mask0_838_3394)">
<path fill-rule="evenodd" clip-rule="evenodd" d="M20.75 28H8.25C7.21447 28 6.33058 27.6339 5.59835 26.9016C4.86612 26.1694 4.5 25.2855 4.5 24.25V6.75C4.5 5.71447 4.86612 4.83058 5.59835 4.09835C6.33058 3.36612 7.21447 3 8.25 3H15.2325C15.5642 3.00007 15.8831 3.06356 16.1894 3.19048C16.4956 3.31739 16.7659 3.49806 17.0003 3.7325L23.7676 10.4999C24.002 10.7341 24.1826 11.0044 24.3095 11.3106C24.4364 11.6169 24.4999 11.9357 24.5 12.2672V24.25C24.5 25.2855 24.1339 26.1694 23.4016 26.9016C22.6694 27.6339 21.7855 28 20.75 28ZM20.75 25.5C21.0952 25.5 21.3898 25.378 21.6339 25.1339C21.878 24.8898 22 24.5952 22 24.25L21.9999 12.2676L15.2322 5.5H8.25C7.90482 5.5 7.6102 5.62204 7.36611 5.86611C7.12204 6.1102 7 6.40482 7 6.75V24.25C7 24.5952 7.12204 24.8898 7.36611 25.1339C7.6102 25.378 7.90482 25.5 8.25 25.5H20.75ZM10.75 16.75C10.0596 16.75 9.5 16.1903 9.5 15.5C9.5 14.8097 10.0596 14.25 10.75 14.25H18.25C18.9404 14.25 19.5 14.8097 19.5 15.5C19.5 16.1903 18.9404 16.75 18.25 16.75H10.75ZM10.75 21.75C10.0596 21.75 9.5 21.1904 9.5 20.5C9.5 19.8096 10.0596 19.25 10.75 19.25H18.25C18.9404 19.25 19.5 19.8096 19.5 20.5C19.5 21.1904 18.9404 21.75 18.25 21.75H10.75Z" fill="#00EEFF"/>
</g>
</svg>
