<svg width="21" height="21" viewBox="0 0 21 21" fill="none" xmlns="http://www.w3.org/2000/svg">
<path d="M17.6503 16.6948L15.1586 9.72813C14.9836 9.26979 14.5919 8.98646 14.1419 8.98646C13.6919 8.98646 13.3086 9.26979 13.1169 9.74479L10.6336 16.6948C10.603 16.7725 10.5882 16.8556 10.5903 16.9392C10.5923 17.0227 10.6111 17.105 10.6455 17.1812C10.6799 17.2573 10.7292 17.3258 10.7905 17.3826C10.8518 17.4393 10.9239 17.4832 11.0025 17.5117C11.0811 17.5401 11.1646 17.5525 11.248 17.548C11.3315 17.5436 11.4132 17.5226 11.4883 17.486C11.5635 17.4495 11.6305 17.3983 11.6856 17.3353C11.7406 17.2724 11.7824 17.1991 11.8086 17.1198L12.3253 15.6781H15.9503L16.4669 17.1198C16.5586 17.3781 16.8003 17.5365 17.0586 17.5365C17.1253 17.5365 17.2003 17.5281 17.2669 17.5031C17.4227 17.4467 17.5497 17.3308 17.62 17.1807C17.6903 17.0307 17.6982 16.8589 17.6419 16.7031L17.6503 16.6948ZM12.7836 14.4198L14.1503 10.5948L15.5169 14.4198H12.7836ZM10.6586 7.09479C8.77526 10.0698 7.07526 11.8698 5.00859 13.0698C4.93801 13.1108 4.86003 13.1376 4.77911 13.1485C4.69819 13.1594 4.61592 13.1543 4.53699 13.1334C4.45805 13.1125 4.38401 13.0762 4.31909 13.0267C4.25416 12.9772 4.19962 12.9154 4.15859 12.8448C4.11688 12.7744 4.08959 12.6964 4.07833 12.6153C4.06707 12.5343 4.07205 12.4518 4.09299 12.3726C4.11393 12.2935 4.15041 12.2194 4.20031 12.1545C4.2502 12.0896 4.31251 12.0353 4.38359 11.9948C6.13359 10.9781 7.56693 9.51979 9.17526 7.10312H3.93359C3.59193 7.10312 3.30859 6.81979 3.30859 6.47812C3.30859 6.13646 3.59193 5.85312 3.93359 5.85312H7.05859V4.20312C7.05859 3.86146 7.34193 3.57812 7.68359 3.57812C8.02526 3.57812 8.30859 3.86146 8.30859 4.20312V5.85312H11.4336C11.7753 5.85312 12.0586 6.13646 12.0586 6.47812C12.0586 6.81979 11.7753 7.10312 11.4336 7.10312H10.6503L10.6586 7.09479ZM10.6919 13.1531C10.5836 13.1531 10.4753 13.1281 10.3753 13.0698C9.83359 12.7531 9.30859 12.4031 8.81693 12.0365C8.68432 11.937 8.59665 11.7889 8.57321 11.6248C8.54977 11.4608 8.59247 11.2941 8.69193 11.1615C8.79138 11.0288 8.93944 10.9412 9.10354 10.9177C9.26763 10.8943 9.43432 10.937 9.56693 11.0365C10.0169 11.3781 10.5086 11.6948 11.0086 11.9865C11.127 12.0562 11.2192 12.1628 11.271 12.2901C11.3228 12.4173 11.3314 12.558 11.2954 12.6906C11.2594 12.8232 11.1809 12.9403 11.0718 13.0238C10.9628 13.1074 10.8293 13.1528 10.6919 13.1531Z" fill="white"/>
</svg>
