<svg width="30" height="31" viewBox="0 0 30 31" fill="none" xmlns="http://www.w3.org/2000/svg">
<mask id="mask0_838_3405" style="mask-type:luminance" maskUnits="userSpaceOnUse" x="0" y="0" width="30" height="31">
<path d="M0 0.5H30V30.5H0V0.5Z" fill="white"/>
</mask>
<g mask="url(#mask0_838_3405)">
<path fill-rule="evenodd" clip-rule="evenodd" d="M18.5355 12.7855C19.5118 11.8092 20 10.6307 20 9.25C20 7.86929 19.5118 6.69078 18.5355 5.71447C17.5592 4.73816 16.3807 4.25 15 4.25C13.6193 4.25 12.4408 4.73816 11.4645 5.71447C10.4882 6.69078 10 7.86929 10 9.25C10 10.6307 10.4882 11.8092 11.4645 12.7855C12.4408 13.7618 13.6193 14.25 15 14.25C16.3807 14.25 17.5592 13.7618 18.5355 12.7855ZM16.7677 7.48224C17.2559 7.97039 17.5 8.55964 17.5 9.25C17.5 9.94035 17.2559 10.5296 16.7677 11.0178C16.2796 11.5059 15.6903 11.75 15 11.75C14.3096 11.75 13.7204 11.5059 13.2322 11.0178C12.7441 10.5296 12.5 9.94036 12.5 9.25C12.5 8.55964 12.7441 7.97039 13.2322 7.48224C13.7204 6.99408 14.3096 6.75 15 6.75C15.6903 6.75 16.2796 6.99408 16.7677 7.48224ZM10 13C10 14.0355 9.63388 14.9194 8.90165 15.6516C8.16942 16.3839 7.28553 16.75 6.25 16.75C5.21447 16.75 4.33058 16.3839 3.59835 15.6516C2.86612 14.9194 2.5 14.0355 2.5 13C2.5 11.9645 2.86612 11.0806 3.59835 10.3484C4.33058 9.61612 5.21447 9.25 6.25 9.25C7.28553 9.25 8.16942 9.61612 8.90165 10.3484C9.63388 11.0806 10 11.9645 10 13ZM27.5 13C27.5 14.0355 27.1339 14.9194 26.4016 15.6516C25.6694 16.3839 24.7855 16.75 23.75 16.75C22.7145 16.75 21.8306 16.3839 21.0984 15.6516C20.3661 14.9194 20 14.0355 20 13C20 11.9645 20.3661 11.0806 21.0984 10.3484C21.8306 9.61612 22.7145 9.25 23.75 9.25C24.7855 9.25 25.6694 9.61612 26.4016 10.3484C27.1339 11.0806 27.5 11.9645 27.5 13ZM7.5 13C7.5 12.6548 7.37796 12.3602 7.13389 12.1161C6.8898 11.872 6.59517 11.75 6.25 11.75C5.90483 11.75 5.6102 11.872 5.36611 12.1161C5.12204 12.3602 5 12.6548 5 13C5 13.3452 5.12204 13.6398 5.36611 13.8839C5.6102 14.128 5.90483 14.25 6.25 14.25C6.59517 14.25 6.8898 14.128 7.13389 13.8839C7.37796 13.6398 7.5 13.3452 7.5 13ZM25 13C25 12.6548 24.878 12.3602 24.6339 12.1161C24.3898 11.872 24.0952 11.75 23.75 11.75C23.4048 11.75 23.1102 11.872 22.8661 12.1161C22.622 12.3602 22.5 12.6548 22.5 13C22.5 13.3452 22.622 13.6398 22.8661 13.8839C23.1102 14.128 23.4048 14.25 23.75 14.25C24.0952 14.25 24.3898 14.128 24.6339 13.8839C24.878 13.6398 25 13.3452 25 13ZM22.3454 18.2016C21.9205 18.326 21.527 18.4968 21.1647 18.714C20.6464 17.9637 19.9934 17.322 19.2057 16.7888C17.9357 15.929 16.5337 15.4991 15 15.4991C13.4663 15.4991 12.0644 15.929 10.7943 16.7888C10.0065 17.322 9.35348 17.9638 8.83518 18.714C8.47298 18.4968 8.07945 18.326 7.65456 18.2016C6.63246 17.9024 5.6183 17.9273 4.61209 18.2761C3.60587 18.625 2.79398 19.2333 2.17644 20.101C1.55889 20.9686 1.25008 21.9349 1.25 22.9999V25.5C1.25 25.5821 1.25801 25.6634 1.27402 25.7439C1.29003 25.8244 1.31374 25.9025 1.34515 25.9784C1.37656 26.0542 1.41506 26.1262 1.46066 26.1945C1.50626 26.2627 1.55808 26.3259 1.61612 26.3839C1.67415 26.4419 1.73729 26.4937 1.80554 26.5394C1.87378 26.585 1.94582 26.6235 2.02165 26.6549C2.09747 26.6863 2.17564 26.71 2.25614 26.726C2.33664 26.742 2.41792 26.75 2.5 26.75H27.5C27.5821 26.75 27.6634 26.742 27.7439 26.726C27.8244 26.71 27.9025 26.6863 27.9784 26.6549C28.0542 26.6235 28.1262 26.585 28.1945 26.5394C28.2627 26.4937 28.3259 26.4419 28.3839 26.3839C28.4419 26.3259 28.4937 26.2627 28.5394 26.1945C28.585 26.1262 28.6235 26.0542 28.6549 25.9784C28.6863 25.9025 28.71 25.8244 28.726 25.7439C28.742 25.6634 28.75 25.5821 28.75 25.5V23C28.7499 21.9349 28.4411 20.9686 27.8236 20.101C27.206 19.2333 26.3941 18.625 25.3879 18.2761C24.3817 17.9273 23.3675 17.9024 22.3454 18.2016ZM10 23V24.25H20V23C20 22.9192 19.9982 22.8388 19.9945 22.7589C19.9686 22.1994 19.852 21.661 19.6446 21.1436C19.2647 20.1942 18.6512 19.4323 17.8042 18.859C16.9574 18.2857 16.0227 17.9991 15 17.9991C13.9773 17.9991 13.0426 18.2857 12.1957 18.859C11.3489 19.4323 10.7354 20.1939 10.3553 21.1436C10.1184 21.7348 10 22.3536 10 23ZM6.95228 20.601C6.44123 20.4514 5.93415 20.4638 5.43104 20.6383C4.92793 20.8127 4.52199 21.1168 4.21321 21.5506C3.90445 21.9845 3.75004 22.4676 3.75 23.0001V24.25H7.5V23C7.5 22.3169 7.58878 21.6533 7.76634 21.0091C7.75385 20.9996 7.74126 20.9902 7.72859 20.9809C7.49851 20.8117 7.23974 20.6851 6.95228 20.601ZM23.0478 20.601C22.7444 20.6898 22.4731 20.8258 22.2337 21.0091C22.3641 21.4821 22.4466 21.9657 22.4813 22.4597C22.4938 22.6384 22.5 22.8185 22.5 23V24.25H26.25V23C26.25 22.4676 26.0956 21.9845 25.7868 21.5506C25.478 21.1168 25.0721 20.8127 24.569 20.6383C24.0658 20.4638 23.5588 20.4514 23.0478 20.601Z" fill="#00EEFF"/>
</g>
</svg>
