<svg width="30" height="30" viewBox="0 0 30 30" fill="none" xmlns="http://www.w3.org/2000/svg">
<mask id="mask0_787_5230" style="mask-type:luminance" maskUnits="userSpaceOnUse" x="0" y="0" width="30" height="30">
<path d="M0 0H30V30H0V0Z" fill="white"/>
</mask>
<g mask="url(#mask0_787_5230)">
<path fill-rule="evenodd" clip-rule="evenodd" d="M18.9787 9.69894C19.3175 9.30747 19.9096 9.26482 20.3011 9.60369C20.6925 9.94256 20.7352 10.5346 20.3963 10.9261L13.9041 18.4261C13.8638 18.4726 13.8194 18.5148 13.7708 18.5526C13.7222 18.5904 13.6704 18.6231 13.6154 18.6506C13.5603 18.6782 13.5031 18.7002 13.4438 18.7165C13.3844 18.7328 13.3241 18.7432 13.2627 18.7476C13.2013 18.752 13.14 18.7504 13.0789 18.7428C13.0179 18.7351 12.9581 18.7216 12.8997 18.7022C12.8413 18.6828 12.7853 18.6579 12.7318 18.6274C12.6783 18.597 12.6283 18.5616 12.5817 18.5213C12.5672 18.5087 12.553 18.4957 12.5392 18.4822L9.65643 15.658C9.28657 15.2956 9.28048 14.7021 9.64281 14.3322C10.0052 13.9624 10.5987 13.9563 10.9686 14.3186L13.1391 16.445L18.9787 9.69894Z" fill="#00EEFF"/>
<path d="M26.9696 7.50695C24.3355 7.03446 22.2112 6.54602 20.5967 6.04165C19.0309 5.55246 17.0368 4.76088 14.6144 3.66691L15.0003 2.8125L15.3862 3.66691C12.9638 4.76088 10.9697 5.55246 9.40385 6.04165C7.78939 6.54602 5.66513 7.03446 3.03105 7.50695L2.86552 6.58418L3.80116 6.64321C3.59163 9.96415 4.02688 13.0021 5.1069 15.757C5.97725 17.9771 7.24841 19.9741 8.92036 21.7481C10.1483 23.051 11.5354 24.179 13.0816 25.1324C13.9289 25.6548 14.6852 26.05 15.3505 26.3179L15.0003 27.1875L14.6501 26.3179C15.3154 26.05 16.0717 25.6548 16.919 25.1324C18.4652 24.179 19.8523 23.051 21.0802 21.7481C22.7522 19.9741 24.0234 17.9771 24.8937 15.757C25.9737 13.0021 26.409 9.96415 26.1995 6.64321L27.1351 6.58418L26.9696 7.50695ZM27.3006 5.66141C27.3518 5.6706 27.402 5.68398 27.4511 5.70154C27.5001 5.71909 27.5473 5.74058 27.5927 5.76601C27.6382 5.79144 27.6813 5.82045 27.7218 5.85306C27.7625 5.88566 27.8002 5.9214 27.8348 5.96027C27.8695 5.99915 27.9007 6.04063 27.9285 6.08471C27.9562 6.12879 27.9801 6.17485 28.0002 6.22291C28.0202 6.27098 28.0361 6.32037 28.048 6.37109C28.0599 6.42181 28.0675 6.47317 28.0707 6.52515C28.2977 10.1228 27.8206 13.4283 26.6393 16.4414C25.6808 18.8866 24.2825 21.0842 22.4447 23.0341C21.1035 24.457 19.5896 25.6885 17.903 26.7284C16.9652 27.3065 16.1144 27.7495 15.3505 28.0571C15.2381 28.1024 15.1214 28.125 15.0003 28.125C14.8792 28.125 14.7624 28.1024 14.6501 28.0571C13.8861 27.7495 13.0353 27.3065 12.0976 26.7284C10.4109 25.6885 8.89702 24.457 7.5559 23.0341C5.71808 21.0842 4.31986 18.8866 3.36125 16.4414C2.18001 13.4283 1.70289 10.1228 1.92988 6.52515C1.93316 6.47317 1.94072 6.42181 1.95256 6.37109C1.9644 6.32037 1.98035 6.27098 2.00042 6.22291C2.0205 6.17485 2.04441 6.12879 2.07216 6.08471C2.0999 6.04063 2.13111 5.99915 2.16577 5.96027C2.20044 5.9214 2.23808 5.88566 2.27869 5.85306C2.31931 5.82045 2.36235 5.79144 2.40781 5.76601C2.45326 5.74058 2.50051 5.71909 2.54954 5.70154C2.59858 5.68398 2.64873 5.6706 2.7 5.66141C5.25689 5.20276 7.30513 4.73294 8.84473 4.25195C10.3381 3.78541 12.2613 3.02079 14.6144 1.95809C14.7371 1.9027 14.8657 1.875 15.0003 1.875C15.1349 1.875 15.2635 1.9027 15.3862 1.95809C17.7393 3.02079 19.6625 3.78541 21.1558 4.25195C22.6954 4.73294 24.7437 5.20276 27.3006 5.66141Z" fill="#00EEFF"/>
</g>
</svg>
