<svg width="31" height="32" viewBox="0 0 31 32" fill="none" xmlns="http://www.w3.org/2000/svg">
<g clip-path="url(#clip0_607_3557)">
<path d="M8.26667 12.9H10.3333V10.8333H8.26667V12.9ZM20.6667 12.9H22.7333V10.8333H20.6667V12.9ZM20.8733 18.48C20.2477 19.3142 19.4364 19.9912 18.5038 20.4576C17.5711 20.9239 16.5427 21.1667 15.5 21.1667C14.4573 21.1667 13.4289 20.9239 12.4962 20.4576C11.5636 19.9912 10.7523 19.3142 10.1267 18.48L8.47333 19.72C11.9867 24.4051 19.0133 24.4051 22.5267 19.72L20.8733 18.48ZM2.06667 10.8333V5.66667H0V10.8333H2.06667ZM5.16667 2.56667H10.3333V0.5H5.16667V2.56667ZM2.06667 5.66667C2.06667 4.8445 2.39327 4.056 2.97464 3.47464C3.556 2.89327 4.3445 2.56667 5.16667 2.56667V0.5C3.79638 0.5 2.48222 1.04434 1.51328 2.01328C0.544344 2.98222 0 4.29638 0 5.66667H2.06667ZM0 21.1667V26.3333H2.06667V21.1667H0ZM5.16667 31.5H10.3333V29.4333H5.16667V31.5ZM0 26.3333C0 27.7036 0.544344 29.0178 1.51328 29.9867C2.48222 30.9557 3.79638 31.5 5.16667 31.5V29.4333C4.3445 29.4333 3.556 29.1067 2.97464 28.5254C2.39327 27.944 2.06667 27.1555 2.06667 26.3333H0ZM20.6667 2.56667H25.8333V0.5H20.6667V2.56667ZM28.9333 5.66667V10.8333H31V5.66667H28.9333ZM25.8333 2.56667C26.6555 2.56667 27.444 2.89327 28.0254 3.47464C28.6067 4.056 28.9333 4.8445 28.9333 5.66667H31C31 4.29638 30.4557 2.98222 29.4867 2.01328C28.5178 1.04434 27.2036 0.5 25.8333 0.5V2.56667ZM20.6667 31.5H25.8333V29.4333H20.6667V31.5ZM31 26.3333V21.1667H28.9333V26.3333H31ZM25.8333 31.5C27.2036 31.5 28.5178 30.9557 29.4867 29.9867C30.4557 29.0178 31 27.7036 31 26.3333H28.9333C28.9333 27.1555 28.6067 27.944 28.0254 28.5254C27.444 29.1067 26.6555 29.4333 25.8333 29.4333V31.5Z" fill="#00EEFF"/>
</g>
<defs>
<clipPath id="clip0_607_3557">
<rect width="31" height="31" fill="white" transform="translate(0 0.5)"/>
</clipPath>
</defs>
</svg>
