<svg width="30" height="31" viewBox="0 0 30 31" fill="none" xmlns="http://www.w3.org/2000/svg">
<mask id="mask0_787_5486" style="mask-type:luminance" maskUnits="userSpaceOnUse" x="0" y="0" width="30" height="31">
<path d="M0 0.988281H30V30.9883H0V0.988281Z" fill="white"/>
</mask>
<g mask="url(#mask0_787_5486)">
<path d="M7.5 17.9993C9.0533 17.9993 10.3125 17.0983 10.3125 15.9869C10.3125 14.8756 9.0533 13.9746 7.5 13.9746C5.9467 13.9746 4.6875 14.8756 4.6875 15.9869C4.6875 17.0983 5.9467 17.9993 7.5 17.9993Z" stroke="#00EEFF" stroke-width="1.875"/>
<path d="M22.5 11.9631C24.0533 11.9631 25.3125 11.0622 25.3125 9.95081C25.3125 8.83943 24.0533 7.93848 22.5 7.93848C20.9467 7.93848 19.6875 8.83943 19.6875 9.95081C19.6875 11.0622 20.9467 11.9631 22.5 11.9631Z" stroke="#00EEFF" stroke-width="1.875"/>
<path d="M22.5 24.0374C24.0533 24.0374 25.3125 23.1364 25.3125 22.025C25.3125 20.9136 24.0533 20.0127 22.5 20.0127C20.9467 20.0127 19.6875 20.9136 19.6875 22.025C19.6875 23.1364 20.9467 24.0374 22.5 24.0374Z" stroke="#00EEFF" stroke-width="1.875"/>
<path fill-rule="evenodd" clip-rule="evenodd" d="M19.7014 10.068C20.1817 9.87473 20.7278 10.1074 20.9211 10.5877C21.1144 11.068 20.8818 11.6141 20.4014 11.8075L10.3034 15.8715L9.60335 14.1321L19.7014 10.068ZM9.60335 14.1321L10.3034 15.8715C9.82307 16.0648 9.27698 15.8322 9.08367 15.3518C8.89035 14.8715 9.12303 14.3254 9.60335 14.1321ZM9.08367 16.6247C8.89036 17.105 9.12303 17.6511 9.60335 17.8444L19.7014 21.9085C20.1817 22.1018 20.7278 21.8692 20.9211 21.3888C21.1144 20.9085 20.8818 20.3624 20.4014 20.1691L10.3034 16.105C9.82307 15.9117 9.27698 16.1444 9.08367 16.6247Z" fill="#00EEFF"/>
</g>
</svg>
