<svg width="31" height="31" viewBox="0 0 31 31" fill="none" xmlns="http://www.w3.org/2000/svg">
<mask id="mask0_838_3450" style="mask-type:luminance" maskUnits="userSpaceOnUse" x="0" y="0" width="31" height="31">
<path d="M0.5 0.5H30.5V30.5H0.5V0.5Z" fill="white"/>
</mask>
<g mask="url(#mask0_838_3450)">
<path fill-rule="evenodd" clip-rule="evenodd" d="M28 15.4996C28.0012 18.9522 26.7813 21.8994 24.3404 24.3412C21.8994 26.783 18.9526 28.0039 15.5 28.0039C12.0474 28.0039 9.10059 26.783 6.65964 24.3412C4.21869 21.8994 2.99881 18.9522 3 15.4996C3.00119 12.0487 4.22209 9.1033 6.66269 6.66354C9.1033 4.22379 12.0491 3.00391 15.5 3.00391C18.9509 3.00391 21.8967 4.22379 24.3372 6.66354C26.7779 9.1033 27.9988 12.0487 28 15.4996ZM25.5 15.5005C25.4991 12.7397 24.5224 10.3834 22.5699 8.43162C20.6174 6.47981 18.2607 5.50391 15.5 5.50391C12.7393 5.50391 10.3826 6.47981 8.43015 8.43162C6.47767 10.3834 5.50095 12.7397 5.5 15.5005C5.49905 18.2626 6.47495 20.6204 8.42771 22.5738C10.3805 24.5272 12.7379 25.5039 15.5 25.5039C18.2621 25.5039 20.6195 24.5272 22.5723 22.5738C24.525 20.6204 25.5009 18.2626 25.5 15.5005ZM15.5 9.25002C14.8097 9.25002 14.25 9.80967 14.25 10.5V15.5C14.25 16.1904 14.8097 16.75 15.5 16.75C16.1903 16.75 16.75 16.1904 16.75 15.5V10.5C16.75 9.80967 16.1903 9.25002 15.5 9.25002ZM14.25 20.5C14.25 21.1904 14.8097 21.75 15.5 21.75H15.5125C16.2029 21.75 16.7625 21.1904 16.7625 20.5C16.7625 19.8097 16.2029 19.25 15.5125 19.25H15.5C14.8097 19.25 14.25 19.8097 14.25 20.5Z" fill="#00EEFF"/>
</g>
</svg>
