<svg width="27" height="30" viewBox="0 0 27 30" fill="none" xmlns="http://www.w3.org/2000/svg">
<path d="M9.46875 0.402346C8.96875 0.496096 8.49375 0.664846 8.10625 0.896095C7.83125 1.05235 7.125 1.76484 7.125 1.8711C7.125 1.9086 6.95 2.0211 6.74375 2.12735C6.0125 2.48985 5.46875 3.22734 5.3125 4.05235C5.28125 4.23985 5.25 4.92735 5.25 5.58985V6.78984L4.9125 6.82734C4.51875 6.86485 4.275 6.98359 4 7.25859C3.71875 7.53984 3.6125 7.82109 3.58125 8.40235C3.51875 9.33985 3.79375 10.0273 4.375 10.3836C4.5375 10.4836 4.8875 10.6086 5.1875 10.6711C5.48125 10.7336 5.73125 10.8273 5.75625 10.8773C5.78125 10.9273 5.89375 11.1961 6 11.4773C6.4125 12.5398 7.1375 13.5773 7.90625 14.1961L8.3125 14.5273L8.29375 15.2773L8.28125 16.0211L5.5625 16.4461C2.8625 16.8648 2.8375 16.8711 2.31875 17.1273C1.4375 17.5648 0.81875 18.2961 0.51875 19.2773C0.4125 19.6273 0.40625 19.9711 0.40625 24.5461V29.4461L0.55625 29.5648C0.74375 29.7211 0.96875 29.7148 1.125 29.5586C1.25 29.4336 1.25 29.3523 1.25 24.8523C1.25 22.1836 1.275 20.1023 1.3125 19.8523C1.4375 18.9961 1.99375 18.2273 2.73125 17.8898C3.01875 17.7586 4.65625 17.4086 4.7375 17.4648C4.74375 17.4711 4.98125 18.2086 5.25625 19.0961L5.75625 20.7148L5.55 20.8961C4.65625 21.6711 4.375 21.9523 4.375 22.0711C4.375 22.1898 5.4625 28.3273 5.63125 29.1711C5.675 29.4023 5.74375 29.5273 5.85 29.5961C6.125 29.7773 6.5 29.5773 6.5 29.2461C6.5 29.1461 6.23125 27.5836 5.90625 25.7648C5.575 23.9523 5.31875 22.4148 5.325 22.3523C5.3375 22.2898 5.6375 21.9773 6 21.6586C6.45 21.2648 6.6625 21.0336 6.675 20.9336C6.68125 20.8461 6.45 20.0023 6.1625 19.0586C5.86875 18.1148 5.6375 17.3398 5.64375 17.3273C5.66875 17.3086 8.09375 16.9336 8.2125 16.9336C8.3 16.9336 8.3125 17.6211 8.325 23.1898L8.34375 29.4461L8.49375 29.5648C8.68125 29.7211 8.90625 29.7148 9.0625 29.5586C9.1875 29.4336 9.1875 29.3523 9.1875 23.6148C9.1875 20.4148 9.20625 17.8086 9.2375 17.8211C10.0063 18.2086 10.15 18.2586 10.6188 18.2898C11.1875 18.3336 11.6375 18.2398 12.0938 18.0023C12.2688 17.9148 12.425 17.8336 12.4563 17.8211C12.4812 17.8086 12.5 20.4148 12.5 23.6148C12.5 29.3523 12.5 29.4336 12.625 29.5586C12.7812 29.7148 13.0063 29.7211 13.1938 29.5648L13.3438 29.4461L13.3625 23.1898C13.375 17.3023 13.3813 16.9336 13.4875 16.9336C13.625 16.9336 15.1375 17.1711 15.1562 17.1961C15.1687 17.2086 15.2312 17.4086 15.3 17.6523C15.3625 17.8898 15.4688 18.2148 15.5312 18.3711L15.6438 18.6586L15.3188 19.6961C15.1438 20.2711 15 20.8086 15 20.8961C15 21.0398 15.2188 21.2711 16.1813 22.1023L16.4 22.2898L15.7937 25.6648C15.4625 27.5211 15.1875 29.1398 15.1875 29.2648C15.1875 29.6336 15.5813 29.8148 15.8688 29.5711C15.9812 29.4773 16.0875 28.9961 16.6562 25.8086C17.0188 23.7961 17.3 22.0898 17.2812 22.0148C17.2625 21.9336 16.9563 21.6148 16.5938 21.3023C16.2312 20.9898 15.9375 20.7086 15.9375 20.6898C15.9375 20.6648 15.9938 20.4648 16.0688 20.2398C16.1375 20.0211 16.2125 19.8023 16.225 19.7523C16.2438 19.6898 16.3875 19.7961 16.6688 20.0836C17.4188 20.8586 18.3125 21.4086 19.2125 21.6523L19.625 21.7648V25.5961C19.625 29.3523 19.625 29.4336 19.75 29.5586C19.8625 29.6711 19.9563 29.6836 20.8313 29.6836C21.7063 29.6836 21.8 29.6711 21.925 29.5586L22.0625 29.4273V25.6023V21.7773L22.6125 21.6023C23.4937 21.3273 24.125 20.9336 24.85 20.2148C25.9062 19.1711 26.4062 18.1336 26.5625 16.6711C26.85 13.9148 25.0813 11.3398 22.3625 10.5523C21.7875 10.3898 20.4375 10.3211 19.8625 10.4273C17.2 10.9336 15.3313 13.0211 15.0875 15.7586C15.0375 16.3273 15.1188 16.3023 14.0625 16.1273L13.4062 16.0211L13.3875 15.2711L13.3688 14.5148L13.7375 14.2273C14.5688 13.5773 15.325 12.4836 15.75 11.3086C15.8438 11.0523 15.9625 10.8211 16.0063 10.7961C16.0563 10.7711 16.3125 10.7086 16.575 10.6523C17.7125 10.4148 18.2125 9.6461 18.0938 8.31484C18.0188 7.42735 17.5625 6.9086 16.7812 6.82734L16.4563 6.78984L16.4188 5.4711C16.3813 4.00859 16.325 3.6836 15.9688 2.96485C15.3063 1.60234 13.65 0.633596 11.5312 0.377346C10.8125 0.289846 10.025 0.296095 9.46875 0.402346ZM11.6562 1.27735C13.6313 1.57109 14.9563 2.47734 15.3875 3.82734C15.4875 4.13984 15.5188 4.45234 15.5437 5.44609C15.5813 6.83985 15.5875 6.82734 15.15 6.50859C14.8625 6.30235 14.6125 5.86485 14.475 5.33985C14.3188 4.7461 14.25 4.72734 13.2188 5.02735C11.6062 5.48985 9.95 5.47734 8.3 4.98985C7.93125 4.87735 7.6 4.81485 7.51875 4.83985C7.3625 4.87735 7.1875 5.18985 7.1875 5.42109C7.1875 5.66484 6.80625 6.30235 6.54375 6.4961C6.1 6.82109 6.1125 6.8461 6.1375 5.38359C6.15625 4.22734 6.16875 4.0586 6.2875 3.80235C6.49375 3.35859 6.78125 3.07734 7.2875 2.83985C7.54375 2.7211 7.75 2.5961 7.75 2.57109C7.75 2.42109 8.16875 1.92109 8.45625 1.7211C9.19375 1.21485 10.2563 1.07109 11.6562 1.27735ZM9.73125 6.17735C10.8188 6.31485 11.9688 6.23985 13.0875 5.9711L13.6625 5.8336L13.8562 6.23985C14.1125 6.7711 14.5437 7.20234 15.075 7.45234L15.5 7.65235V7.97734C15.5 8.48985 15.3313 9.65859 15.1562 10.3086C14.9375 11.1211 14.3562 12.2898 13.8938 12.8398C12.9812 13.9211 12 14.4336 10.8438 14.4336C9.81875 14.4336 9.01875 14.0773 8.18125 13.2461C7.35625 12.4273 6.84375 11.5023 6.5 10.2148C6.3375 9.5836 6.1875 8.5836 6.1875 8.05235V7.6461L6.5375 7.50234C7.15 7.2461 7.74375 6.58985 7.95625 5.92735C7.9875 5.8336 8.04375 5.83985 8.58125 5.96485C8.90625 6.04609 9.425 6.13984 9.73125 6.17735ZM5.3125 8.10234C5.3125 8.33985 5.35625 8.8086 5.40625 9.1461C5.45625 9.48985 5.5 9.77735 5.5 9.79609C5.5 9.85859 4.9875 9.75234 4.84375 9.65859C4.575 9.48359 4.48125 9.26484 4.45 8.75859C4.40625 7.98985 4.5875 7.69609 5.1125 7.68984L5.3125 7.6836V8.10234ZM16.9375 7.77735C17.3563 7.9961 17.3625 9.19609 16.95 9.56484C16.7812 9.71485 16.2875 9.86485 16.2125 9.79609C16.2 9.77735 16.2312 9.47109 16.2812 9.11485C16.3313 8.75859 16.375 8.28984 16.375 8.07109V7.6836H16.5625C16.6688 7.6836 16.8375 7.72734 16.9375 7.77735ZM22.1187 11.4336C23.8438 11.9211 25.1125 13.2148 25.5625 14.9648C25.7375 15.6398 25.7437 16.6523 25.575 17.3086C25.0938 19.1523 23.7 20.4961 21.85 20.9023C21.1313 21.0648 20.025 21.0086 19.3438 20.7773C16.8125 19.9398 15.4125 17.2836 16.1625 14.7398C16.6187 13.1836 17.9813 11.8586 19.5625 11.4336C20.3563 11.2148 21.35 11.2211 22.1187 11.4336ZM9.84375 15.2086C10.3688 15.3523 11.2937 15.3398 11.9062 15.1836C12.175 15.1148 12.4187 15.0586 12.45 15.0586C12.5437 15.0586 12.5063 16.2336 12.4 16.4836C12.1687 17.0461 11.55 17.4336 10.8813 17.4336C10.3438 17.4336 10.0437 17.3336 9.7125 17.0398C9.275 16.6586 9.1875 16.4273 9.1875 15.6773C9.1875 14.9523 9.1125 15.0086 9.84375 15.2086ZM21.1875 25.3398V28.8086H20.8438H20.5V25.3398V21.8711H20.8438H21.1875V25.3398Z" fill="#00EEFF"/>
<path d="M21.5188 14.5711L20.3125 15.7773L19.6375 15.1023C18.7625 14.2273 18.8 14.2273 17.9563 15.0711C17.425 15.6023 17.3125 15.7461 17.3125 15.9023C17.3125 16.0648 17.5063 16.2836 18.7375 17.5148C19.8188 18.5961 20.1938 18.9336 20.3125 18.9336C20.4313 18.9336 20.9188 18.4836 22.4188 16.9836C24.125 15.2773 24.375 15.0086 24.375 14.8398C24.375 14.6836 24.2688 14.5398 23.7313 14.0086C23.2063 13.4836 23.0563 13.3711 22.9062 13.3711C22.7438 13.3711 22.5375 13.5461 21.5188 14.5711ZM21.8125 16.3648L20.2812 17.8586L19.3312 16.9148C18.8062 16.3898 18.375 15.9336 18.375 15.8961C18.375 15.8648 18.4625 15.7523 18.5625 15.6523L18.75 15.4711L19.4313 16.1398C20.0125 16.7148 20.1375 16.8086 20.3125 16.8086C20.4938 16.8086 20.6437 16.6836 21.7125 15.6211L22.9062 14.4398L23.125 14.6523L23.3438 14.8711L21.8125 16.3648Z" fill="#00EEFF"/>
</svg>
