<svg width="33" height="32" viewBox="0 0 33 32" fill="none" xmlns="http://www.w3.org/2000/svg">
<path d="M1.15601 0.141005C0.827183 0.283972 0.591287 0.598499 0.519803 0.984512C0.426874 1.4849 0.591287 1.7065 2.55709 3.6723L4.40852 5.52373L3.85095 6.25286C1.57061 9.20514 0.362539 12.9437 0.512654 16.5823C0.691364 20.6425 2.22112 24.2453 4.99469 27.119C7.48232 29.6924 10.6062 31.2936 14.2161 31.8512C15.2169 32.0085 17.583 32.0299 18.5409 31.8941C20.2422 31.651 21.8077 31.1864 23.2731 30.4859C24.4812 29.9068 25.2031 29.4708 26.1896 28.7131L26.9759 28.1126L28.8703 29.9855C30.4572 31.5653 30.8146 31.8798 31.072 31.9584C31.9012 32.2015 32.6946 31.408 32.4516 30.5788C32.373 30.3214 32.0584 29.9712 30.4786 28.3771L28.5915 26.4828L28.9918 25.9967C31.3293 23.123 32.6446 19.1485 32.4873 15.4028C32.3944 13.0367 31.9012 11.0995 30.8718 8.96925C30.0354 7.23934 29.049 5.89544 27.5764 4.46577C23.6305 0.634241 18.019 -0.84547 12.5934 0.498423C10.4632 1.0274 8.18286 2.16399 6.51729 3.52933L6.0312 3.92249L4.17262 2.07106C1.99237 -0.102039 1.8637 -0.18782 1.15601 0.141005ZM18.6838 2.45708C21.629 2.95746 24.1023 4.22987 26.1968 6.3172C28.6915 8.81913 30.0497 11.9215 30.207 15.4743C30.3357 18.591 29.3563 21.7219 27.4549 24.2525L26.9831 24.8815L20.6353 18.5338C16.7609 14.6594 14.2876 12.136 14.2876 12.0502C14.2876 11.9787 14.3876 11.7285 14.5163 11.4926C15.224 10.163 17.0397 9.89853 18.112 10.9708C18.498 11.3497 18.7124 11.8429 18.7839 12.4648C18.8554 13.0581 18.9197 13.2082 19.22 13.4656C19.6632 13.8373 20.3065 13.7944 20.7283 13.3726C21.0571 13.0438 21.1286 12.7221 21.0213 12.0002C20.7711 10.2917 19.6917 8.91921 18.1262 8.32589L17.6831 8.16148L17.6473 6.73181C17.6116 5.42365 17.5973 5.28069 17.4615 5.10198C17.1827 4.72311 16.9539 4.60874 16.5036 4.60874C16.0532 4.60874 15.8245 4.72311 15.5457 5.10198C15.4099 5.28069 15.3956 5.42365 15.3598 6.73181L15.3241 8.16863L15.0524 8.26156C14.1589 8.56894 13.151 9.34811 12.7149 10.0629C12.6149 10.2274 12.5219 10.3632 12.5005 10.3632C12.479 10.3632 11.3782 9.27663 10.0486 7.94703L7.63244 5.53088L8.26149 5.06623C10.2702 3.56507 12.5791 2.64293 15.0739 2.357C15.8316 2.27122 17.9189 2.32841 18.6838 2.45708ZM18.7196 19.942C18.7124 20.1136 18.4479 20.6497 18.2192 20.9356C18.1048 21.0857 17.8117 21.3145 17.5615 21.4503C17.1541 21.6648 17.054 21.6862 16.5036 21.6934C16.0103 21.6934 15.8316 21.6576 15.5528 21.5218C14.788 21.1429 14.3233 20.4567 14.2232 19.556C14.1518 18.9627 14.0874 18.8126 13.7872 18.5552C13.344 18.1835 12.7006 18.2264 12.2789 18.6481C11.9501 18.977 11.8786 19.2986 11.9858 20.0206C12.236 21.7291 13.3154 23.1016 14.8809 23.6949L15.3241 23.8593L15.3598 25.289C15.3956 26.8545 15.4099 26.9117 15.8888 27.2619C16.1676 27.4692 16.8395 27.4692 17.1183 27.2619C17.5901 26.9117 17.6116 26.8545 17.6473 25.2961L17.6831 23.8665L18.1477 23.6806C19.0055 23.3375 19.8705 22.6441 20.2922 21.9507C20.3923 21.7934 20.4852 21.6576 20.5067 21.6576C20.5281 21.6576 21.629 22.7442 22.9586 24.0738L25.3747 26.4899L24.7456 26.9617C20.6139 30.0712 15.1454 30.6002 10.5275 28.3485C6.20991 26.2397 3.372 22.2009 2.85732 17.4258C2.48561 14.0517 3.47208 10.5419 5.55226 7.76832L6.02405 7.13926L12.3718 13.487C15.8602 16.9754 18.7196 19.8848 18.7196 19.942Z" fill="#00EEFF"/>
</svg>
