<svg width="33" height="32" viewBox="0 0 33 32" fill="none" xmlns="http://www.w3.org/2000/svg">
<path d="M9.3577 0.0364571C6.79738 0.256004 4.61204 0.708015 3.09912 1.34083C1.81249 1.87678 1.03663 2.45794 0.693964 3.15532L0.5 3.55568V14.5331C0.5 20.5706 0.525862 25.6137 0.558189 25.7364C0.84267 26.9698 2.39438 27.9771 5.01937 28.6422C8.34262 29.4752 12.5129 29.6302 16.599 29.0619L17.3296 28.9586L17.4977 29.1071C17.5883 29.1911 17.8404 29.4235 18.0538 29.6173C19.2757 30.715 21.0861 32 21.4158 32C21.9331 32 24.2542 30.179 25.877 28.5066C29.9373 24.3223 32.2843 18.8078 32.4783 13.0156C32.53 11.4723 32.5817 11.5433 31.4632 11.4206C28.8123 11.1365 26.1098 10.3423 23.808 9.17997L23.0322 8.78607L22.9999 6.17088L22.9675 3.55568L22.7865 3.18761C22.3792 2.36108 21.2154 1.57975 19.5602 1.04379C18.2154 0.598242 16.793 0.320578 14.821 0.10103C13.9805 0.00417137 10.2305 -0.0345726 9.3577 0.0364571ZM13.3663 1.00505C16.4827 1.18585 19.0301 1.74118 20.6529 2.58708C21.3124 2.93578 21.6421 3.20053 21.8231 3.51693C22.0882 3.98831 21.9912 4.34992 21.4546 4.82776C20.3361 5.8351 17.4719 6.61643 13.9482 6.88763C12.668 6.98449 9.5646 6.92638 8.38788 6.79077C5.49135 6.44854 3.2349 5.77052 2.12283 4.91816C1.66379 4.56947 1.53448 4.34992 1.53448 3.92374C1.53448 3.59442 1.54741 3.56213 1.87715 3.23927C2.4849 2.63228 3.5711 2.14153 5.23273 1.72181C7.71547 1.08899 10.5215 0.843618 13.3663 1.00505ZM21.9395 8.08869C21.9201 8.10806 21.8425 8.07577 21.7585 8.01766C21.4999 7.83685 21.2606 7.89497 20.5753 8.30824C17.7693 10 14.1551 11.1946 11.1422 11.44C10.4374 11.4981 10.2629 11.6144 10.2629 12.0535V12.3182L9.70037 12.2795C6.19609 12.0083 3.1961 11.1882 2.05818 10.1938C1.52155 9.72238 1.53448 9.78695 1.53448 7.65605C1.53448 6.62934 1.54741 5.78344 1.5668 5.78344C1.57973 5.78344 1.76077 5.88675 1.9612 6.0159C4.3211 7.52045 9.82968 8.29532 14.8146 7.81748C17.7499 7.53336 20.3943 6.81015 21.6744 5.9255L21.9331 5.74469L21.9525 6.90055C21.9589 7.53982 21.9525 8.07577 21.9395 8.08869ZM21.8619 9.2962C22.5279 9.70301 24.0602 10.4585 24.9654 10.8201C26.6011 11.4723 28.5278 11.9889 30.3511 12.273C30.9136 12.3634 31.3985 12.4344 31.4308 12.4344C31.4955 12.4344 31.4308 13.5451 31.308 14.6622C30.8813 18.3687 29.4072 22.1849 27.2477 25.1747C25.8447 27.1312 23.6141 29.3396 21.7844 30.6052L21.3253 30.9216L20.5688 30.3792C18.849 29.1459 17.1874 27.5509 15.8814 25.8656C15.3706 25.2069 14.6012 24.0705 14.3167 23.5474C14.2003 23.3343 13.9676 22.9146 13.7995 22.6111C12.3577 20.0476 11.2327 15.8439 11.2327 13.0091V12.4409L11.4461 12.4086C12.9008 12.1826 13.4374 12.0857 14.071 11.9437C16.3275 11.44 18.4999 10.607 20.4007 9.5222C20.8857 9.24454 21.3124 9.01208 21.3447 9.01208C21.377 9.01208 21.6098 9.14122 21.8619 9.2962ZM1.85775 11.3238C2.82757 11.9889 4.6573 12.5959 6.73919 12.9446C7.63142 13.0931 9.26072 13.2739 9.75856 13.2739C9.94606 13.2739 10.14 13.2997 10.1918 13.332C10.2499 13.3707 10.3017 13.6097 10.334 14.0229C10.4439 15.2175 10.6702 16.6446 10.8836 17.5099L10.9288 17.6842L10.0624 17.639C6.42884 17.4582 3.20257 16.6188 1.98059 15.5404C1.46982 15.0948 1.46982 15.0948 1.46982 12.951C1.46982 11.4658 1.48922 11.0784 1.55387 11.1172C1.59267 11.1494 1.73491 11.2398 1.85775 11.3238ZM1.81249 16.6252C3.34481 17.6713 6.34479 18.4074 10.0366 18.6334C10.6767 18.6722 11.2004 18.7109 11.2004 18.7174C11.3491 19.3502 12.112 21.3326 12.5969 22.3464C12.7521 22.6628 12.8879 22.9533 12.9073 22.9856C12.946 23.076 9.3577 22.9856 8.38788 22.8629C4.89652 22.4368 2.31033 21.5134 1.65085 20.4544C1.50861 20.2219 1.50215 20.1703 1.48275 18.3235C1.46982 17.2903 1.47629 16.438 1.50215 16.438C1.52155 16.438 1.66379 16.5219 1.81249 16.6252ZM2.12283 22.1526C3.15085 22.7855 5.06463 23.3795 7.12711 23.7024C8.62064 23.9349 9.57106 24.0059 11.4913 24.0317C13.4439 24.0575 13.4633 24.0575 13.5667 24.2061C13.6249 24.2835 13.9223 24.7291 14.2327 25.194C14.8016 26.0593 15.7585 27.2991 16.224 27.7769L16.4827 28.0417L16.2628 28.0869C14.9309 28.3323 11.3038 28.4614 9.57753 28.3258C7.70901 28.1773 6.07971 27.8996 4.78015 27.5057C3.39007 27.086 2.653 26.7438 2.09051 26.2466C1.59267 25.8075 1.59913 25.8527 1.59913 23.7347C1.59913 22.708 1.61206 21.8621 1.62499 21.8621C1.63792 21.8621 1.86422 21.9912 2.12283 22.1526Z" fill="#00EEFF"/>
<path d="M2.78226 7.1914C2.48473 7.2366 2.43945 7.41741 2.43945 8.46994V9.45791L2.60762 9.58705C2.70465 9.66454 2.84695 9.72266 2.92456 9.72266C3.00218 9.72266 3.14448 9.66454 3.2415 9.58705L3.40967 9.45791V8.46994C3.40967 7.71444 3.39027 7.46261 3.31265 7.35283C3.21563 7.21077 3.02159 7.15266 2.78226 7.1914Z" fill="#00EEFF"/>
<path d="M4.58416 8.17464C4.36425 8.26504 4.3125 8.49751 4.3125 9.36278C4.3125 10.0731 4.32544 10.1764 4.44833 10.3314C4.63591 10.5703 5.024 10.5703 5.21804 10.3249C5.3474 10.157 5.35387 10.086 5.33447 9.25947C5.31506 8.29087 5.28272 8.20693 4.92697 8.14236C4.81701 8.12944 4.66825 8.14236 4.58416 8.17464Z" fill="#00EEFF"/>
<path d="M20.5437 11.243C19.354 11.5594 18.3907 12.6571 18.2096 13.884C18.1773 14.1294 18.145 14.8526 18.145 15.4789V16.6154L17.9381 16.6606C17.3497 16.7898 16.8325 17.2159 16.5674 17.7842C16.4381 18.0683 16.4316 18.1781 16.4316 20.3413V22.6013L16.6321 23.1502C16.7355 23.4537 16.9359 23.8669 17.0717 24.0671C17.589 24.8549 18.5265 25.5265 19.4446 25.7783C19.7872 25.8752 20.117 25.8945 21.3777 25.8945C22.8583 25.8881 22.91 25.8816 23.4273 25.7137C24.0674 25.5006 24.8174 25.0163 25.2247 24.5514C25.3863 24.3642 25.632 23.9961 25.7743 23.7249C26.1945 22.9113 26.2268 22.6917 26.2268 20.2444C26.2268 18.0941 26.2268 18.0812 26.0717 17.7454C25.813 17.1901 25.3863 16.8543 24.6945 16.6542C24.6299 16.6412 24.6105 16.3378 24.6105 15.4531C24.6105 14.8009 24.5781 14.0842 24.5458 13.8517C24.3454 12.6248 23.3756 11.5465 22.1859 11.2365C21.7139 11.1138 21.0092 11.1203 20.5437 11.243ZM22.3152 12.3988C22.7225 12.5925 23.2075 13.0962 23.4014 13.5159C23.5307 13.7936 23.5437 13.9421 23.5631 15.2206L23.5825 16.6283H21.3777H19.173L19.1924 15.2206C19.2118 13.9421 19.2247 13.7936 19.354 13.5159C19.6256 12.9219 20.2592 12.3924 20.8864 12.2309C21.2484 12.1341 21.9532 12.218 22.3152 12.3988ZM24.798 17.7519C24.8949 17.8036 25.0372 17.9327 25.1018 18.0296C25.2118 18.1975 25.2247 18.3718 25.2441 20.083C25.257 21.2776 25.2376 22.1106 25.1924 22.3753C24.9855 23.557 24.1256 24.4933 22.9488 24.7968C22.6838 24.8678 22.2247 24.8937 21.3131 24.8937C19.8842 24.8937 19.4316 24.8097 18.8691 24.4481C18.4747 24.1963 17.9446 23.6474 17.77 23.3052C17.4597 22.6917 17.4338 22.4722 17.4338 20.3284C17.4338 18.1329 17.4403 18.0748 17.7959 17.7971C17.964 17.6615 18.0221 17.6615 21.2937 17.6615C24.0674 17.6615 24.6493 17.6744 24.798 17.7519Z" fill="#00EEFF"/>
<path d="M20.7039 19.9898C19.669 20.4935 19.6238 22.0238 20.6263 22.5469C20.7751 22.6244 20.801 22.6825 20.801 22.9149C20.801 23.2959 20.9174 23.6575 21.0597 23.735C21.2667 23.8448 21.5125 23.806 21.6742 23.6381C21.81 23.5025 21.8359 23.4251 21.8359 23.0634C21.8359 22.7083 21.8553 22.6373 21.9652 22.605C22.2046 22.5275 22.6573 21.9463 22.7414 21.6041C22.8966 20.9713 22.5409 20.2545 21.9394 19.9833C21.5901 19.8219 21.0403 19.8284 20.7039 19.9898ZM21.6612 20.9455C21.8035 21.0682 21.8035 21.3975 21.6612 21.5524C21.5577 21.6687 21.2214 21.7074 21.0856 21.617C20.9174 21.5072 20.8527 21.2748 20.9303 21.0875C21.0532 20.784 21.396 20.7195 21.6612 20.9455Z" fill="#00EEFF"/>
<path d="M2.60762 12.7662L2.43945 12.8954V13.8898C2.43945 14.7357 2.45239 14.8971 2.55588 15.0069C2.73052 15.2136 3.0798 15.22 3.28031 15.0198C3.39674 14.9036 3.40967 14.8067 3.40967 13.8963V12.8954L3.2415 12.7662C3.14448 12.6888 3.00218 12.6306 2.92456 12.6306C2.84695 12.6306 2.70465 12.6888 2.60762 12.7662Z" fill="#00EEFF"/>
<path d="M4.4686 13.7364C4.35864 13.8591 4.3457 13.9817 4.3457 14.8083C4.3457 15.7123 4.35217 15.7446 4.50094 15.8673C4.71439 16.0416 4.94077 16.0222 5.16069 15.8027L5.34826 15.6154V14.776C5.34826 14.0269 5.33533 13.9236 5.21243 13.7687C5.03779 13.5491 4.65617 13.5297 4.4686 13.7364Z" fill="#00EEFF"/>
<path d="M2.59862 18.0812C2.44338 18.2362 2.44338 18.2491 2.45632 19.25C2.47572 20.2638 2.47572 20.2638 2.65036 20.3929C2.84441 20.5415 3.08373 20.5092 3.28424 20.309C3.40067 20.1928 3.4136 20.0894 3.4136 19.1854V18.1845L3.24543 18.0554C3.01905 17.8746 2.79913 17.8875 2.59862 18.0812Z" fill="#00EEFF"/>
<path d="M4.6165 18.876C4.39012 18.9405 4.3125 19.2311 4.3125 20.077C4.3125 20.7938 4.32544 20.8971 4.44833 21.0521C4.63591 21.291 5.024 21.291 5.21804 21.0456C5.3474 20.8777 5.35387 20.8067 5.33447 19.9802C5.32153 19.2957 5.29566 19.0697 5.21804 18.9987C5.10808 18.8889 4.79761 18.8243 4.6165 18.876Z" fill="#00EEFF"/>
<path d="M2.56882 23.3457C2.45239 23.462 2.43945 23.5588 2.43945 24.4757C2.43945 25.3927 2.45239 25.4895 2.56882 25.6058C2.74992 25.7866 3.09273 25.7737 3.26737 25.5864C3.40321 25.4443 3.40967 25.3733 3.40967 24.4564C3.40967 23.5588 3.39674 23.462 3.28031 23.3457C3.20269 23.2682 3.06686 23.2166 2.92456 23.2166C2.78226 23.2166 2.64643 23.2682 2.56882 23.3457Z" fill="#00EEFF"/>
<path d="M4.66178 24.188C4.36425 24.3043 4.3125 24.4851 4.3125 25.331C4.3125 26.1833 4.36425 26.3964 4.6165 26.5062C4.85582 26.616 4.95285 26.5966 5.15983 26.39C5.3474 26.2027 5.3474 26.1963 5.3474 25.3891C5.3474 24.4851 5.28919 24.2914 5.00459 24.188C4.9011 24.1558 4.81055 24.1235 4.80408 24.1299C4.79761 24.1299 4.73293 24.1558 4.66178 24.188Z" fill="#00EEFF"/>
</svg>
