<svg width="27" height="27" viewBox="0 0 27 27" fill="none" xmlns="http://www.w3.org/2000/svg">
<path d="M12.3801 13.5508V14.6705H11.2603C10.9633 14.6705 10.6785 14.7885 10.4685 14.9985C10.2585 15.2085 10.1405 15.4934 10.1405 15.7903C10.1405 16.0873 10.2585 16.3721 10.4685 16.5821C10.6785 16.7922 10.9633 16.9101 11.2603 16.9101H12.3801V18.0299C12.3801 18.3269 12.4981 18.6117 12.7081 18.8217C12.9181 19.0317 13.2029 19.1497 13.4999 19.1497C13.7969 19.1497 14.0817 19.0317 14.2917 18.8217C14.5017 18.6117 14.6197 18.3269 14.6197 18.0299V16.9101H15.7395C16.0365 16.9101 16.3213 16.7922 16.5313 16.5821C16.7413 16.3721 16.8593 16.0873 16.8593 15.7903C16.8593 15.4934 16.7413 15.2085 16.5313 14.9985C16.3213 14.7885 16.0365 14.6705 15.7395 14.6705H14.6197V13.5508C14.6197 13.2538 14.5017 12.9689 14.2917 12.7589C14.0817 12.5489 13.7969 12.431 13.4999 12.431C13.2029 12.431 12.9181 12.5489 12.7081 12.7589C12.4981 12.9689 12.3801 13.2538 12.3801 13.5508ZM24.3216 11.5934L14.2434 2.63503C14.0385 2.45305 13.774 2.35254 13.4999 2.35254C13.2258 2.35254 12.9613 2.45305 12.7564 2.63503L2.67823 11.5934C2.45609 11.7906 2.32138 12.0679 2.30374 12.3645C2.2861 12.661 2.38697 12.9524 2.58417 13.1745C2.78137 13.3967 3.05874 13.5314 3.35526 13.549C3.65179 13.5666 3.94317 13.4658 4.16532 13.2686L4.54157 12.9337V23.6289C4.54157 23.9259 4.65954 24.2107 4.86955 24.4207C5.07955 24.6307 5.36437 24.7487 5.66136 24.7487H21.3384C21.6354 24.7487 21.9203 24.6307 22.1303 24.4207C22.3403 24.2107 22.4582 23.9259 22.4582 23.6289V12.9337L22.8345 13.2686C23.0566 13.4658 23.348 13.5666 23.6445 13.549C23.7914 13.5403 23.935 13.5027 24.0673 13.4384C24.1996 13.3742 24.318 13.2845 24.4156 13.1745C24.5133 13.0645 24.5883 12.9364 24.6364 12.7974C24.6845 12.6584 24.7048 12.5113 24.6961 12.3645C24.6873 12.2176 24.6498 12.074 24.5855 11.9417C24.5212 11.8094 24.4316 11.691 24.3216 11.5934ZM20.2187 22.5091H6.78115V10.9428L13.4999 4.97091L20.2187 10.9428V22.5091Z" fill="#00BFFF"/>
</svg>
