<svg width="36" height="36" viewBox="0 0 36 36" fill="none" xmlns="http://www.w3.org/2000/svg">
<g clip-path="url(#clip0_607_3545)">
<path d="M18.167 0.5C27.8322 0.5 35.667 8.33475 35.667 18C35.667 27.6652 27.8322 35.5 18.167 35.5C8.50174 35.5 0.666992 27.6652 0.666992 18C0.666992 8.33475 8.50174 0.5 18.167 0.5ZM18.167 2.94125C14.1732 2.94125 10.3429 4.52779 7.51885 7.35186C4.69478 10.1759 3.10824 14.0062 3.10824 18C3.10824 21.9938 4.69478 25.8241 7.51885 28.6481C10.3429 31.4722 14.1732 33.0588 18.167 33.0588C22.1608 33.0588 25.9911 31.4722 28.8151 28.6481C31.6392 25.8241 33.2257 21.9938 33.2257 18C33.2257 14.0062 31.6392 10.1759 28.8151 7.35186C25.9911 4.52779 22.1608 2.94125 18.167 2.94125ZM21.751 6.604C22.8887 7.03415 23.9526 7.63871 24.9045 8.396C25.1227 8.564 25.3344 8.74308 25.5397 8.93325C25.5771 8.96592 25.6132 9.00092 25.6482 9.03825C26.2222 9.5685 26.7437 10.1652 27.2057 10.8057L27.3982 11.063C27.5091 11.2287 27.6164 11.3978 27.7202 11.5705C27.8042 11.7058 27.8853 11.8435 27.9635 11.9835C28.0522 12.1398 28.1373 12.2991 28.219 12.4613C28.31 12.6421 28.3969 12.8264 28.4797 13.0142C28.5375 13.142 28.6022 13.2732 28.6547 13.4097C28.7819 13.7271 28.8968 14.0491 28.9995 14.3757L29.0905 14.7083C29.266 15.3314 29.3918 15.9675 29.4667 16.6105C29.479 16.726 29.4965 16.8485 29.5052 16.9622C29.5414 17.3391 29.5607 17.7183 29.563 18.0998C29.5625 18.8453 29.494 19.5892 29.3582 20.3223L29.2882 20.702C29.2182 21.0333 29.1366 21.36 29.0432 21.682C28.1525 21.2743 27.106 20.674 26.833 20.0142C26.336 18.8242 25.013 18.2292 24.474 16.6963C23.5867 14.1588 24.7645 14.2252 24.929 12.6502C25.006 11.9117 24.474 11.7577 23.7722 12.0588C22.1342 12.7465 21.5795 12.4823 21.2487 11.2485C20.918 10.0183 21.2487 9.67525 21.2487 9.67525C20.1322 9.79775 20.0902 8.438 20.6695 8.095C21.072 7.864 21.4132 7.15525 21.751 6.604ZM17.0715 14.1447C18.104 13.6722 19.0577 13.5025 18.9317 12.6905C18.8092 11.8872 18.5187 11.2887 16.9052 11.2887C15.2917 11.2887 15.9952 13.5025 14.6722 12.1813C13.3492 10.8688 14.961 11.2083 15.6225 10.909C16.2857 10.608 16.9472 9.37425 15.7887 9.28675C14.632 9.2045 14.8787 9.79775 13.9687 9.46175C13.0587 9.11875 12.6457 10.65 12.0647 10.4365C11.6832 10.293 10.6595 9.5055 9.98049 8.73025C8.59496 9.93536 7.49808 11.4365 6.77099 13.1227C6.96874 15.41 8.17799 16.6105 8.17799 16.6105C8.17799 16.6105 8.79924 18.0997 12.5232 19.9303C12.5232 19.9303 13.2232 19.9722 12.3972 19.1235C11.5712 18.2712 10.6595 17.2073 11.6937 16.656C12.7262 16.0978 13.0185 16.145 13.267 17.1687C13.5137 18.1908 14.3432 17.5888 14.4237 16.6105C14.5077 15.6358 16.0372 14.6172 17.0715 14.1447ZM16.284 19.288C18.0655 19.288 17.8992 19.8427 19.3062 21.0817C20.7115 22.3137 19.9677 23.5475 19.2625 24.4855C18.5607 25.42 17.9395 26.4805 17.6087 28.402C17.2762 30.3165 16.4082 28.9515 16.1212 28.4843C15.8307 28.0135 15.3757 27.59 15.5017 25.6318C15.6242 23.6753 14.2995 24.8267 13.8462 22.2717C13.3912 19.7202 14.5077 19.2898 16.2857 19.2898M24.9955 20.9767C25.4697 20.674 26.6055 21.4633 26.3605 22.2945C26.1102 23.1258 25.3262 22.6568 24.9325 22.2945C24.5387 21.934 24.5177 21.2743 24.9955 20.9767Z" fill="#00EEFF"/>
</g>
<defs>
<clipPath id="clip0_607_3545">
<rect width="35" height="35" fill="white" transform="translate(0.666992 0.5)"/>
</clipPath>
</defs>
</svg>
