<svg width="51" height="43" viewBox="0 0 51 43" fill="none" xmlns="http://www.w3.org/2000/svg">
<path fill-rule="evenodd" clip-rule="evenodd" d="M25.7618 32.6073H25.3742C21.4705 32.6073 18.2822 29.4176 18.2822 25.5119V21.2493C18.2822 19.49 19.7723 17.7612 21.5602 18.0891C28.0561 19.1921 28.7711 15.7934 29.6354 16.9861C31.2143 19.1325 32.8237 18.5063 32.8237 19.49V25.542C32.8237 29.4176 29.665 32.6073 25.7618 32.6073ZM21.1431 19.2217C20.1895 19.2217 19.4745 20.3247 19.4745 21.2493V25.5119C19.4745 28.7618 22.1263 31.415 25.3742 31.415H25.7618C29.0097 31.415 31.6314 28.7618 31.6314 25.5119V19.9076C30.5886 19.52 29.7247 18.9239 29.0393 18.1488C26.4171 19.8179 23.6756 19.6689 21.3517 19.2518C21.292 19.2518 21.2027 19.2217 21.1431 19.2217Z" fill="white"/>
<path fill-rule="evenodd" clip-rule="evenodd" d="M34.3143 22.6215C33.9869 22.6215 33.7186 22.3533 33.7186 22.0249V17.4639C33.659 15.1687 31.8711 14.5124 30.2621 13.4094C28.6527 12.3063 27.4609 11.4716 25.6134 11.4716C21.0844 11.4716 17.4193 15.1386 17.4193 19.67V22.0249C17.4193 22.8 16.2275 22.8 16.2275 22.0249V19.67C16.2275 14.4527 20.399 10.2793 25.7923 10.2793C28.5339 10.2793 30.411 12.2171 32.5264 13.469C33.9568 14.2742 34.7911 15.7051 34.9104 17.4343V22.0249C34.9104 22.3533 34.6422 22.6215 34.3143 22.6215Z" fill="white"/>
<path fill-rule="evenodd" clip-rule="evenodd" d="M33.4494 26.0499C31.2143 26.0499 31.6314 26.5267 31.6314 21.6373C31.6314 20.8627 32.6447 21.0412 33.4494 21.0412C34.4326 21.0412 35.2373 21.8464 35.2373 22.8597V24.2314C35.2373 25.2447 34.4326 26.0499 33.4494 26.0499ZM32.8237 24.8571C34.224 24.8571 34.045 24.7975 34.045 22.8597C34.045 22.1442 33.2704 22.234 32.8237 22.234V24.8571Z" fill="white"/>
<path fill-rule="evenodd" clip-rule="evenodd" d="M18.8791 26.0487H17.6873C16.7041 26.0487 15.8994 25.2435 15.8994 24.2598V22.8585C15.8994 21.8452 16.7041 21.04 17.6873 21.04C19.922 21.04 19.4752 20.5632 19.4752 25.4521C19.4752 25.7805 19.207 26.0487 18.8791 26.0487ZM17.6873 22.2328C16.8826 22.2328 17.0912 23.3358 17.0912 24.2303C17.0912 24.9457 17.8658 24.856 18.283 24.856V22.2328H17.6873Z" fill="white"/>
<mask id="mask0_607_3452" style="mask-type:luminance" maskUnits="userSpaceOnUse" x="4" y="0" width="43" height="43">
<path d="M4.84473 0.767578H46.3189V42.1176H4.84473V0.767578Z" fill="white"/>
</mask>
<g mask="url(#mask0_607_3452)">
<path fill-rule="evenodd" clip-rule="evenodd" d="M40.243 42.1166H33.5686C32.7935 42.1166 32.7935 40.9243 33.5686 40.9243H40.243C42.8948 40.9243 45.0402 38.7775 45.0402 36.1242V29.4465C45.0402 28.6714 46.2325 28.6714 46.2325 29.4465V36.1242C46.2325 39.4338 43.5506 42.1166 40.243 42.1166ZM17.5376 42.1166H10.8923C7.58519 42.1166 4.90332 39.4338 4.90332 36.1242V29.4465C4.90332 28.6714 6.0951 28.6714 6.0951 29.4465V36.1242C6.0951 38.7775 8.2405 40.9243 10.8923 40.9243H17.5376C18.3418 40.9243 18.3418 42.1166 17.5376 42.1166ZM45.6363 14.0043C45.3084 14.0043 45.0402 13.7656 45.0402 13.4076V6.75995C45.0402 4.1067 42.8948 1.95984 40.243 1.95984H33.5686C32.7935 1.95984 32.7935 0.767578 33.5686 0.767578H40.243C43.5506 0.767578 46.2325 3.45042 46.2325 6.75995V13.4076C46.2325 13.7656 45.9642 14.0043 45.6363 14.0043ZM5.49897 14.0043C5.17156 14.0043 4.90332 13.7656 4.90332 13.4076V6.75995C4.90332 3.45042 7.58519 0.767578 10.8923 0.767578H17.5376C18.3418 0.767578 18.3418 1.95984 17.5376 1.95984H10.8923C8.2405 1.95984 6.0951 4.1067 6.0951 6.75995V13.4076C6.0951 13.7656 5.82687 14.0043 5.49897 14.0043Z" fill="white"/>
</g>
<path fill-rule="evenodd" clip-rule="evenodd" d="M39.2602 36.2747H11.8764C11.5485 36.2747 11.2803 36.0065 11.2803 35.6786V7.17816C11.2803 6.85027 11.5485 6.58203 11.8764 6.58203H39.2602C39.5881 6.58203 39.8559 6.85027 39.8559 7.17816V35.6786C39.8559 36.0065 39.5881 36.2747 39.2602 36.2747ZM12.4721 35.0819H38.6641V7.7743H12.4721V35.0819Z" fill="white"/>
<path fill-rule="evenodd" clip-rule="evenodd" d="M50.3753 22.0243H0.732342C-0.0422911 22.0243 -0.0422911 20.832 0.732342 20.832H50.3753C51.1796 20.832 51.1796 22.0243 50.3753 22.0243Z" fill="white"/>
</svg>
