<svg width="51" height="51" viewBox="0 0 51 51" fill="none" xmlns="http://www.w3.org/2000/svg">
<mask id="mask0_607_3491" style="mask-type:luminance" maskUnits="userSpaceOnUse" x="0" y="0" width="51" height="51">
<path d="M0.0615234 0.0244141H50.8915V50.8544H0.0615234V0.0244141Z" fill="white"/>
</mask>
<g mask="url(#mask0_607_3491)">
<path d="M4.76722 37.5006C4.76722 37.8496 4.48371 38.1331 4.13474 38.1331C3.78576 38.1331 3.50225 37.8496 3.50225 37.5006C3.50225 37.1517 3.7848 36.8682 4.13474 36.8682C4.48371 36.8682 4.76722 37.1517 4.76722 37.5006ZM40.6664 18.8514V24.4244C40.6664 24.7734 40.3829 25.0569 40.0339 25.0569H35.981V29.1098C35.981 29.4588 35.6975 29.7423 35.3485 29.7423H29.7755C29.4265 29.7423 29.143 29.4588 29.143 29.1098V25.0569H25.0896C24.7406 25.0569 24.4571 24.7734 24.4571 24.4244V18.8514C24.4571 18.5024 24.7406 18.2189 25.0896 18.2189H29.143V14.1655C29.143 13.8166 29.4265 13.533 29.7755 13.533H35.3485C35.6975 13.533 35.981 13.8166 35.981 14.1655V18.2189H40.0339C40.3829 18.2189 40.6664 18.5024 40.6664 18.8514ZM39.4014 19.4839H35.3485C34.9995 19.4839 34.716 19.1999 34.716 18.8514V14.798H30.408V18.8514C30.408 19.1999 30.1245 19.4839 29.7755 19.4839H25.7221V23.7919H29.7755C30.1245 23.7919 30.408 24.0755 30.408 24.4244V28.4774H34.716V24.4244C34.716 24.0755 34.9995 23.7919 35.3485 23.7919H39.4014V19.4839ZM50.8916 6.70565V41.7596C50.8916 44.2178 48.8907 46.2183 46.4324 46.2183H28.6905C27.6662 46.8286 26.5866 47.1343 25.4694 47.1343C24.9178 47.1343 24.357 47.0597 23.788 46.9109L13.6557 44.2597L12.2348 45.0823L13.5831 47.4096C13.6673 47.555 13.6894 47.7268 13.6471 47.889C13.6038 48.0517 13.4983 48.1899 13.353 48.2741L9.06082 50.7598C8.96359 50.8156 8.85384 50.845 8.74361 50.845C8.68874 50.845 8.63387 50.8377 8.57996 50.8238C8.41774 50.7805 8.2796 50.675 8.19536 50.5297L0.167976 36.666C0.0837405 36.5206 0.0615985 36.3488 0.103957 36.1861C0.146797 36.0239 0.252211 35.8857 0.398058 35.8015L4.69021 33.3158C4.99298 33.1411 5.37949 33.2441 5.5547 33.5469L6.83941 35.7659L13.4521 31.9373C13.6461 31.8241 13.842 31.7231 14.0403 31.6326V6.70565C14.0403 4.24742 16.0413 2.24647 18.4995 2.24647H24.3498V0.66862C24.3498 0.319645 24.6333 0.0361328 24.9823 0.0361328H39.9506C40.2996 0.0361328 40.5831 0.319645 40.5831 0.66862V2.24647H46.4339C48.8907 2.24647 50.8916 4.24646 50.8916 6.70565ZM25.6147 6.63585H39.3181V1.30111H25.6147V6.63585ZM12.1713 47.4962L10.8245 45.1694L10.823 45.1685C10.823 45.1685 10.823 45.1675 10.8221 45.1675L4.77685 34.7286L1.57976 36.5793L8.97322 49.348L12.1713 47.4962ZM28.0489 45.1285L42.6505 36.4181C43.1164 36.1399 43.4471 35.6942 43.5814 35.1627C43.7152 34.6313 43.6358 34.0821 43.3576 33.6152C43.0794 33.1493 42.6337 32.8186 42.1022 32.6833C41.5708 32.5486 41.0216 32.6285 40.5547 32.9072L30.858 38.691C29.0848 39.748 27.1791 40.0012 25.1912 39.4433L19.3269 37.7962C18.9905 37.7009 18.7946 37.3524 18.8894 37.0159C18.9842 36.6795 19.3332 36.4836 19.6692 36.5784L25.4049 38.189C25.4068 38.1904 25.4102 38.1904 25.4121 38.1914C25.8549 38.3156 26.3209 38.2588 26.7257 38.032C27.1305 37.8044 27.4212 37.4366 27.5459 36.9938C27.6701 36.5509 27.6133 36.085 27.3866 35.6802C27.1589 35.2754 26.7912 34.9846 26.3483 34.8605L18.0576 32.5317C16.6694 32.1418 15.3327 32.3103 14.0856 33.0333L7.47334 36.8619L11.5999 43.9892L13.2456 43.0361C13.39 42.9528 13.5619 42.9297 13.7231 42.9716L24.1072 45.6893C25.4934 46.0498 26.8196 45.8611 28.0489 45.1285ZM49.6266 6.70565C49.6266 4.94392 48.1941 3.51144 46.4324 3.51144H40.5822V7.26834C40.5822 7.61731 40.2986 7.90083 39.9497 7.90083H24.9813C24.6323 7.90083 24.3488 7.61731 24.3488 7.26834V3.51144H18.4981C16.7368 3.51144 15.3043 4.94392 15.3043 6.70565V31.2037C16.3046 30.9799 17.34 31.015 18.3994 31.313L26.6901 33.6417C27.4573 33.8578 28.097 34.3618 28.4893 35.0607C28.8816 35.7596 28.9793 36.5678 28.7632 37.3355C28.6568 37.7148 28.4797 38.0638 28.2424 38.3661C28.9163 38.2385 29.5728 37.9849 30.2097 37.6051L39.9064 31.8213C40.6635 31.3702 41.553 31.2403 42.4122 31.4574C43.2714 31.6744 43.9925 32.2111 44.4435 32.9669C44.8945 33.723 45.023 34.6135 44.8074 35.4727C44.5898 36.3319 44.0536 37.053 43.2979 37.504L30.8104 44.9523H46.4324C48.1941 44.9523 49.6266 43.5199 49.6266 41.7586V6.70565Z" fill="white"/>
</g>
</svg>
