<svg width="52" height="35" viewBox="0 0 52 35" fill="none" xmlns="http://www.w3.org/2000/svg">
<mask id="mask0_607_3470" style="mask-type:luminance" maskUnits="userSpaceOnUse" x="0" y="4" width="16" height="31">
<path d="M0.650391 4.29297H15.6065V34.0201H0.650391V4.29297Z" fill="white"/>
</mask>
<g mask="url(#mask0_607_3470)">
<path d="M13.5426 28.5439L15.4906 5.8375C15.4906 5.41397 15.4058 5.07524 15.1519 4.73603C14.8975 4.48211 14.4745 4.3125 14.1357 4.3125H2.11111C1.68806 4.3125 1.34933 4.48211 1.09492 4.73603C0.756196 4.99044 0.671875 5.41397 0.671875 5.8375L2.61944 28.5439C2.61944 28.9674 2.87337 29.3061 3.1273 29.5605C2.87337 29.8993 2.70376 30.238 2.70376 30.7463V32.2713C2.70376 33.2037 3.46602 33.9659 4.39741 33.9659H11.7646C12.696 33.9659 13.4583 33.2037 13.4583 32.2713V30.7463C13.4583 30.3228 13.2887 29.8993 13.0347 29.5605C13.2887 29.3061 13.5426 28.9674 13.5426 28.5439ZM12.1034 28.9674H3.97436C3.71995 28.9674 3.46602 28.713 3.38122 28.4591L3.04249 24.6463C4.39741 25.2395 6.17585 25.5782 7.9543 25.5782C9.81706 25.5782 11.5107 25.2395 12.8656 24.6463L12.5269 28.4591C12.696 28.713 12.4421 28.9674 12.1034 28.9674ZM13.1195 23.7145C11.7646 24.3924 9.98619 24.7311 8.12342 24.7311C6.26066 24.7311 4.39741 24.3924 3.1273 23.7145L1.60326 6.93897H14.4745L13.1195 23.7145ZM1.68806 5.32917C1.77238 5.24485 1.94199 5.16004 2.11111 5.16004H14.1357C14.3049 5.16004 14.4745 5.24485 14.5588 5.32917C14.6436 5.41397 14.7284 5.58358 14.7284 5.75318V6.09191H1.51846V5.75318C1.51846 5.58358 1.51846 5.41397 1.68806 5.32917ZM6.76851 33.0341V32.5257H9.39353V33.0341H6.76851ZM12.6112 32.187C12.6112 32.6954 12.2725 33.0341 11.7646 33.0341H10.2406V32.1022C10.2406 31.8478 10.071 31.6787 9.81706 31.6787H6.34498C6.09105 31.6787 5.92193 31.8478 5.92193 32.1022V33.0341H4.39741C3.88956 33.0341 3.55083 32.6954 3.55083 32.187V30.662C3.55083 30.1537 3.88956 29.8145 4.39741 29.8145H11.7646C12.2725 29.8145 12.6112 30.1537 12.6112 30.662V32.187Z" fill="white"/>
</g>
<path d="M8.04008 13.1221C6.43124 13.1221 5.16113 14.3931 5.16113 16.0029C5.16113 17.4431 6.34644 20.9167 8.04008 20.9167C9.73373 20.9167 10.919 17.4431 10.919 16.0029C11.0038 14.4779 9.64892 13.1221 8.04008 13.1221ZM8.04008 20.0696C7.1087 20.0696 6.00771 17.3583 6.00771 16.0029C6.00771 14.9015 6.93958 13.9696 8.04008 13.9696C9.14107 13.9696 10.0725 14.9015 10.0725 16.0029C10.1573 17.4431 9.05627 20.0696 8.04008 20.0696Z" fill="white"/>
<mask id="mask1_607_3470" style="mask-type:luminance" maskUnits="userSpaceOnUse" x="14" y="5" width="26" height="30">
<path d="M14.6191 5.03027H39.4123V34.0482H14.6191V5.03027Z" fill="white"/>
</mask>
<g mask="url(#mask1_607_3470)">
<path d="M35.9835 12.8667C34.4594 10.0706 32.7658 7.61373 31.0721 5.6652C30.5643 5.07206 29.7172 4.98726 29.0398 5.32599L27.4309 6.25833L27.3461 6.34266C27.2618 6.42746 27.177 6.51226 27.177 6.68187C26.8383 7.86766 29.2942 12.9515 30.903 15.8319C30.056 15.2387 28.8706 14.9 27.6849 14.8152H27.6005C25.9069 14.7304 24.552 13.375 24.552 11.6804C24.552 11.4265 24.552 11.1721 24.6368 10.9181C24.6368 10.8333 24.6368 10.6637 24.552 10.5789C24.4672 10.4941 24.3824 10.4098 24.2981 10.4098C24.2133 10.4098 24.1284 10.4098 24.1284 10.4098C22.0961 10.4098 20.4029 11.9348 20.1485 13.9681C19.2171 13.9681 18.2857 14.3917 17.5235 15.1539C16.7617 15.9167 16.3382 16.8485 16.3382 17.6961C15.9146 17.7804 15.4916 18.2044 15.4916 18.7128V19.5598C15.0681 19.6446 14.6445 20.0681 14.6445 20.5765V29.8961C14.6445 32.1838 16.5073 34.0476 18.7941 34.0476H30.3947C32.681 34.0476 34.5442 32.1838 34.5442 29.8961V22.0167C35.7295 23.7113 36.3222 23.9652 36.6609 23.9652C36.7457 23.9652 36.8305 23.8809 36.9149 23.8809L38.5237 22.9485C39.2011 22.6098 39.5399 21.8476 39.2859 21.0848C38.6933 18.4583 37.508 15.6623 35.9835 12.8667ZM16.2534 18.4583C16.2534 18.3735 16.3382 18.2887 16.423 18.2887H32.5962C32.681 18.2887 32.7658 18.3735 32.7658 18.4583V19.3054H16.2534V18.4583ZM18.0318 15.4931C18.7093 14.7304 19.5559 14.3917 20.3181 14.5613C20.4029 14.5613 20.572 14.5613 20.6568 14.4765C20.7416 14.3917 20.826 14.3069 20.826 14.1373C20.826 12.5275 22.0118 11.2569 23.5358 11.0025C23.5358 11.1721 23.5358 11.3417 23.5358 11.4265C23.5358 13.5446 25.2294 15.2387 27.2618 15.4083H27.3461C29.0398 15.4931 30.5643 16.1706 31.2417 17.2721C31.2417 17.2721 31.2417 17.2721 31.2417 17.3569H17.1004C17.1004 16.8485 17.5235 16.0863 18.0318 15.4931ZM33.782 29.7265C33.782 31.5907 32.2579 33.0309 30.4795 33.0309H18.7941C16.9308 33.0309 15.4916 31.5059 15.4916 29.7265V20.4069C15.4916 20.3221 15.5759 20.2378 15.6607 20.2378H33.528C33.6124 20.2378 33.6972 20.3221 33.6972 20.4069V29.7265H33.782ZM34.6286 20.3221C34.6286 19.8985 34.3746 19.5598 34.0359 19.3902L33.782 19.0515V18.4583C33.782 17.8652 33.3584 17.4417 32.7658 17.4417C32.3423 16.7637 31.9192 16.0863 31.5805 15.3235C29.3785 11.2569 28.1932 8.29167 27.9393 7.1902C28.701 7.95246 30.5643 10.5789 32.8506 14.6456C35.0521 18.7128 36.2374 21.678 36.4918 22.7794C36.0683 22.3559 35.4756 21.678 34.6286 20.3221ZM38.2698 22.0167L37.3384 22.525C36.9997 20.6613 34.9673 16.5098 33.6972 14.1373C32.3423 11.6804 30.056 7.78334 28.6167 6.51226L29.5481 6.00393C29.8868 5.83432 30.2256 5.91912 30.4795 6.17353C32.1731 8.03726 33.8668 10.4941 35.306 13.2902C36.8305 16.0015 37.931 18.7128 38.6085 21.1696C38.6933 21.5083 38.5237 21.8476 38.2698 22.0167Z" fill="white"/>
</g>
<path d="M49.0242 8.20799V8.12319V4.90358C49.0242 4.22565 48.6855 3.63299 48.1777 3.29378C48.1777 1.93838 47.0767 0.836914 45.8066 0.836914H41.5727C41.1492 0.836914 40.8104 1.17564 40.8104 1.68398V2.27711C40.8104 2.70064 41.1492 3.12466 41.5727 3.12466H43.5203V3.37858C43.0124 3.71731 42.6737 4.31045 42.6737 4.98839V8.20799V8.2928C41.234 9.05506 40.2178 10.6649 40.2178 12.4443V32.185C40.2178 33.1168 40.98 33.8791 41.9114 33.8791H49.7865C50.7179 33.8791 51.4801 33.1168 51.4801 32.185V12.4443C51.4801 10.5801 50.464 9.05506 49.0242 8.20799ZM41.6575 2.19231V1.68398H45.8066C46.484 1.68398 47.0767 2.19231 47.2463 2.87025H44.4516V2.61632C44.4516 2.36192 44.2825 2.19231 44.0286 2.19231H41.6575ZM43.6051 4.90358C43.6051 4.31045 44.0286 3.80211 44.6212 3.80211H47.2463C47.7541 3.80211 48.2625 4.31045 48.2625 4.90358V7.86878C47.8389 7.69966 47.3311 7.61486 46.8227 7.61486H45.0448C44.5364 7.61486 44.1129 7.69966 43.6051 7.86878V4.90358ZM45.0448 8.54672H46.8227C48.9399 8.54672 50.7179 10.2413 50.7179 12.4443V14.9011H41.1492V12.4443C41.1492 10.2413 42.9276 8.54672 45.0448 8.54672ZM50.6336 25.8306H41.1492V15.7482H50.6336V25.8306ZM49.7865 33.032H41.9962C41.5727 33.032 41.1492 32.6933 41.1492 32.185V26.6776H50.6336V32.185C50.6336 32.6085 50.2948 33.032 49.7865 33.032Z" fill="white"/>
<path d="M45.8916 24.1363C47.3313 24.1363 48.2627 21.1711 48.2627 19.9001C48.2627 18.5447 47.1617 17.3584 45.8916 17.3584C44.5367 17.3584 43.5205 18.4599 43.5205 19.9001C43.5205 21.1711 44.4519 24.1363 45.8916 24.1363ZM45.8916 18.2903C46.7382 18.2903 47.4156 19.053 47.4156 19.9849C47.4156 21.1711 46.4843 23.3741 45.8916 23.3741C45.299 23.3741 44.3676 21.2559 44.3676 19.9849C44.3676 18.9682 45.045 18.2903 45.8916 18.2903Z" fill="white"/>
<path d="M24.6367 23.2041C23.2818 23.2041 22.2656 24.3056 22.2656 25.7458C22.2656 27.0168 23.197 29.982 24.6367 29.982C26.076 29.982 27.0073 27.0168 27.0073 25.7458C27.0073 24.3056 25.9068 23.2041 24.6367 23.2041ZM24.6367 29.1345C23.9593 29.1345 23.1122 27.0168 23.1122 25.7458C23.1122 24.8139 23.7897 24.0512 24.6367 24.0512C25.4833 24.0512 26.1608 24.8139 26.1608 25.7458C26.1608 26.932 25.2294 29.1345 24.6367 29.1345Z" fill="white"/>
</svg>
