<svg width="51" height="53" viewBox="0 0 51 53" fill="none" xmlns="http://www.w3.org/2000/svg">
<path d="M21.2189 33.7736C21.2189 33.4406 20.9487 33.1709 20.6162 33.1709C20.2832 33.1709 20.0135 33.4406 20.0135 33.7736C20.0135 35.2263 18.701 35.8888 17.4815 35.8888C16.2625 35.8888 14.9495 35.2272 14.9495 33.7736C14.9495 33.4406 14.6798 33.1709 14.3468 33.1709C14.0143 33.1709 13.7441 33.4406 13.7441 33.7736C13.7441 34.8076 14.1643 35.6776 14.9593 36.29C15.6325 36.8089 16.5288 37.0947 17.4815 37.0947C19.3383 37.0947 21.2189 35.9546 21.2189 33.7736Z" fill="white"/>
<path d="M33.8505 33.1709C33.5176 33.1709 33.2479 33.4406 33.2479 33.7736C33.2479 35.2263 31.9349 35.8888 30.7159 35.8888C29.4964 35.8888 28.1839 35.2272 28.1839 33.7736C28.1839 33.4406 27.9142 33.1709 27.5812 33.1709C27.2487 33.1709 26.9785 33.4406 26.9785 33.7736C26.9785 34.8076 27.3986 35.6776 28.1927 36.29C28.8659 36.8089 29.7622 37.0947 30.7149 37.0947C32.5717 37.0947 34.4523 35.9546 34.4523 33.7736C34.4523 33.4406 34.1821 33.1709 33.8496 33.1709H33.8505Z" fill="white"/>
<path d="M29.2189 42.3063C28.9239 42.1524 28.5592 42.2688 28.4064 42.5638C27.8338 43.6694 26.129 44.8451 24.0989 44.8451C22.0693 44.8451 20.3645 43.6703 19.7915 42.5638C19.6381 42.2688 19.2745 42.1524 18.9795 42.3063C18.684 42.4601 18.5691 42.8238 18.7219 43.1188C19.477 44.5758 21.5665 46.0504 24.0989 46.0504C26.6319 46.0504 28.7208 44.5758 29.4764 43.1188C29.6302 42.8238 29.5139 42.4591 29.2189 42.3063Z" fill="white"/>
<path d="M31.266 9.77337C31.4982 9.09522 31.617 8.38884 31.617 7.66687C31.617 3.8633 28.3192 0.768555 24.2659 0.768555C20.2126 0.768555 16.9148 3.8633 16.9148 7.66687C16.9148 8.32604 17.0142 8.97351 17.2099 9.60006C10.0384 12.668 4.93358 20.4159 4.93358 29.4674C4.93358 30.2079 4.97301 30.9542 5.04798 31.7346C4.78266 32.0125 4.56262 32.3562 4.40002 32.7574C4.05973 33.5986 4.01153 34.6039 4.26468 35.5863C4.74664 37.4591 6.51381 38.8383 8.11644 38.6879C9.79599 46.5068 16.3993 52.115 24.0425 52.115C31.6851 52.115 38.2879 46.5058 39.9675 38.6879C41.5726 38.8383 43.3368 37.4591 43.8193 35.5863C44.0724 34.6039 44.0242 33.5986 43.6839 32.7574C43.5213 32.3562 43.3022 32.0116 43.0355 31.7346C43.1109 30.9542 43.1499 30.2088 43.1499 29.4674C43.1499 20.5819 38.2305 12.9519 31.2645 9.77434L31.266 9.77337ZM18.1197 7.66687C18.1197 4.52782 20.8771 1.97393 24.2659 1.97393C27.6547 1.97393 30.4121 4.52782 30.4121 7.66687C30.4121 8.22721 30.3254 8.77684 30.1536 9.3065C29.2617 8.97205 28.3513 8.71209 27.4283 8.52807C27.4205 8.52612 27.4128 8.52515 27.405 8.52369C27.2652 8.49545 27.1245 8.47014 26.9839 8.44579C26.961 8.44141 26.9376 8.438 26.9147 8.43362C26.7813 8.41074 26.6484 8.38981 26.5141 8.37034C26.4946 8.3679 26.4746 8.36449 26.4557 8.36157C26.1514 8.31922 25.8457 8.28417 25.5404 8.25788C25.5063 8.25496 25.4727 8.25252 25.4387 8.25009C25.3238 8.24035 25.2084 8.23256 25.093 8.22526C25.0458 8.22283 24.9996 8.22039 24.9523 8.21747C24.8443 8.21212 24.7357 8.20725 24.6276 8.20384C24.5828 8.20189 24.5385 8.19995 24.4937 8.19946C24.3438 8.19557 24.1934 8.19313 24.0434 8.19313C23.893 8.19313 23.7499 8.19557 23.6038 8.19946C23.5586 8.19995 23.5123 8.20189 23.4665 8.20384C23.3638 8.20725 23.2596 8.21163 23.1569 8.2165C23.1068 8.21942 23.0581 8.22185 23.0084 8.22477C22.8814 8.23256 22.7548 8.24133 22.6292 8.25155C22.5688 8.25691 22.5085 8.26226 22.4486 8.2681C22.3595 8.27687 22.2694 8.28465 22.1803 8.29439C22.1068 8.30218 22.0338 8.31094 21.9603 8.31971C21.898 8.3275 21.8371 8.33577 21.7748 8.34356C21.6921 8.35476 21.6083 8.36547 21.5261 8.37764C21.4983 8.38202 21.471 8.3864 21.4433 8.39078C21.231 8.42291 21.0198 8.45894 20.809 8.49886C20.8046 8.49886 20.8012 8.50081 20.7968 8.50178C20.6834 8.52369 20.5699 8.54608 20.457 8.57091C20.4477 8.57237 20.438 8.57529 20.4292 8.57675C19.7175 8.72864 19.0189 8.92483 18.3373 9.1624C18.1942 8.67655 18.1217 8.17561 18.1217 7.66687H18.1197ZM18.1777 10.5065C18.1777 10.5065 18.1864 10.5041 18.1898 10.5021C19.1304 10.1375 20.0914 9.86246 21.066 9.67795C21.0738 9.67649 21.0816 9.67552 21.0884 9.67357C21.2048 9.65166 21.3211 9.6317 21.437 9.61223C21.4457 9.61077 21.4545 9.60979 21.4642 9.60833C21.7768 9.55722 22.0913 9.51632 22.4057 9.48419C22.4685 9.47786 22.5313 9.47105 22.5942 9.46472C22.6613 9.45888 22.728 9.45352 22.7952 9.44817C22.8721 9.44184 22.9481 9.43697 23.025 9.43162C23.0844 9.42821 23.1443 9.4248 23.2037 9.42091C23.2937 9.41652 23.3848 9.41214 23.4748 9.40971C23.5235 9.40776 23.5717 9.4063 23.6204 9.40435C23.7601 9.40095 23.9008 9.39851 24.0415 9.39851C24.1822 9.39851 24.3316 9.40095 24.4757 9.40435C24.52 9.40533 24.5648 9.40776 24.6091 9.40971C24.7094 9.41312 24.8102 9.4175 24.9105 9.42285C24.9611 9.42529 25.0108 9.42869 25.0614 9.43259C25.1568 9.43843 25.2527 9.44476 25.3481 9.45255C25.3978 9.45693 25.4469 9.46131 25.4966 9.46569C25.5945 9.47446 25.6923 9.48419 25.7902 9.49539C25.8345 9.50074 25.8792 9.50513 25.9235 9.50999C26.0311 9.52265 26.1378 9.53628 26.2439 9.55137C26.278 9.55576 26.313 9.56014 26.3471 9.56549C26.478 9.58448 26.609 9.60444 26.74 9.62732C26.7497 9.62927 26.7585 9.62975 26.7682 9.6317C27.2068 9.70667 27.6391 9.80014 28.0661 9.91065C28.0807 9.91406 28.0958 9.91844 28.1104 9.92282C28.2365 9.95593 28.3611 9.99 28.4852 10.026C28.5052 10.0319 28.5251 10.0382 28.5456 10.0436C28.6668 10.0781 28.7875 10.1151 28.9078 10.1536C28.9263 10.1594 28.9448 10.1648 28.9638 10.1711C29.0894 10.211 29.2145 10.2529 29.3396 10.2967C29.3498 10.3001 29.3605 10.304 29.3708 10.3074C36.6478 12.8564 41.944 20.4811 41.944 29.4664C41.944 29.983 41.9245 30.5024 41.8861 31.0369C41.8695 31.0326 41.853 31.0277 41.8354 31.0233C41.0706 30.8257 40.2547 31.0092 39.5405 31.5277C34.5623 28.4631 31.486 25.3274 29.0519 20.8404L30.8678 17.7826C31.0372 17.4969 30.9437 17.1259 30.6574 16.9565C30.3707 16.7861 30.0012 16.8805 29.8313 17.1673L27.8592 20.4884C23.7367 25.9009 17.9756 29.2357 8.64222 31.6051C8.60035 31.5729 8.55848 31.5413 8.51613 31.5116C8.50396 31.5028 8.49179 31.4941 8.47962 31.4863C8.44749 31.4644 8.41584 31.4425 8.38274 31.4215C8.37057 31.4137 8.3584 31.4059 8.34623 31.3982C8.30241 31.3709 8.2586 31.3446 8.21478 31.3193C8.17146 31.295 8.12667 31.2716 8.08334 31.2497C8.0702 31.2433 8.05803 31.2375 8.04488 31.2312C8.01129 31.2146 7.9777 31.1995 7.94411 31.1849C7.93096 31.1796 7.91879 31.1737 7.90565 31.1684C7.86135 31.1489 7.81607 31.1309 7.77031 31.1139C7.76885 31.1139 7.76788 31.1134 7.76593 31.1124C7.7226 31.0968 7.67879 31.0817 7.634 31.0676C7.62037 31.0632 7.60625 31.0598 7.59311 31.0554C7.56 31.0457 7.5269 31.0364 7.49282 31.0287C7.4787 31.0248 7.46459 31.0214 7.45095 31.0179C7.40519 31.0072 7.35992 30.997 7.31464 30.9892C7.31123 30.9892 7.30685 30.9883 7.30345 30.9873C7.26109 30.9795 7.21874 30.9732 7.17638 30.9683C7.16178 30.9663 7.14669 30.9644 7.13306 30.9629C7.09995 30.9595 7.06636 30.9561 7.03423 30.9542C7.02011 30.9532 7.00551 30.9517 6.99139 30.9517C6.94612 30.9488 6.90133 30.9474 6.85605 30.9474C6.81224 30.9474 6.76794 30.9488 6.72412 30.9517C6.71731 30.9517 6.70952 30.9517 6.70222 30.9517C6.65792 30.9542 6.61215 30.9586 6.56785 30.9644C6.56152 30.9644 6.55471 30.9654 6.54838 30.9663C6.51722 30.9707 6.48558 30.9761 6.4554 30.9814C6.38432 30.9926 6.3147 31.0068 6.2446 31.0243C6.22805 31.0287 6.2115 31.0326 6.19397 31.0379C6.15551 30.5039 6.13652 29.9839 6.13652 29.4674C6.13652 20.7041 11.1747 13.2352 18.1752 10.5075L18.1777 10.5065ZM42.6538 35.2845C42.2677 36.782 40.8233 37.6962 39.8808 37.4523C39.8287 37.4392 39.7796 37.4216 39.7319 37.4017C39.5629 37.3306 39.3711 37.3404 39.2105 37.4275C39.0493 37.5151 38.9369 37.6704 38.9048 37.8515C37.5524 45.4178 31.3025 50.9087 24.0425 50.9087C16.7819 50.9087 10.5321 45.4178 9.18016 37.8515C9.14754 37.6714 9.03606 37.5151 8.87443 37.4275C8.78534 37.3788 8.68554 37.3545 8.5872 37.3545C8.50737 37.3545 8.42801 37.37 8.35402 37.4017C8.30582 37.4216 8.25714 37.4382 8.20456 37.4523C7.26304 37.6933 5.81863 36.782 5.43258 35.2845C5.24271 34.5504 5.27338 33.8128 5.51826 33.2091C5.64483 32.8961 5.82106 32.6435 6.03234 32.4633C6.04111 32.4575 6.04987 32.4521 6.05766 32.4458C6.17109 32.3533 6.29085 32.2837 6.41596 32.2345C6.41937 32.2336 6.4218 32.2321 6.4257 32.2311C6.46562 32.216 6.50651 32.2024 6.54789 32.1917C7.03667 32.0656 7.59505 32.253 8.07799 32.7063C8.22744 32.8465 8.43775 32.9015 8.63589 32.8513C8.92409 32.7798 9.20985 32.7063 9.49173 32.6323C9.60175 32.6035 9.70934 32.5738 9.81839 32.5446C9.98975 32.4994 10.1616 32.4541 10.3305 32.4069C10.4493 32.3733 10.5652 32.3402 10.683 32.3071C10.8397 32.2632 10.9965 32.2194 11.1503 32.1751C11.2725 32.1391 11.3923 32.1036 11.513 32.0675C11.6596 32.0237 11.8071 31.9809 11.9521 31.9366C12.0743 31.8991 12.1931 31.8611 12.3139 31.8236C12.455 31.7793 12.5977 31.7355 12.7374 31.6907C12.8572 31.6523 12.974 31.6133 13.0918 31.5749C13.2301 31.5291 13.3688 31.4848 13.5051 31.4381C13.6239 31.3982 13.7393 31.3573 13.8571 31.3169C13.9905 31.2706 14.1244 31.2248 14.2563 31.1786C14.3731 31.1377 14.4875 31.0949 14.6039 31.053C14.7329 31.0058 14.8634 30.9595 14.9909 30.9123C15.1053 30.8695 15.2168 30.8257 15.3297 30.7828C15.4563 30.7346 15.5839 30.6869 15.7085 30.6377C15.8195 30.5939 15.9285 30.5496 16.0386 30.5048C16.1627 30.4552 16.2878 30.406 16.41 30.3554C16.5191 30.3111 16.6257 30.2643 16.7337 30.2191C16.8545 30.1684 16.9767 30.1178 17.0955 30.0662C17.203 30.02 17.3077 29.9727 17.4134 29.9255C17.5312 29.8729 17.6495 29.8213 17.7653 29.7692C17.87 29.721 17.9732 29.6719 18.0774 29.6242C18.1918 29.5706 18.3067 29.5176 18.4206 29.464C18.5228 29.4148 18.6231 29.3652 18.7244 29.3155C18.8363 29.2605 18.9498 29.206 19.0598 29.15C19.1591 29.1003 19.257 29.0487 19.3558 28.9981C19.4648 28.9421 19.5758 28.8861 19.6834 28.8287C19.7813 28.7771 19.8762 28.7245 19.9726 28.6719C20.0797 28.6145 20.1873 28.557 20.2929 28.4981C20.3883 28.446 20.4808 28.3915 20.5743 28.3385C20.679 28.2791 20.7836 28.2197 20.8878 28.1598C20.9803 28.1058 21.0709 28.0507 21.1629 27.9957C21.2651 27.9344 21.3673 27.874 21.4686 27.8122C21.5587 27.7572 21.6478 27.7002 21.7369 27.6442C21.8362 27.5814 21.9364 27.5196 22.0353 27.4563C22.1234 27.3999 22.21 27.341 22.2982 27.2835C22.395 27.2197 22.4919 27.156 22.5883 27.0912C22.6745 27.0328 22.7592 26.9729 22.8449 26.9135C22.9393 26.8483 23.0338 26.7835 23.1272 26.7168C23.2119 26.657 23.2947 26.5956 23.3775 26.5353C23.4695 26.469 23.562 26.4024 23.653 26.3342C23.7348 26.2733 23.8161 26.2101 23.8974 26.1482C23.9874 26.0801 24.0775 26.0119 24.1656 25.9418C24.2459 25.879 24.3243 25.8143 24.4037 25.7515C24.4913 25.6814 24.5785 25.6113 24.6651 25.5407C24.7435 25.4759 24.8204 25.4107 24.8983 25.345C24.983 25.2734 25.0687 25.2018 25.1524 25.1293C25.2293 25.0626 25.3033 24.9954 25.3793 24.9282C25.4625 24.8547 25.5453 24.7822 25.6266 24.7077C25.7011 24.6396 25.7741 24.5714 25.8476 24.5023C25.9279 24.4273 26.0092 24.3528 26.0886 24.2769C26.1611 24.2077 26.2327 24.1372 26.3042 24.0671C26.3831 23.9901 26.4615 23.9142 26.5394 23.8363C26.61 23.7657 26.6801 23.6932 26.7497 23.6216C26.8256 23.5427 26.9026 23.4648 26.9775 23.3855C27.0467 23.313 27.1148 23.2385 27.183 23.1655C27.2575 23.0846 27.3324 23.0053 27.4059 22.924C27.4731 22.8495 27.5393 22.7736 27.6055 22.6986C27.6781 22.6163 27.7506 22.534 27.8222 22.4513C27.8879 22.3753 27.9517 22.2984 28.0164 22.2215C28.0714 22.1558 28.1269 22.091 28.1819 22.0248C29.8328 25.8187 33.3106 29.1763 39.2835 32.7827C39.3108 32.7992 39.3385 32.8124 39.3668 32.8236C39.3755 32.827 39.3848 32.8299 39.3935 32.8333C39.414 32.8401 39.433 32.8465 39.4529 32.8513C39.4636 32.8543 39.4748 32.8557 39.486 32.8586C39.5055 32.862 39.524 32.8645 39.543 32.8664C39.5542 32.8674 39.5659 32.8684 39.5771 32.8689C39.5834 32.8689 39.5883 32.8698 39.5946 32.8698C39.6145 32.8698 39.6345 32.8689 39.655 32.8664C39.6593 32.8664 39.6637 32.8655 39.6681 32.8645C39.6934 32.8611 39.7187 32.8567 39.744 32.8508C39.7484 32.8499 39.7528 32.8489 39.7572 32.847C39.783 32.8401 39.8093 32.8304 39.8346 32.8192C39.8409 32.8168 39.8463 32.8138 39.8521 32.8114C39.8765 32.8002 39.9013 32.7861 39.9247 32.771C39.929 32.7686 39.9334 32.7652 39.9378 32.7622C39.9621 32.7457 39.986 32.7272 40.0074 32.7063C40.4908 32.2535 41.0478 32.0656 41.538 32.1917C41.5799 32.2024 41.6208 32.216 41.6612 32.2311C41.6636 32.2321 41.666 32.2326 41.6689 32.2336C41.7936 32.2827 41.9143 32.3533 42.0277 32.4453C42.0355 32.4521 42.0453 32.4575 42.0531 32.4633C42.2643 32.6435 42.4411 32.8951 42.5676 33.2082C42.812 33.8118 42.8427 34.5489 42.6533 35.284L42.6538 35.2845Z" fill="white"/>
<mask id="mask0_607_3501" style="mask-type:luminance" maskUnits="userSpaceOnUse" x="42" y="15" width="9" height="11">
<path d="M42.7188 15.0986H50.895V25.9412H42.7188V15.0986Z" fill="white"/>
</mask>
<g mask="url(#mask0_607_3501)">
<path d="M50.642 20.0419L49.0958 18.9305C48.7361 18.6715 48.4391 18.2767 48.2444 17.8098L47.3988 15.5184C47.3116 15.2818 47.0862 15.124 46.8341 15.124C46.5814 15.124 46.356 15.2818 46.2689 15.5184L45.432 17.7874C45.2285 18.2767 44.9315 18.6715 44.5718 18.9295L43.0261 20.0414C42.8679 20.1549 42.7754 20.3365 42.7754 20.5307C42.7754 20.7245 42.8689 20.9075 43.0261 21.02L44.5718 22.1319C44.9315 22.3904 45.2285 22.7857 45.4232 23.2521L46.2689 25.5436C46.356 25.7806 46.5814 25.9379 46.8341 25.9379C47.0862 25.9379 47.3116 25.7806 47.3988 25.5436L48.2356 23.2749C48.4381 22.7862 48.7361 22.3914 49.0958 22.1329L50.642 21.0209C50.7997 20.9075 50.8922 20.7254 50.8922 20.5317C50.8922 20.3374 50.7988 20.1549 50.642 20.0419ZM48.3929 21.1538C47.8515 21.5438 47.4119 22.1168 47.114 22.8353L46.8341 23.5948L46.5459 22.8125C46.2567 22.1168 45.8181 21.5428 45.2757 21.1538L44.4111 20.5317L45.2757 19.909C45.8171 19.5205 46.2567 18.9461 46.5541 18.2275L46.8345 17.4681L47.1227 18.2504C47.4119 18.9471 47.8515 19.5205 48.3929 19.909L49.2575 20.5317L48.3929 21.1538Z" fill="white"/>
</g>
<path d="M5.87534 50.3766L6.71219 48.1075C6.91471 47.6192 7.21265 47.2239 7.57241 46.9654L9.11808 45.8539C9.2763 45.74 9.3688 45.5584 9.3688 45.3642C9.3688 45.1704 9.27532 44.9874 9.11808 44.8749L7.57241 43.763C7.21265 43.5045 6.91568 43.1092 6.72095 42.6428L5.87534 40.3514C5.78819 40.1143 5.56279 39.957 5.31062 39.957C5.05796 39.957 4.83256 40.1143 4.74541 40.3514L3.90856 42.62C3.70507 43.1092 3.4081 43.5045 3.04834 43.7621L1.50267 44.874C1.34445 44.9874 1.25195 45.1695 1.25195 45.3632C1.25195 45.5575 1.34542 45.74 1.50267 45.853L3.04834 46.9644C3.4081 47.2234 3.70507 47.6182 3.8998 48.0851L4.74541 50.3766C4.83256 50.6132 5.05796 50.7709 5.31062 50.7709C5.56279 50.7709 5.78819 50.6132 5.87534 50.3766ZM5.31062 48.4268L5.02242 47.6445C4.73324 46.9488 4.29461 46.3744 3.75229 45.9859L2.88769 45.3632L3.75229 44.7411C4.29364 44.3521 4.73227 43.7781 5.03069 43.0596L5.3111 42.3001L5.59931 43.0825C5.88848 43.7791 6.32808 44.3521 6.86943 44.7411L7.73404 45.3632L6.86943 45.9859C6.32808 46.3753 5.88848 46.9488 5.59054 47.6674L5.31062 48.4268Z" fill="white"/>
<mask id="mask1_607_3501" style="mask-type:luminance" maskUnits="userSpaceOnUse" x="0" y="9" width="9" height="12">
<path d="M0.0673828 9.61719H8.19932V20.5844H0.0673828V9.61719Z" fill="white"/>
</mask>
<g mask="url(#mask1_607_3501)">
<path d="M2.6957 17.8468L3.54131 20.1383C3.62845 20.3749 3.85385 20.5321 4.10652 20.5321C4.35869 20.5321 4.58409 20.3749 4.67123 20.1383L5.50809 17.8692C5.71061 17.3809 6.00854 16.9856 6.36831 16.7271L7.91447 15.6152C8.0722 15.5018 8.16469 15.3202 8.16469 15.1259C8.16469 14.9317 8.07122 14.7491 7.91447 14.6367L6.36831 13.5248C6.00854 13.2662 5.71158 12.8709 5.51685 12.4046L4.67123 10.1126C4.58409 9.87599 4.35869 9.71875 4.10652 9.71875C3.85385 9.71875 3.62845 9.87599 3.54131 10.1126L2.70446 12.3817C2.50097 12.8709 2.204 13.2662 1.84424 13.5238L0.298567 14.6357C0.140348 14.7491 0.0478516 14.9312 0.0478516 15.1249C0.0478516 15.3192 0.141322 15.5018 0.298567 15.6147L1.84424 16.7261C2.204 16.9846 2.50097 17.3799 2.6957 17.8468ZM2.54819 14.5028C3.08954 14.1138 3.52817 13.5398 3.82708 12.8213L4.107 12.0618L4.3952 12.8442C4.68438 13.5403 5.12398 14.1138 5.66533 14.5028L6.52993 15.1249L5.66533 15.7471C5.12398 16.1371 4.68438 16.7105 4.38644 17.4286L4.10652 18.1885L3.81832 17.4062C3.52914 16.7105 3.09051 16.1361 2.54819 15.7471L1.68359 15.1249L2.54819 14.5028Z" fill="white"/>
</g>
</svg>
