<svg width="30" height="31" viewBox="0 0 30 31" fill="none" xmlns="http://www.w3.org/2000/svg">
<mask id="mask0_787_5544" style="mask-type:luminance" maskUnits="userSpaceOnUse" x="0" y="0" width="30" height="31">
<path d="M0 0.266602H30V30.2666H0V0.266602Z" fill="white"/>
</mask>
<g mask="url(#mask0_787_5544)">
<path d="M21.0902 9.12321C21.0252 9.95367 20.8176 10.7499 20.4674 11.512C20.1302 12.2458 19.6846 12.8978 19.1304 13.468C18.5714 14.0433 17.9455 14.4906 17.2528 14.8099C16.521 15.1473 15.7699 15.3159 14.9993 15.3159C14.2288 15.3159 13.4775 15.1473 12.7455 14.8101C12.0523 14.4908 11.4261 14.0436 10.8669 13.4685C10.3122 12.898 9.86636 12.2459 9.52938 11.512C9.1792 10.7494 8.97218 9.95273 8.90832 9.12189C8.84059 8.23977 8.94795 7.4038 9.23039 6.61396C9.50557 5.84441 9.92834 5.16821 10.4987 4.58539C11.0622 4.00959 11.7293 3.5663 12.4999 3.25549C13.279 2.94128 14.1122 2.78418 14.9993 2.78418C15.8865 2.78418 16.7213 2.94456 17.5037 3.26533C18.2721 3.58039 18.9383 4.02816 19.5023 4.60864C20.0707 5.19374 20.4926 5.8696 20.7678 6.63624C21.0508 7.42428 21.1582 8.25332 21.0902 9.12321ZM19.2209 8.97696C19.268 8.37448 19.1954 7.80544 19.0031 7.26985C18.8193 6.75781 18.5374 6.30626 18.1575 5.91517C17.775 5.52145 17.3199 5.21646 16.7924 5.00018C16.2379 4.77285 15.6402 4.65918 14.9993 4.65918C14.3547 4.65918 13.7554 4.77092 13.2012 4.99441C12.6733 5.2073 12.2192 5.5081 11.8388 5.89681C11.4599 6.28399 11.1789 6.73349 10.9959 7.24529C10.8032 7.78423 10.7305 8.36186 10.7778 8.9782C10.8245 9.58626 10.9764 10.1701 11.2333 10.7296C11.4805 11.2679 11.8064 11.7452 12.2111 12.1613C12.6083 12.5698 13.048 12.8851 13.53 13.1071C14.0131 13.3296 14.5029 13.4409 14.9993 13.4409C15.4956 13.4409 15.9851 13.3297 16.4678 13.1071C16.9494 12.8851 17.3887 12.5699 17.7858 12.1613C18.1902 11.7451 18.5162 11.2678 18.7637 10.7292C19.0209 10.1694 19.1733 9.58539 19.2209 8.97696Z" fill="#00EEFF"/>
<path d="M15.0001 18.8682C13.792 18.8682 12.6165 19.0223 11.4739 19.3306C10.3134 19.6438 9.26662 20.0949 8.3336 20.684C7.3697 21.2927 6.58173 22.0157 5.96968 22.8532C5.32355 23.7373 4.89771 24.7192 4.69215 25.7988C4.68281 25.8479 4.68371 25.8802 4.69486 25.8956C4.68874 25.8871 4.68024 25.8801 4.66935 25.8746C4.66614 25.873 4.66278 25.8718 4.66278 25.8718C4.66851 25.8731 4.67679 25.8738 4.6876 25.8738H25.3127C25.3236 25.8738 25.3319 25.8731 25.3377 25.8717C25.3377 25.8717 25.3346 25.8729 25.3314 25.8745C25.3206 25.88 25.3121 25.887 25.3059 25.8954C25.3171 25.8801 25.318 25.8479 25.3087 25.7989C25.103 24.7193 24.6771 23.7374 24.0308 22.8532C23.4187 22.0157 22.6306 21.2927 21.6666 20.684C20.7336 20.0949 19.6868 19.6438 18.5263 19.3306C17.3836 19.0223 16.2082 18.8682 15.0001 18.8682ZM15.0001 16.9932C16.374 16.9932 17.7122 17.1689 19.0148 17.5204C20.3574 17.8827 21.5751 18.4088 22.6677 19.0986C23.833 19.8344 24.7919 20.7171 25.5445 21.7468C26.3568 22.8582 26.8922 24.0919 27.1506 25.4481C27.2607 26.0265 27.1524 26.5418 26.8256 26.9939C26.6539 27.2313 26.4382 27.4158 26.1784 27.5473C25.9131 27.6816 25.6245 27.7488 25.3127 27.7488H4.6876C4.37572 27.7488 4.08716 27.6816 3.82193 27.5472C3.56222 27.4156 3.3466 27.2311 3.17507 26.9937C2.84839 26.5416 2.74011 26.0264 2.85024 25.4481C3.10844 24.092 3.64365 22.8582 4.45586 21.7469C5.2084 20.7171 6.16729 19.8344 7.33253 19.0986C8.42511 18.4088 9.64275 17.8827 10.9854 17.5204C12.288 17.1689 13.6263 16.9932 15.0001 16.9932Z" fill="#00EEFF"/>
</g>
</svg>
