<svg width="22" height="26" viewBox="0 0 22 26" fill="none" xmlns="http://www.w3.org/2000/svg">
<path d="M7.92383 0.587451C7.83105 0.631396 7.7041 0.743701 7.64551 0.836474C7.5332 1.00249 7.5332 1.01226 7.5332 2.7896C7.5332 4.48882 7.53809 4.58647 7.63086 4.73784C7.92871 5.22612 8.62207 5.20171 8.89062 4.6939C9.00293 4.47905 9.00293 4.47905 8.98828 2.74565C8.97363 1.11479 8.96875 1.00249 8.87598 0.851123C8.68555 0.53374 8.26074 0.416553 7.92383 0.587451Z" fill="#00EEFF"/>
<path d="M4.03775 2.91211C3.73502 3.04395 3.55435 3.41992 3.62759 3.75195C3.66177 3.89355 3.78873 4.05469 4.17447 4.44043C4.72623 5.00195 4.85806 5.08984 5.11685 5.08984C5.49771 5.08984 5.78091 4.82617 5.81509 4.44043C5.84439 4.08887 5.78091 3.98633 5.20474 3.41992C4.60416 2.83398 4.41373 2.75098 4.03775 2.91211Z" fill="#00EEFF"/>
<path d="M11.9032 2.91229C11.664 3.01971 10.7265 4.01092 10.6825 4.20135C10.5702 4.73846 11.0145 5.17303 11.5712 5.06561C11.7177 5.04119 11.8593 4.92889 12.2645 4.53826C12.5429 4.26483 12.8017 3.97186 12.8358 3.88397C13.0946 3.2785 12.4892 2.64861 11.9032 2.91229Z" fill="#00EEFF"/>
<path d="M17.0452 3.11719C16.4105 3.26855 16.5032 3.18554 12.4114 7.27246C9.36944 10.3096 8.56378 11.0908 8.54424 11.0176C8.52471 10.9639 8.41241 10.4853 8.29034 9.94824C8.00713 8.69336 7.83135 8.3125 7.29424 7.77539C6.87432 7.35546 6.41534 7.09668 5.84893 6.96484C5.38018 6.85742 4.65264 6.8916 4.18877 7.04785C3.78838 7.17968 3.1878 7.57031 2.97295 7.83886L2.82159 8.02929L2.80694 12.7217L2.79717 17.4141L1.65459 18.5664C0.692681 19.5332 0.507134 19.7432 0.477837 19.8945C0.399712 20.2998 0.346001 20.2314 2.98272 22.8828C4.39874 24.2988 5.52667 25.3926 5.61456 25.4316C5.74639 25.4902 6.40069 25.5 9.39874 25.5C13.4661 25.5 13.4075 25.5049 14.1253 25.1533C14.5403 24.9531 14.5403 24.9482 17.8411 21.6475C20.8685 18.6152 21.1517 18.3223 21.2933 18.0244C21.7278 17.1162 21.5569 16.0859 20.8587 15.3779C20.6097 15.1289 20.0726 14.8066 19.9065 14.8066C19.8724 14.8066 19.8528 14.626 19.8528 14.2793C19.8577 13.6006 19.7357 13.249 19.3108 12.7217C19.1155 12.4727 18.637 12.1455 18.3636 12.0625L18.1683 12.0039L18.1976 11.6816C18.2366 11.2812 18.1439 10.7734 17.9583 10.4121C17.7972 10.0898 17.3968 9.66015 17.1038 9.49414C16.9817 9.42578 16.8743 9.3623 16.8646 9.35254C16.8499 9.34277 17.4358 8.7373 18.1634 8.00488C19.6282 6.53027 19.7308 6.38867 19.8431 5.68554C19.9993 4.73339 19.472 3.7373 18.5931 3.30273C18.056 3.03906 17.5872 2.98535 17.0452 3.11719ZM17.9339 4.61133C18.3099 4.80176 18.4808 5.17773 18.3733 5.583C18.3196 5.77832 18.0023 6.11035 15.053 9.06933C11.5911 12.541 11.6302 12.4971 11.4642 13.1318C11.137 14.3916 11.9866 15.6904 13.3001 15.9346L13.6273 15.9932L13.6517 16.2568C13.6858 16.5693 13.9153 17.0869 14.1497 17.375C14.472 17.7705 15.2532 18.1758 15.6829 18.1758C15.805 18.1758 15.8196 18.1953 15.8685 18.4883C15.9759 19.1084 16.3372 19.6748 16.8401 20.0068C17.0013 20.1094 17.138 20.2021 17.1526 20.2119C17.1624 20.2217 16.3812 21.0225 15.4192 21.9893C14.013 23.3955 13.6077 23.7715 13.3929 23.8789L13.1243 24.0107L9.65753 24.0254L6.19561 24.04L4.22784 22.0723C3.14385 20.9883 2.26006 20.085 2.26006 20.0557C2.26006 20.0264 2.67999 19.5869 3.19268 19.0791C3.70538 18.5664 4.1546 18.0928 4.19366 18.0195C4.25225 17.9072 4.26202 17.1797 4.26202 13.2539V8.61523L4.49639 8.50293C4.83331 8.33691 5.50225 8.33691 5.84405 8.50293C6.13213 8.64453 6.42022 8.92285 6.55694 9.18652C6.61065 9.29882 6.83038 10.1436 7.04522 11.0713C7.26006 12.0039 7.46026 12.8096 7.49444 12.8682C7.52374 12.9268 7.75811 13.1953 8.0169 13.4687C8.79327 14.2842 9.04229 14.8164 9.08135 15.7588C9.10088 16.1592 9.08624 16.3789 9.02764 16.6133C8.91534 17.0723 8.60284 17.668 8.29522 18.0195C7.89971 18.4687 7.86553 18.8691 8.19756 19.1865C8.5296 19.499 8.93975 19.4502 9.31573 19.0596C9.80401 18.5518 10.18 17.8926 10.3948 17.165C10.5755 16.5547 10.6097 15.6123 10.473 14.9531C10.3069 14.1572 9.90167 13.3418 9.3792 12.7754L9.17413 12.5557L13.1048 8.625C15.6439 6.08593 17.0989 4.66504 17.2259 4.60156C17.4798 4.47461 17.6653 4.47949 17.9339 4.61133ZM16.2737 10.7148C16.6497 10.9053 16.8206 11.2861 16.7083 11.6914C16.6644 11.8721 16.4837 12.0723 15.4046 13.1514C14.0472 14.5088 13.9837 14.5527 13.5589 14.4893C13.1829 14.4355 12.8558 14.0596 12.8558 13.6836C12.8558 13.3613 12.9974 13.1807 14.1888 11.9795C15.6194 10.5439 15.761 10.4561 16.2737 10.7148ZM17.8997 13.459C18.2366 13.6006 18.4515 13.9912 18.3978 14.3623C18.3685 14.5771 18.3099 14.6406 17.3821 15.5781C16.8401 16.125 16.3372 16.6035 16.264 16.6426C16.0931 16.7305 15.722 16.7305 15.5462 16.6377C15.1263 16.4228 14.9603 15.876 15.1898 15.4658C15.2776 15.3047 17.0648 13.5518 17.2259 13.4687C17.4065 13.376 17.6946 13.3711 17.8997 13.459ZM19.5599 16.2275C19.7503 16.3252 19.9798 16.5791 20.0384 16.75C20.0677 16.8428 20.0774 17.0088 20.0579 17.1406C20.0286 17.3555 19.9798 17.4189 19.3108 18.0879C18.4905 18.918 18.3294 19.0156 17.9388 18.9131C17.4456 18.7812 17.1722 18.2686 17.3528 17.7998C17.4163 17.624 18.6956 16.3301 18.886 16.2422C19.0667 16.1641 19.4183 16.1543 19.5599 16.2275Z" fill="#00EEFF"/>
</svg>
