<svg width="22" height="22" viewBox="0 0 22 22" fill="none" xmlns="http://www.w3.org/2000/svg">
<path d="M10.2676 1.05906C7.99219 2.57273 5.46289 3.72996 3.58789 4.1157C2.62598 4.31102 1.52734 4.35984 0.907227 4.23289C0.775391 4.20848 0.726563 4.22313 0.594727 4.35984L0.438477 4.51609L0.467773 5.28758C0.575195 7.78758 1.25391 10.2876 2.40625 12.3774L2.7334 12.978L2.08398 14.2866C1.53711 15.3804 1.42969 15.6343 1.42969 15.8149C1.42969 16.2397 1.54688 16.3667 2.43066 16.8598C2.92871 17.143 3.11914 17.2212 3.31445 17.2407C3.60254 17.2651 3.81738 17.1772 3.97363 16.9624L4.07617 16.8208L4.65723 17.2065C5.38477 17.685 5.80469 17.8852 6.14648 17.9194C6.38574 17.9438 6.41016 17.9585 6.41016 18.0659C6.41016 18.2368 6.54199 18.5249 6.69824 18.6909C6.82031 18.8179 6.83496 18.8764 6.83496 19.1304C6.83496 19.3061 6.86426 19.4819 6.91309 19.5698C7.01074 19.7651 7.2793 20.0141 7.4502 20.0776C7.60645 20.1411 7.99707 20.1411 8.14356 20.0874C8.22168 20.0581 8.26563 20.0825 8.35352 20.2095C8.49024 20.4145 8.78809 20.5708 9.04199 20.5708C9.19824 20.5708 9.23731 20.5903 9.26172 20.6831C9.2959 20.8345 9.57422 21.1079 9.77442 21.1909C9.96973 21.2739 10.3359 21.2837 10.5313 21.2104C10.6094 21.1763 10.7559 21.0884 10.8535 21.0102C10.9561 20.9272 11.0537 20.8638 11.0732 20.8638C11.0928 20.8638 11.1953 20.9419 11.3027 21.0298C11.9326 21.5718 12.8018 21.3862 12.9336 20.688C12.958 20.5464 12.9824 20.5317 13.1826 20.5073C13.3047 20.4927 13.4609 20.4389 13.5342 20.3901C13.7148 20.2534 13.8809 19.9946 13.8809 19.8384C13.8809 19.7163 13.9004 19.7016 14.1348 19.6723C14.4668 19.6284 14.7793 19.3354 14.833 19.018C14.8623 18.8227 14.8721 18.813 15.0332 18.813C15.3604 18.813 15.7022 18.5249 15.7656 18.2026C15.7803 18.1098 15.8291 18.0268 15.8779 18.0122C15.9414 17.9927 16.5615 17.8462 17.3281 17.6655C17.4111 17.646 17.4404 17.6753 17.4893 17.8315C17.5576 18.061 17.7676 18.2514 18.041 18.3345C18.2217 18.3882 18.3193 18.3735 19.1885 18.1587C20.1895 17.9096 20.3457 17.8364 20.4971 17.5386C20.5361 17.4653 20.5703 17.3286 20.5703 17.2407C20.5703 17.1528 20.3262 16.0737 20.0234 14.8432L19.4766 12.602L19.6768 12.2309C20.7656 10.2046 21.4297 7.70945 21.5322 5.28758L21.5615 4.51609L21.4053 4.35984C21.2734 4.22801 21.2246 4.20848 21.0928 4.23289C20.7412 4.30613 19.9258 4.32078 19.4229 4.26707C17.2402 4.0327 14.6719 2.96336 11.7764 1.07859C11.3955 0.834452 11.0635 0.648905 10.9951 0.648905C10.9316 0.653788 10.6045 0.834452 10.2676 1.05906ZM11.5957 1.86473C14.8232 3.93016 17.8262 5.04344 20.1553 5.04344H20.7656V5.39988C20.7656 6.24461 20.4873 7.895 20.1553 9.04246C19.9502 9.7407 19.5547 10.771 19.2324 11.4497L19.0029 11.9282L18.7979 11.8989C18.5244 11.8647 16.8643 12.2261 16.6689 12.3628C16.4883 12.4897 16.3711 12.7436 16.3711 12.9975V13.1929L15.585 13.4419C15.1309 13.5884 14.75 13.6811 14.6914 13.6665C14.6328 13.6518 14.1006 13.3686 13.5098 13.0415L12.4404 12.4409H12.0498C11.6787 12.4409 11.625 12.4555 11.0195 12.7241L10.3848 13.0073L10.1357 12.8804C9.85742 12.7339 9.47656 12.7046 9.18359 12.8022C9.08594 12.8315 8.68067 13.1147 8.28027 13.4223C7.79199 13.7983 7.51856 13.979 7.43066 13.979C7.33301 13.979 6.09277 13.4858 6.0293 13.4175C6.01953 13.4077 6.04883 13.3003 6.08789 13.1733C6.18066 12.8999 6.13184 12.6509 5.94629 12.4263C5.88281 12.3481 5.47266 12.0991 5.00879 11.855C4.3252 11.4936 4.14941 11.4204 3.96387 11.4204C3.64648 11.4204 3.41211 11.5815 3.24121 11.9184L3.10449 12.187L2.96777 11.8989C2.30371 10.4682 2.00098 9.66746 1.72266 8.59324C1.4248 7.43602 1.23438 6.18602 1.23438 5.40477V5.05809L2.0791 5.02879C3.73926 4.97508 5.26758 4.55027 7.45996 3.52977C8.30469 3.13426 9.96973 2.18211 10.6973 1.67918C10.8486 1.57176 10.9805 1.48387 10.9854 1.48387C10.9902 1.47898 11.2637 1.64988 11.5957 1.86473ZM5.34082 12.8608L5.45801 12.9389L4.4375 14.7163C3.87598 15.6929 3.41211 16.5034 3.40234 16.5132C3.37305 16.5425 2.25 15.9077 2.22559 15.8442C2.21094 15.8149 2.60156 14.9653 3.09473 13.9595L3.99316 12.1382L4.6084 12.4604C4.94531 12.6362 5.27246 12.8169 5.34082 12.8608ZM19.2422 14.936C19.5449 16.1909 19.7842 17.2261 19.7695 17.2358C19.7402 17.2651 18.2217 17.602 18.207 17.5825C18.1582 17.5288 17.1182 13.022 17.1426 12.9927C17.1816 12.9585 18.4316 12.6753 18.5928 12.6655C18.6855 12.6606 18.7393 12.8462 19.2422 14.936ZM13.1533 13.6665C14.3398 14.3257 14.54 14.4184 14.8037 14.4184C14.9307 14.4184 15.3408 14.3159 15.7949 14.1694C16.2246 14.0327 16.5811 13.9302 16.5908 13.9399C16.6152 13.9595 17.2549 16.8745 17.2354 16.8843C17.2305 16.8891 16.8643 16.9868 16.4248 17.0991L15.6191 17.3091L15.5215 17.1675C15.2871 16.8452 15.0723 16.6548 14.7793 16.5132C14.0762 16.1665 13.5439 16.3276 13.3828 16.938C13.334 17.1235 13.3047 17.1528 13.1973 17.1528C12.8604 17.1528 12.416 17.5434 12.416 17.8364C12.416 17.9585 12.3965 17.9731 12.2061 18.0024C11.8154 18.061 11.5273 18.3296 11.459 18.7007C11.4297 18.8471 11.415 18.8618 11.2441 18.8618C11.1318 18.8618 10.9951 18.9057 10.8926 18.979C10.7266 19.0913 10.7217 19.0913 10.6143 19.0034C10.4189 18.8423 10.2969 18.8862 9.87207 19.2622C9.13477 19.9165 9.1543 19.9067 9.01758 19.8481C8.79297 19.7407 8.86621 19.5991 9.38867 19.1401C9.80371 18.7739 9.87695 18.686 9.87695 18.5639C9.87695 18.4809 9.85742 18.3735 9.82813 18.3247C9.76953 18.2124 9.54004 18.1343 9.4082 18.1782C9.35449 18.1977 8.99317 18.4809 8.60742 18.8081C7.91895 19.3843 7.76758 19.4673 7.64063 19.3403C7.49902 19.1987 7.57715 19.0669 8.03613 18.6763C8.83203 17.9927 8.90039 17.9145 8.90039 17.7485C8.90039 17.4653 8.56836 17.2651 8.34863 17.4116C8.29004 17.4507 8.08984 17.6216 7.89941 17.7876C7.4209 18.2124 7.35742 18.2514 7.25977 18.1782C7.08887 18.0317 7.20606 17.9096 8.70996 16.6548L10.209 15.4048L11.1123 15.9419C11.8936 16.4009 12.0596 16.479 12.2891 16.5034C12.5186 16.5278 12.6016 16.5132 12.8359 16.396C13.4365 16.103 13.627 15.3657 13.2314 14.8481C13.1191 14.7065 12.8213 14.4868 12.2061 14.1011C11.7324 13.8032 11.3174 13.5346 11.2881 13.5054C11.2295 13.4468 11.8838 13.1538 12.0889 13.1489C12.1768 13.1489 12.5674 13.3393 13.1533 13.6665ZM11.1709 14.3891C11.9229 14.8579 12.5674 15.2876 12.6016 15.3413C12.7188 15.5073 12.5625 15.7856 12.3525 15.7856C12.2939 15.7856 11.8936 15.5757 11.4639 15.3169C11.0342 15.0581 10.5996 14.8042 10.502 14.7554C10.2676 14.6333 9.98926 14.6382 9.78418 14.7651C9.69629 14.8188 9.07129 15.3315 8.40234 15.8979C7.7334 16.4692 7.09863 16.9868 6.99609 17.0454C6.75684 17.187 6.30762 17.2407 6.03906 17.1528C5.90234 17.1089 4.70117 16.3813 4.46191 16.1958C4.45215 16.186 5.46289 14.3843 5.61914 14.1352C5.65332 14.0864 5.83887 14.1499 6.41504 14.3989C7.47949 14.8579 7.7334 14.8481 8.39258 14.3354C9.34473 13.5835 9.50098 13.4809 9.65234 13.5054C9.73535 13.52 10.4189 13.9155 11.1709 14.3891ZM14.3398 17.104C14.5498 17.1821 14.8965 17.5386 14.9844 17.7632C15.0723 18.0024 15.0479 18.0805 14.8916 18.0805C14.6328 18.0805 14.2275 17.6704 14.125 17.3091C14.0566 17.0552 14.1055 17.0112 14.3398 17.104ZM13.5977 18.061C13.8418 18.2319 14.0762 18.5884 14.0762 18.7983C14.0762 18.8862 14.0566 18.9595 14.0322 18.9595C13.7246 18.9595 13.1484 18.354 13.1484 18.0317C13.1484 17.8901 13.3682 17.9048 13.5977 18.061ZM12.5576 18.8374C12.8555 18.9888 13.2021 19.5259 13.1289 19.7163C13.0898 19.8237 12.9971 19.8042 12.7432 19.643C12.3477 19.394 12.0449 18.7641 12.3184 18.7641C12.377 18.7641 12.4844 18.7983 12.5576 18.8374ZM11.5762 19.6626C11.7275 19.7456 12.0352 20.0581 12.1182 20.2143C12.1475 20.2729 12.1719 20.3852 12.1719 20.4682C12.1719 20.5854 12.1475 20.6196 12.0791 20.6196C11.9766 20.6196 11.6641 20.4194 11.5273 20.2632C11.4102 20.1264 11.249 19.7895 11.2441 19.6772C11.2441 19.5747 11.3906 19.5649 11.5762 19.6626ZM10.5801 20.1118C10.6045 20.1948 10.5752 20.2485 10.4385 20.3706C10.2578 20.5268 10.0869 20.5659 9.98438 20.4634C9.87207 20.3511 9.93067 20.2192 10.209 19.9604L10.4873 19.6968L10.5166 19.853C10.5313 19.9409 10.5605 20.0581 10.5801 20.1118Z" fill="#00EEFF"/>
<path d="M3.79834 5.22852C3.61768 5.28223 3.31494 5.30664 2.65576 5.31152C1.76709 5.31641 1.75732 5.31641 1.65967 5.43848C1.57178 5.5459 1.56689 5.59961 1.59619 6.04395C1.66943 7.09375 1.9917 8.59277 2.20654 8.85645C2.3335 9.0127 2.62646 9.0127 2.75342 8.85645C2.8706 8.71484 2.8706 8.57324 2.75342 8.28027C2.63623 7.97754 2.51904 7.4502 2.43115 6.83008C2.31885 6.05371 2.26025 6.13672 2.98291 6.10254C3.6665 6.07324 4.04736 6.00488 4.31592 5.86816C4.54541 5.75586 4.61865 5.65332 4.61865 5.47266C4.61865 5.16016 4.31103 5.06738 3.79834 5.22852Z" fill="#00EEFF"/>
<path d="M17.5721 5.25815C17.4208 5.40464 17.4061 5.61948 17.5331 5.77085C17.6551 5.91733 18.3339 6.0687 19.0467 6.10288L19.6522 6.13217L19.618 6.43003C19.5448 7.08432 19.3885 7.86557 19.2518 8.27085C19.0907 8.72983 19.1005 8.89096 19.2958 8.9935C19.7792 9.25229 20.0966 8.57846 20.326 6.78647C20.4579 5.73178 20.4579 5.51694 20.3065 5.39487C20.1942 5.31186 20.121 5.3021 19.4618 5.32163C18.8954 5.34116 18.661 5.32651 18.3729 5.26303C17.7382 5.11655 17.7089 5.11655 17.5721 5.25815Z" fill="#00EEFF"/>
<path d="M9.2516 6.23926C9.10024 6.30762 8.88051 6.47852 8.72426 6.63477C7.76235 7.64063 8.0602 8.80273 9.60805 10.0723C9.99867 10.3945 10.9118 11 10.9997 11C11.0875 11 12.0006 10.3945 12.3913 10.0723C13.9391 8.80273 14.237 7.64063 13.275 6.63477C12.6403 5.97559 11.8883 5.94629 11.2243 6.56152L10.9997 6.7666L10.775 6.56152C10.2965 6.11719 9.75453 6.00488 9.2516 6.23926Z" fill="#00EEFF"/>
</svg>
