<svg width="22" height="22" viewBox="0 0 22 22" fill="none" xmlns="http://www.w3.org/2000/svg">
<path d="M1.69336 0.834229C0.882812 1.11743 0.287109 1.78149 0.116211 2.59204C0.0380859 2.95825 0.0380859 19.0422 0.116211 19.4084C0.321289 20.3948 1.14648 21.137 2.17188 21.2542C2.71875 21.3176 19.2861 21.3176 19.8379 21.2542C20.8486 21.137 21.6787 20.3899 21.8838 19.4084C21.9619 19.0422 21.9619 2.95825 21.8838 2.59204C21.7373 1.8938 21.2588 1.28833 20.5996 0.961182L20.209 0.770752L11.0781 0.760986C2.43066 0.751221 1.92773 0.751221 1.69336 0.834229ZM20.2529 1.66431C20.585 1.82544 20.873 2.11353 21.0293 2.45044C21.127 2.6604 21.1318 2.76294 21.1465 4.14966L21.1611 5.62915H11H0.838867L0.853516 4.14966C0.868164 2.76294 0.873047 2.6604 0.970703 2.45044C1.12695 2.11353 1.41504 1.82544 1.74707 1.66431L2.04004 1.52759H11H19.96L20.2529 1.66431ZM21.1465 12.8655L21.1318 19.3254L21.0244 19.5549C20.8682 19.8967 20.5654 20.1946 20.2139 20.3557L19.9111 20.4973H11H2.08887L1.78613 20.3557C1.43457 20.1946 1.13184 19.8967 0.975586 19.5549L0.868164 19.3254L0.853516 12.8655L0.84375 6.4104H11H21.1562L21.1465 12.8655Z" fill="#00EEFF"/>
<path d="M3.30957 3.30957C3.23145 3.38281 3.1875 3.48535 3.1875 3.57812C3.1875 3.76367 3.37793 3.96875 3.54395 3.96875C3.74902 3.96875 3.91992 3.79297 3.91992 3.57812C3.91992 3.23145 3.54883 3.07031 3.30957 3.30957Z" fill="#00EEFF"/>
<path d="M5.80469 3.29004C5.70703 3.36816 5.67773 3.43164 5.67773 3.57812C5.67773 3.79297 5.84863 3.96875 6.05371 3.96875C6.21973 3.96875 6.41016 3.76367 6.41016 3.57812C6.41016 3.39258 6.21973 3.1875 6.05371 3.1875C5.99023 3.1875 5.87793 3.23145 5.80469 3.29004Z" fill="#00EEFF"/>
<path d="M8.2905 3.29492C8.03171 3.51953 8.19772 3.96875 8.53952 3.96875C8.71042 3.96875 8.90085 3.76367 8.90085 3.57812C8.90085 3.39258 8.71042 3.1875 8.53952 3.1875C8.47116 3.1875 8.35886 3.23633 8.2905 3.29492Z" fill="#00EEFF"/>
<path d="M10.7852 3.29004C10.6875 3.36816 10.6582 3.43164 10.6582 3.57812C10.6582 3.72461 10.6875 3.78809 10.7852 3.86621C10.9121 3.96875 10.9463 3.96875 14.7695 3.96875H18.627L18.7686 3.82715C18.9492 3.64648 18.9492 3.50977 18.7686 3.3291L18.627 3.1875H14.7695C10.9463 3.1875 10.9121 3.1875 10.7852 3.29004Z" fill="#00EEFF"/>
<path d="M9.89686 7.21582C8.96913 7.37695 7.92421 7.82129 7.19667 8.36328C5.75135 9.44238 4.86756 11.1855 4.76991 13.1729C4.63319 15.8047 6.45448 18.417 9.00819 19.2715C9.67225 19.4961 10.141 19.5645 10.9271 19.5645C12.0404 19.5645 12.7973 19.3838 13.808 18.8857C15.5365 18.0312 16.7182 16.4932 17.1332 14.5596C17.2504 14.0078 17.2553 12.9043 17.1381 12.2842C16.6547 9.66699 14.9066 7.83594 12.3432 7.25977C11.8598 7.15234 10.4144 7.12305 9.89686 7.21582ZM11.7084 7.92383C12.9291 8.09961 13.9984 8.63184 14.8578 9.48633C16.3568 10.9854 16.8353 13.0898 16.1469 15.1406C16.015 15.5312 15.5707 16.4346 15.4633 16.5225C15.4144 16.5615 15.3705 16.5127 15.268 16.3125C15.0189 15.8193 14.7113 15.4043 14.2816 14.999C13.8129 14.5547 13.5101 14.3545 12.9389 14.1055L12.5678 13.9443L12.8314 13.6855C13.1439 13.3779 13.4076 12.8994 13.515 12.46C13.7494 11.4541 13.3295 10.3311 12.5092 9.78418C11.5717 9.15918 10.4242 9.15918 9.48182 9.78906C8.72499 10.2969 8.2953 11.3369 8.45155 12.2793C8.53456 12.7773 8.82264 13.3486 9.16444 13.6807L9.43299 13.9443L9.07655 14.1006C8.07069 14.5352 7.22596 15.3262 6.75721 16.2637C6.63514 16.5029 6.58631 16.5615 6.53749 16.5225C6.43006 16.4346 5.98573 15.5312 5.85389 15.1406C5.1703 13.1045 5.64881 10.9854 7.11854 9.51074C8.34413 8.29004 10.0678 7.69434 11.7084 7.92383ZM11.7084 10.2236C12.6215 10.5654 13.0463 11.7422 12.5971 12.7041C12.4408 13.041 12.0502 13.4072 11.7084 13.5391C11.3031 13.6953 10.7025 13.7002 10.307 13.5439C9.35487 13.1729 8.93495 11.9961 9.41346 11.0342C9.82362 10.2139 10.7807 9.87695 11.7084 10.2236ZM12.1967 14.6621C13.2758 15.0039 14.101 15.707 14.5697 16.6885C14.8432 17.2549 14.8432 17.2695 14.4672 17.5723C13.7982 18.1191 12.8656 18.5293 11.9281 18.6953C10.9955 18.8564 9.84315 18.7344 8.91542 18.373C8.3246 18.1484 7.28944 17.4795 7.21131 17.2744C7.17225 17.1719 7.58241 16.3418 7.85096 15.9854C8.29042 15.4092 9.0619 14.8867 9.80409 14.6719C10.307 14.5254 10.3265 14.5205 11.1224 14.54C11.7133 14.5498 11.9232 14.5742 12.1967 14.6621Z" fill="#00EEFF"/>
</svg>
