<svg width="20" height="24" viewBox="0 0 20 24" fill="none" xmlns="http://www.w3.org/2000/svg">
<path d="M4.5659 0.354153C2.15379 0.74966 0.532696 2.45376 0.27879 4.86587C0.151837 6.06704 0.498517 7.40005 1.18211 8.35708C1.90477 9.36294 3.13035 10.1198 4.395 10.3395C4.56102 10.3688 4.75145 10.403 4.81492 10.4127L4.92235 10.4372V14.734V19.0309H4.395C3.56004 19.0309 3.03758 19.2165 2.5493 19.6754C2.0366 20.1588 1.79734 20.7008 1.79734 21.3698C1.79734 22.0241 2.02195 22.5612 2.48582 23.0299C2.62742 23.1667 2.85692 23.3473 2.99363 23.4254C3.53563 23.7379 3.11082 23.7233 11.0552 23.7086L18.2768 23.694L18.604 23.5377C19.1899 23.2594 19.6001 22.7272 19.7173 22.1022C19.7514 21.9215 19.7612 19.2604 19.7563 14.1676C19.7417 6.9606 19.7368 6.49185 19.6538 6.28677C19.4438 5.74966 19.019 5.31509 18.4819 5.09536C18.2329 4.99282 18.1889 4.99282 14.2925 4.97818L10.3569 4.96353L10.3227 4.67056C10.1811 3.41568 9.395 2.09243 8.32078 1.29654C7.24656 0.495754 5.84031 0.144192 4.5659 0.354153ZM5.92332 1.1354C7.68113 1.41861 8.90672 2.47329 9.395 4.12368C9.55125 4.65103 9.60496 5.51529 9.51707 6.07193C9.25828 7.65884 8.20848 8.90884 6.71434 9.402C5.02977 9.95864 3.33543 9.53872 2.15867 8.27407C1.6118 7.68814 1.2407 6.9606 1.08445 6.18911C0.962384 5.58853 1.01121 4.69986 1.18699 4.13833C1.53367 3.05923 2.16356 2.24868 3.10106 1.68228C3.97996 1.15493 4.92235 0.969387 5.92332 1.1354ZM18.3354 5.8815C18.4429 5.94009 18.604 6.07193 18.687 6.17447C19.0044 6.55532 18.9897 6.08657 18.9751 14.4704L18.9604 22.0827L18.853 22.2829C18.7065 22.5514 18.3989 22.8151 18.1304 22.8883C17.7983 22.9811 17.0659 22.9323 16.7632 22.7956C16.4458 22.654 16.1382 22.3512 15.9966 22.0387C15.8257 21.6579 15.8354 21.0573 16.021 20.6813C16.2065 20.3053 16.5239 20.0319 16.9243 19.9098C17.0952 19.8561 17.3003 19.8122 17.3833 19.8122C17.5884 19.8122 17.6958 19.7389 17.7593 19.568C17.8179 19.3874 17.7641 19.2165 17.6079 19.109C17.5102 19.0407 16.9292 19.0309 11.602 19.0309H5.7036V14.7389C5.7036 10.0514 5.68406 10.3883 5.97215 10.3883C6.03074 10.3883 6.29442 10.3346 6.54832 10.2711C8.2866 9.83169 9.66844 8.48892 10.1665 6.76529C10.2348 6.53579 10.3032 6.20864 10.3227 6.04751L10.3569 5.74966L14.2436 5.75943L18.1304 5.77407L18.3354 5.8815ZM15.4985 20.0319C15.2055 20.4127 15.1079 20.7399 15.1079 21.3502C15.103 21.9655 15.1763 22.2487 15.4497 22.6491C15.5425 22.7858 15.6157 22.9079 15.6157 22.9176C15.6157 22.9274 12.9399 22.9323 9.67332 22.9274L3.72606 22.9127L3.47703 22.8004C3.16453 22.6588 2.8618 22.3512 2.71531 22.0338C2.54442 21.6579 2.55418 21.0573 2.73973 20.6813C2.92039 20.3102 3.24266 20.0319 3.62352 19.9098C3.9116 19.8219 4.12645 19.817 9.79051 19.817L15.6645 19.8122L15.4985 20.0319Z" fill="#00EEFF"/>
<path d="M4.92195 2.53199C4.78523 2.61012 4.26765 3.26441 3.98933 3.70875C3.97468 3.73316 3.65241 3.84547 3.28132 3.95289C2.91023 4.06031 2.5489 4.18727 2.47566 4.24098C2.19245 4.44117 2.10456 4.90504 2.29011 5.20777C2.34382 5.30055 2.55867 5.58375 2.75886 5.83766L3.12507 6.29664L3.09089 6.89234C3.07136 7.21949 3.07136 7.57105 3.09089 7.66871C3.13972 7.91285 3.37898 8.16188 3.64265 8.24488C3.84773 8.30348 3.88679 8.29859 4.58503 8.0691L5.31257 7.82984L6.01081 8.0691C6.78718 8.33277 6.94343 8.33766 7.21687 8.10816C7.48054 7.88844 7.50984 7.78102 7.50984 6.98023V6.2527L7.92488 5.73023C8.14949 5.44703 8.35945 5.12965 8.39363 5.02711C8.50593 4.64137 8.24226 4.2068 7.81745 4.09449C7.71491 4.0652 7.41218 3.9773 7.14363 3.90406L6.65534 3.76246L6.24031 3.18141C5.79109 2.55152 5.63484 2.42945 5.28816 2.42945C5.18074 2.42945 5.01472 2.47828 4.92195 2.53199ZM5.69343 3.75758C5.90827 4.06031 6.12312 4.34352 6.17195 4.38746C6.22566 4.43141 6.56257 4.55348 6.9239 4.65602C7.28523 4.75367 7.58796 4.84156 7.59773 4.85133C7.60749 4.85621 7.41706 5.115 7.17292 5.42262L6.72859 5.98414V6.72145C6.72859 7.12672 6.70905 7.45875 6.68952 7.45875C6.66511 7.45875 6.35749 7.36109 6.00105 7.23902C5.6446 7.11695 5.32722 7.0193 5.29304 7.0193C5.25886 7.0193 4.97077 7.11695 4.64851 7.23414C4.33113 7.35133 4.01374 7.46363 3.95515 7.48316L3.83796 7.51734L3.87214 6.85816C3.89167 6.49684 3.89656 6.14039 3.87702 6.07691C3.86238 6.00855 3.66218 5.71559 3.43269 5.4275C3.2032 5.13941 3.01765 4.89039 3.01765 4.87086C3.01765 4.85133 3.27644 4.76832 3.59382 4.68043C4.4532 4.43629 4.40925 4.47047 4.86824 3.80152C5.09773 3.47926 5.28816 3.2107 5.29304 3.2107C5.29792 3.2107 5.47859 3.45973 5.69343 3.75758Z" fill="#00EEFF"/>
<path d="M11.8604 9.70949C10.8594 9.83645 9.82422 10.4126 9.25781 11.1548C8.94043 11.5698 8.80371 11.8238 8.62305 12.3413C8.47168 12.7857 8.4668 12.8394 8.46191 13.5376C8.46191 14.1724 8.47656 14.3189 8.57422 14.6363C8.9209 15.7349 9.61914 16.5698 10.6104 17.0581C11.1719 17.3316 11.5137 17.4195 12.1484 17.4536C13.3008 17.5122 14.2041 17.1655 15.0342 16.3452C16.0596 15.3296 16.4502 13.9966 16.1182 12.6294L16.04 12.2876L16.7285 11.5894C17.1094 11.2085 17.4219 10.857 17.4219 10.8081C17.4219 10.6861 17.29 10.4517 17.2021 10.4175C16.958 10.3247 16.8701 10.3833 16.2744 10.9741L15.6885 11.5601L15.4688 11.2622C14.834 10.3882 13.9062 9.84133 12.832 9.70949C12.373 9.6509 12.3096 9.6509 11.8604 9.70949ZM12.7588 10.4859C13.2715 10.5591 13.6768 10.7154 14.082 10.9839C14.4385 11.2232 14.8291 11.6382 15.0098 11.98L15.1025 12.146L14.1016 13.147C13.5498 13.6988 13.0811 14.148 13.0566 14.148C13.0273 14.148 12.7197 13.8599 12.3682 13.5132C11.8018 12.9517 11.7041 12.8784 11.5625 12.8784C11.333 12.8784 11.1719 13.0396 11.1719 13.2642C11.1719 13.4253 11.2402 13.5034 12.0166 14.2798C12.7783 15.0366 12.8809 15.1245 13.0273 15.1245C13.1787 15.1245 13.2959 15.022 14.2822 14.0405C14.8779 13.4448 15.3857 12.9761 15.4053 12.9956C15.4834 13.0689 15.4443 14.065 15.3516 14.3628C14.9121 15.8228 13.6377 16.7554 12.1777 16.6773C10.5176 16.5845 9.21875 15.232 9.21875 13.5864C9.21875 11.9312 10.3809 10.6616 12.0752 10.4663C12.3486 10.437 12.417 10.437 12.7588 10.4859Z" fill="#00EEFF"/>
<path d="M10.503 0.31543C10.4248 0.344727 9.585 1.35547 9.54594 1.46289C9.50199 1.58008 9.59965 1.83398 9.70707 1.89258C9.7559 1.92188 9.86332 1.94141 9.93657 1.94141C10.0879 1.94141 10.2393 1.80469 10.7178 1.2334C11.128 0.745117 11.1524 0.642578 10.9327 0.422852C10.8008 0.291016 10.6495 0.251953 10.503 0.31543Z" fill="#00EEFF"/>
<path d="M11.3239 2.98633C10.7526 3.04492 10.7136 3.05469 10.6013 3.18652C10.3669 3.45996 10.5622 3.79688 10.9528 3.79688C11.3727 3.79688 12.1784 3.68945 12.2809 3.62109C12.4079 3.53809 12.4665 3.3623 12.4226 3.18652C12.3884 3.05957 12.1638 2.91309 12.0173 2.92285C11.9684 2.92773 11.6559 2.95703 11.3239 2.98633Z" fill="#00EEFF"/>
</svg>
