<svg width="26" height="26" viewBox="0 0 26 26" fill="none" xmlns="http://www.w3.org/2000/svg">
<path d="M14.6051 0.139883C14.5102 0.245352 14.5049 0.382462 14.4891 2.96117L14.4732 5.67172H14.1885H13.8984V3.96313C13.8984 2.4391 13.8879 2.24926 13.8088 2.18598C13.7402 2.12797 13.4186 2.11215 12.2268 2.11215H10.7238L10.6236 2.23871C10.5287 2.35473 10.5234 2.46547 10.5234 4.01586V5.67172H10.2334H9.94336V5.14965C9.94336 4.74359 9.92227 4.60648 9.85898 4.5432C9.79043 4.46937 9.56895 4.45883 8.25586 4.45883C6.4418 4.45883 6.56836 4.40609 6.56836 5.18129V5.67172H3.91582C0.994336 5.67172 0.983789 5.67172 0.593555 5.9934C0.482813 6.08305 0.329883 6.27816 0.250781 6.43109L0.108398 6.70004V13.0809C0.108398 19.1295 0.113672 19.4723 0.20332 19.7096C0.319336 20.0155 0.720117 20.3899 1.0207 20.4795C1.16836 20.527 2.01211 20.5428 4.00547 20.5428H6.7793V21.1493V21.7504L4.7332 21.7662C2.8875 21.7821 2.68184 21.7926 2.55527 21.877C2.48145 21.9245 2.3918 22.0299 2.36016 22.1037C2.26523 22.3041 2.28105 23.3588 2.37598 23.5487C2.55 23.8862 2.1334 23.8651 9.17871 23.8651H15.5965L15.8338 24.1287C16.1397 24.4715 16.7092 24.9198 16.8357 24.9198C16.8938 24.9198 17.0783 24.8143 17.2576 24.6825L17.574 24.4452L17.8852 24.5981C18.0539 24.6877 18.3281 24.7985 18.4969 24.8512C18.8291 24.9514 18.8291 24.9567 18.8818 25.3996C18.8977 25.5631 18.9451 25.7424 18.982 25.7899C19.1508 26.0219 20.9279 26.0325 21.1547 25.811C21.1969 25.7688 21.2602 25.5578 21.2971 25.3416L21.3604 24.9567L21.7031 24.8407C21.893 24.7774 22.1672 24.6614 22.3148 24.5875L22.5891 24.4504L22.8949 24.6825C23.0689 24.8143 23.2588 24.9198 23.3221 24.9198C23.3801 24.9198 23.5488 24.8301 23.6912 24.7194C24.0287 24.4504 24.7617 23.67 24.8197 23.5118C24.8725 23.3694 24.8145 23.2428 24.5455 22.8789L24.382 22.6627L24.5191 22.378C24.593 22.225 24.709 21.9455 24.7775 21.7557L24.8988 21.4182L25.2785 21.3602C25.4895 21.3286 25.6951 21.2653 25.7426 21.2231C25.9377 21.0227 25.943 19.2719 25.7479 19.0768C25.7057 19.0399 25.4947 18.9819 25.2732 18.9502L24.8777 18.8922L24.8145 18.676C24.7828 18.56 24.6721 18.2752 24.5666 18.0537L24.3768 17.6477L24.5877 17.3682C24.8566 17.0096 24.8725 16.9621 24.7828 16.7565C24.6457 16.4295 23.5172 15.3748 23.3063 15.3748C23.2693 15.3748 23.0953 15.4856 22.916 15.6174L22.5838 15.86L22.2516 15.6965C22.0617 15.6069 21.7822 15.4909 21.6293 15.4434L21.3393 15.3537L21.3076 15.0901C21.2285 14.452 21.218 14.4362 20.7434 14.3834L20.4111 14.3465L20.3848 10.4969C20.3531 6.2307 20.3742 6.45746 20.0051 6.08305C19.6729 5.75609 19.4988 5.70336 18.6604 5.68226L17.9063 5.66117V2.99809C17.9063 0.345549 17.8957 0.182072 17.727 0.0713291C17.6953 0.0502357 17.0045 0.0291424 16.1871 0.0291424C14.7475 0.0291424 14.7053 0.0344143 14.6051 0.139883ZM17.2629 6.73695L17.2471 12.8172L16.2082 12.833L15.1641 12.8436V6.75277V0.661955H16.2188H17.2734L17.2629 6.73695ZM13.2656 7.78109V12.8436L12.2268 12.833L11.1826 12.8172L11.1668 7.83383C11.1615 5.09164 11.1668 2.81879 11.1826 2.78188C11.1984 2.73442 11.4621 2.71859 12.2373 2.71859H13.2656V7.78109ZM9.31055 8.96762V12.8436H8.25586H7.20117V8.96762V5.09164H8.25586H9.31055V8.96762ZM6.56836 9.75863V13.218L6.7002 13.3446L6.82676 13.4764H8.26641C9.48457 13.4764 9.72715 13.4659 9.82734 13.392L9.94336 13.3129V9.80609V6.30453H10.2334H10.5234V9.75863V13.218L10.6553 13.3446L10.7818 13.4764H12.2215C13.4396 13.4764 13.6822 13.4659 13.7824 13.392L13.8984 13.3129V9.80609V6.30453H14.1885H14.4732L14.4891 9.79027L14.5049 13.276L14.6314 13.3762C14.7475 13.4711 14.8529 13.4764 16.2029 13.4764H17.6479L17.7744 13.3446L17.9063 13.218V9.75863V6.30453H18.5549C19.2932 6.30453 19.4936 6.37309 19.657 6.67894C19.7467 6.84769 19.752 7.07445 19.752 10.6077V14.3623L19.4355 14.3834C19.0189 14.4151 18.924 14.4995 18.8818 14.9213C18.8607 15.1059 18.8291 15.2746 18.808 15.3063C18.7922 15.3327 18.6234 15.4118 18.4336 15.475C18.2438 15.5436 17.9748 15.6596 17.8324 15.7282L17.574 15.86L17.3578 15.6965C17.2418 15.6016 17.0678 15.4909 16.9729 15.4434C16.8094 15.359 16.7988 15.3643 16.5984 15.4909C16.1186 15.8125 15.3223 16.6985 15.3223 16.92C15.3223 16.9727 15.4066 17.1362 15.5068 17.2733C15.607 17.4104 15.6914 17.537 15.6914 17.558C15.6914 17.5739 12.327 17.5844 8.21895 17.5791L0.741211 17.5633V12.1844V6.80551L0.867774 6.62621C1.0998 6.30453 1.06289 6.3098 3.94746 6.30453H6.56836V9.75863ZM20.6273 15.0215C20.6432 15.0321 20.6748 15.1797 20.7012 15.3485C20.7855 15.8758 20.7539 15.8442 21.3867 16.034C21.5449 16.0815 21.8877 16.2239 22.1408 16.3557C22.6576 16.6141 22.6365 16.6194 23.0689 16.2924C23.3432 16.0815 23.3484 16.0815 23.802 16.5561L24.1395 16.9041L23.9443 17.1573C23.6121 17.595 23.6121 17.5791 23.8811 18.1012C24.0129 18.3543 24.1711 18.7393 24.2344 18.9502C24.2977 19.1612 24.3873 19.3668 24.4242 19.409C24.4664 19.4512 24.6404 19.4987 24.8092 19.5198C24.9779 19.5356 25.1414 19.5672 25.173 19.5883C25.2311 19.62 25.268 20.0787 25.2469 20.4954L25.2363 20.7432L24.8883 20.7801C24.4559 20.8276 24.3346 20.9278 24.2397 21.3444C24.2027 21.5079 24.0604 21.8717 23.9127 22.1512C23.7703 22.4307 23.6543 22.6786 23.6543 22.7049C23.6543 22.726 23.765 22.8948 23.8969 23.0741L24.1395 23.4063L23.7545 23.7912C23.5383 24.0075 23.3484 24.1815 23.3221 24.1815C23.301 24.1815 23.1533 24.0866 23.0004 23.9705C22.8475 23.8545 22.6734 23.7596 22.6102 23.7596C22.5522 23.7596 22.3307 23.8545 22.1145 23.9653C21.9035 24.0813 21.5502 24.2237 21.334 24.287C20.8383 24.4346 20.7592 24.5084 20.717 24.8723C20.6643 25.3416 20.6643 25.3416 20.1053 25.3416C19.8363 25.3416 19.5938 25.3205 19.5568 25.2995C19.5252 25.2784 19.4777 25.1307 19.4566 24.9725C19.3934 24.4768 19.3828 24.4662 18.8818 24.3133C18.634 24.2395 18.2543 24.0813 18.0328 23.9705C17.8166 23.8545 17.5951 23.7596 17.5424 23.7596C17.4897 23.7596 17.3156 23.8545 17.1522 23.9705C16.9201 24.1393 16.8305 24.1762 16.7619 24.134C16.6406 24.0707 16.0605 23.4643 16.0605 23.4063C16.0605 23.3799 16.1555 23.227 16.2715 23.0741C16.3875 22.9211 16.4824 22.7524 16.4824 22.6996C16.4824 22.6469 16.3875 22.436 16.2768 22.2198C16.1607 22.0088 16.0025 21.6291 15.9287 21.3707C15.8496 21.1176 15.76 20.8961 15.7283 20.875C15.6914 20.8539 15.5016 20.8118 15.2959 20.7854L14.9268 20.7274L14.9109 20.1631C14.8951 19.525 14.8582 19.5725 15.3855 19.5145C15.549 19.4987 15.7072 19.4512 15.7389 19.4143C15.7705 19.3774 15.8654 19.1295 15.9551 18.8606C16.0395 18.5916 16.1977 18.2225 16.2979 18.0432C16.398 17.8586 16.4824 17.6688 16.4824 17.6161C16.4824 17.5633 16.3875 17.3946 16.2715 17.2416C16.1555 17.0887 16.0605 16.9463 16.0605 16.9252C16.0605 16.8567 16.3928 16.477 16.6143 16.2924L16.8463 16.1079L17.1363 16.3241C17.2945 16.4454 17.4686 16.5455 17.5213 16.5508C17.5793 16.5508 17.8113 16.4612 18.0434 16.3399C18.2701 16.2186 18.6393 16.0709 18.8555 16.0077C19.0717 15.9444 19.2879 15.8495 19.3354 15.7914C19.3881 15.7387 19.4408 15.5489 19.4619 15.3537C19.4936 15.0373 19.5041 15.011 19.6359 14.9846C19.7994 14.9582 20.5904 14.9846 20.6273 15.0215ZM15.4805 18.2541C15.4805 18.2752 15.433 18.4282 15.3697 18.5969L15.259 18.9028L14.9215 18.9397C14.4363 18.9871 14.3414 19.0821 14.2939 19.5409L14.257 19.91H7.72324H1.18945L0.999609 19.736C0.778125 19.5303 0.720117 19.3141 0.714844 18.6813V18.2225H8.09766C12.1582 18.2225 15.4805 18.2383 15.4805 18.2541ZM13.0969 21.1598L13.1127 21.7557H10.2598H7.41211V21.1493V20.5428L10.2492 20.5534L13.0811 20.5692L13.0969 21.1598ZM14.2887 20.7063C14.3045 20.7959 14.3203 20.9278 14.3203 20.9963C14.3203 21.2178 14.4891 21.3233 14.8951 21.3655C15.2432 21.3971 15.2643 21.4077 15.317 21.5606C15.3486 21.645 15.375 21.7293 15.375 21.7346C15.375 21.7452 15.0059 21.7557 14.5576 21.7557H13.7402V21.1493V20.5428H13.9986C14.2412 20.5428 14.257 20.5481 14.2887 20.7063ZM15.7125 22.5203C15.7969 22.6522 15.7969 22.6627 15.5754 22.9422L15.3486 23.2323H9.1418H2.92969V22.8104V22.3885H9.27891H15.6281L15.7125 22.5203Z" fill="#00EEFF"/>
<path d="M2.7188 7.25337C2.61333 7.35884 2.61333 7.42739 2.61333 10.3067C2.61333 13.5077 2.60278 13.3811 2.89282 13.4497C2.9561 13.4655 3.64692 13.476 4.42212 13.4655C5.7563 13.4497 5.84067 13.4444 5.9145 13.3495C5.97778 13.2598 5.98833 12.7536 5.98833 10.2803V7.31138L5.87231 7.23228C5.77212 7.15845 5.52954 7.1479 4.29028 7.1479C2.89282 7.1479 2.81899 7.15318 2.7188 7.25337ZM5.35552 10.312V12.8432H4.30083H3.24614V10.312V7.78071H4.30083H5.35552V10.312Z" fill="#00EEFF"/>
<path d="M2.71895 14.4785C2.59239 14.6051 2.58712 14.7316 2.69786 14.8898L2.77696 15.0059H6.03594C9.12618 15.0059 9.3002 15.0006 9.3793 14.9109C9.50586 14.7738 9.49004 14.5523 9.35293 14.4574C9.24747 14.3836 8.84668 14.373 6.03067 14.373C2.89298 14.373 2.82442 14.373 2.71895 14.4785Z" fill="#00EEFF"/>
<path d="M2.79766 15.9655C2.58672 16.0815 2.54981 16.303 2.70801 16.4454C2.79766 16.5298 3.1668 16.535 6.92676 16.535C11.4566 16.535 11.2088 16.5509 11.2088 16.2186C11.2088 15.8917 11.3828 15.9022 6.93731 15.9022C4.03164 15.9075 2.87149 15.9233 2.79766 15.9655Z" fill="#00EEFF"/>
<path d="M19.2777 17.6053C18.1914 17.9744 17.5375 18.7971 17.4057 19.9625C17.3371 20.5584 17.6219 21.4127 18.0648 21.9242C19.0457 23.058 20.9072 23.1213 21.9566 22.0561C22.8057 21.1912 22.9902 20.0258 22.4523 18.9184C22.2625 18.5229 21.7088 17.9639 21.3291 17.7793C20.6594 17.4576 19.9 17.3943 19.2777 17.6053ZM20.9283 18.2908C21.3133 18.4649 21.7457 18.8973 21.9408 19.3033C22.0832 19.5881 22.099 19.6725 22.099 20.1471C22.099 20.6111 22.0832 20.7113 21.9566 20.975C21.3449 22.2828 19.6469 22.6045 18.6449 21.5973C17.8434 20.801 17.8381 19.5143 18.6291 18.7233C19.0668 18.2856 19.5098 18.1115 20.1479 18.1326C20.5275 18.1432 20.6805 18.1748 20.9283 18.2908Z" fill="#00EEFF"/>
</svg>
