<svg width="24" height="22" viewBox="0 0 24 22" fill="none" xmlns="http://www.w3.org/2000/svg">
<path d="M11.6342 0.360452C11.0336 0.448342 10.3304 0.921975 10.0228 1.44932C9.70056 1.99619 9.60291 2.81162 9.79334 3.36338L9.88123 3.61729L9.56384 3.77354C8.18201 4.44737 7.09314 5.77549 6.70252 7.2501C6.31677 8.69541 6.52185 10.2189 7.26404 11.4884C8.34314 13.3194 10.4525 14.3985 12.5326 14.1788C14.8763 13.9347 16.766 12.3087 17.3568 10.0333C17.6644 8.82725 17.5082 7.35752 16.9467 6.23936C16.4437 5.24326 15.5062 4.30088 14.5199 3.79307C14.2513 3.65635 14.1537 3.58311 14.1781 3.5294C14.4174 2.9044 14.3881 2.23545 14.1 1.63975C13.6459 0.72178 12.6644 0.209085 11.6342 0.360452ZM12.6693 1.04893C13.2357 1.25889 13.6947 1.88877 13.7435 2.51865C13.7728 2.87998 13.6556 3.38291 13.5385 3.38291C13.4799 3.38291 13.4652 3.30967 13.4652 3.02647C13.4652 2.58213 13.3627 2.26963 13.1429 2.04502C12.8549 1.75205 12.723 1.70323 12.0931 1.68369C11.5902 1.66416 11.5023 1.67881 11.2777 1.77158C11.0043 1.88877 10.7601 2.13291 10.6527 2.38682C10.6136 2.48448 10.5844 2.72373 10.5844 2.96787C10.5844 3.34385 10.5746 3.3878 10.5013 3.37315C10.2523 3.32432 10.223 2.33799 10.4574 1.87901C10.6967 1.41514 11.1752 1.04405 11.6781 0.941506C11.9418 0.887795 12.3519 0.926858 12.6693 1.04893ZM12.5912 2.34287C12.7767 2.4503 12.8793 2.67979 12.8793 2.97764V3.21201H12.0248H11.1703V2.92881C11.1703 2.5919 11.2191 2.48448 11.4291 2.35752C11.639 2.22569 12.3812 2.2208 12.5912 2.34287ZM12.5717 3.82237C14.222 4.03233 15.5746 4.94541 16.3461 6.37608C17.6547 8.79795 16.683 11.8644 14.222 13.0899C13.4554 13.4708 12.8549 13.6075 11.976 13.6026C10.9554 13.6026 10.1644 13.3585 9.30994 12.8019C7.27381 11.464 6.52185 8.82725 7.55213 6.6251C7.82068 6.05869 8.099 5.6583 8.5531 5.21397C9.18299 4.59873 9.81775 4.21787 10.6088 3.99326C11.3314 3.79307 11.9125 3.73936 12.5717 3.82237Z" fill="#00EEFF"/>
<path d="M11.365 4.41308C10.4031 4.55956 9.34351 5.15038 8.72828 5.87792C8.39136 6.27831 8.07398 6.8496 7.8982 7.36718C7.7566 7.79686 7.73218 7.9287 7.71265 8.51464C7.68824 9.26659 7.7566 9.68651 8.00074 10.3066C8.41578 11.3564 9.37769 12.3183 10.408 12.7139C10.9646 12.9287 11.4041 13.0068 12.0291 13.0068C14.3289 13.0117 16.1892 11.2441 16.3259 8.92479C16.448 6.89354 15.0466 4.98436 13.074 4.50585C12.5857 4.38866 11.8093 4.34472 11.365 4.41308ZM12.6541 5.01854C15.2273 5.46776 16.5603 8.36327 15.2273 10.6094C14.5584 11.7373 13.3621 12.416 12.0486 12.4258C10.9402 12.4307 10.0466 12.0449 9.2898 11.2392C8.87476 10.7949 8.6648 10.4531 8.46949 9.89159C8.34254 9.52538 8.31812 9.37401 8.29859 8.84667C8.27906 8.33397 8.29371 8.16308 8.3816 7.82128C8.65015 6.75683 9.31421 5.90233 10.2468 5.40917C11.0574 4.98436 11.7752 4.86718 12.6541 5.01854Z" fill="#00EEFF"/>
<path d="M13.0887 6.22449C13.035 6.28797 12.825 6.63465 12.615 6.99598L12.2391 7.65516H11.9803C11.4383 7.66492 11.0184 8.07508 10.9842 8.63172C10.9647 8.89539 10.9842 8.97352 11.0965 9.18836C11.2918 9.54481 11.5408 9.70106 11.951 9.72059C12.2098 9.73524 12.3172 9.72059 12.4734 9.63758C13.0301 9.35438 13.2352 8.6366 12.8982 8.14344C12.8348 8.04578 12.7811 7.94813 12.7811 7.9286C12.7811 7.90418 12.9568 7.58192 13.1717 7.21082C13.577 6.51258 13.6258 6.3368 13.4744 6.20008C13.3475 6.08777 13.2059 6.09754 13.0887 6.22449ZM12.3611 8.41688C12.4783 8.54871 12.493 8.60242 12.4686 8.74891C12.4344 8.98328 12.244 9.14442 12.0047 9.14442C11.5359 9.14442 11.3846 8.51942 11.7947 8.28992C11.9803 8.18738 12.1951 8.23621 12.3611 8.41688Z" fill="#00EEFF"/>
<path d="M0.876953 15.2285C0.808594 15.2725 0.769531 15.3555 0.769531 15.4385C0.769531 15.5215 1.06738 16.1465 1.50684 16.9863C1.91699 17.7627 2.24902 18.4219 2.24902 18.4512C2.24902 18.4756 1.91699 19.1396 1.51172 19.9209C1.10156 20.7021 0.769531 21.3955 0.769531 21.4639C0.769531 21.5322 0.803711 21.625 0.847656 21.6641C0.916016 21.7324 1.88281 21.7422 10.7744 21.7422H20.623L20.7744 21.5811C20.8574 21.498 21.4531 20.7803 22.1025 19.9941C22.8545 19.0811 23.2793 18.5244 23.2793 18.4561C23.2793 18.3877 22.8301 17.8018 22.0342 16.835C21.3457 16 20.7402 15.2822 20.6816 15.2334C20.5889 15.1553 20.0469 15.1504 10.7842 15.1504C1.99512 15.1504 0.974609 15.1602 0.876953 15.2285ZM5.38867 17.0596C6.02344 17.792 6.5459 18.4121 6.55078 18.4463C6.55078 18.4805 6.03809 19.1006 5.4082 19.8281L4.26074 21.1514L2.9082 21.1562C2.16113 21.1562 1.55078 21.1465 1.55078 21.1318C1.55078 21.1172 1.84863 20.5312 2.21484 19.833C2.58105 19.1348 2.88379 18.5146 2.88379 18.4561C2.88379 18.3975 2.5957 17.7969 2.24414 17.1279C1.89258 16.4541 1.58984 15.8682 1.57031 15.8193C1.54102 15.7412 1.62402 15.7363 2.88379 15.7363H4.23145L5.38867 17.0596ZM9.57812 17.0938L10.7695 18.4561L9.58789 19.8037L8.41113 21.1562H6.74121C5.81836 21.1562 5.06641 21.1465 5.06641 21.1318C5.06641 21.1172 5.55957 20.541 6.16504 19.8525C7.05371 18.8369 7.26367 18.5684 7.26367 18.4561C7.26367 18.3438 7.06836 18.0898 6.25293 17.1621C5.70117 16.5225 5.19336 15.9463 5.125 15.8682L4.99805 15.7363H6.69238H8.38184L9.57812 17.0938ZM12.5615 15.7754C12.5908 15.7949 13.084 16.3467 13.6602 17.0059C14.2314 17.665 14.7539 18.2607 14.8174 18.3291L14.9297 18.4512L13.748 19.8037L12.5713 21.1562H10.8867C9.2998 21.1562 9.20703 21.1514 9.27051 21.0732C9.30957 21.0244 9.79785 20.4629 10.3545 19.8184C10.916 19.1787 11.3945 18.6025 11.4238 18.5391C11.4629 18.4512 11.458 18.3975 11.4043 18.3145C11.3604 18.251 10.8525 17.6602 10.2715 16.9961C9.69043 16.3369 9.2168 15.7803 9.2168 15.7656C9.2168 15.7217 12.5029 15.7314 12.5615 15.7754ZM17.7617 16.9375C18.3379 17.6016 18.8701 18.2119 18.9482 18.2998L19.0801 18.4609L17.9033 19.8086L16.7314 21.1562H15.042C13.4355 21.1562 13.3574 21.1514 13.4258 21.0684C13.4648 21.0244 13.9727 20.4385 14.5537 19.7744C15.1396 19.1104 15.6133 18.5244 15.6133 18.4756C15.6133 18.3584 15.5645 18.2949 14.3828 16.9473C13.8213 16.3125 13.3672 15.7754 13.3672 15.7607C13.3672 15.7461 14.1191 15.7363 15.042 15.7363H16.7168L17.7617 16.9375ZM21.3994 16.9863C21.9658 17.6699 22.4639 18.2852 22.5127 18.3486L22.6006 18.4658L21.4873 19.8135L20.3789 21.1562H18.9385H17.498L17.625 21.0244C17.7373 20.8975 19.251 19.1592 19.6074 18.749C19.6904 18.6465 19.7637 18.5146 19.7637 18.4512C19.7637 18.373 19.4219 17.9482 18.6699 17.0889C18.0645 16.4004 17.5566 15.8145 17.542 15.7852C17.5225 15.751 17.9912 15.7363 18.9434 15.7363L20.374 15.7412L21.3994 16.9863Z" fill="#00EEFF"/>
</svg>
